M48
INCH
T20C0.038
T19C0.128
%
T20
X069000Y043220
X067000Y043220
X069000Y041660
X067000Y041660
X067000Y040100
X069000Y040100
X069000Y038540
X069000Y036980
X069000Y035420
X069000Y033860
X069000Y032300
X069000Y030740
X069000Y029180
X069000Y027620
X067000Y038540
X067000Y036980
X067000Y035420
X067000Y033860
X067000Y032300
X067000Y030740
X067000Y029180
X067000Y027620
X083000Y043220
X081000Y043220
X083000Y041660
X081000Y041660
X081000Y040100
X083000Y040100
X083000Y038540
X083000Y036980
X083000Y035420
X083000Y033860
X083000Y032300
X083000Y030740
X083000Y029180
X083000Y027620
X081000Y038540
X081000Y036980
X081000Y035420
X081000Y033860
X081000Y032300
X081000Y030740
X081000Y029180
X081000Y027620
X074000Y041660
X074000Y040100
X074000Y038540
X074000Y036980
X074000Y035420
X074000Y033860
X074000Y032300
X074000Y030740
X074000Y029180
X074000Y027620
X074000Y043220
X076000Y043220
X076000Y041660
X076000Y040100
X076000Y038540
X076000Y036980
X076000Y035420
X076000Y033860
X076000Y032300
X076000Y030740
X076000Y029180
X076000Y027620
X097000Y026060
X095000Y026060
X097000Y021380
X095000Y021380
X111000Y026060
X109000Y026060
X109000Y024500
X109000Y022940
X109000Y021380
X111000Y024500
X111000Y022940
X111000Y021380
X097000Y024500
X095000Y024500
X097000Y022940
X095000Y022940
X125000Y026060
X123000Y026060
X139000Y026060
X137000Y026060
X130000Y026060
X132000Y026060
X125000Y024500
X123000Y024500
X139000Y024500
X137000Y024500
X130000Y024500
X132000Y024500
X125000Y022940
X123000Y022940
X139000Y022940
X137000Y022940
X130000Y022940
X132000Y022940
X097000Y043220
X095000Y043220
X097000Y041660
X095000Y041660
X095000Y040100
X097000Y040100
X097000Y038540
X097000Y036980
X097000Y035420
X097000Y033860
X097000Y032300
X097000Y030740
X097000Y029180
X097000Y027620
X095000Y038540
X095000Y036980
X095000Y035420
X095000Y033860
X095000Y032300
X095000Y030740
X095000Y029180
X095000Y027620
X111000Y043220
X109000Y043220
X111000Y041660
X109000Y041660
X109000Y040100
X111000Y040100
X111000Y038540
X111000Y036980
X111000Y035420
X111000Y033860
X111000Y032300
X111000Y030740
X111000Y029180
X111000Y027620
X109000Y038540
X109000Y036980
X109000Y035420
X109000Y033860
X109000Y032300
X109000Y030740
X109000Y029180
X109000Y027620
X067000Y026060
X067000Y024500
X067000Y022940
X067000Y021380
X067000Y019820
X067000Y018260
X067000Y016700
X067000Y015140
X067000Y013580
X067000Y012020
X067000Y010460
X083000Y026060
X083000Y024500
X083000Y022940
X081000Y026060
X081000Y024500
X081000Y022940
X083000Y021380
X081000Y021380
X083000Y019820
X081000Y019820
X083000Y018260
X081000Y018260
X097000Y019820
X095000Y019820
X095000Y018260
X097000Y018260
X097000Y016700
X097000Y015140
X097000Y013580
X097000Y012020
X097000Y010460
X095000Y016700
X095000Y015140
X095000Y013580
X095000Y012020
X095000Y010460
X083000Y016700
X081000Y016700
X081000Y015140
X081000Y013580
X081000Y012020
X083000Y015140
X083000Y013580
X083000Y012020
X083000Y010460
X081000Y010460
X074000Y010460
X076000Y010460
X074000Y016700
X076000Y016700
X074000Y015140
X076000Y015140
X076000Y013580
X076000Y012020
X074000Y013580
X074000Y012020
X074000Y026060
X076000Y026060
X076000Y024500
X074000Y024500
X074000Y022940
X074000Y021380
X074000Y019820
X074000Y018260
X076000Y022940
X076000Y021380
X076000Y019820
X076000Y018260
X125000Y043220
X123000Y043220
X125000Y041660
X123000Y041660
X123000Y040100
X125000Y040100
X125000Y038540
X125000Y036980
X125000Y035420
X125000Y033860
X125000Y032300
X125000Y030740
X125000Y029180
X125000Y027620
X123000Y038540
X123000Y036980
X123000Y035420
X123000Y033860
X123000Y032300
X123000Y030740
X123000Y029180
X123000Y027620
X139000Y043220
X137000Y043220
X139000Y041660
X137000Y041660
X137000Y040100
X139000Y040100
X139000Y038540
X139000Y036980
X139000Y035420
X139000Y033860
X139000Y032300
X139000Y030740
X139000Y029180
X139000Y027620
X137000Y038540
X137000Y036980
X137000Y035420
X137000Y033860
X137000Y032300
X137000Y030740
X137000Y029180
X137000Y027620
X130000Y041660
X130000Y040100
X130000Y038540
X130000Y036980
X130000Y035420
X130000Y033860
X130000Y032300
X130000Y030740
X130000Y029180
X130000Y027620
X130000Y043220
X132000Y043220
X132000Y041660
X132000Y040100
X132000Y038540
X132000Y036980
X132000Y035420
X132000Y033860
X132000Y032300
X132000Y030740
X132000Y029180
X132000Y027620
X111000Y015140
X111000Y013580
X111000Y012020
X111000Y010460
X109000Y016700
X109000Y015140
X109000Y013580
X109000Y012020
X109000Y010460
X132000Y015140
X132000Y013580
X132000Y012020
X132000Y010460
X111000Y019820
X111000Y018260
X111000Y016700
X109000Y019820
X125000Y019820
X123000Y019820
X109000Y018260
X125000Y018260
X125000Y016700
X125000Y015140
X125000Y013580
X125000Y012020
X125000Y010460
X123000Y018260
X125000Y021380
X123000Y021380
X130000Y021380
X139000Y021380
X139000Y019820
X137000Y021380
X137000Y019820
X130000Y019820
X132000Y021380
X132000Y019820
X123000Y016700
X130000Y018260
X132000Y018260
X139000Y015140
X139000Y013580
X139000Y012020
X139000Y010460
X137000Y015140
X137000Y013580
X139000Y018260
X139000Y016700
X137000Y018260
X137000Y016700
X123000Y015140
X130000Y010460
X123000Y013580
X123000Y012020
X123000Y010460
X137000Y012020
X137000Y010460
X130000Y016700
X130000Y015140
X130000Y013580
X130000Y012020
X132000Y016700
X011000Y043220
X011000Y041660
X011000Y040100
X011000Y038540
X011000Y036980
X013000Y043220
X013000Y041660
X013000Y040100
X013000Y038540
X013000Y036980
X013000Y035420
X011000Y035420
X013000Y033860
X011000Y033860
X013000Y032300
X011000Y032300
X011000Y030740
X011000Y029180
X011000Y027620
X013000Y030740
X013000Y029180
X013000Y027620
X027000Y043220
X025000Y043220
X020000Y043220
X027000Y041660
X025000Y041660
X025000Y040100
X027000Y040100
X027000Y038540
X027000Y036980
X027000Y035420
X027000Y033860
X027000Y032300
X027000Y030740
X027000Y029180
X027000Y027620
X025000Y038540
X025000Y036980
X025000Y035420
X025000Y033860
X025000Y032300
X025000Y030740
X025000Y029180
X025000Y027620
X018000Y043220
X018000Y041660
X018000Y040100
X018000Y038540
X018000Y036980
X018000Y035420
X018000Y033860
X018000Y032300
X018000Y030740
X018000Y029180
X018000Y027620
X020000Y041660
X020000Y040100
X020000Y038540
X020000Y036980
X020000Y035420
X020000Y033860
X020000Y032300
X020000Y030740
X020000Y029180
X020000Y027620
X027000Y026060
X025000Y026060
X027000Y024500
X025000Y024500
X025000Y022940
X041000Y026060
X039000Y026060
X041000Y024500
X039000Y024500
X041000Y022940
X039000Y022940
X039000Y021380
X041000Y021380
X041000Y019820
X041000Y018260
X041000Y016700
X041000Y015140
X041000Y013580
X041000Y012020
X041000Y010460
X039000Y019820
X039000Y018260
X039000Y016700
X039000Y015140
X041000Y043220
X039000Y043220
X041000Y041660
X039000Y041660
X039000Y040100
X041000Y040100
X041000Y038540
X041000Y036980
X041000Y035420
X041000Y033860
X041000Y032300
X041000Y030740
X041000Y029180
X041000Y027620
X039000Y038540
X039000Y036980
X039000Y035420
X039000Y033860
X039000Y032300
X039000Y030740
X039000Y029180
X039000Y027620
X055000Y043220
X053000Y043220
X055000Y041660
X053000Y041660
X053000Y040100
X055000Y040100
X055000Y038540
X055000Y036980
X055000Y035420
X055000Y033860
X055000Y032300
X055000Y030740
X055000Y029180
X055000Y027620
X053000Y038540
X053000Y036980
X053000Y035420
X053000Y033860
X053000Y032300
X053000Y030740
X053000Y029180
X053000Y027620
X055000Y026060
X055000Y024500
X053000Y026060
X053000Y024500
X055000Y019820
X055000Y022940
X055000Y021380
X053000Y022940
X053000Y021380
X053000Y019820
X053000Y018260
X053000Y016700
X053000Y015140
X053000Y013580
X053000Y012020
X053000Y010460
X055000Y018260
X055000Y016700
X055000Y015140
X055000Y013580
X055000Y012020
X055000Y010460
X069000Y026060
X069000Y024500
X069000Y022940
X069000Y021380
X069000Y019820
X069000Y018260
X069000Y016700
X069000Y015140
X069000Y013580
X069000Y012020
X069000Y010460
X013000Y026060
X013000Y024500
X013000Y022940
X013000Y021380
X011000Y026060
X011000Y024500
X011000Y022940
X011000Y021380
X011000Y019820
X011000Y018260
X011000Y016700
X011000Y015140
X011000Y013580
X011000Y012020
X011000Y010460
X027000Y022940
X027000Y021380
X027000Y019820
X027000Y018260
X027000Y016700
X027000Y015140
X027000Y013580
X027000Y012020
X039000Y013580
X039000Y012020
X027000Y010460
X039000Y010460
X025000Y021380
X025000Y019820
X025000Y018260
X025000Y016700
X025000Y015140
X025000Y013580
X025000Y012020
X025000Y010460
X013000Y019820
X013000Y018260
X013000Y016700
X013000Y015140
X013000Y013580
X013000Y012020
X013000Y010460
X018000Y018260
X018000Y016700
X018000Y015140
X018000Y013580
X018000Y012020
X018000Y010460
X018000Y026060
X018000Y024500
X018000Y022940
X018000Y021380
X018000Y019820
X020000Y026060
X020000Y024500
X020000Y022940
X020000Y021380
X020000Y019820
X020000Y018260
X020000Y016700
X020000Y015140
X020000Y013580
X020000Y012020
X020000Y010460
T19
X068000Y047000
X075000Y047000
X082000Y047000
X096000Y047000
X110000Y047000
X075000Y006680
X124000Y047000
X131000Y047000
X138000Y047000
X110000Y006680
X124000Y006680
X138000Y006680
X131000Y006680
X012000Y006680
X019000Y006680
X026000Y006680
X040000Y006680
X054000Y006680
X068000Y006680
X082000Y006680
X096000Y006680
X012000Y047000
X026000Y047000
X019000Y047000
X040000Y047000
X054000Y047000
M30
