G04 start of page 8 for group -4062 idx -4062 *
G04 Title: (unknown), soldermask *
G04 Creator: pcb 20110918 *
G04 CreationDate: Fri Mar 28 21:41:01 2014 UTC *
G04 For: fosse *
G04 Format: Gerber/RS-274X *
G04 PCB-Dimensions: 1525000 500000 *
G04 PCB-Coordinate-Origin: lower left *
%MOIN*%
%FSLAX25Y25*%
%LNBOTTOMMASK*%
%ADD38C,0.0840*%
%ADD37C,0.2620*%
G54D37*X678000Y477500D03*
G54D38*X688000Y439700D03*
X668000D03*
G54D37*X759200Y477500D03*
G54D38*X688000Y424100D03*
X668000D03*
Y408500D03*
X688000D03*
Y392900D03*
Y377300D03*
Y361700D03*
Y346100D03*
Y330500D03*
Y314900D03*
Y299300D03*
Y283700D03*
X668000Y392900D03*
Y377300D03*
Y361700D03*
Y346100D03*
Y330500D03*
Y314900D03*
Y299300D03*
Y283700D03*
G54D37*X840500Y477500D03*
G54D38*X850500Y439700D03*
X830500D03*
X850500Y424100D03*
X830500D03*
Y408500D03*
X850500D03*
Y392900D03*
Y377300D03*
Y361700D03*
Y346100D03*
Y330500D03*
Y314900D03*
Y299300D03*
Y283700D03*
X830500Y392900D03*
Y377300D03*
Y361700D03*
Y346100D03*
Y330500D03*
Y314900D03*
Y299300D03*
Y283700D03*
X749200Y439700D03*
Y424100D03*
Y408500D03*
Y392900D03*
Y377300D03*
Y361700D03*
Y346100D03*
Y330500D03*
Y314900D03*
Y299300D03*
Y283700D03*
X769200Y439700D03*
Y424100D03*
Y408500D03*
Y392900D03*
Y377300D03*
Y361700D03*
Y346100D03*
Y330500D03*
Y314900D03*
Y299300D03*
Y283700D03*
X668000Y268100D03*
Y252500D03*
Y236900D03*
Y221300D03*
Y205700D03*
Y190100D03*
Y174500D03*
Y158900D03*
Y143300D03*
Y127700D03*
Y112100D03*
X850500Y268100D03*
Y252500D03*
Y236900D03*
X830500Y268100D03*
Y252500D03*
Y236900D03*
X850500Y221300D03*
X830500D03*
X850500Y205700D03*
X830500D03*
X850500Y190100D03*
X830500D03*
X1013000Y205700D03*
X993000D03*
Y190100D03*
X1013000D03*
Y174500D03*
Y158900D03*
Y143300D03*
Y127700D03*
Y112100D03*
X993000Y174500D03*
Y158900D03*
Y143300D03*
Y127700D03*
Y112100D03*
X850500Y174500D03*
X830500D03*
Y158900D03*
Y143300D03*
Y127700D03*
Y112100D03*
X850500Y158900D03*
Y143300D03*
Y127700D03*
Y112100D03*
X749200Y268100D03*
X769200D03*
Y252500D03*
X749200D03*
Y236900D03*
Y221300D03*
Y205700D03*
Y190100D03*
X769200Y236900D03*
Y221300D03*
Y205700D03*
Y190100D03*
X749200Y174500D03*
X769200D03*
X749200Y158900D03*
Y143300D03*
Y127700D03*
G54D37*X759200Y74300D03*
G54D38*X749200Y112100D03*
X769200Y158900D03*
Y143300D03*
Y127700D03*
Y112100D03*
G54D37*X1003000Y477500D03*
G54D38*X1013000Y439700D03*
X993000D03*
X1013000Y424100D03*
X993000D03*
Y408500D03*
X1013000D03*
Y392900D03*
Y377300D03*
Y361700D03*
Y346100D03*
Y330500D03*
Y314900D03*
Y299300D03*
Y283700D03*
X993000Y392900D03*
Y377300D03*
Y361700D03*
Y346100D03*
Y330500D03*
Y314900D03*
Y299300D03*
Y283700D03*
G54D37*X1165500Y477500D03*
G54D38*X1175500Y439700D03*
X1155500D03*
X1175500Y424100D03*
X1155500D03*
Y408500D03*
X1175500D03*
Y392900D03*
Y377300D03*
Y361700D03*
Y346100D03*
Y330500D03*
Y314900D03*
Y299300D03*
Y283700D03*
X1155500Y392900D03*
Y377300D03*
Y361700D03*
Y346100D03*
Y330500D03*
Y314900D03*
Y299300D03*
Y283700D03*
G54D37*X1328000Y477500D03*
G54D38*X1338000Y439700D03*
X1318000D03*
G54D37*X1409200Y477500D03*
G54D38*X1338000Y424100D03*
X1318000D03*
Y408500D03*
X1338000D03*
Y392900D03*
Y377300D03*
Y361700D03*
Y346100D03*
Y330500D03*
Y314900D03*
Y299300D03*
Y283700D03*
X1318000Y392900D03*
Y377300D03*
Y361700D03*
Y346100D03*
Y330500D03*
Y314900D03*
Y299300D03*
Y283700D03*
G54D37*X1490500Y477500D03*
G54D38*X1500500Y439700D03*
X1480500D03*
X1500500Y424100D03*
X1480500D03*
Y408500D03*
X1500500D03*
Y392900D03*
Y377300D03*
Y361700D03*
Y346100D03*
Y330500D03*
Y314900D03*
Y299300D03*
Y283700D03*
X1480500Y392900D03*
Y377300D03*
Y361700D03*
Y346100D03*
Y330500D03*
Y314900D03*
Y299300D03*
Y283700D03*
X1399200Y439700D03*
Y424100D03*
Y408500D03*
Y392900D03*
Y377300D03*
Y361700D03*
Y346100D03*
Y330500D03*
Y314900D03*
Y299300D03*
Y283700D03*
X1419200Y439700D03*
Y424100D03*
Y408500D03*
Y392900D03*
Y377300D03*
Y361700D03*
Y346100D03*
Y330500D03*
Y314900D03*
Y299300D03*
Y283700D03*
X1013000Y268100D03*
X993000D03*
X1013000Y221300D03*
X993000D03*
X1175500Y268100D03*
X1155500D03*
Y252500D03*
Y236900D03*
Y221300D03*
X1175500Y252500D03*
Y236900D03*
Y221300D03*
X1013000Y252500D03*
X993000D03*
X1013000Y236900D03*
X993000D03*
X1338000Y268100D03*
X1318000D03*
X1500500D03*
X1480500D03*
X1399200D03*
X1419200D03*
X1338000Y252500D03*
X1318000D03*
X1500500D03*
X1480500D03*
X1399200D03*
X1419200D03*
X1338000Y236900D03*
X1318000D03*
X1500500D03*
X1480500D03*
X1399200D03*
X1419200D03*
G54D37*X1165500Y74300D03*
X1328000D03*
X1490500D03*
X1409200D03*
G54D38*X1175500Y158900D03*
Y143300D03*
Y127700D03*
Y112100D03*
X1155500Y174500D03*
Y158900D03*
Y143300D03*
Y127700D03*
Y112100D03*
X1318000Y143300D03*
Y127700D03*
Y112100D03*
X1419200Y158900D03*
Y143300D03*
Y127700D03*
Y112100D03*
X1175500Y205700D03*
Y190100D03*
Y174500D03*
X1155500Y205700D03*
X1338000D03*
X1318000D03*
X1155500Y190100D03*
X1338000D03*
Y174500D03*
Y158900D03*
Y143300D03*
Y127700D03*
Y112100D03*
X1318000Y190100D03*
X1338000Y221300D03*
X1318000D03*
X1399200D03*
X1500500D03*
Y205700D03*
X1480500Y221300D03*
Y205700D03*
X1399200D03*
X1419200Y221300D03*
Y205700D03*
X1318000Y174500D03*
X1399200Y190100D03*
X1419200D03*
X1500500Y158900D03*
Y143300D03*
Y127700D03*
Y112100D03*
X1480500Y158900D03*
Y143300D03*
X1500500Y190100D03*
Y174500D03*
X1480500Y190100D03*
Y174500D03*
X1318000Y158900D03*
X1480500Y127700D03*
Y112100D03*
X1399200Y174500D03*
Y158900D03*
Y143300D03*
Y127700D03*
Y112100D03*
X1419200Y174500D03*
G54D37*X28000Y74300D03*
X109200D03*
G54D38*X99200Y127700D03*
Y112100D03*
X119200Y127700D03*
Y112100D03*
G54D37*X190500Y74300D03*
X271700D03*
X353000D03*
X515500D03*
X678000D03*
X840500D03*
X1003000D03*
X353000Y477500D03*
G54D38*X363000Y439700D03*
X343000D03*
X363000Y424100D03*
X343000D03*
Y408500D03*
X363000D03*
Y392900D03*
Y377300D03*
Y361700D03*
Y346100D03*
Y330500D03*
Y314900D03*
Y299300D03*
Y283700D03*
X343000Y392900D03*
Y377300D03*
Y361700D03*
Y346100D03*
Y330500D03*
Y314900D03*
Y299300D03*
Y283700D03*
G54D37*X515500Y477500D03*
G54D38*X525500Y439700D03*
X505500D03*
X525500Y424100D03*
X505500D03*
Y408500D03*
X525500D03*
Y392900D03*
Y377300D03*
Y361700D03*
Y346100D03*
Y330500D03*
Y314900D03*
Y299300D03*
Y283700D03*
X505500Y392900D03*
Y377300D03*
Y361700D03*
Y346100D03*
Y330500D03*
Y314900D03*
Y299300D03*
Y283700D03*
X119200Y268100D03*
Y252500D03*
Y236900D03*
Y221300D03*
Y205700D03*
Y190100D03*
Y174500D03*
Y158900D03*
Y143300D03*
X525500Y268100D03*
Y252500D03*
X505500Y268100D03*
Y252500D03*
X525500Y205700D03*
Y236900D03*
Y221300D03*
X505500Y236900D03*
Y221300D03*
Y205700D03*
Y190100D03*
Y174500D03*
Y158900D03*
Y143300D03*
Y127700D03*
Y112100D03*
X525500Y190100D03*
Y174500D03*
Y158900D03*
Y143300D03*
Y127700D03*
Y112100D03*
X688000Y268100D03*
Y252500D03*
Y236900D03*
Y221300D03*
Y205700D03*
Y190100D03*
Y174500D03*
Y158900D03*
Y143300D03*
Y127700D03*
Y112100D03*
G54D37*X28000Y477500D03*
G54D38*X18000Y439700D03*
Y424100D03*
Y408500D03*
Y392900D03*
Y377300D03*
X38000Y439700D03*
Y424100D03*
Y408500D03*
Y392900D03*
Y377300D03*
Y361700D03*
X18000D03*
X38000Y346100D03*
X18000D03*
X38000Y330500D03*
X18000D03*
Y314900D03*
Y299300D03*
Y283700D03*
X38000Y314900D03*
Y299300D03*
Y283700D03*
G54D37*X109200Y477500D03*
G54D38*X99200Y439700D03*
X119200D03*
Y424100D03*
X99200D03*
Y408500D03*
Y392900D03*
X119200Y408500D03*
Y392900D03*
Y377300D03*
X99200D03*
Y361700D03*
Y346100D03*
Y330500D03*
Y314900D03*
Y299300D03*
Y283700D03*
X119200Y361700D03*
Y346100D03*
Y330500D03*
Y314900D03*
Y299300D03*
Y283700D03*
X200500Y268100D03*
X180500D03*
X200500Y252500D03*
X180500D03*
Y236900D03*
X363000Y268100D03*
X343000D03*
X363000Y252500D03*
X343000D03*
X363000Y236900D03*
X343000D03*
Y221300D03*
X363000D03*
Y205700D03*
Y190100D03*
Y174500D03*
Y158900D03*
Y143300D03*
Y127700D03*
Y112100D03*
X343000Y205700D03*
Y190100D03*
Y174500D03*
Y158900D03*
G54D37*X190500Y477500D03*
G54D38*X200500Y439700D03*
X180500D03*
G54D37*X271700Y477500D03*
G54D38*X200500Y424100D03*
X180500D03*
Y408500D03*
X200500D03*
Y392900D03*
Y377300D03*
Y361700D03*
Y346100D03*
Y330500D03*
Y314900D03*
Y299300D03*
Y283700D03*
X180500Y392900D03*
Y377300D03*
Y361700D03*
Y346100D03*
Y330500D03*
Y314900D03*
Y299300D03*
Y283700D03*
X261700Y439700D03*
Y424100D03*
Y408500D03*
Y392900D03*
Y377300D03*
Y361700D03*
Y346100D03*
Y330500D03*
Y314900D03*
Y299300D03*
Y283700D03*
X281700Y439700D03*
Y424100D03*
Y408500D03*
Y392900D03*
Y377300D03*
Y361700D03*
Y346100D03*
Y330500D03*
Y314900D03*
Y299300D03*
Y283700D03*
X38000Y268100D03*
Y252500D03*
Y236900D03*
Y221300D03*
X99200Y268100D03*
Y252500D03*
X18000Y268100D03*
Y252500D03*
Y236900D03*
Y221300D03*
Y205700D03*
Y190100D03*
Y174500D03*
Y158900D03*
Y143300D03*
Y127700D03*
Y112100D03*
X200500Y236900D03*
Y221300D03*
Y205700D03*
Y190100D03*
Y174500D03*
Y158900D03*
Y143300D03*
X180500Y221300D03*
Y205700D03*
Y190100D03*
Y174500D03*
Y158900D03*
Y143300D03*
Y127700D03*
Y112100D03*
X200500Y127700D03*
Y112100D03*
X343000D03*
X261700D03*
X281700D03*
X261700Y174500D03*
Y158900D03*
X281700Y174500D03*
Y158900D03*
X343000Y143300D03*
Y127700D03*
X261700Y143300D03*
Y127700D03*
X281700Y143300D03*
Y127700D03*
X261700Y268100D03*
Y252500D03*
X281700Y268100D03*
Y252500D03*
X261700Y205700D03*
Y190100D03*
Y236900D03*
Y221300D03*
X281700Y236900D03*
Y221300D03*
Y205700D03*
Y190100D03*
X38000Y205700D03*
Y190100D03*
Y174500D03*
Y158900D03*
Y143300D03*
Y127700D03*
Y112100D03*
X99200Y236900D03*
Y221300D03*
Y205700D03*
Y190100D03*
Y174500D03*
Y158900D03*
Y143300D03*
M02*
