M48
INCH
T34C0.038
T33C0.128
%
T34
X068800Y043970
X066800Y043970
X068800Y042410
X066800Y042410
X066800Y040850
X068800Y040850
X068800Y039290
X068800Y037730
X068800Y036170
X068800Y034610
X068800Y033050
X068800Y031490
X068800Y029930
X068800Y028370
X066800Y039290
X066800Y037730
X066800Y036170
X066800Y034610
X066800Y033050
X066800Y031490
X066800Y029930
X066800Y028370
X085050Y043970
X083050Y043970
X085050Y042410
X083050Y042410
X083050Y040850
X085050Y040850
X085050Y039290
X085050Y037730
X085050Y036170
X085050Y034610
X085050Y033050
X085050Y031490
X085050Y029930
X085050Y028370
X083050Y039290
X083050Y037730
X083050Y036170
X083050Y034610
X083050Y033050
X083050Y031490
X083050Y029930
X083050Y028370
X074920Y043970
X074920Y042410
X074920Y040850
X074920Y039290
X074920Y037730
X074920Y036170
X074920Y034610
X074920Y033050
X074920Y031490
X074920Y029930
X074920Y028370
X076920Y043970
X076920Y042410
X076920Y040850
X076920Y039290
X076920Y037730
X076920Y036170
X076920Y034610
X076920Y033050
X076920Y031490
X076920Y029930
X076920Y028370
X066800Y026810
X066800Y025250
X066800Y023690
X066800Y022130
X066800Y020570
X066800Y019010
X066800Y017450
X066800Y015890
X066800Y014330
X066800Y012770
X066800Y011210
X085050Y026810
X085050Y025250
X085050Y023690
X083050Y026810
X083050Y025250
X083050Y023690
X085050Y022130
X083050Y022130
X085050Y020570
X083050Y020570
X085050Y019010
X083050Y019010
X101300Y020570
X099300Y020570
X099300Y019010
X101300Y019010
X101300Y017450
X101300Y015890
X101300Y014330
X101300Y012770
X101300Y011210
X099300Y017450
X099300Y015890
X099300Y014330
X099300Y012770
X099300Y011210
X085050Y017450
X083050Y017450
X083050Y015890
X083050Y014330
X083050Y012770
X083050Y011210
X085050Y015890
X085050Y014330
X085050Y012770
X085050Y011210
X074920Y026810
X076920Y026810
X076920Y025250
X074920Y025250
X074920Y023690
X074920Y022130
X074920Y020570
X074920Y019010
X076920Y023690
X076920Y022130
X076920Y020570
X076920Y019010
X074920Y017450
X076920Y017450
X074920Y015890
X074920Y014330
X074920Y012770
X074920Y011210
X076920Y015890
X076920Y014330
X076920Y012770
X076920Y011210
X101300Y043970
X099300Y043970
X101300Y042410
X099300Y042410
X099300Y040850
X101300Y040850
X101300Y039290
X101300Y037730
X101300Y036170
X101300Y034610
X101300Y033050
X101300Y031490
X101300Y029930
X101300Y028370
X099300Y039290
X099300Y037730
X099300Y036170
X099300Y034610
X099300Y033050
X099300Y031490
X099300Y029930
X099300Y028370
X117550Y043970
X115550Y043970
X117550Y042410
X115550Y042410
X115550Y040850
X117550Y040850
X117550Y039290
X117550Y037730
X117550Y036170
X117550Y034610
X117550Y033050
X117550Y031490
X117550Y029930
X117550Y028370
X115550Y039290
X115550Y037730
X115550Y036170
X115550Y034610
X115550Y033050
X115550Y031490
X115550Y029930
X115550Y028370
X133800Y043970
X131800Y043970
X133800Y042410
X131800Y042410
X131800Y040850
X133800Y040850
X133800Y039290
X133800Y037730
X133800Y036170
X133800Y034610
X133800Y033050
X133800Y031490
X133800Y029930
X133800Y028370
X131800Y039290
X131800Y037730
X131800Y036170
X131800Y034610
X131800Y033050
X131800Y031490
X131800Y029930
X131800Y028370
X150050Y043970
X148050Y043970
X150050Y042410
X148050Y042410
X148050Y040850
X150050Y040850
X150050Y039290
X150050Y037730
X150050Y036170
X150050Y034610
X150050Y033050
X150050Y031490
X150050Y029930
X150050Y028370
X148050Y039290
X148050Y037730
X148050Y036170
X148050Y034610
X148050Y033050
X148050Y031490
X148050Y029930
X148050Y028370
X139920Y043970
X139920Y042410
X139920Y040850
X139920Y039290
X139920Y037730
X139920Y036170
X139920Y034610
X139920Y033050
X139920Y031490
X139920Y029930
X139920Y028370
X141920Y043970
X141920Y042410
X141920Y040850
X141920Y039290
X141920Y037730
X141920Y036170
X141920Y034610
X141920Y033050
X141920Y031490
X141920Y029930
X141920Y028370
X101300Y026810
X099300Y026810
X101300Y022130
X099300Y022130
X117550Y026810
X115550Y026810
X115550Y025250
X115550Y023690
X115550Y022130
X117550Y025250
X117550Y023690
X117550Y022130
X101300Y025250
X099300Y025250
X101300Y023690
X099300Y023690
X133800Y026810
X131800Y026810
X150050Y026810
X148050Y026810
X139920Y026810
X141920Y026810
X133800Y025250
X131800Y025250
X150050Y025250
X148050Y025250
X139920Y025250
X141920Y025250
X133800Y023690
X131800Y023690
X150050Y023690
X148050Y023690
X139920Y023690
X141920Y023690
X117550Y015890
X117550Y014330
X117550Y012770
X117550Y011210
X115550Y017450
X115550Y015890
X115550Y014330
X115550Y012770
X115550Y011210
X131800Y014330
X131800Y012770
X131800Y011210
X141920Y015890
X141920Y014330
X141920Y012770
X141920Y011210
X117550Y020570
X117550Y019010
X117550Y017450
X115550Y020570
X133800Y020570
X131800Y020570
X115550Y019010
X133800Y019010
X133800Y017450
X133800Y015890
X133800Y014330
X133800Y012770
X133800Y011210
X131800Y019010
X133800Y022130
X131800Y022130
X139920Y022130
X150050Y022130
X150050Y020570
X148050Y022130
X148050Y020570
X139920Y020570
X141920Y022130
X141920Y020570
X131800Y017450
X139920Y019010
X141920Y019010
X150050Y015890
X150050Y014330
X150050Y012770
X150050Y011210
X148050Y015890
X148050Y014330
X150050Y019010
X150050Y017450
X148050Y019010
X148050Y017450
X131800Y015890
X148050Y012770
X148050Y011210
X139920Y017450
X139920Y015890
X139920Y014330
X139920Y012770
X139920Y011210
X141920Y017450
X009920Y012770
X009920Y011210
X011920Y012770
X011920Y011210
X036300Y043970
X034300Y043970
X036300Y042410
X034300Y042410
X034300Y040850
X036300Y040850
X036300Y039290
X036300Y037730
X036300Y036170
X036300Y034610
X036300Y033050
X036300Y031490
X036300Y029930
X036300Y028370
X034300Y039290
X034300Y037730
X034300Y036170
X034300Y034610
X034300Y033050
X034300Y031490
X034300Y029930
X034300Y028370
X052550Y043970
X050550Y043970
X052550Y042410
X050550Y042410
X050550Y040850
X052550Y040850
X052550Y039290
X052550Y037730
X052550Y036170
X052550Y034610
X052550Y033050
X052550Y031490
X052550Y029930
X052550Y028370
X050550Y039290
X050550Y037730
X050550Y036170
X050550Y034610
X050550Y033050
X050550Y031490
X050550Y029930
X050550Y028370
X011920Y026810
X011920Y025250
X011920Y023690
X011920Y022130
X011920Y020570
X011920Y019010
X011920Y017450
X011920Y015890
X011920Y014330
X052550Y026810
X052550Y025250
X050550Y026810
X050550Y025250
X052550Y020570
X052550Y023690
X052550Y022130
X050550Y023690
X050550Y022130
X050550Y020570
X050550Y019010
X050550Y017450
X050550Y015890
X050550Y014330
X050550Y012770
X050550Y011210
X052550Y019010
X052550Y017450
X052550Y015890
X052550Y014330
X052550Y012770
X052550Y011210
X068800Y026810
X068800Y025250
X068800Y023690
X068800Y022130
X068800Y020570
X068800Y019010
X068800Y017450
X068800Y015890
X068800Y014330
X068800Y012770
X068800Y011210
X001800Y043970
X001800Y042410
X001800Y040850
X001800Y039290
X001800Y037730
X003800Y043970
X003800Y042410
X003800Y040850
X003800Y039290
X003800Y037730
X003800Y036170
X001800Y036170
X003800Y034610
X001800Y034610
X003800Y033050
X001800Y033050
X001800Y031490
X001800Y029930
X001800Y028370
X003800Y031490
X003800Y029930
X003800Y028370
X009920Y043970
X011920Y043970
X011920Y042410
X009920Y042410
X009920Y040850
X009920Y039290
X011920Y040850
X011920Y039290
X011920Y037730
X009920Y037730
X009920Y036170
X009920Y034610
X009920Y033050
X009920Y031490
X009920Y029930
X009920Y028370
X011920Y036170
X011920Y034610
X011920Y033050
X011920Y031490
X011920Y029930
X011920Y028370
X020050Y026810
X018050Y026810
X020050Y025250
X018050Y025250
X018050Y023690
X036300Y026810
X034300Y026810
X036300Y025250
X034300Y025250
X036300Y023690
X034300Y023690
X034300Y022130
X036300Y022130
X036300Y020570
X036300Y019010
X036300Y017450
X036300Y015890
X036300Y014330
X036300Y012770
X036300Y011210
X034300Y020570
X034300Y019010
X034300Y017450
X034300Y015890
X020050Y043970
X018050Y043970
X020050Y042410
X018050Y042410
X018050Y040850
X020050Y040850
X020050Y039290
X020050Y037730
X020050Y036170
X020050Y034610
X020050Y033050
X020050Y031490
X020050Y029930
X020050Y028370
X018050Y039290
X018050Y037730
X018050Y036170
X018050Y034610
X018050Y033050
X018050Y031490
X018050Y029930
X018050Y028370
X026170Y043970
X026170Y042410
X026170Y040850
X026170Y039290
X026170Y037730
X026170Y036170
X026170Y034610
X026170Y033050
X026170Y031490
X026170Y029930
X026170Y028370
X028170Y043970
X028170Y042410
X028170Y040850
X028170Y039290
X028170Y037730
X028170Y036170
X028170Y034610
X028170Y033050
X028170Y031490
X028170Y029930
X028170Y028370
X003800Y026810
X003800Y025250
X003800Y023690
X003800Y022130
X009920Y026810
X009920Y025250
X001800Y026810
X001800Y025250
X001800Y023690
X001800Y022130
X001800Y020570
X001800Y019010
X001800Y017450
X001800Y015890
X001800Y014330
X001800Y012770
X001800Y011210
X020050Y023690
X020050Y022130
X020050Y020570
X020050Y019010
X020050Y017450
X020050Y015890
X020050Y014330
X018050Y022130
X018050Y020570
X018050Y019010
X018050Y017450
X018050Y015890
X018050Y014330
X018050Y012770
X018050Y011210
X020050Y012770
X020050Y011210
X034300Y011210
X026170Y011210
X028170Y011210
X026170Y017450
X026170Y015890
X028170Y017450
X028170Y015890
X034300Y014330
X034300Y012770
X026170Y014330
X026170Y012770
X028170Y014330
X028170Y012770
X026170Y026810
X026170Y025250
X028170Y026810
X028170Y025250
X026170Y020570
X026170Y019010
X026170Y023690
X026170Y022130
X028170Y023690
X028170Y022130
X028170Y020570
X028170Y019010
X003800Y020570
X003800Y019010
X003800Y017450
X003800Y015890
X003800Y014330
X003800Y012770
X003800Y011210
X009920Y023690
X009920Y022130
X009920Y020570
X009920Y019010
X009920Y017450
X009920Y015890
X009920Y014330
T33
X067800Y047750
X075920Y047750
X084050Y047750
X075920Y007430
X100300Y047750
X116550Y047750
X132800Y047750
X140920Y047750
X149050Y047750
X116550Y007430
X132800Y007430
X149050Y007430
X140920Y007430
X002800Y007430
X010920Y007430
X019050Y007430
X027170Y007430
X035300Y007430
X051550Y007430
X067800Y007430
X084050Y007430
X100300Y007430
X035300Y047750
X051550Y047750
X002800Y047750
X010920Y047750
X019050Y047750
X027170Y047750
M30
