M48
INCH
T34C0.128
T33C0.038
%
T33
X010433Y043620
X010433Y042060
X010433Y040500
X010433Y038940
X010433Y037380
X010433Y035820
X010433Y034260
X010433Y032700
X010433Y031140
X010433Y029580
X010433Y028020
X012433Y043620
X012433Y042060
X012433Y040500
X012433Y038940
X012433Y037380
X012433Y035820
X012433Y034260
X012433Y032700
X012433Y031140
X012433Y029580
X012433Y028020
X020767Y037380
X020767Y035820
X020767Y034260
X020767Y032700
X020767Y031140
X020767Y029580
X020767Y028020
X018767Y035820
X018767Y034260
X018767Y032700
X018767Y031140
X018767Y029580
X018767Y028020
X027100Y043620
X020767Y043620
X018767Y043620
X018767Y042060
X020767Y042060
X020767Y040500
X020767Y038940
X018767Y040500
X018767Y038940
X018767Y037380
X027100Y042060
X027100Y040500
X027100Y038940
X027100Y037380
X027100Y035820
X027100Y034260
X027100Y032700
X027100Y031140
X027100Y029580
X027100Y028020
X029100Y043620
X029100Y042060
X029100Y040500
X029100Y038940
X029100Y037380
X029100Y035820
X029100Y034260
X029100Y032700
X029100Y031140
X029100Y029580
X029100Y028020
X037433Y043620
X035433Y043620
X035433Y042060
X037433Y042060
X037433Y040500
X037433Y038940
X035433Y040500
X035433Y038940
X035433Y037380
X037433Y037380
X037433Y035820
X037433Y034260
X037433Y032700
X037433Y031140
X037433Y029580
X037433Y028020
X035433Y035820
X035433Y034260
X035433Y032700
X035433Y031140
X035433Y029580
X035433Y028020
X054100Y043620
X052100Y043620
X052100Y042060
X054100Y042060
X054100Y040500
X054100Y038940
X052100Y040500
X052100Y038940
X052100Y037380
X054100Y037380
X054100Y035820
X054100Y034260
X054100Y032700
X054100Y031140
X054100Y029580
X054100Y028020
X052100Y035820
X052100Y034260
X052100Y032700
X052100Y031140
X052100Y029580
X052100Y028020
X070766Y043620
X068766Y043620
X070766Y042060
X068766Y042060
X070766Y040500
X068766Y040500
X068766Y038940
X070766Y038940
X070766Y037380
X070766Y035820
X070766Y034260
X070766Y032700
X070766Y031140
X070766Y029580
X070766Y028020
X068766Y037380
X068766Y035820
X068766Y034260
X068766Y032700
X068766Y031140
X068766Y029580
X068766Y028020
X002100Y026460
X002100Y024900
X002100Y023340
X002100Y021780
X002100Y020220
X002100Y018660
X002100Y017100
X002100Y015540
X002100Y013980
X002100Y012420
X002100Y010860
X004100Y020220
X004100Y018660
X004100Y017100
X004100Y015540
X004100Y013980
X004100Y012420
X004100Y010860
X010433Y023340
X010433Y021780
X010433Y020220
X010433Y018660
X010433Y017100
X010433Y015540
X010433Y013980
X010433Y012420
X010433Y010860
X027100Y020220
X029100Y020220
X027100Y018660
X029100Y018660
X027100Y017100
X029100Y017100
X027100Y015540
X029100Y015540
X027100Y013980
X029100Y013980
X027100Y023340
X027100Y021780
X029100Y023340
X029100Y021780
X018767Y012420
X027100Y012420
X029100Y012420
X018767Y010860
X027100Y010860
X029100Y010860
X037433Y012420
X035433Y012420
X054100Y012420
X052100Y012420
X037433Y010860
X035433Y010860
X054100Y010860
X052100Y010860
X002100Y043620
X002100Y042060
X002100Y040500
X002100Y038940
X002100Y037380
X004100Y043620
X004100Y042060
X004100Y040500
X004100Y038940
X004100Y037380
X004100Y035820
X002100Y035820
X004100Y034260
X002100Y034260
X004100Y032700
X002100Y032700
X002100Y031140
X002100Y029580
X002100Y028020
X004100Y031140
X004100Y029580
X004100Y028020
X004100Y026460
X004100Y024900
X004100Y023340
X004100Y021780
X010433Y026460
X010433Y024900
X012433Y026460
X012433Y024900
X012433Y023340
X012433Y021780
X012433Y020220
X012433Y018660
X012433Y017100
X012433Y015540
X012433Y013980
X012433Y012420
X012433Y010860
X020767Y026460
X018767Y026460
X020767Y024900
X018767Y024900
X020767Y023340
X018767Y023340
X020767Y021780
X018767Y021780
X018767Y020220
X020767Y020220
X020767Y018660
X020767Y017100
X020767Y015540
X020767Y013980
X020767Y012420
X020767Y010860
X018767Y018660
X018767Y017100
X018767Y015540
X018767Y013980
X027100Y026460
X027100Y024900
X029100Y026460
X029100Y024900
X037433Y026460
X035433Y026460
X037433Y024900
X035433Y024900
X037433Y023340
X035433Y023340
X037433Y021780
X035433Y021780
X035433Y020220
X037433Y020220
X037433Y018660
X037433Y017100
X037433Y015540
X037433Y013980
X035433Y018660
X035433Y017100
X035433Y015540
X035433Y013980
X054100Y026460
X052100Y026460
X070766Y026460
X068766Y026460
X054100Y024900
X052100Y024900
X070766Y024900
X068766Y024900
X054100Y023340
X052100Y023340
X070766Y023340
X068766Y023340
X054100Y021780
X052100Y021780
X052100Y020220
X070766Y020220
X068766Y021780
X068766Y020220
X054100Y020220
X054100Y018660
X054100Y017100
X054100Y015540
X054100Y013980
X052100Y018660
X052100Y017100
X052100Y015540
X052100Y013980
X070766Y021780
X070766Y018660
X070766Y017100
X070766Y015540
X070766Y013980
X068766Y018660
X068766Y017100
X068766Y015540
X068766Y013980
X143766Y043620
X145766Y043620
X145766Y042060
X143766Y042060
X143766Y040500
X143766Y038940
X145766Y040500
X145766Y038940
X145766Y037380
X154099Y043620
X154099Y042060
X154099Y040500
X152099Y043620
X152099Y042060
X152099Y040500
X143766Y023340
X143766Y021780
X143766Y020220
X143766Y018660
X143766Y017100
X143766Y015540
X143766Y013980
X145766Y023340
X145766Y021780
X145766Y020220
X145766Y018660
X145766Y017100
X145766Y015540
X145766Y013980
X143766Y012420
X143766Y010860
X145766Y012420
X145766Y010860
X154099Y023340
X154099Y021780
X154099Y020220
X154099Y018660
X154099Y017100
X154099Y015540
X154099Y013980
X152099Y015540
X152099Y013980
X152099Y012420
X152099Y010860
X143766Y037380
X143766Y035820
X143766Y034260
X143766Y032700
X143766Y031140
X143766Y029580
X145766Y035820
X145766Y034260
X145766Y032700
X145766Y031140
X145766Y029580
X154099Y038940
X154099Y037380
X154099Y035820
X154099Y034260
X154099Y032700
X154099Y031140
X154099Y029580
X152099Y038940
X152099Y037380
X152099Y035820
X152099Y034260
X152099Y032700
X152099Y031140
X152099Y029580
X137433Y043620
X137433Y042060
X135433Y043620
X135433Y042060
X135433Y040500
X137433Y040500
X137433Y038940
X137433Y037380
X137433Y035820
X137433Y034260
X137433Y032700
X137433Y031140
X137433Y029580
X135433Y038940
X135433Y037380
X135433Y035820
X135433Y034260
X135433Y032700
X135433Y031140
X135433Y029580
X143766Y028020
X145766Y028020
X154099Y028020
X152099Y028020
X143766Y026460
X154099Y026460
X152099Y026460
X145766Y026460
X145766Y024900
X154099Y024900
X152099Y024900
X152099Y023340
X152099Y021780
X152099Y020220
X152099Y018660
X152099Y017100
X137433Y018660
X137433Y017100
X137433Y015540
X137433Y013980
X135433Y018660
X135433Y017100
X135433Y015540
X135433Y013980
X143766Y024900
X137433Y028020
X135433Y028020
X137433Y026460
X135433Y026460
X137433Y023340
X137433Y021780
X137433Y020220
X137433Y024900
X135433Y024900
X135433Y023340
X135433Y021780
X135433Y020220
X070766Y012420
X070766Y010860
X068766Y012420
X068766Y010860
X077100Y012420
X077100Y010860
X079100Y012420
X079100Y010860
X104100Y028020
X102100Y028020
X102100Y026460
X102100Y024900
X104100Y026460
X087433Y028020
X085433Y028020
X085433Y026460
X085433Y024900
X087433Y026460
X087433Y024900
X087433Y023340
X087433Y021780
X087433Y020220
X087433Y018660
X087433Y017100
X087433Y015540
X087433Y013980
X087433Y010860
X085433Y023340
X085433Y021780
X085433Y020220
X085433Y018660
X085433Y017100
X085433Y015540
X085433Y013980
X085433Y012420
X085433Y010860
X077100Y028020
X079100Y028020
X079100Y026460
X079100Y024900
X077100Y026460
X077100Y024900
X077100Y023340
X077100Y021780
X077100Y020220
X077100Y018660
X077100Y017100
X077100Y015540
X077100Y013980
X079100Y023340
X079100Y021780
X079100Y020220
X079100Y018660
X079100Y017100
X079100Y015540
X079100Y013980
X120766Y043620
X118766Y043620
X118766Y042060
X120766Y042060
X120766Y040500
X120766Y038940
X118766Y040500
X118766Y038940
X118766Y037380
X120766Y037380
X120766Y035820
X120766Y034260
X120766Y032700
X120766Y031140
X120766Y029580
X118766Y035820
X118766Y034260
X118766Y032700
X118766Y031140
X118766Y029580
X104100Y043620
X102100Y043620
X104100Y042060
X102100Y042060
X104100Y040500
X102100Y040500
X102100Y038940
X104100Y038940
X104100Y037380
X104100Y035820
X104100Y034260
X104100Y032700
X104100Y031140
X104100Y029580
X102100Y037380
X102100Y035820
X102100Y034260
X102100Y032700
X102100Y031140
X102100Y029580
X087433Y043620
X085433Y043620
X087433Y042060
X085433Y042060
X087433Y040500
X085433Y040500
X085433Y038940
X087433Y038940
X087433Y037380
X087433Y035820
X087433Y034260
X087433Y032700
X087433Y031140
X087433Y029580
X085433Y037380
X085433Y035820
X085433Y034260
X085433Y032700
X085433Y031140
X085433Y029580
X077100Y043620
X077100Y042060
X077100Y040500
X077100Y038940
X077100Y037380
X077100Y035820
X077100Y034260
X077100Y032700
X077100Y031140
X077100Y029580
X079100Y043620
X079100Y042060
X079100Y040500
X079100Y038940
X079100Y037380
X079100Y035820
X079100Y034260
X079100Y032700
X079100Y031140
X079100Y029580
X120766Y028020
X120766Y026460
X120766Y024900
X118766Y028020
X118766Y026460
X118766Y024900
X120766Y023340
X120766Y021780
X120766Y020220
X120766Y018660
X120766Y017100
X120766Y015540
X120766Y013980
X118766Y023340
X118766Y021780
X118766Y020220
X118766Y018660
X118766Y017100
X118766Y015540
X118766Y013980
X104100Y024900
X104100Y023340
X104100Y021780
X104100Y020220
X104100Y018660
X104100Y017100
X104100Y015540
X104100Y013980
X102100Y023340
X102100Y021780
X102100Y020220
X102100Y018660
X102100Y017100
X102100Y015540
X102100Y013980
X154099Y012420
X154099Y010860
X137433Y012420
X135433Y012420
X120766Y012420
X118766Y012420
X137433Y010860
X135433Y010860
X120766Y010860
X118766Y010860
X104100Y010860
X102100Y010860
X104100Y012420
X102100Y012420
X087433Y012420
T34
X019767Y047400
X028100Y047400
X036433Y047400
X053100Y047400
X069766Y047400
X003100Y007080
X011433Y007080
X019767Y007080
X028100Y007080
X036433Y007080
X053100Y007080
X003100Y047400
X011433Y047400
X144766Y047400
X153099Y047400
X136433Y047400
X144766Y007080
X153099Y007080
X069766Y007080
X078100Y007080
X119766Y047400
X103100Y047400
X086433Y047400
X078100Y047400
X136433Y007080
X119766Y007080
X103100Y007080
X086433Y007080
M30
