G04 start of page 3 for group 5 idx 5 *
G04 Title: (unknown), bottom *
G04 Creator: pcb 20110918 *
G04 CreationDate: Mon May  5 15:54:35 2014 UTC *
G04 For: fosse *
G04 Format: Gerber/RS-274X *
G04 PCB-Dimensions: 2025000 500000 *
G04 PCB-Coordinate-Origin: lower left *
%MOIN*%
%FSLAX25Y25*%
%LNBOTTOM*%
%ADD31C,0.1280*%
%ADD30C,0.0380*%
%ADD29C,0.2560*%
%ADD28C,0.0780*%
%ADD27C,0.0100*%
%ADD26C,0.0090*%
%ADD25C,0.0350*%
%ADD24C,0.2550*%
%ADD23C,0.2000*%
%ADD22C,0.1250*%
G54D22*X1540994Y373800D02*X21000D01*
X1540994Y358200D02*X21000D01*
X1540994Y342600D02*X21000D01*
X1540994Y327000D02*X21000D01*
X1540994Y389400D02*X21000D01*
X1540994Y405000D02*X21000D01*
X1540994Y420600D02*X21000D01*
G54D23*X697664Y474000D02*Y440500D01*
G54D22*X707664Y436200D02*X687664D01*
G54D23*X780997Y474000D02*Y440500D01*
X364332Y474000D02*Y440500D01*
G54D22*X374332Y436200D02*X354332D01*
G54D23*X530998Y474000D02*Y440500D01*
G54D22*X540998Y436200D02*X520998D01*
G54D24*X31000Y474000D02*X1530994D01*
G54D23*X1030996D02*Y440500D01*
G54D22*X874330Y436200D02*X854330D01*
G54D23*X864330Y474000D02*Y440500D01*
G54D22*X790997Y436200D02*X770997D01*
G54D23*X1364328Y474000D02*Y440500D01*
G54D22*X1207662Y436200D02*X1187662D01*
G54D23*X1197662Y474000D02*Y440500D01*
G54D22*X1040996Y436200D02*X1020996D01*
G54D25*X1457661Y195100D02*X1457461Y194900D01*
X1457661Y202200D02*Y195100D01*
Y179500D02*X1457461Y179300D01*
X1457661Y186600D02*Y179500D01*
Y148300D02*X1457461Y148100D01*
X1457661Y155400D02*Y148300D01*
Y132700D02*X1457461Y132500D01*
X1457661Y139800D02*Y132700D01*
X1513694Y194900D02*X1520994Y202200D01*
X1513694Y179300D02*X1520994Y186600D01*
X1457661Y163900D02*X1457461Y163700D01*
X1457661Y171000D02*Y163900D01*
X1513694Y163700D02*X1520994Y171000D01*
X1457661Y226300D02*X1457461Y226100D01*
X1457661Y233400D02*Y226300D01*
Y241900D02*X1457461Y241700D01*
X1457661Y249000D02*Y241900D01*
X687664Y264600D02*Y258300D01*
X1457661Y264600D02*Y257500D01*
X790997Y264600D02*Y257500D01*
X1457661Y273100D02*X1457461Y272900D01*
X1457661Y280200D02*Y273100D01*
Y288700D02*X1457461Y288500D01*
X1457661Y295800D02*Y288700D01*
X790997Y295800D02*Y288700D01*
X790797Y288500D01*
X790997Y280200D02*Y273100D01*
X790797Y272900D01*
X790997Y257500D02*X790797Y257300D01*
X790997Y249000D02*Y241900D01*
X790797Y241700D01*
X790997Y233400D02*Y226300D01*
X790797Y226100D01*
X1513694D02*X1520994Y233400D01*
X1513694Y241700D02*X1520994Y249000D01*
X1513694Y257300D02*X1520994Y264600D01*
X1513694Y272900D02*X1520994Y280200D01*
X1513694Y288500D02*X1520994Y295800D01*
X1354328D02*Y289500D01*
X1355328Y288500D01*
X1457661Y117100D02*X1457461Y116900D01*
X1457661Y124200D02*Y117100D01*
X1513694Y148100D02*X1520994Y155400D01*
X1513694Y132500D02*X1520994Y139800D01*
X1513694Y116900D02*X1520994Y124200D01*
X1354328D02*Y117900D01*
X1355328Y116900D01*
X1354328Y139800D02*Y133500D01*
X790997Y124200D02*Y117100D01*
X790797Y116900D01*
X790997Y139800D02*Y132700D01*
X790797Y132500D01*
X790997Y155400D02*Y148300D01*
X790797Y148100D01*
X790997Y171000D02*Y163900D01*
X790797Y163700D01*
X1354328Y186600D02*Y180300D01*
X790997Y186600D02*Y179500D01*
X790797Y179300D01*
X790997Y202200D02*Y195100D01*
X790797Y194900D01*
X790997Y217800D02*Y210700D01*
X790797Y210500D01*
X1354328Y180300D02*X1355328Y179300D01*
X1354328Y202200D02*Y195900D01*
X1355328Y194900D01*
X1457661Y210700D02*X1457461Y210500D01*
X1457661Y217800D02*Y210700D01*
X1513694Y210500D02*X1520994Y217800D01*
X1354328D02*Y211500D01*
X1457661Y101500D02*X1457461Y101300D01*
X1457661Y108600D02*Y101500D01*
X1513694Y101300D02*X1520994Y108600D01*
X1354328D02*Y102300D01*
X1355328Y101300D01*
X1187662Y108600D02*Y101800D01*
X1354328Y133500D02*X1355328Y132500D01*
X1354328Y155400D02*Y149100D01*
X1355328Y148100D01*
X1187662Y124200D02*Y117400D01*
X1354328Y171000D02*Y164700D01*
X1355328Y163700D01*
X1187662Y171000D02*Y164200D01*
Y117400D02*X1188162Y116900D01*
X1187662Y139800D02*Y133000D01*
X1188162Y132500D01*
X1187662Y155400D02*Y148600D01*
Y186600D02*Y179800D01*
G54D26*X1256279Y66817D02*X1257779D01*
G54D27*X1248779D02*X1255779D01*
X1255279D02*X1256279D01*
G54D26*X1257779Y63317D02*X1251279D01*
G54D27*X1253779Y60317D02*Y59817D01*
X1258779Y60817D02*X1249779D01*
X1247779Y62817D01*
G54D26*X1249779Y64817D02*X1251779Y66817D01*
X1251279Y63317D02*X1249779Y64817D01*
G54D27*X1247779Y65317D02*X1246779Y66317D01*
Y68817D02*X1248779Y66817D01*
X1246779Y68817D02*Y66317D01*
X1247779Y62817D02*Y65317D01*
X1256279Y59317D02*X1252279D01*
X1256279Y66817D02*X1257779Y68317D01*
X1232779Y74317D02*Y61317D01*
X1237279D01*
Y74317D01*
X1232779D01*
X1234279D01*
X1235279Y75317D01*
X1236279Y74317D01*
X1235279Y75317D02*Y76317D01*
X1235779Y76817D01*
X1237779D01*
X1239279Y75317D01*
Y74317D01*
X1241779Y71817D01*
X1243279Y73317D01*
X1239279Y75317D02*X1241279D01*
X1243279Y73317D01*
X1258779Y71317D02*X1262279D01*
X1257779Y70317D02*X1258779Y71317D01*
G54D26*Y64317D02*X1257779Y63317D01*
Y66817D02*X1258779Y65817D01*
G54D27*X1259779Y68317D02*X1261279Y66817D01*
Y63317D01*
G54D26*X1258779Y65817D02*Y64317D01*
G54D27*X1261279Y63317D02*X1258779Y60817D01*
X1262279Y69317D02*X1259779D01*
Y68317D01*
X1262279Y71317D02*X1263279Y70317D01*
X1262279Y69317D01*
X1260779Y70817D02*Y70317D01*
X1263279D02*X1264779D01*
X1257779Y68317D02*Y70317D01*
G54D25*X1354328Y264600D02*Y258300D01*
X1355328Y257300D01*
X1457661Y257500D02*X1457461Y257300D01*
X1354328Y249000D02*Y242700D01*
X1355328Y241700D01*
X1354328Y233400D02*Y227100D01*
G54D22*X1540994Y436200D02*X1520994D01*
G54D23*X1447661Y474000D02*Y440500D01*
G54D22*X1457661Y436200D02*X1437661D01*
G54D23*X1530994Y474000D02*Y440500D01*
G54D22*X1374328Y436200D02*X1354328D01*
G54D25*Y280200D02*Y273900D01*
X1355328Y272900D01*
X1187662Y295800D02*Y289000D01*
X1188162Y288500D01*
X1187662Y264600D02*Y257800D01*
X1188162Y257300D01*
X1354328Y227100D02*X1355328Y226100D01*
X1187662Y249000D02*Y242200D01*
X1188162Y241700D01*
X1187662Y233400D02*Y226600D01*
Y179800D02*X1188162Y179300D01*
X1187662Y202200D02*Y195400D01*
X1188162Y194900D01*
X1187662Y148600D02*X1188162Y148100D01*
X1020996Y124200D02*Y116900D01*
Y139800D02*Y132500D01*
Y155400D02*Y148100D01*
X354332Y233400D02*Y226100D01*
Y217800D02*Y210500D01*
Y249000D02*Y241700D01*
Y264600D02*Y257300D01*
Y280200D02*Y272900D01*
Y295800D02*Y288500D01*
X520998Y226600D02*X520498Y226100D01*
X520998Y211000D02*X520498Y210500D01*
X520998Y217800D02*Y211000D01*
Y233400D02*Y226600D01*
X354332Y202200D02*Y194900D01*
Y171000D02*Y163700D01*
Y155400D02*Y148100D01*
Y108600D02*Y101300D01*
Y186600D02*Y179300D01*
X520998Y195400D02*X520498Y194900D01*
X520998Y202200D02*Y195400D01*
Y179800D02*X520498Y179300D01*
X520998Y186600D02*Y179800D01*
Y164200D02*X520498Y163700D01*
X520998Y171000D02*Y164200D01*
Y148600D02*X520498Y148100D01*
X520998Y155400D02*Y148600D01*
X354332Y139800D02*Y132500D01*
Y124200D02*Y116900D01*
X520998Y133000D02*X520498Y132500D01*
X520998Y139800D02*Y133000D01*
Y242200D02*X520498Y241700D01*
X520998Y249000D02*Y242200D01*
Y257800D02*X520498Y257300D01*
X520998Y264600D02*Y257800D01*
Y273400D02*X520498Y272900D01*
X520998Y280200D02*Y273400D01*
X29000Y210500D02*X1513694D01*
X687664Y211500D02*X686664Y210500D01*
X687664Y217800D02*Y211500D01*
X854330Y217800D02*Y211000D01*
X853830Y210500D01*
X29000Y163700D02*X1513694D01*
X687664Y164700D02*X686664Y163700D01*
X687664Y171000D02*Y164700D01*
X854330Y164200D02*X853830Y163700D01*
X29000Y194900D02*X1513694D01*
X29000Y179300D02*X1513697Y179303D01*
X687664Y195900D02*X686664Y194900D01*
X687664Y202200D02*Y195900D01*
Y180300D02*X686664Y179300D01*
X687664Y186600D02*Y180300D01*
X124333Y163900D02*X124133Y163700D01*
X1187662Y164200D02*X1188162Y163700D01*
X1020996Y171000D02*Y163700D01*
X854330Y171000D02*Y164200D01*
Y195400D02*X853830Y194900D01*
X1020996Y186600D02*Y179300D01*
Y202200D02*Y194900D01*
X854330Y186600D02*Y179800D01*
X853830Y179300D01*
X854330Y202200D02*Y195400D01*
X520998Y295800D02*Y289000D01*
Y101800D02*X520498Y101300D01*
X520998Y108600D02*Y101800D01*
Y117400D02*X520498Y116900D01*
X520998Y124200D02*Y117400D01*
X687664Y149100D02*X686664Y148100D01*
X687664Y155400D02*Y149100D01*
X854330Y155400D02*Y148600D01*
X853830Y148100D01*
X790997Y108600D02*Y101500D01*
X790797Y101300D01*
X1354328Y211500D02*X1355328Y210500D01*
X1187662Y217800D02*Y211000D01*
X1188162Y210500D01*
X1020996Y217800D02*Y210500D01*
X29000Y148100D02*X1513694D01*
X29000Y132500D02*X1513694D01*
X29000Y116900D02*X1513694D01*
X29000Y101300D02*X1513697Y101303D01*
X1187662Y101800D02*X1188162Y101300D01*
X1020996Y108600D02*Y101300D01*
X854330Y108600D02*Y101800D01*
X853830Y101300D01*
X687664Y133500D02*X686664Y132500D01*
X687664Y139800D02*Y133500D01*
Y117900D02*X686664Y116900D01*
X687664Y124200D02*Y117900D01*
Y102300D02*X686664Y101300D01*
X687664Y108600D02*Y102300D01*
X854330Y124200D02*Y117400D01*
X853830Y116900D01*
X854330Y139800D02*Y133000D01*
X853830Y132500D01*
X520998Y289000D02*X520498Y288500D01*
G54D22*X1540994Y311400D02*X21000D01*
G54D25*X29000Y272900D02*X1513694D01*
X29000Y288500D02*X1513694D01*
X29000Y226100D02*X1513694D01*
X29000Y241700D02*X1513694D01*
X29000Y257300D02*X1513697Y257303D01*
X687664Y227100D02*X686664Y226100D01*
X687664Y233400D02*Y227100D01*
Y242700D02*X686664Y241700D01*
X687664Y249000D02*Y242700D01*
Y258300D02*X686664Y257300D01*
X687664Y273900D02*X686664Y272900D01*
X687664Y280200D02*Y273900D01*
Y289500D02*X686664Y288500D01*
X687664Y295800D02*Y289500D01*
X1187662Y280200D02*Y273400D01*
X1188162Y272900D01*
X1020996Y295800D02*Y288500D01*
Y280200D02*Y272900D01*
Y264600D02*Y257300D01*
X1187662Y226600D02*X1188162Y226100D01*
X1020996Y249000D02*Y241700D01*
Y233400D02*Y226100D01*
X854330Y295800D02*Y289000D01*
X853830Y288500D01*
X854330Y280200D02*Y273400D01*
X853830Y272900D01*
X854330Y264600D02*Y257800D01*
X853830Y257300D01*
X854330Y249000D02*Y242200D01*
X853830Y241700D01*
X854330Y233400D02*Y226600D01*
X853830Y226100D01*
G54D23*X31000Y474000D02*Y440500D01*
G54D22*X41000Y436200D02*X21000D01*
G54D25*X21700Y233400D02*X29000Y226100D01*
X21000Y233400D02*X21700D01*
Y249000D02*X29000Y241700D01*
X21000Y249000D02*X21700D01*
Y264600D02*X29000Y257300D01*
X21000Y264600D02*X21700D01*
Y280200D02*X29000Y272900D01*
X21000Y280200D02*X21700D01*
Y295800D02*X29000Y288500D01*
X21000Y295800D02*X21700D01*
Y171000D02*X29000Y163700D01*
X21700Y155400D02*X29000Y148100D01*
X21000Y155400D02*X21700D01*
X21000Y171000D02*X21700D01*
Y139800D02*X29000Y132500D01*
X21000Y139800D02*X21700D01*
Y124200D02*X29000Y116900D01*
X21000Y124200D02*X21700D01*
X124333Y226300D02*X124133Y226100D01*
X124333Y233400D02*Y226300D01*
X21700Y108600D02*X29000Y101300D01*
X21000Y108600D02*X21700D01*
X21000Y217800D02*X21700D01*
Y202200D02*X29000Y194900D01*
X124333Y210700D02*X124133Y210500D01*
X124333Y217800D02*Y210700D01*
Y195100D02*X124133Y194900D01*
X124333Y202200D02*Y195100D01*
X21700Y217800D02*X29000Y210500D01*
X21000Y202200D02*X21700D01*
Y186600D02*X29000Y179300D01*
X21000Y186600D02*X21700D01*
X124333Y179500D02*X124133Y179300D01*
X124333Y186600D02*Y179500D01*
Y171000D02*Y163900D01*
Y148300D02*X124133Y148100D01*
X124333Y155400D02*Y148300D01*
Y132700D02*X124133Y132500D01*
X124333Y139800D02*Y132700D01*
Y117100D02*X124133Y116900D01*
X124333Y124200D02*Y117100D01*
Y241900D02*X124133Y241700D01*
X124333Y249000D02*Y241900D01*
Y257500D02*X124133Y257300D01*
X124333Y264600D02*Y257500D01*
Y273100D02*X124133Y272900D01*
X124333Y280200D02*Y273100D01*
Y288700D02*X124133Y288500D01*
X124333Y295800D02*Y288700D01*
X187666Y226600D02*X188166Y226100D01*
X187666Y211000D02*X188166Y210500D01*
X187666Y217800D02*Y211000D01*
Y233400D02*Y226600D01*
X124333Y101500D02*X124133Y101300D01*
X124333Y108600D02*Y101500D01*
X187666Y202200D02*Y195400D01*
Y164200D02*X188166Y163700D01*
X187666Y171000D02*Y164200D01*
Y148600D02*X188166Y148100D01*
X187666Y155400D02*Y148600D01*
Y242200D02*X188166Y241700D01*
X187666Y249000D02*Y242200D01*
Y257800D02*X188166Y257300D01*
X187666Y264600D02*Y257800D01*
Y273400D02*X188166Y272900D01*
X187666Y280200D02*Y273400D01*
Y289000D02*X188166Y288500D01*
X187666Y295800D02*Y289000D01*
G54D23*X114333Y474000D02*Y440500D01*
G54D22*X124333Y436200D02*X104333D01*
G54D23*X197666Y474000D02*Y440500D01*
G54D22*X207666Y436200D02*X187666D01*
G54D23*X280999Y474000D02*Y440500D01*
G54D22*X290999Y436200D02*X270999D01*
G54D25*X290999Y226300D02*X290799Y226100D01*
X290999Y210700D02*X290799Y210500D01*
X290999Y217800D02*Y210700D01*
Y233400D02*Y226300D01*
Y241900D02*X290799Y241700D01*
X290999Y249000D02*Y241900D01*
Y257500D02*X290799Y257300D01*
X290999Y264600D02*Y257500D01*
Y273100D02*X290799Y272900D01*
X290999Y280200D02*Y273100D01*
Y288700D02*X290799Y288500D01*
X290999Y295800D02*Y288700D01*
X187666Y133000D02*X188166Y132500D01*
X187666Y139800D02*Y133000D01*
Y117400D02*X188166Y116900D01*
X187666Y124200D02*Y117400D01*
Y101800D02*X188166Y101300D01*
X187666Y108600D02*Y101800D01*
Y195400D02*X188166Y194900D01*
X187666Y179800D02*X188166Y179300D01*
X187666Y186600D02*Y179800D01*
X290999Y195100D02*X290799Y194900D01*
X290999Y202200D02*Y195100D01*
Y179500D02*X290799Y179300D01*
X290999Y186600D02*Y179500D01*
Y163900D02*X290799Y163700D01*
X290999Y171000D02*Y163900D01*
Y148300D02*X290799Y148100D01*
X290999Y155400D02*Y148300D01*
Y132700D02*X290799Y132500D01*
X290999Y139800D02*Y132700D01*
Y117100D02*X290799Y116900D01*
X290999Y124200D02*Y117100D01*
Y101500D02*X290799Y101300D01*
X290999Y108600D02*Y101500D01*
G54D27*X1328629Y82217D02*X1329509D01*
X1328629Y78367D02*Y82217D01*
X1329179Y77817D02*X1328629Y78367D01*
X1329179Y77817D02*X1329729D01*
X1330279Y78367D02*X1329729Y77817D01*
X1330279Y78367D02*Y78917D01*
X1327309Y78367D02*Y80017D01*
Y78367D02*X1326759Y77817D01*
X1325659D02*X1326759D01*
X1325659D02*X1325109Y78367D01*
Y80017D01*
X1321589Y77817D02*X1323239D01*
X1321589D02*X1321039Y78367D01*
X1321589Y78917D02*X1321039Y78367D01*
X1321589Y78917D02*X1323239D01*
X1323789Y79467D02*X1323239Y78917D01*
X1323789Y79467D02*X1323239Y80017D01*
X1321589D02*X1323239D01*
X1321589D02*X1321039Y79467D01*
X1323789Y78367D02*X1323239Y77817D01*
X1319169Y78367D02*Y82217D01*
Y78367D02*X1318619Y77817D01*
Y80567D02*X1319719D01*
X1313339Y77817D02*X1314989D01*
X1313339D02*X1312789Y78367D01*
X1313339Y78917D02*X1312789Y78367D01*
X1313339Y78917D02*X1314989D01*
X1315539Y79467D02*X1314989Y78917D01*
X1315539Y79467D02*X1314989Y80017D01*
X1313339D02*X1314989D01*
X1313339D02*X1312789Y79467D01*
X1315539Y78367D02*X1314989Y77817D01*
X1309819Y80017D02*X1309269Y79467D01*
X1309819Y80017D02*X1310919D01*
X1311469Y79467D02*X1310919Y80017D01*
X1311469Y78367D02*Y79467D01*
Y78367D02*X1310919Y77817D01*
X1309269Y78367D02*Y80017D01*
Y78367D02*X1308719Y77817D01*
X1309819D02*X1310919D01*
X1309819D02*X1309269Y78367D01*
X1307399D02*Y80017D01*
Y78367D02*X1306849Y77817D01*
X1305199Y76717D02*Y80017D01*
X1305749Y76167D02*X1305199Y76717D01*
X1305749Y76167D02*X1306849D01*
X1307399Y76717D02*X1306849Y76167D01*
X1305749Y77817D02*X1306849D01*
X1305749D02*X1305199Y78367D01*
X1301349Y77817D02*Y79467D01*
X1300799Y80017D01*
X1300249D02*X1300799D01*
X1300249D02*X1299699Y79467D01*
Y77817D02*Y79467D01*
X1301899Y80017D02*X1301349Y79467D01*
X1298379Y78367D02*Y79467D01*
X1297829Y80017D01*
X1296729D02*X1297829D01*
X1296729D02*X1296179Y79467D01*
Y78367D02*Y79467D01*
X1296729Y77817D02*X1296179Y78367D01*
X1296729Y77817D02*X1297829D01*
X1298379Y78367D02*X1297829Y77817D01*
X1292329Y78367D02*Y82217D01*
Y78367D02*X1291779Y77817D01*
Y80567D02*X1292879D01*
X1290679Y78367D02*Y79467D01*
X1290129Y80017D01*
X1289029D02*X1290129D01*
X1289029D02*X1288479Y79467D01*
Y78367D02*Y79467D01*
X1289029Y77817D02*X1288479Y78367D01*
X1289029Y77817D02*X1290129D01*
X1290679Y78367D02*X1290129Y77817D01*
X1284629D02*Y81667D01*
X1284079Y82217D01*
X1283529D02*X1284079D01*
Y80017D02*X1285179D01*
X1282429Y78367D02*Y82217D01*
Y78367D02*X1281879Y77817D01*
X1279129Y80017D02*X1278579Y79467D01*
X1279129Y80017D02*X1280229D01*
X1280779Y79467D02*X1280229Y80017D01*
X1280779Y78367D02*Y79467D01*
Y78367D02*X1280229Y77817D01*
X1278579Y78367D02*Y80017D01*
Y78367D02*X1278029Y77817D01*
X1279129D02*X1280229D01*
X1279129D02*X1278579Y78367D01*
X1276159Y77817D02*Y79467D01*
X1275609Y80017D01*
X1275059D02*X1275609D01*
X1275059D02*X1274509Y79467D01*
Y77817D02*Y79467D01*
X1273959Y80017D01*
X1273409D02*X1273959D01*
X1273409D02*X1272859Y79467D01*
Y77817D02*Y79467D01*
X1276709Y80017D02*X1276159Y79467D01*
X1271539Y81007D02*Y81117D01*
Y77817D02*Y79467D01*
X1269889Y77817D02*Y79467D01*
X1269339Y80017D01*
X1268789D02*X1269339D01*
X1268789D02*X1268239Y79467D01*
Y77817D02*Y79467D01*
X1270439Y80017D02*X1269889Y79467D01*
X1265269Y80017D02*X1264719Y79467D01*
X1265269Y80017D02*X1266369D01*
X1266919Y79467D02*X1266369Y80017D01*
X1266919Y78367D02*Y79467D01*
Y78367D02*X1266369Y77817D01*
X1265269D02*X1266369D01*
X1265269D02*X1264719Y78367D01*
X1266919Y76717D02*X1266369Y76167D01*
X1265269D02*X1266369D01*
X1265269D02*X1264719Y76717D01*
Y80017D01*
X1260869Y77817D02*Y81667D01*
X1260319Y82217D01*
X1259769D02*X1260319D01*
Y80017D02*X1261419D01*
X1258669Y78367D02*Y79467D01*
X1258119Y80017D01*
X1257019D02*X1258119D01*
X1257019D02*X1256469Y79467D01*
Y78367D02*Y79467D01*
X1257019Y77817D02*X1256469Y78367D01*
X1257019Y77817D02*X1258119D01*
X1258669Y78367D02*X1258119Y77817D01*
X1255149Y78367D02*Y80017D01*
Y78367D02*X1254599Y77817D01*
X1254049D02*X1254599D01*
X1254049D02*X1253499Y78367D01*
Y80017D01*
Y78367D02*X1252949Y77817D01*
X1252399D02*X1252949D01*
X1252399D02*X1251849Y78367D01*
Y80017D01*
X1250529Y78367D02*Y82217D01*
Y78367D02*X1249979Y77817D01*
X1248879D02*Y78367D01*
Y79467D02*Y82217D01*
G54D28*X104333Y436200D03*
Y420600D03*
Y405000D03*
Y389400D03*
Y373800D03*
Y358200D03*
Y342600D03*
Y327000D03*
Y311400D03*
Y295800D03*
Y280200D03*
X124333Y436200D03*
Y420600D03*
Y405000D03*
Y389400D03*
Y373800D03*
Y358200D03*
Y342600D03*
Y327000D03*
Y311400D03*
Y295800D03*
Y280200D03*
X207666Y373800D03*
Y358200D03*
Y342600D03*
Y327000D03*
Y311400D03*
Y295800D03*
Y280200D03*
X187666Y358200D03*
Y342600D03*
Y327000D03*
Y311400D03*
Y295800D03*
Y280200D03*
G54D29*X197666Y474000D03*
X280999D03*
G54D28*X270999Y436200D03*
X207666D03*
X187666D03*
Y420600D03*
X207666D03*
Y405000D03*
Y389400D03*
X187666Y405000D03*
Y389400D03*
Y373800D03*
X270999Y420600D03*
Y405000D03*
Y389400D03*
Y373800D03*
Y358200D03*
Y342600D03*
Y327000D03*
Y311400D03*
Y295800D03*
Y280200D03*
X290999Y436200D03*
Y420600D03*
Y405000D03*
Y389400D03*
Y373800D03*
Y358200D03*
Y342600D03*
Y327000D03*
Y311400D03*
Y295800D03*
Y280200D03*
G54D29*X364332Y474000D03*
G54D28*X374332Y436200D03*
X354332D03*
Y420600D03*
X374332D03*
Y405000D03*
Y389400D03*
X354332Y405000D03*
Y389400D03*
Y373800D03*
X374332D03*
Y358200D03*
Y342600D03*
Y327000D03*
Y311400D03*
Y295800D03*
Y280200D03*
X354332Y358200D03*
Y342600D03*
Y327000D03*
Y311400D03*
Y295800D03*
Y280200D03*
G54D29*X530998Y474000D03*
G54D28*X540998Y436200D03*
X520998D03*
Y420600D03*
X540998D03*
Y405000D03*
Y389400D03*
X520998Y405000D03*
Y389400D03*
Y373800D03*
X540998D03*
Y358200D03*
Y342600D03*
Y327000D03*
Y311400D03*
Y295800D03*
Y280200D03*
X520998Y358200D03*
Y342600D03*
Y327000D03*
Y311400D03*
Y295800D03*
Y280200D03*
G54D29*X697664Y474000D03*
G54D28*X707664Y436200D03*
X687664D03*
X707664Y420600D03*
X687664D03*
X707664Y405000D03*
X687664D03*
Y389400D03*
X707664D03*
Y373800D03*
Y358200D03*
Y342600D03*
Y327000D03*
Y311400D03*
Y295800D03*
Y280200D03*
X687664Y373800D03*
Y358200D03*
Y342600D03*
Y327000D03*
Y311400D03*
Y295800D03*
Y280200D03*
G54D29*X31000Y70800D03*
X114333D03*
X197666D03*
G54D28*X21000Y264600D03*
Y249000D03*
Y233400D03*
Y217800D03*
Y202200D03*
Y186600D03*
Y171000D03*
Y155400D03*
Y139800D03*
Y124200D03*
Y108600D03*
X41000Y202200D03*
Y186600D03*
Y171000D03*
Y155400D03*
Y139800D03*
Y124200D03*
Y108600D03*
X104333Y233400D03*
Y217800D03*
Y202200D03*
Y186600D03*
Y171000D03*
Y155400D03*
Y139800D03*
Y124200D03*
Y108600D03*
X270999Y202200D03*
X290999D03*
X270999Y186600D03*
X290999D03*
X270999Y171000D03*
X290999D03*
X270999Y155400D03*
X290999D03*
X270999Y139800D03*
X290999D03*
X270999Y233400D03*
Y217800D03*
X290999Y233400D03*
Y217800D03*
X187666Y124200D03*
X270999D03*
X290999D03*
X187666Y108600D03*
X270999D03*
X290999D03*
G54D29*X280999Y70800D03*
X364332D03*
X530998D03*
G54D28*X374332Y124200D03*
X354332D03*
X540998D03*
X520998D03*
X374332Y108600D03*
X354332D03*
X540998D03*
X520998D03*
G54D29*X31000Y474000D03*
G54D28*X21000Y436200D03*
Y420600D03*
Y405000D03*
Y389400D03*
Y373800D03*
X41000Y436200D03*
Y420600D03*
Y405000D03*
Y389400D03*
Y373800D03*
G54D29*X114333Y474000D03*
G54D28*X41000Y358200D03*
X21000D03*
X41000Y342600D03*
X21000D03*
X41000Y327000D03*
X21000D03*
Y311400D03*
Y295800D03*
Y280200D03*
X41000Y311400D03*
Y295800D03*
Y280200D03*
Y264600D03*
Y249000D03*
Y233400D03*
Y217800D03*
X104333Y264600D03*
Y249000D03*
X124333Y264600D03*
Y249000D03*
Y233400D03*
Y217800D03*
Y202200D03*
Y186600D03*
Y171000D03*
Y155400D03*
Y139800D03*
Y124200D03*
Y108600D03*
X207666Y264600D03*
X187666D03*
X207666Y249000D03*
X187666D03*
X207666Y233400D03*
X187666D03*
X207666Y217800D03*
X187666D03*
Y202200D03*
X207666D03*
Y186600D03*
Y171000D03*
Y155400D03*
Y139800D03*
Y124200D03*
Y108600D03*
X187666Y186600D03*
Y171000D03*
Y155400D03*
Y139800D03*
X270999Y264600D03*
Y249000D03*
X290999Y264600D03*
Y249000D03*
X374332Y264600D03*
X354332D03*
X374332Y249000D03*
X354332D03*
X374332Y233400D03*
X354332D03*
X374332Y217800D03*
X354332D03*
Y202200D03*
X374332D03*
Y186600D03*
Y171000D03*
Y155400D03*
Y139800D03*
X354332Y186600D03*
Y171000D03*
Y155400D03*
Y139800D03*
X540998Y264600D03*
X520998D03*
X707664D03*
X687664D03*
X540998Y249000D03*
X520998D03*
X707664D03*
X687664D03*
X540998Y233400D03*
X520998D03*
X707664D03*
X687664D03*
X540998Y217800D03*
X520998D03*
Y202200D03*
X707664D03*
X687664Y217800D03*
Y202200D03*
X540998D03*
Y186600D03*
Y171000D03*
Y155400D03*
Y139800D03*
X520998Y186600D03*
Y171000D03*
Y155400D03*
Y139800D03*
X707664Y217800D03*
Y186600D03*
Y171000D03*
Y155400D03*
Y139800D03*
X687664Y186600D03*
Y171000D03*
Y155400D03*
Y139800D03*
G54D29*X1447661Y474000D03*
X1530994D03*
X1364328D03*
G54D28*X1437661Y436200D03*
X1457661D03*
Y420600D03*
X1437661D03*
Y405000D03*
Y389400D03*
X1457661Y405000D03*
Y389400D03*
Y373800D03*
X1540994Y436200D03*
Y420600D03*
Y405000D03*
X1520994Y436200D03*
Y420600D03*
Y405000D03*
X1437661Y233400D03*
Y217800D03*
Y202200D03*
Y186600D03*
Y171000D03*
Y155400D03*
Y139800D03*
X1457661Y233400D03*
Y217800D03*
Y202200D03*
Y186600D03*
Y171000D03*
Y155400D03*
Y139800D03*
G54D29*X1447661Y70800D03*
G54D28*X1437661Y124200D03*
Y108600D03*
X1457661Y124200D03*
Y108600D03*
X1540994Y233400D03*
Y217800D03*
Y202200D03*
Y186600D03*
Y171000D03*
Y155400D03*
Y139800D03*
X1520994Y155400D03*
Y139800D03*
G54D29*X1530994Y70800D03*
G54D28*X1520994Y124200D03*
Y108600D03*
X1437661Y373800D03*
Y358200D03*
Y342600D03*
Y327000D03*
Y311400D03*
Y295800D03*
X1457661Y358200D03*
Y342600D03*
Y327000D03*
Y311400D03*
Y295800D03*
X1540994Y389400D03*
Y373800D03*
Y358200D03*
Y342600D03*
Y327000D03*
Y311400D03*
Y295800D03*
X1520994Y389400D03*
Y373800D03*
Y358200D03*
Y342600D03*
Y327000D03*
Y311400D03*
Y295800D03*
X1374328Y436200D03*
Y420600D03*
X1354328Y436200D03*
Y420600D03*
Y405000D03*
X1374328D03*
Y389400D03*
Y373800D03*
Y358200D03*
Y342600D03*
Y327000D03*
Y311400D03*
Y295800D03*
X1354328Y389400D03*
Y373800D03*
Y358200D03*
Y342600D03*
Y327000D03*
Y311400D03*
Y295800D03*
X1437661Y280200D03*
X1457661D03*
X1540994D03*
X1520994D03*
X1437661Y264600D03*
X1540994D03*
X1520994D03*
X1457661D03*
Y249000D03*
X1540994D03*
X1520994D03*
Y233400D03*
Y217800D03*
Y202200D03*
Y186600D03*
Y171000D03*
X1374328Y186600D03*
Y171000D03*
Y155400D03*
Y139800D03*
X1354328Y186600D03*
Y171000D03*
Y155400D03*
Y139800D03*
X1437661Y249000D03*
X1374328Y280200D03*
X1354328D03*
X1374328Y264600D03*
X1354328D03*
X1374328Y233400D03*
Y217800D03*
Y202200D03*
Y249000D03*
X1354328D03*
Y233400D03*
Y217800D03*
Y202200D03*
G54D29*X697664Y70800D03*
G54D28*X707664Y124200D03*
Y108600D03*
X687664Y124200D03*
Y108600D03*
G54D29*X780997Y70800D03*
G54D28*X770997Y124200D03*
Y108600D03*
X790997Y124200D03*
Y108600D03*
X1040996Y280200D03*
X1020996D03*
Y264600D03*
Y249000D03*
X1040996Y264600D03*
X874330Y280200D03*
X854330D03*
Y264600D03*
Y249000D03*
X874330Y264600D03*
Y249000D03*
Y233400D03*
Y217800D03*
Y202200D03*
Y186600D03*
Y171000D03*
Y155400D03*
Y139800D03*
Y108600D03*
X854330Y233400D03*
Y217800D03*
Y202200D03*
Y186600D03*
Y171000D03*
Y155400D03*
Y139800D03*
Y124200D03*
Y108600D03*
X770997Y280200D03*
X790997D03*
Y264600D03*
Y249000D03*
X770997Y264600D03*
Y249000D03*
Y233400D03*
Y217800D03*
Y202200D03*
Y186600D03*
Y171000D03*
Y155400D03*
Y139800D03*
X790997Y233400D03*
Y217800D03*
Y202200D03*
Y186600D03*
Y171000D03*
Y155400D03*
Y139800D03*
G54D29*X1197662Y474000D03*
G54D28*X1207662Y436200D03*
X1187662D03*
Y420600D03*
X1207662D03*
Y405000D03*
Y389400D03*
X1187662Y405000D03*
Y389400D03*
Y373800D03*
X1207662D03*
Y358200D03*
Y342600D03*
Y327000D03*
Y311400D03*
Y295800D03*
X1187662Y358200D03*
Y342600D03*
Y327000D03*
Y311400D03*
Y295800D03*
G54D29*X1030996Y474000D03*
G54D28*X1040996Y436200D03*
X1020996D03*
X1040996Y420600D03*
X1020996D03*
X1040996Y405000D03*
X1020996D03*
Y389400D03*
X1040996D03*
Y373800D03*
Y358200D03*
Y342600D03*
Y327000D03*
Y311400D03*
Y295800D03*
X1020996Y373800D03*
Y358200D03*
Y342600D03*
Y327000D03*
Y311400D03*
Y295800D03*
G54D29*X864330Y474000D03*
G54D28*X874330Y436200D03*
X854330D03*
X874330Y420600D03*
X854330D03*
G54D29*X780997Y474000D03*
G54D28*X874330Y405000D03*
X854330D03*
Y389400D03*
X874330D03*
Y373800D03*
Y358200D03*
Y342600D03*
Y327000D03*
Y311400D03*
Y295800D03*
X854330Y373800D03*
Y358200D03*
Y342600D03*
Y327000D03*
Y311400D03*
Y295800D03*
X770997Y436200D03*
Y420600D03*
Y405000D03*
Y389400D03*
Y373800D03*
Y358200D03*
Y342600D03*
Y327000D03*
Y311400D03*
Y295800D03*
X790997Y436200D03*
Y420600D03*
Y405000D03*
Y389400D03*
Y373800D03*
Y358200D03*
Y342600D03*
Y327000D03*
Y311400D03*
Y295800D03*
X1207662Y280200D03*
Y264600D03*
Y249000D03*
X1187662Y280200D03*
Y264600D03*
Y249000D03*
X1207662Y233400D03*
Y217800D03*
Y202200D03*
Y186600D03*
Y171000D03*
Y155400D03*
Y139800D03*
X1187662Y233400D03*
Y217800D03*
Y202200D03*
Y186600D03*
Y171000D03*
Y155400D03*
Y139800D03*
X1040996Y249000D03*
Y233400D03*
Y217800D03*
Y202200D03*
Y186600D03*
Y171000D03*
Y155400D03*
Y139800D03*
X1020996Y233400D03*
Y217800D03*
Y202200D03*
Y186600D03*
Y171000D03*
Y155400D03*
Y139800D03*
X1540994Y124200D03*
Y108600D03*
G54D29*X1364328Y70800D03*
X1197662D03*
X1030996D03*
X864330D03*
G54D28*X1374328Y124200D03*
X1354328D03*
X1207662D03*
X1187662D03*
X1374328Y108600D03*
X1354328D03*
X1207662D03*
X1187662D03*
X1040996D03*
X1020996D03*
X1040996Y124200D03*
X1020996D03*
X874330D03*
G54D30*G54D31*G54D30*G54D31*G54D30*G54D31*G54D30*G54D31*G54D30*G54D31*G54D30*G54D31*G54D30*G54D31*G54D30*G54D31*G54D30*G54D31*G54D30*G54D31*G54D30*G54D31*G54D30*G54D31*G54D30*G54D31*G54D30*G54D31*G54D30*G54D31*G54D30*G54D31*G54D30*G54D31*G54D30*G54D31*G54D30*M02*
