G04 start of page 3 for group 1 idx 1 *
G04 Title: (unknown), ground *
G04 Creator: pcb 20110918 *
G04 CreationDate: Fri Mar 28 21:41:01 2014 UTC *
G04 For: fosse *
G04 Format: Gerber/RS-274X *
G04 PCB-Dimensions: 1525000 500000 *
G04 PCB-Coordinate-Origin: lower left *
%MOIN*%
%FSLAX25Y25*%
%LNGROUP1*%
%ADD27C,0.0380*%
%ADD26C,0.1280*%
%ADD25C,0.0780*%
%ADD24C,0.2560*%
%ADD23C,0.2550*%
%ADD22C,0.0350*%
%ADD21C,0.1250*%
%ADD20C,0.2000*%
G54D20*X271700Y477500D02*Y444000D01*
G54D21*X281700Y439700D02*X261700D01*
G54D20*X190500Y477500D02*Y444000D01*
G54D21*X200500Y439700D02*X180500D01*
G54D20*X353000Y477500D02*Y444000D01*
G54D21*X363000Y439700D02*X343000D01*
G54D20*X109200Y477500D02*Y444000D01*
G54D21*X119200Y439700D02*X99200D01*
G54D20*X28000Y477500D02*Y444000D01*
G54D21*X38000Y439700D02*X18000D01*
G54D22*X281700Y214200D02*X281500Y214000D01*
X281700Y221300D02*Y214200D01*
Y198600D02*X281500Y198400D01*
X281700Y205700D02*Y198600D01*
Y183000D02*X281500Y182800D01*
X281700Y190100D02*Y183000D01*
Y229800D02*X281500Y229600D01*
X281700Y236900D02*Y229800D01*
Y245400D02*X281500Y245200D01*
X281700Y252500D02*Y245400D01*
X343000Y268100D02*Y260800D01*
Y283700D02*Y276400D01*
Y299300D02*Y292000D01*
X281700Y261000D02*X281500Y260800D01*
X281700Y268100D02*Y261000D01*
Y276600D02*X281500Y276400D01*
X281700Y283700D02*Y276600D01*
Y292200D02*X281500Y292000D01*
X281700Y299300D02*Y292200D01*
Y167400D02*X281500Y167200D01*
X281700Y151800D02*X281500Y151600D01*
X281700Y158900D02*Y151800D01*
Y174500D02*Y167400D01*
Y136200D02*X281500Y136000D01*
X281700Y143300D02*Y136200D01*
Y120600D02*X281500Y120400D01*
X281700Y127700D02*Y120600D01*
Y105000D02*X281500Y104800D01*
X281700Y112100D02*Y105000D01*
X343000Y205700D02*Y198400D01*
Y190100D02*Y182800D01*
Y174500D02*Y167200D01*
Y158900D02*Y151600D01*
Y143300D02*Y136000D01*
Y127700D02*Y120400D01*
Y112100D02*Y104800D01*
X505500Y112100D02*Y105300D01*
X180500Y112100D02*Y105300D01*
X505500Y261300D02*X505000Y260800D01*
X505500Y268100D02*Y261300D01*
Y276900D02*X505000Y276400D01*
X505500Y283700D02*Y276900D01*
Y292500D02*X505000Y292000D01*
X505500Y299300D02*Y292500D01*
X18700Y174500D02*X26000Y167200D01*
X18000Y174500D02*X18700D01*
Y158900D02*X26000Y151600D01*
X18000Y158900D02*X18700D01*
Y143300D02*X26000Y136000D01*
X18700Y127700D02*X26000Y120400D01*
X18000Y127700D02*X18700D01*
Y112100D02*X26000Y104800D01*
X18000Y112100D02*X18700D01*
X18000Y143300D02*X18700D01*
Y221300D02*X26000Y214000D01*
X18000Y221300D02*X18700D01*
Y205700D02*X26000Y198400D01*
X18700Y190100D02*X26000Y182800D01*
X18000Y190100D02*X18700D01*
X18000Y205700D02*X18700D01*
Y252500D02*X26000Y245200D01*
X18000Y252500D02*X18700D01*
Y268100D02*X26000Y260800D01*
X18000Y268100D02*X18700D01*
Y283700D02*X26000Y276400D01*
X18000Y283700D02*X18700D01*
Y299300D02*X26000Y292000D01*
X18000Y299300D02*X18700D01*
X180500Y221300D02*Y214500D01*
Y198900D02*X181000Y198400D01*
X180500Y205700D02*Y198900D01*
Y183300D02*X181000Y182800D01*
X180500Y190100D02*Y183300D01*
Y174500D02*Y167700D01*
X119200Y198600D02*X119000Y198400D01*
X119200Y205700D02*Y198600D01*
Y183000D02*X119000Y182800D01*
X119200Y190100D02*Y183000D01*
Y167400D02*X119000Y167200D01*
X119200Y174500D02*Y167400D01*
Y151800D02*X119000Y151600D01*
X119200Y158900D02*Y151800D01*
Y136200D02*X119000Y136000D01*
X119200Y143300D02*Y136200D01*
Y120600D02*X119000Y120400D01*
X119200Y127700D02*Y120600D01*
Y105000D02*X119000Y104800D01*
X119200Y112100D02*Y105000D01*
X180500Y167700D02*X181000Y167200D01*
X180500Y152100D02*X181000Y151600D01*
X180500Y158900D02*Y152100D01*
Y136500D02*X181000Y136000D01*
X180500Y143300D02*Y136500D01*
Y120900D02*X181000Y120400D01*
X180500Y127700D02*Y120900D01*
Y105300D02*X181000Y104800D01*
X119200Y245400D02*X119000Y245200D01*
X119200Y252500D02*Y245400D01*
Y261000D02*X119000Y260800D01*
X119200Y268100D02*Y261000D01*
Y276600D02*X119000Y276400D01*
X119200Y283700D02*Y276600D01*
Y292200D02*X119000Y292000D01*
X119200Y299300D02*Y292200D01*
X180500Y245700D02*X181000Y245200D01*
X180500Y252500D02*Y245700D01*
Y261300D02*X181000Y260800D01*
X180500Y268100D02*Y261300D01*
Y276900D02*X181000Y276400D01*
X180500Y283700D02*Y276900D01*
Y292500D02*X181000Y292000D01*
X180500Y299300D02*Y292500D01*
G54D20*X1490500Y477500D02*Y444000D01*
G54D21*X1500500Y439700D02*X1480500D01*
G54D20*X1409200Y477500D02*Y444000D01*
G54D21*X1419200Y439700D02*X1399200D01*
G54D20*X1328000Y477500D02*Y444000D01*
G54D21*X1338000Y439700D02*X1318000D01*
G54D20*X1165500Y477500D02*Y444000D01*
G54D21*X1175500Y439700D02*X1155500D01*
G54D22*X993000Y221300D02*Y214000D01*
Y283700D02*Y276400D01*
Y268100D02*Y260800D01*
X1155500Y261300D02*X1156000Y260800D01*
X1155500Y268100D02*Y261300D01*
Y276900D02*X1156000Y276400D01*
X1155500Y283700D02*Y276900D01*
X993000Y299300D02*Y292000D01*
X1155500Y292500D02*X1156000Y292000D01*
X1155500Y299300D02*Y292500D01*
X1419200Y214200D02*X1419000Y214000D01*
X1419200Y221300D02*Y214200D01*
X1155500Y214500D02*X1156000Y214000D01*
X1155500Y221300D02*Y214500D01*
X1318000Y215000D02*X1319000Y214000D01*
X1318000Y221300D02*Y215000D01*
X1473200Y214000D02*X1480500Y221300D01*
X1473200Y245200D02*X1480500Y252500D01*
X1473200Y260800D02*X1480500Y268100D01*
X1473200Y276400D02*X1480500Y283700D01*
X1473200Y292000D02*X1480500Y299300D01*
X1419200Y261000D02*X1419000Y260800D01*
X1419200Y268100D02*Y261000D01*
Y276600D02*X1419000Y276400D01*
X1419200Y283700D02*Y276600D01*
Y292200D02*X1419000Y292000D01*
X1419200Y299300D02*Y292200D01*
X1318000Y261800D02*X1319000Y260800D01*
X1318000Y268100D02*Y261800D01*
Y277400D02*X1319000Y276400D01*
X1318000Y283700D02*Y277400D01*
Y293000D02*X1319000Y292000D01*
X1318000Y299300D02*Y293000D01*
G54D20*X515500Y477500D02*Y444000D01*
G54D21*X525500Y439700D02*X505500D01*
G54D20*X678000Y477500D02*Y444000D01*
G54D21*X688000Y439700D02*X668000D01*
G54D20*X840500Y477500D02*Y444000D01*
G54D21*X850500Y439700D02*X830500D01*
G54D20*X759200Y477500D02*Y444000D01*
G54D21*X769200Y439700D02*X749200D01*
G54D20*X1003000Y477500D02*Y444000D01*
G54D21*X1013000Y439700D02*X993000D01*
X1500500Y377300D02*X18000D01*
X1500500Y361700D02*X18000D01*
X1500500Y346100D02*X18000D01*
X1500500Y330500D02*X18000D01*
X1500500Y314900D02*X18000D01*
X1500500Y392900D02*X18000D01*
X1500500Y408500D02*X18000D01*
G54D23*X28000Y477500D02*X1490500D01*
G54D21*X1500500Y424100D02*X18000D01*
G54D22*X830500Y221300D02*Y214500D01*
X993000Y205700D02*Y198400D01*
X1419200Y198600D02*X1419000Y198400D01*
X1419200Y205700D02*Y198600D01*
X1155500Y198900D02*X1156000Y198400D01*
X1155500Y205700D02*Y198900D01*
X1318000Y199400D02*X1319000Y198400D01*
X1473200D02*X1480500Y205700D01*
X26000Y198400D02*X1473200D01*
X26000Y245200D02*X1473200D01*
X830500Y261300D02*X830000Y260800D01*
X830500Y268100D02*Y261300D01*
Y276900D02*X830000Y276400D01*
X830500Y283700D02*Y276900D01*
Y292500D02*X830000Y292000D01*
X830500Y299300D02*Y292500D01*
X769200Y261000D02*X769000Y260800D01*
X769200Y268100D02*Y261000D01*
X26000Y260800D02*X1473200D01*
X769200Y276600D02*X769000Y276400D01*
X668000Y277400D02*X667000Y276400D01*
X668000Y283700D02*Y277400D01*
Y293000D02*X667000Y292000D01*
X668000Y299300D02*Y293000D01*
X769200Y283700D02*Y276600D01*
Y292200D02*X769000Y292000D01*
X769200Y299300D02*Y292200D01*
X668000Y261800D02*X667000Y260800D01*
X668000Y268100D02*Y261800D01*
X26000Y276400D02*X1473200D01*
X26000Y292000D02*X1473200D01*
X1419200Y183000D02*X1419000Y182800D01*
X1419200Y190100D02*Y183000D01*
X1318000Y183800D02*X1319000Y182800D01*
X1318000Y190100D02*Y183800D01*
X1473200Y182800D02*X1480500Y190100D01*
X1419200Y167400D02*X1419000Y167200D01*
X1419200Y174500D02*Y167400D01*
X1473200Y167200D02*X1480500Y174500D01*
X1318000Y168200D02*X1319000Y167200D01*
X1318000Y152600D02*X1319000Y151600D01*
X1318000Y158900D02*Y152600D01*
Y174500D02*Y168200D01*
X1419200Y151800D02*X1419000Y151600D01*
X1419200Y158900D02*Y151800D01*
X1473200Y151600D02*X1480500Y158900D01*
X1419200Y136200D02*X1419000Y136000D01*
X1419200Y143300D02*Y136200D01*
X1155500Y183300D02*X1156000Y182800D01*
X1155500Y190100D02*Y183300D01*
Y167700D02*X1156000Y167200D01*
X1155500Y174500D02*Y167700D01*
Y152100D02*X1156000Y151600D01*
X1155500Y158900D02*Y152100D01*
Y136500D02*X1156000Y136000D01*
X993000Y174500D02*Y167200D01*
Y158900D02*Y151600D01*
Y143300D02*Y136000D01*
Y112100D02*Y104800D01*
Y127700D02*Y120400D01*
X1155500Y120900D02*X1156000Y120400D01*
X1155500Y127700D02*Y120900D01*
Y105300D02*X1156000Y104800D01*
X1155500Y112100D02*Y105300D01*
Y143300D02*Y136500D01*
X1318000Y137000D02*X1319000Y136000D01*
X1318000Y143300D02*Y137000D01*
X1473200Y136000D02*X1480500Y143300D01*
X1473200Y120400D02*X1480500Y127700D01*
X1419200Y120600D02*X1419000Y120400D01*
X1419200Y127700D02*Y120600D01*
Y105000D02*X1419000Y104800D01*
X1419200Y112100D02*Y105000D01*
X1318000Y121400D02*X1319000Y120400D01*
X1318000Y127700D02*Y121400D01*
Y105800D02*X1319000Y104800D01*
X993000Y236900D02*Y229600D01*
X1155500Y230100D02*X1156000Y229600D01*
X1155500Y236900D02*Y230100D01*
Y245700D02*X1156000Y245200D01*
X1155500Y252500D02*Y245700D01*
X1419200Y229800D02*X1419000Y229600D01*
X1419200Y236900D02*Y229800D01*
X1318000Y230600D02*X1319000Y229600D01*
X1318000Y236900D02*Y230600D01*
X1473200Y229600D02*X1480500Y236900D01*
X1419200Y245400D02*X1419000Y245200D01*
X1419200Y252500D02*Y245400D01*
X1318000Y246200D02*X1319000Y245200D01*
X1318000Y252500D02*Y246200D01*
Y112100D02*Y105800D01*
X1473200Y104800D02*X1480500Y112100D01*
X668000Y230600D02*X667000Y229600D01*
X668000Y236900D02*Y230600D01*
X505500Y236900D02*Y230100D01*
X343000Y236900D02*Y229600D01*
X119200Y236900D02*Y229800D01*
X180500Y236900D02*Y230100D01*
X18700Y236900D02*X26000Y229600D01*
X18000Y236900D02*X18700D01*
X769200Y245400D02*X769000Y245200D01*
X769200Y252500D02*Y245400D01*
X993000Y252500D02*Y245200D01*
X830500Y214500D02*X830000Y214000D01*
X505500Y214500D02*X505000Y214000D01*
X119200Y214200D02*X119000Y214000D01*
X505500Y221300D02*Y214500D01*
X343000Y221300D02*Y214000D01*
X119200Y221300D02*Y214200D01*
X180500Y214500D02*X181000Y214000D01*
X505500Y198900D02*X505000Y198400D01*
X505500Y205700D02*Y198900D01*
Y183300D02*X505000Y182800D01*
X505500Y190100D02*Y183300D01*
Y167700D02*X505000Y167200D01*
X505500Y174500D02*Y167700D01*
X668000Y183800D02*X667000Y182800D01*
X668000Y190100D02*Y183800D01*
Y168200D02*X667000Y167200D01*
X668000Y174500D02*Y168200D01*
Y152600D02*X667000Y151600D01*
X505500Y152100D02*X505000Y151600D01*
X505500Y158900D02*Y152100D01*
X668000Y158900D02*Y152600D01*
Y137000D02*X667000Y136000D01*
X668000Y121400D02*X667000Y120400D01*
X668000Y127700D02*Y121400D01*
Y143300D02*Y137000D01*
X505500Y136500D02*X505000Y136000D01*
X505500Y143300D02*Y136500D01*
Y120900D02*X505000Y120400D01*
X505500Y127700D02*Y120900D01*
Y105300D02*X505000Y104800D01*
X769200Y214200D02*X769000Y214000D01*
X668000Y215000D02*X667000Y214000D01*
X668000Y221300D02*Y215000D01*
Y199400D02*X667000Y198400D01*
X668000Y205700D02*Y199400D01*
X769200Y221300D02*Y214200D01*
Y198600D02*X769000Y198400D01*
X769200Y205700D02*Y198600D01*
X830500Y198900D02*X830000Y198400D01*
X830500Y205700D02*Y198900D01*
X26000Y214000D02*X1473200D01*
X1318000Y205700D02*Y199400D01*
X769200Y183000D02*X769000Y182800D01*
X993000Y190100D02*Y182800D01*
X830500Y183300D02*X830000Y182800D01*
X26000D02*X1473200D01*
X26000Y167200D02*X1473200D01*
X26000Y151600D02*X1473200D01*
X26000Y136000D02*X1473200D01*
X26000Y120400D02*X1473200D01*
X668000Y105800D02*X667000Y104800D01*
X668000Y112100D02*Y105800D01*
X26000Y104800D02*X1473200D01*
X769200Y190100D02*Y183000D01*
Y167400D02*X769000Y167200D01*
X769200Y174500D02*Y167400D01*
Y151800D02*X769000Y151600D01*
X769200Y158900D02*Y151800D01*
Y136200D02*X769000Y136000D01*
X769200Y143300D02*Y136200D01*
Y120600D02*X769000Y120400D01*
X769200Y105000D02*X769000Y104800D01*
X769200Y112100D02*Y105000D01*
Y127700D02*Y120600D01*
X830500Y190100D02*Y183300D01*
Y167700D02*X830000Y167200D01*
X830500Y174500D02*Y167700D01*
Y152100D02*X830000Y151600D01*
X830500Y158900D02*Y152100D01*
Y136500D02*X830000Y136000D01*
X830500Y143300D02*Y136500D01*
Y120900D02*X830000Y120400D01*
X830500Y127700D02*Y120900D01*
Y105300D02*X830000Y104800D01*
X830500Y112100D02*Y105300D01*
X769200Y229800D02*X769000Y229600D01*
X769200Y236900D02*Y229800D01*
X668000Y246200D02*X667000Y245200D01*
X668000Y252500D02*Y246200D01*
X830500Y230100D02*X830000Y229600D01*
X505500Y230100D02*X505000Y229600D01*
X119200Y229800D02*X119000Y229600D01*
X180500Y230100D02*X181000Y229600D01*
X26000D02*X1473200D01*
X830500Y236900D02*Y230100D01*
Y245700D02*X830000Y245200D01*
X830500Y252500D02*Y245700D01*
X505500D02*X505000Y245200D01*
X505500Y252500D02*Y245700D01*
X343000Y252500D02*Y245200D01*
G54D24*X678000Y477500D03*
G54D25*X688000Y439700D03*
X668000D03*
G54D24*X759200Y477500D03*
G54D25*X688000Y424100D03*
X668000D03*
Y408500D03*
X688000D03*
Y392900D03*
Y377300D03*
Y361700D03*
Y346100D03*
Y330500D03*
Y314900D03*
Y299300D03*
Y283700D03*
X668000Y392900D03*
Y377300D03*
Y361700D03*
Y346100D03*
Y330500D03*
Y314900D03*
Y299300D03*
Y283700D03*
G54D24*X840500Y477500D03*
G54D25*X850500Y439700D03*
X830500D03*
X850500Y424100D03*
X830500D03*
Y408500D03*
X850500D03*
Y392900D03*
Y377300D03*
Y361700D03*
Y346100D03*
Y330500D03*
Y314900D03*
Y299300D03*
Y283700D03*
X830500Y392900D03*
Y377300D03*
Y361700D03*
Y346100D03*
Y330500D03*
Y314900D03*
Y299300D03*
Y283700D03*
X749200Y439700D03*
Y424100D03*
Y408500D03*
Y392900D03*
Y377300D03*
Y361700D03*
Y346100D03*
Y330500D03*
Y314900D03*
Y299300D03*
Y283700D03*
X769200Y439700D03*
Y424100D03*
Y408500D03*
Y392900D03*
Y377300D03*
Y361700D03*
Y346100D03*
Y330500D03*
Y314900D03*
Y299300D03*
Y283700D03*
X668000Y268100D03*
Y252500D03*
Y236900D03*
Y221300D03*
Y205700D03*
Y190100D03*
Y174500D03*
Y158900D03*
Y143300D03*
Y127700D03*
Y112100D03*
X850500Y268100D03*
Y252500D03*
Y236900D03*
X830500Y268100D03*
Y252500D03*
Y236900D03*
X850500Y221300D03*
X830500D03*
X850500Y205700D03*
X830500D03*
X850500Y190100D03*
X830500D03*
X1013000Y205700D03*
X993000D03*
Y190100D03*
X1013000D03*
Y174500D03*
Y158900D03*
Y143300D03*
Y127700D03*
Y112100D03*
X993000Y174500D03*
Y158900D03*
Y143300D03*
Y127700D03*
Y112100D03*
X850500Y174500D03*
X830500D03*
Y158900D03*
Y143300D03*
Y127700D03*
Y112100D03*
X850500Y158900D03*
Y143300D03*
Y127700D03*
Y112100D03*
X749200Y268100D03*
X769200D03*
Y252500D03*
X749200D03*
Y236900D03*
Y221300D03*
Y205700D03*
Y190100D03*
X769200Y236900D03*
Y221300D03*
Y205700D03*
Y190100D03*
X749200Y174500D03*
X769200D03*
X749200Y158900D03*
Y143300D03*
Y127700D03*
G54D24*X759200Y74300D03*
G54D25*X749200Y112100D03*
X769200Y158900D03*
Y143300D03*
Y127700D03*
Y112100D03*
G54D24*X1003000Y477500D03*
G54D25*X1013000Y439700D03*
X993000D03*
X1013000Y424100D03*
X993000D03*
Y408500D03*
X1013000D03*
Y392900D03*
Y377300D03*
Y361700D03*
Y346100D03*
Y330500D03*
Y314900D03*
Y299300D03*
Y283700D03*
X993000Y392900D03*
Y377300D03*
Y361700D03*
Y346100D03*
Y330500D03*
Y314900D03*
Y299300D03*
Y283700D03*
G54D24*X1165500Y477500D03*
G54D25*X1175500Y439700D03*
X1155500D03*
X1175500Y424100D03*
X1155500D03*
Y408500D03*
X1175500D03*
Y392900D03*
Y377300D03*
Y361700D03*
Y346100D03*
Y330500D03*
Y314900D03*
Y299300D03*
Y283700D03*
X1155500Y392900D03*
Y377300D03*
Y361700D03*
Y346100D03*
Y330500D03*
Y314900D03*
Y299300D03*
Y283700D03*
G54D24*X1328000Y477500D03*
G54D25*X1338000Y439700D03*
X1318000D03*
G54D24*X1409200Y477500D03*
G54D25*X1338000Y424100D03*
X1318000D03*
Y408500D03*
X1338000D03*
Y392900D03*
Y377300D03*
Y361700D03*
Y346100D03*
Y330500D03*
Y314900D03*
Y299300D03*
Y283700D03*
X1318000Y392900D03*
Y377300D03*
Y361700D03*
Y346100D03*
Y330500D03*
Y314900D03*
Y299300D03*
Y283700D03*
G54D24*X1490500Y477500D03*
G54D25*X1500500Y439700D03*
X1480500D03*
X1500500Y424100D03*
X1480500D03*
Y408500D03*
X1500500D03*
Y392900D03*
Y377300D03*
Y361700D03*
Y346100D03*
Y330500D03*
Y314900D03*
Y299300D03*
Y283700D03*
X1480500Y392900D03*
Y377300D03*
Y361700D03*
Y346100D03*
Y330500D03*
Y314900D03*
Y299300D03*
Y283700D03*
X1399200Y439700D03*
Y424100D03*
Y408500D03*
Y392900D03*
Y377300D03*
Y361700D03*
Y346100D03*
Y330500D03*
Y314900D03*
Y299300D03*
Y283700D03*
X1419200Y439700D03*
Y424100D03*
Y408500D03*
Y392900D03*
Y377300D03*
Y361700D03*
Y346100D03*
Y330500D03*
Y314900D03*
Y299300D03*
Y283700D03*
X1013000Y268100D03*
X993000D03*
X1013000Y221300D03*
X993000D03*
X1175500Y268100D03*
X1155500D03*
Y252500D03*
Y236900D03*
Y221300D03*
X1175500Y252500D03*
Y236900D03*
Y221300D03*
X1013000Y252500D03*
X993000D03*
X1013000Y236900D03*
X993000D03*
X1338000Y268100D03*
X1318000D03*
X1500500D03*
X1480500D03*
X1399200D03*
X1419200D03*
X1338000Y252500D03*
X1318000D03*
X1500500D03*
X1480500D03*
X1399200D03*
X1419200D03*
X1338000Y236900D03*
X1318000D03*
X1500500D03*
X1480500D03*
X1399200D03*
X1419200D03*
G54D24*X1165500Y74300D03*
X1328000D03*
X1490500D03*
X1409200D03*
G54D25*X1175500Y158900D03*
Y143300D03*
Y127700D03*
Y112100D03*
X1155500Y174500D03*
Y158900D03*
Y143300D03*
Y127700D03*
Y112100D03*
X1318000Y143300D03*
Y127700D03*
Y112100D03*
X1419200Y158900D03*
Y143300D03*
Y127700D03*
Y112100D03*
X1175500Y205700D03*
Y190100D03*
Y174500D03*
X1155500Y205700D03*
X1338000D03*
X1318000D03*
X1155500Y190100D03*
X1338000D03*
Y174500D03*
Y158900D03*
Y143300D03*
Y127700D03*
Y112100D03*
X1318000Y190100D03*
X1338000Y221300D03*
X1318000D03*
X1399200D03*
X1500500D03*
Y205700D03*
X1480500Y221300D03*
Y205700D03*
X1399200D03*
X1419200Y221300D03*
Y205700D03*
X1318000Y174500D03*
X1399200Y190100D03*
X1419200D03*
X1500500Y158900D03*
Y143300D03*
Y127700D03*
Y112100D03*
X1480500Y158900D03*
Y143300D03*
X1500500Y190100D03*
Y174500D03*
X1480500Y190100D03*
Y174500D03*
X1318000Y158900D03*
X1480500Y127700D03*
Y112100D03*
X1399200Y174500D03*
Y158900D03*
Y143300D03*
Y127700D03*
Y112100D03*
X1419200Y174500D03*
G54D24*X28000Y74300D03*
X109200D03*
G54D25*X99200Y127700D03*
Y112100D03*
X119200Y127700D03*
Y112100D03*
G54D24*X190500Y74300D03*
X271700D03*
X353000D03*
X515500D03*
X678000D03*
X840500D03*
X1003000D03*
X353000Y477500D03*
G54D25*X363000Y439700D03*
X343000D03*
X363000Y424100D03*
X343000D03*
Y408500D03*
X363000D03*
Y392900D03*
Y377300D03*
Y361700D03*
Y346100D03*
Y330500D03*
Y314900D03*
Y299300D03*
Y283700D03*
X343000Y392900D03*
Y377300D03*
Y361700D03*
Y346100D03*
Y330500D03*
Y314900D03*
Y299300D03*
Y283700D03*
G54D24*X515500Y477500D03*
G54D25*X525500Y439700D03*
X505500D03*
X525500Y424100D03*
X505500D03*
Y408500D03*
X525500D03*
Y392900D03*
Y377300D03*
Y361700D03*
Y346100D03*
Y330500D03*
Y314900D03*
Y299300D03*
Y283700D03*
X505500Y392900D03*
Y377300D03*
Y361700D03*
Y346100D03*
Y330500D03*
Y314900D03*
Y299300D03*
Y283700D03*
X119200Y268100D03*
Y252500D03*
Y236900D03*
Y221300D03*
Y205700D03*
Y190100D03*
Y174500D03*
Y158900D03*
Y143300D03*
X525500Y268100D03*
Y252500D03*
X505500Y268100D03*
Y252500D03*
X525500Y205700D03*
Y236900D03*
Y221300D03*
X505500Y236900D03*
Y221300D03*
Y205700D03*
Y190100D03*
Y174500D03*
Y158900D03*
Y143300D03*
Y127700D03*
Y112100D03*
X525500Y190100D03*
Y174500D03*
Y158900D03*
Y143300D03*
Y127700D03*
Y112100D03*
X688000Y268100D03*
Y252500D03*
Y236900D03*
Y221300D03*
Y205700D03*
Y190100D03*
Y174500D03*
Y158900D03*
Y143300D03*
Y127700D03*
Y112100D03*
G54D24*X28000Y477500D03*
G54D25*X18000Y439700D03*
Y424100D03*
Y408500D03*
Y392900D03*
Y377300D03*
X38000Y439700D03*
Y424100D03*
Y408500D03*
Y392900D03*
Y377300D03*
Y361700D03*
X18000D03*
X38000Y346100D03*
X18000D03*
X38000Y330500D03*
X18000D03*
Y314900D03*
Y299300D03*
Y283700D03*
X38000Y314900D03*
Y299300D03*
Y283700D03*
G54D24*X109200Y477500D03*
G54D25*X99200Y439700D03*
X119200D03*
Y424100D03*
X99200D03*
Y408500D03*
Y392900D03*
X119200Y408500D03*
Y392900D03*
Y377300D03*
X99200D03*
Y361700D03*
Y346100D03*
Y330500D03*
Y314900D03*
Y299300D03*
Y283700D03*
X119200Y361700D03*
Y346100D03*
Y330500D03*
Y314900D03*
Y299300D03*
Y283700D03*
X200500Y268100D03*
X180500D03*
X200500Y252500D03*
X180500D03*
Y236900D03*
X363000Y268100D03*
X343000D03*
X363000Y252500D03*
X343000D03*
X363000Y236900D03*
X343000D03*
Y221300D03*
X363000D03*
Y205700D03*
Y190100D03*
Y174500D03*
Y158900D03*
Y143300D03*
Y127700D03*
Y112100D03*
X343000Y205700D03*
Y190100D03*
Y174500D03*
Y158900D03*
G54D24*X190500Y477500D03*
G54D25*X200500Y439700D03*
X180500D03*
G54D24*X271700Y477500D03*
G54D25*X200500Y424100D03*
X180500D03*
Y408500D03*
X200500D03*
Y392900D03*
Y377300D03*
Y361700D03*
Y346100D03*
Y330500D03*
Y314900D03*
Y299300D03*
Y283700D03*
X180500Y392900D03*
Y377300D03*
Y361700D03*
Y346100D03*
Y330500D03*
Y314900D03*
Y299300D03*
Y283700D03*
X261700Y439700D03*
Y424100D03*
Y408500D03*
Y392900D03*
Y377300D03*
Y361700D03*
Y346100D03*
Y330500D03*
Y314900D03*
Y299300D03*
Y283700D03*
X281700Y439700D03*
Y424100D03*
Y408500D03*
Y392900D03*
Y377300D03*
Y361700D03*
Y346100D03*
Y330500D03*
Y314900D03*
Y299300D03*
Y283700D03*
X38000Y268100D03*
Y252500D03*
Y236900D03*
Y221300D03*
X99200Y268100D03*
Y252500D03*
X18000Y268100D03*
Y252500D03*
Y236900D03*
Y221300D03*
Y205700D03*
Y190100D03*
Y174500D03*
Y158900D03*
Y143300D03*
Y127700D03*
Y112100D03*
X200500Y236900D03*
Y221300D03*
Y205700D03*
Y190100D03*
Y174500D03*
Y158900D03*
Y143300D03*
X180500Y221300D03*
Y205700D03*
Y190100D03*
Y174500D03*
Y158900D03*
Y143300D03*
Y127700D03*
Y112100D03*
X200500Y127700D03*
Y112100D03*
X343000D03*
X261700D03*
X281700D03*
X261700Y174500D03*
Y158900D03*
X281700Y174500D03*
Y158900D03*
X343000Y143300D03*
Y127700D03*
X261700Y143300D03*
Y127700D03*
X281700Y143300D03*
Y127700D03*
X261700Y268100D03*
Y252500D03*
X281700Y268100D03*
Y252500D03*
X261700Y205700D03*
Y190100D03*
Y236900D03*
Y221300D03*
X281700Y236900D03*
Y221300D03*
Y205700D03*
Y190100D03*
X38000Y205700D03*
Y190100D03*
Y174500D03*
Y158900D03*
Y143300D03*
Y127700D03*
Y112100D03*
X99200Y236900D03*
Y221300D03*
Y205700D03*
Y190100D03*
Y174500D03*
Y158900D03*
Y143300D03*
G54D26*G54D27*G54D26*G54D27*G54D26*G54D27*G54D26*G54D27*G54D26*G54D27*G54D26*G54D27*G54D26*G54D27*G54D26*G54D27*G54D26*G54D27*G54D26*G54D27*G54D26*G54D27*G54D26*G54D27*G54D26*G54D27*G54D26*G54D27*G54D26*G54D27*G54D26*G54D27*G54D26*G54D27*M02*
