G04 start of page 11 for group -3984 idx -3984 *
G04 Title: (unknown), fab *
G04 Creator: pcb 20110918 *
G04 CreationDate: Fri Mar 28 21:41:01 2014 UTC *
G04 For: fosse *
G04 Format: Gerber/RS-274X *
G04 PCB-Dimensions: 1525000 500000 *
G04 PCB-Coordinate-Origin: lower left *
%MOIN*%
%FSLAX25Y25*%
%LNFAB*%
%ADD54C,0.0100*%
%ADD53C,0.0075*%
%ADD52C,0.0060*%
%ADD51C,0.0080*%
G54D51*X28000Y479100D02*Y475900D01*
X26400Y477500D02*X29600D01*
X28000Y75900D02*Y72700D01*
X26400Y74300D02*X29600D01*
X190500Y479100D02*Y475900D01*
X188900Y477500D02*X192100D01*
X190500Y75900D02*Y72700D01*
X188900Y74300D02*X192100D01*
X353000Y479100D02*Y475900D01*
X351400Y477500D02*X354600D01*
X353000Y75900D02*Y72700D01*
X351400Y74300D02*X354600D01*
X515500Y479100D02*Y475900D01*
X513900Y477500D02*X517100D01*
X515500Y75900D02*Y72700D01*
X513900Y74300D02*X517100D01*
X678000Y479100D02*Y475900D01*
X676400Y477500D02*X679600D01*
X678000Y75900D02*Y72700D01*
X676400Y74300D02*X679600D01*
X840500Y479100D02*Y475900D01*
X838900Y477500D02*X842100D01*
X840500Y75900D02*Y72700D01*
X838900Y74300D02*X842100D01*
X1003000Y479100D02*Y475900D01*
X1001400Y477500D02*X1004600D01*
X1003000Y75900D02*Y72700D01*
X1001400Y74300D02*X1004600D01*
X1165500Y479100D02*Y475900D01*
X1163900Y477500D02*X1167100D01*
X1165500Y75900D02*Y72700D01*
X1163900Y74300D02*X1167100D01*
X1328000Y479100D02*Y475900D01*
X1326400Y477500D02*X1329600D01*
X1328000Y75900D02*Y72700D01*
X1326400Y74300D02*X1329600D01*
X1490500Y479100D02*Y475900D01*
X1488900Y477500D02*X1492100D01*
X1490500Y75900D02*Y72700D01*
X1488900Y74300D02*X1492100D01*
X271700Y479100D02*Y475900D01*
X270100Y477500D02*X273300D01*
X271700Y75900D02*Y72700D01*
X270100Y74300D02*X273300D01*
X1409200Y479100D02*Y475900D01*
X1407600Y477500D02*X1410800D01*
X1409200Y75900D02*Y72700D01*
X1407600Y74300D02*X1410800D01*
X759200Y479100D02*Y475900D01*
X757600Y477500D02*X760800D01*
X759200Y75900D02*Y72700D01*
X757600Y74300D02*X760800D01*
X109200Y479100D02*Y475900D01*
X107600Y477500D02*X110800D01*
X109200Y75900D02*Y72700D01*
X107600Y74300D02*X110800D01*
X15000Y542850D02*Y539650D01*
X13400Y541250D02*X16600D01*
G54D52*X135000Y543500D02*X136500Y540500D01*
X138000Y543500D01*
X136500Y540500D02*Y537500D01*
X139800Y540800D02*X142050D01*
X139800Y537500D02*X142800D01*
X139800Y543500D02*Y537500D01*
Y543500D02*X142800D01*
X147600D02*X148350Y542750D01*
X145350Y543500D02*X147600D01*
X144600Y542750D02*X145350Y543500D01*
X144600Y542750D02*Y541250D01*
X145350Y540500D01*
X147600D01*
X148350Y539750D01*
Y538250D01*
X147600Y537500D02*X148350Y538250D01*
X145350Y537500D02*X147600D01*
X144600Y538250D02*X145350Y537500D01*
X98000Y542750D02*X98750Y543500D01*
X101000D01*
X101750Y542750D01*
Y541250D01*
X98000Y537500D02*X101750Y541250D01*
X98000Y537500D02*X101750D01*
X103550Y538250D02*X104300Y537500D01*
X103550Y539450D02*Y538250D01*
Y539450D02*X104600Y540500D01*
X105500D01*
X106550Y539450D01*
Y538250D01*
X105800Y537500D02*X106550Y538250D01*
X104300Y537500D02*X105800D01*
X103550Y541550D02*X104600Y540500D01*
X103550Y542750D02*Y541550D01*
Y542750D02*X104300Y543500D01*
X105800D01*
X106550Y542750D01*
Y541550D01*
X105500Y540500D02*X106550Y541550D01*
X45000Y538250D02*X45750Y537500D01*
X45000Y542750D02*Y538250D01*
Y542750D02*X45750Y543500D01*
X47250D01*
X48000Y542750D01*
Y538250D01*
X47250Y537500D02*X48000Y538250D01*
X45750Y537500D02*X47250D01*
X45000Y539000D02*X48000Y542000D01*
X49800Y537500D02*X50550D01*
X52350Y542300D02*X53550Y543500D01*
Y537500D01*
X52350D02*X54600D01*
X56400Y542750D02*X57150Y543500D01*
X59400D01*
X60150Y542750D01*
Y541250D01*
X56400Y537500D02*X60150Y541250D01*
X56400Y537500D02*X60150D01*
X61950Y538250D02*X62700Y537500D01*
X61950Y539450D02*Y538250D01*
Y539450D02*X63000Y540500D01*
X63900D01*
X64950Y539450D01*
Y538250D01*
X64200Y537500D02*X64950Y538250D01*
X62700Y537500D02*X64200D01*
X61950Y541550D02*X63000Y540500D01*
X61950Y542750D02*Y541550D01*
Y542750D02*X62700Y543500D01*
X64200D01*
X64950Y542750D01*
Y541550D01*
X63900Y540500D02*X64950Y541550D01*
X38000Y439700D02*Y438100D01*
Y439700D02*X39387Y440500D01*
X38000Y439700D02*X36613Y440500D01*
X38000Y424100D02*Y422500D01*
Y424100D02*X39387Y424900D01*
X38000Y424100D02*X36613Y424900D01*
X38000Y408500D02*Y406900D01*
Y408500D02*X39387Y409300D01*
X38000Y408500D02*X36613Y409300D01*
X38000Y392900D02*Y391300D01*
Y392900D02*X39387Y393700D01*
X38000Y392900D02*X36613Y393700D01*
X38000Y377300D02*Y375700D01*
Y377300D02*X39387Y378100D01*
X38000Y377300D02*X36613Y378100D01*
X38000Y361700D02*Y360100D01*
Y361700D02*X39387Y362500D01*
X38000Y361700D02*X36613Y362500D01*
X38000Y346100D02*Y344500D01*
Y346100D02*X39387Y346900D01*
X38000Y346100D02*X36613Y346900D01*
X38000Y330500D02*Y328900D01*
Y330500D02*X39387Y331300D01*
X38000Y330500D02*X36613Y331300D01*
X38000Y314900D02*Y313300D01*
Y314900D02*X39387Y315700D01*
X38000Y314900D02*X36613Y315700D01*
X38000Y299300D02*Y297700D01*
Y299300D02*X39387Y300100D01*
X38000Y299300D02*X36613Y300100D01*
X38000Y283700D02*Y282100D01*
Y283700D02*X39387Y284500D01*
X38000Y283700D02*X36613Y284500D01*
X18000Y439700D02*Y438100D01*
Y439700D02*X19387Y440500D01*
X18000Y439700D02*X16613Y440500D01*
X18000Y424100D02*Y422500D01*
Y424100D02*X19387Y424900D01*
X18000Y424100D02*X16613Y424900D01*
X18000Y408500D02*Y406900D01*
Y408500D02*X19387Y409300D01*
X18000Y408500D02*X16613Y409300D01*
X18000Y392900D02*Y391300D01*
Y392900D02*X19387Y393700D01*
X18000Y392900D02*X16613Y393700D01*
X18000Y377300D02*Y375700D01*
Y377300D02*X19387Y378100D01*
X18000Y377300D02*X16613Y378100D01*
X18000Y361700D02*Y360100D01*
Y361700D02*X19387Y362500D01*
X18000Y361700D02*X16613Y362500D01*
X18000Y346100D02*Y344500D01*
Y346100D02*X19387Y346900D01*
X18000Y346100D02*X16613Y346900D01*
X18000Y330500D02*Y328900D01*
Y330500D02*X19387Y331300D01*
X18000Y330500D02*X16613Y331300D01*
X18000Y314900D02*Y313300D01*
Y314900D02*X19387Y315700D01*
X18000Y314900D02*X16613Y315700D01*
X18000Y299300D02*Y297700D01*
Y299300D02*X19387Y300100D01*
X18000Y299300D02*X16613Y300100D01*
X18000Y283700D02*Y282100D01*
Y283700D02*X19387Y284500D01*
X18000Y283700D02*X16613Y284500D01*
X38000Y268100D02*Y266500D01*
Y268100D02*X39387Y268900D01*
X38000Y268100D02*X36613Y268900D01*
X38000Y252500D02*Y250900D01*
Y252500D02*X39387Y253300D01*
X38000Y252500D02*X36613Y253300D01*
X38000Y236900D02*Y235300D01*
Y236900D02*X39387Y237700D01*
X38000Y236900D02*X36613Y237700D01*
X38000Y221300D02*Y219700D01*
Y221300D02*X39387Y222100D01*
X38000Y221300D02*X36613Y222100D01*
X38000Y205700D02*Y204100D01*
Y205700D02*X39387Y206500D01*
X38000Y205700D02*X36613Y206500D01*
X38000Y190100D02*Y188500D01*
Y190100D02*X39387Y190900D01*
X38000Y190100D02*X36613Y190900D01*
X38000Y174500D02*Y172900D01*
Y174500D02*X39387Y175300D01*
X38000Y174500D02*X36613Y175300D01*
X38000Y158900D02*Y157300D01*
Y158900D02*X39387Y159700D01*
X38000Y158900D02*X36613Y159700D01*
X38000Y143300D02*Y141700D01*
Y143300D02*X39387Y144100D01*
X38000Y143300D02*X36613Y144100D01*
X38000Y127700D02*Y126100D01*
Y127700D02*X39387Y128500D01*
X38000Y127700D02*X36613Y128500D01*
X38000Y112100D02*Y110500D01*
Y112100D02*X39387Y112900D01*
X38000Y112100D02*X36613Y112900D01*
X18000Y268100D02*Y266500D01*
Y268100D02*X19387Y268900D01*
X18000Y268100D02*X16613Y268900D01*
X18000Y252500D02*Y250900D01*
Y252500D02*X19387Y253300D01*
X18000Y252500D02*X16613Y253300D01*
X18000Y236900D02*Y235300D01*
Y236900D02*X19387Y237700D01*
X18000Y236900D02*X16613Y237700D01*
X18000Y221300D02*Y219700D01*
Y221300D02*X19387Y222100D01*
X18000Y221300D02*X16613Y222100D01*
X18000Y205700D02*Y204100D01*
Y205700D02*X19387Y206500D01*
X18000Y205700D02*X16613Y206500D01*
X18000Y190100D02*Y188500D01*
Y190100D02*X19387Y190900D01*
X18000Y190100D02*X16613Y190900D01*
X18000Y174500D02*Y172900D01*
Y174500D02*X19387Y175300D01*
X18000Y174500D02*X16613Y175300D01*
X18000Y158900D02*Y157300D01*
Y158900D02*X19387Y159700D01*
X18000Y158900D02*X16613Y159700D01*
X18000Y143300D02*Y141700D01*
Y143300D02*X19387Y144100D01*
X18000Y143300D02*X16613Y144100D01*
X18000Y127700D02*Y126100D01*
Y127700D02*X19387Y128500D01*
X18000Y127700D02*X16613Y128500D01*
X18000Y112100D02*Y110500D01*
Y112100D02*X19387Y112900D01*
X18000Y112100D02*X16613Y112900D01*
X200500Y439700D02*Y438100D01*
Y439700D02*X201887Y440500D01*
X200500Y439700D02*X199113Y440500D01*
X200500Y424100D02*Y422500D01*
Y424100D02*X201887Y424900D01*
X200500Y424100D02*X199113Y424900D01*
X200500Y408500D02*Y406900D01*
Y408500D02*X201887Y409300D01*
X200500Y408500D02*X199113Y409300D01*
X200500Y392900D02*Y391300D01*
Y392900D02*X201887Y393700D01*
X200500Y392900D02*X199113Y393700D01*
X200500Y377300D02*Y375700D01*
Y377300D02*X201887Y378100D01*
X200500Y377300D02*X199113Y378100D01*
X200500Y361700D02*Y360100D01*
Y361700D02*X201887Y362500D01*
X200500Y361700D02*X199113Y362500D01*
X200500Y346100D02*Y344500D01*
Y346100D02*X201887Y346900D01*
X200500Y346100D02*X199113Y346900D01*
X200500Y330500D02*Y328900D01*
Y330500D02*X201887Y331300D01*
X200500Y330500D02*X199113Y331300D01*
X200500Y314900D02*Y313300D01*
Y314900D02*X201887Y315700D01*
X200500Y314900D02*X199113Y315700D01*
X200500Y299300D02*Y297700D01*
Y299300D02*X201887Y300100D01*
X200500Y299300D02*X199113Y300100D01*
X200500Y283700D02*Y282100D01*
Y283700D02*X201887Y284500D01*
X200500Y283700D02*X199113Y284500D01*
X180500Y439700D02*Y438100D01*
Y439700D02*X181887Y440500D01*
X180500Y439700D02*X179113Y440500D01*
X180500Y424100D02*Y422500D01*
Y424100D02*X181887Y424900D01*
X180500Y424100D02*X179113Y424900D01*
X180500Y408500D02*Y406900D01*
Y408500D02*X181887Y409300D01*
X180500Y408500D02*X179113Y409300D01*
X180500Y392900D02*Y391300D01*
Y392900D02*X181887Y393700D01*
X180500Y392900D02*X179113Y393700D01*
X180500Y377300D02*Y375700D01*
Y377300D02*X181887Y378100D01*
X180500Y377300D02*X179113Y378100D01*
X180500Y361700D02*Y360100D01*
Y361700D02*X181887Y362500D01*
X180500Y361700D02*X179113Y362500D01*
X180500Y346100D02*Y344500D01*
Y346100D02*X181887Y346900D01*
X180500Y346100D02*X179113Y346900D01*
X180500Y330500D02*Y328900D01*
Y330500D02*X181887Y331300D01*
X180500Y330500D02*X179113Y331300D01*
X180500Y314900D02*Y313300D01*
Y314900D02*X181887Y315700D01*
X180500Y314900D02*X179113Y315700D01*
X180500Y299300D02*Y297700D01*
Y299300D02*X181887Y300100D01*
X180500Y299300D02*X179113Y300100D01*
X180500Y283700D02*Y282100D01*
Y283700D02*X181887Y284500D01*
X180500Y283700D02*X179113Y284500D01*
X200500Y268100D02*Y266500D01*
Y268100D02*X201887Y268900D01*
X200500Y268100D02*X199113Y268900D01*
X200500Y252500D02*Y250900D01*
Y252500D02*X201887Y253300D01*
X200500Y252500D02*X199113Y253300D01*
X200500Y236900D02*Y235300D01*
Y236900D02*X201887Y237700D01*
X200500Y236900D02*X199113Y237700D01*
X200500Y221300D02*Y219700D01*
Y221300D02*X201887Y222100D01*
X200500Y221300D02*X199113Y222100D01*
X200500Y205700D02*Y204100D01*
Y205700D02*X201887Y206500D01*
X200500Y205700D02*X199113Y206500D01*
X200500Y190100D02*Y188500D01*
Y190100D02*X201887Y190900D01*
X200500Y190100D02*X199113Y190900D01*
X200500Y174500D02*Y172900D01*
Y174500D02*X201887Y175300D01*
X200500Y174500D02*X199113Y175300D01*
X200500Y158900D02*Y157300D01*
Y158900D02*X201887Y159700D01*
X200500Y158900D02*X199113Y159700D01*
X200500Y143300D02*Y141700D01*
Y143300D02*X201887Y144100D01*
X200500Y143300D02*X199113Y144100D01*
X200500Y127700D02*Y126100D01*
Y127700D02*X201887Y128500D01*
X200500Y127700D02*X199113Y128500D01*
X200500Y112100D02*Y110500D01*
Y112100D02*X201887Y112900D01*
X200500Y112100D02*X199113Y112900D01*
X180500Y268100D02*Y266500D01*
Y268100D02*X181887Y268900D01*
X180500Y268100D02*X179113Y268900D01*
X180500Y252500D02*Y250900D01*
Y252500D02*X181887Y253300D01*
X180500Y252500D02*X179113Y253300D01*
X180500Y236900D02*Y235300D01*
Y236900D02*X181887Y237700D01*
X180500Y236900D02*X179113Y237700D01*
X180500Y221300D02*Y219700D01*
Y221300D02*X181887Y222100D01*
X180500Y221300D02*X179113Y222100D01*
X180500Y205700D02*Y204100D01*
Y205700D02*X181887Y206500D01*
X180500Y205700D02*X179113Y206500D01*
X180500Y190100D02*Y188500D01*
Y190100D02*X181887Y190900D01*
X180500Y190100D02*X179113Y190900D01*
X180500Y174500D02*Y172900D01*
Y174500D02*X181887Y175300D01*
X180500Y174500D02*X179113Y175300D01*
X180500Y158900D02*Y157300D01*
Y158900D02*X181887Y159700D01*
X180500Y158900D02*X179113Y159700D01*
X180500Y143300D02*Y141700D01*
Y143300D02*X181887Y144100D01*
X180500Y143300D02*X179113Y144100D01*
X180500Y127700D02*Y126100D01*
Y127700D02*X181887Y128500D01*
X180500Y127700D02*X179113Y128500D01*
X180500Y112100D02*Y110500D01*
Y112100D02*X181887Y112900D01*
X180500Y112100D02*X179113Y112900D01*
X363000Y439700D02*Y438100D01*
Y439700D02*X364387Y440500D01*
X363000Y439700D02*X361613Y440500D01*
X363000Y424100D02*Y422500D01*
Y424100D02*X364387Y424900D01*
X363000Y424100D02*X361613Y424900D01*
X363000Y408500D02*Y406900D01*
Y408500D02*X364387Y409300D01*
X363000Y408500D02*X361613Y409300D01*
X363000Y392900D02*Y391300D01*
Y392900D02*X364387Y393700D01*
X363000Y392900D02*X361613Y393700D01*
X363000Y377300D02*Y375700D01*
Y377300D02*X364387Y378100D01*
X363000Y377300D02*X361613Y378100D01*
X363000Y361700D02*Y360100D01*
Y361700D02*X364387Y362500D01*
X363000Y361700D02*X361613Y362500D01*
X363000Y346100D02*Y344500D01*
Y346100D02*X364387Y346900D01*
X363000Y346100D02*X361613Y346900D01*
X363000Y330500D02*Y328900D01*
Y330500D02*X364387Y331300D01*
X363000Y330500D02*X361613Y331300D01*
X363000Y314900D02*Y313300D01*
Y314900D02*X364387Y315700D01*
X363000Y314900D02*X361613Y315700D01*
X363000Y299300D02*Y297700D01*
Y299300D02*X364387Y300100D01*
X363000Y299300D02*X361613Y300100D01*
X363000Y283700D02*Y282100D01*
Y283700D02*X364387Y284500D01*
X363000Y283700D02*X361613Y284500D01*
X343000Y439700D02*Y438100D01*
Y439700D02*X344387Y440500D01*
X343000Y439700D02*X341613Y440500D01*
X343000Y424100D02*Y422500D01*
Y424100D02*X344387Y424900D01*
X343000Y424100D02*X341613Y424900D01*
X343000Y408500D02*Y406900D01*
Y408500D02*X344387Y409300D01*
X343000Y408500D02*X341613Y409300D01*
X343000Y392900D02*Y391300D01*
Y392900D02*X344387Y393700D01*
X343000Y392900D02*X341613Y393700D01*
X343000Y377300D02*Y375700D01*
Y377300D02*X344387Y378100D01*
X343000Y377300D02*X341613Y378100D01*
X343000Y361700D02*Y360100D01*
Y361700D02*X344387Y362500D01*
X343000Y361700D02*X341613Y362500D01*
X343000Y346100D02*Y344500D01*
Y346100D02*X344387Y346900D01*
X343000Y346100D02*X341613Y346900D01*
X343000Y330500D02*Y328900D01*
Y330500D02*X344387Y331300D01*
X343000Y330500D02*X341613Y331300D01*
X343000Y314900D02*Y313300D01*
Y314900D02*X344387Y315700D01*
X343000Y314900D02*X341613Y315700D01*
X343000Y299300D02*Y297700D01*
Y299300D02*X344387Y300100D01*
X343000Y299300D02*X341613Y300100D01*
X343000Y283700D02*Y282100D01*
Y283700D02*X344387Y284500D01*
X343000Y283700D02*X341613Y284500D01*
X363000Y268100D02*Y266500D01*
Y268100D02*X364387Y268900D01*
X363000Y268100D02*X361613Y268900D01*
X363000Y252500D02*Y250900D01*
Y252500D02*X364387Y253300D01*
X363000Y252500D02*X361613Y253300D01*
X363000Y236900D02*Y235300D01*
Y236900D02*X364387Y237700D01*
X363000Y236900D02*X361613Y237700D01*
X363000Y221300D02*Y219700D01*
Y221300D02*X364387Y222100D01*
X363000Y221300D02*X361613Y222100D01*
X363000Y205700D02*Y204100D01*
Y205700D02*X364387Y206500D01*
X363000Y205700D02*X361613Y206500D01*
X363000Y190100D02*Y188500D01*
Y190100D02*X364387Y190900D01*
X363000Y190100D02*X361613Y190900D01*
X363000Y174500D02*Y172900D01*
Y174500D02*X364387Y175300D01*
X363000Y174500D02*X361613Y175300D01*
X363000Y158900D02*Y157300D01*
Y158900D02*X364387Y159700D01*
X363000Y158900D02*X361613Y159700D01*
X363000Y143300D02*Y141700D01*
Y143300D02*X364387Y144100D01*
X363000Y143300D02*X361613Y144100D01*
X363000Y127700D02*Y126100D01*
Y127700D02*X364387Y128500D01*
X363000Y127700D02*X361613Y128500D01*
X363000Y112100D02*Y110500D01*
Y112100D02*X364387Y112900D01*
X363000Y112100D02*X361613Y112900D01*
X343000Y268100D02*Y266500D01*
Y268100D02*X344387Y268900D01*
X343000Y268100D02*X341613Y268900D01*
X343000Y252500D02*Y250900D01*
Y252500D02*X344387Y253300D01*
X343000Y252500D02*X341613Y253300D01*
X343000Y236900D02*Y235300D01*
Y236900D02*X344387Y237700D01*
X343000Y236900D02*X341613Y237700D01*
X343000Y221300D02*Y219700D01*
Y221300D02*X344387Y222100D01*
X343000Y221300D02*X341613Y222100D01*
X343000Y205700D02*Y204100D01*
Y205700D02*X344387Y206500D01*
X343000Y205700D02*X341613Y206500D01*
X343000Y190100D02*Y188500D01*
Y190100D02*X344387Y190900D01*
X343000Y190100D02*X341613Y190900D01*
X343000Y174500D02*Y172900D01*
Y174500D02*X344387Y175300D01*
X343000Y174500D02*X341613Y175300D01*
X343000Y158900D02*Y157300D01*
Y158900D02*X344387Y159700D01*
X343000Y158900D02*X341613Y159700D01*
X343000Y143300D02*Y141700D01*
Y143300D02*X344387Y144100D01*
X343000Y143300D02*X341613Y144100D01*
X343000Y127700D02*Y126100D01*
Y127700D02*X344387Y128500D01*
X343000Y127700D02*X341613Y128500D01*
X343000Y112100D02*Y110500D01*
Y112100D02*X344387Y112900D01*
X343000Y112100D02*X341613Y112900D01*
X525500Y439700D02*Y438100D01*
Y439700D02*X526887Y440500D01*
X525500Y439700D02*X524113Y440500D01*
X525500Y424100D02*Y422500D01*
Y424100D02*X526887Y424900D01*
X525500Y424100D02*X524113Y424900D01*
X525500Y408500D02*Y406900D01*
Y408500D02*X526887Y409300D01*
X525500Y408500D02*X524113Y409300D01*
X525500Y392900D02*Y391300D01*
Y392900D02*X526887Y393700D01*
X525500Y392900D02*X524113Y393700D01*
X525500Y377300D02*Y375700D01*
Y377300D02*X526887Y378100D01*
X525500Y377300D02*X524113Y378100D01*
X525500Y361700D02*Y360100D01*
Y361700D02*X526887Y362500D01*
X525500Y361700D02*X524113Y362500D01*
X525500Y346100D02*Y344500D01*
Y346100D02*X526887Y346900D01*
X525500Y346100D02*X524113Y346900D01*
X525500Y330500D02*Y328900D01*
Y330500D02*X526887Y331300D01*
X525500Y330500D02*X524113Y331300D01*
X525500Y314900D02*Y313300D01*
Y314900D02*X526887Y315700D01*
X525500Y314900D02*X524113Y315700D01*
X525500Y299300D02*Y297700D01*
Y299300D02*X526887Y300100D01*
X525500Y299300D02*X524113Y300100D01*
X525500Y283700D02*Y282100D01*
Y283700D02*X526887Y284500D01*
X525500Y283700D02*X524113Y284500D01*
X505500Y439700D02*Y438100D01*
Y439700D02*X506887Y440500D01*
X505500Y439700D02*X504113Y440500D01*
X505500Y424100D02*Y422500D01*
Y424100D02*X506887Y424900D01*
X505500Y424100D02*X504113Y424900D01*
X505500Y408500D02*Y406900D01*
Y408500D02*X506887Y409300D01*
X505500Y408500D02*X504113Y409300D01*
X505500Y392900D02*Y391300D01*
Y392900D02*X506887Y393700D01*
X505500Y392900D02*X504113Y393700D01*
X505500Y377300D02*Y375700D01*
Y377300D02*X506887Y378100D01*
X505500Y377300D02*X504113Y378100D01*
X505500Y361700D02*Y360100D01*
Y361700D02*X506887Y362500D01*
X505500Y361700D02*X504113Y362500D01*
X505500Y346100D02*Y344500D01*
Y346100D02*X506887Y346900D01*
X505500Y346100D02*X504113Y346900D01*
X505500Y330500D02*Y328900D01*
Y330500D02*X506887Y331300D01*
X505500Y330500D02*X504113Y331300D01*
X505500Y314900D02*Y313300D01*
Y314900D02*X506887Y315700D01*
X505500Y314900D02*X504113Y315700D01*
X505500Y299300D02*Y297700D01*
Y299300D02*X506887Y300100D01*
X505500Y299300D02*X504113Y300100D01*
X505500Y283700D02*Y282100D01*
Y283700D02*X506887Y284500D01*
X505500Y283700D02*X504113Y284500D01*
X525500Y268100D02*Y266500D01*
Y268100D02*X526887Y268900D01*
X525500Y268100D02*X524113Y268900D01*
X525500Y252500D02*Y250900D01*
Y252500D02*X526887Y253300D01*
X525500Y252500D02*X524113Y253300D01*
X525500Y236900D02*Y235300D01*
Y236900D02*X526887Y237700D01*
X525500Y236900D02*X524113Y237700D01*
X525500Y221300D02*Y219700D01*
Y221300D02*X526887Y222100D01*
X525500Y221300D02*X524113Y222100D01*
X525500Y205700D02*Y204100D01*
Y205700D02*X526887Y206500D01*
X525500Y205700D02*X524113Y206500D01*
X525500Y190100D02*Y188500D01*
Y190100D02*X526887Y190900D01*
X525500Y190100D02*X524113Y190900D01*
X525500Y174500D02*Y172900D01*
Y174500D02*X526887Y175300D01*
X525500Y174500D02*X524113Y175300D01*
X525500Y158900D02*Y157300D01*
Y158900D02*X526887Y159700D01*
X525500Y158900D02*X524113Y159700D01*
X525500Y143300D02*Y141700D01*
Y143300D02*X526887Y144100D01*
X525500Y143300D02*X524113Y144100D01*
X525500Y127700D02*Y126100D01*
Y127700D02*X526887Y128500D01*
X525500Y127700D02*X524113Y128500D01*
X525500Y112100D02*Y110500D01*
Y112100D02*X526887Y112900D01*
X525500Y112100D02*X524113Y112900D01*
X505500Y268100D02*Y266500D01*
Y268100D02*X506887Y268900D01*
X505500Y268100D02*X504113Y268900D01*
X505500Y252500D02*Y250900D01*
Y252500D02*X506887Y253300D01*
X505500Y252500D02*X504113Y253300D01*
X505500Y236900D02*Y235300D01*
Y236900D02*X506887Y237700D01*
X505500Y236900D02*X504113Y237700D01*
X505500Y221300D02*Y219700D01*
Y221300D02*X506887Y222100D01*
X505500Y221300D02*X504113Y222100D01*
X505500Y205700D02*Y204100D01*
Y205700D02*X506887Y206500D01*
X505500Y205700D02*X504113Y206500D01*
X505500Y190100D02*Y188500D01*
Y190100D02*X506887Y190900D01*
X505500Y190100D02*X504113Y190900D01*
X505500Y174500D02*Y172900D01*
Y174500D02*X506887Y175300D01*
X505500Y174500D02*X504113Y175300D01*
X505500Y158900D02*Y157300D01*
Y158900D02*X506887Y159700D01*
X505500Y158900D02*X504113Y159700D01*
X505500Y143300D02*Y141700D01*
Y143300D02*X506887Y144100D01*
X505500Y143300D02*X504113Y144100D01*
X505500Y127700D02*Y126100D01*
Y127700D02*X506887Y128500D01*
X505500Y127700D02*X504113Y128500D01*
X505500Y112100D02*Y110500D01*
Y112100D02*X506887Y112900D01*
X505500Y112100D02*X504113Y112900D01*
X688000Y439700D02*Y438100D01*
Y439700D02*X689387Y440500D01*
X688000Y439700D02*X686613Y440500D01*
X688000Y424100D02*Y422500D01*
Y424100D02*X689387Y424900D01*
X688000Y424100D02*X686613Y424900D01*
X688000Y408500D02*Y406900D01*
Y408500D02*X689387Y409300D01*
X688000Y408500D02*X686613Y409300D01*
X688000Y392900D02*Y391300D01*
Y392900D02*X689387Y393700D01*
X688000Y392900D02*X686613Y393700D01*
X688000Y377300D02*Y375700D01*
Y377300D02*X689387Y378100D01*
X688000Y377300D02*X686613Y378100D01*
X688000Y361700D02*Y360100D01*
Y361700D02*X689387Y362500D01*
X688000Y361700D02*X686613Y362500D01*
X688000Y346100D02*Y344500D01*
Y346100D02*X689387Y346900D01*
X688000Y346100D02*X686613Y346900D01*
X688000Y330500D02*Y328900D01*
Y330500D02*X689387Y331300D01*
X688000Y330500D02*X686613Y331300D01*
X688000Y314900D02*Y313300D01*
Y314900D02*X689387Y315700D01*
X688000Y314900D02*X686613Y315700D01*
X688000Y299300D02*Y297700D01*
Y299300D02*X689387Y300100D01*
X688000Y299300D02*X686613Y300100D01*
X688000Y283700D02*Y282100D01*
Y283700D02*X689387Y284500D01*
X688000Y283700D02*X686613Y284500D01*
X668000Y439700D02*Y438100D01*
Y439700D02*X669387Y440500D01*
X668000Y439700D02*X666613Y440500D01*
X668000Y424100D02*Y422500D01*
Y424100D02*X669387Y424900D01*
X668000Y424100D02*X666613Y424900D01*
X668000Y408500D02*Y406900D01*
Y408500D02*X669387Y409300D01*
X668000Y408500D02*X666613Y409300D01*
X668000Y392900D02*Y391300D01*
Y392900D02*X669387Y393700D01*
X668000Y392900D02*X666613Y393700D01*
X668000Y377300D02*Y375700D01*
Y377300D02*X669387Y378100D01*
X668000Y377300D02*X666613Y378100D01*
X668000Y361700D02*Y360100D01*
Y361700D02*X669387Y362500D01*
X668000Y361700D02*X666613Y362500D01*
X668000Y346100D02*Y344500D01*
Y346100D02*X669387Y346900D01*
X668000Y346100D02*X666613Y346900D01*
X668000Y330500D02*Y328900D01*
Y330500D02*X669387Y331300D01*
X668000Y330500D02*X666613Y331300D01*
X668000Y314900D02*Y313300D01*
Y314900D02*X669387Y315700D01*
X668000Y314900D02*X666613Y315700D01*
X668000Y299300D02*Y297700D01*
Y299300D02*X669387Y300100D01*
X668000Y299300D02*X666613Y300100D01*
X668000Y283700D02*Y282100D01*
Y283700D02*X669387Y284500D01*
X668000Y283700D02*X666613Y284500D01*
X688000Y268100D02*Y266500D01*
Y268100D02*X689387Y268900D01*
X688000Y268100D02*X686613Y268900D01*
X688000Y252500D02*Y250900D01*
Y252500D02*X689387Y253300D01*
X688000Y252500D02*X686613Y253300D01*
X688000Y236900D02*Y235300D01*
Y236900D02*X689387Y237700D01*
X688000Y236900D02*X686613Y237700D01*
X688000Y221300D02*Y219700D01*
Y221300D02*X689387Y222100D01*
X688000Y221300D02*X686613Y222100D01*
X688000Y205700D02*Y204100D01*
Y205700D02*X689387Y206500D01*
X688000Y205700D02*X686613Y206500D01*
X688000Y190100D02*Y188500D01*
Y190100D02*X689387Y190900D01*
X688000Y190100D02*X686613Y190900D01*
X688000Y174500D02*Y172900D01*
Y174500D02*X689387Y175300D01*
X688000Y174500D02*X686613Y175300D01*
X688000Y158900D02*Y157300D01*
Y158900D02*X689387Y159700D01*
X688000Y158900D02*X686613Y159700D01*
X688000Y143300D02*Y141700D01*
Y143300D02*X689387Y144100D01*
X688000Y143300D02*X686613Y144100D01*
X688000Y127700D02*Y126100D01*
Y127700D02*X689387Y128500D01*
X688000Y127700D02*X686613Y128500D01*
X688000Y112100D02*Y110500D01*
Y112100D02*X689387Y112900D01*
X688000Y112100D02*X686613Y112900D01*
X668000Y268100D02*Y266500D01*
Y268100D02*X669387Y268900D01*
X668000Y268100D02*X666613Y268900D01*
X668000Y252500D02*Y250900D01*
Y252500D02*X669387Y253300D01*
X668000Y252500D02*X666613Y253300D01*
X668000Y236900D02*Y235300D01*
Y236900D02*X669387Y237700D01*
X668000Y236900D02*X666613Y237700D01*
X668000Y221300D02*Y219700D01*
Y221300D02*X669387Y222100D01*
X668000Y221300D02*X666613Y222100D01*
X668000Y205700D02*Y204100D01*
Y205700D02*X669387Y206500D01*
X668000Y205700D02*X666613Y206500D01*
X668000Y190100D02*Y188500D01*
Y190100D02*X669387Y190900D01*
X668000Y190100D02*X666613Y190900D01*
X668000Y174500D02*Y172900D01*
Y174500D02*X669387Y175300D01*
X668000Y174500D02*X666613Y175300D01*
X668000Y158900D02*Y157300D01*
Y158900D02*X669387Y159700D01*
X668000Y158900D02*X666613Y159700D01*
X668000Y143300D02*Y141700D01*
Y143300D02*X669387Y144100D01*
X668000Y143300D02*X666613Y144100D01*
X668000Y127700D02*Y126100D01*
Y127700D02*X669387Y128500D01*
X668000Y127700D02*X666613Y128500D01*
X668000Y112100D02*Y110500D01*
Y112100D02*X669387Y112900D01*
X668000Y112100D02*X666613Y112900D01*
X850500Y439700D02*Y438100D01*
Y439700D02*X851887Y440500D01*
X850500Y439700D02*X849113Y440500D01*
X850500Y424100D02*Y422500D01*
Y424100D02*X851887Y424900D01*
X850500Y424100D02*X849113Y424900D01*
X850500Y408500D02*Y406900D01*
Y408500D02*X851887Y409300D01*
X850500Y408500D02*X849113Y409300D01*
X850500Y392900D02*Y391300D01*
Y392900D02*X851887Y393700D01*
X850500Y392900D02*X849113Y393700D01*
X850500Y377300D02*Y375700D01*
Y377300D02*X851887Y378100D01*
X850500Y377300D02*X849113Y378100D01*
X850500Y361700D02*Y360100D01*
Y361700D02*X851887Y362500D01*
X850500Y361700D02*X849113Y362500D01*
X850500Y346100D02*Y344500D01*
Y346100D02*X851887Y346900D01*
X850500Y346100D02*X849113Y346900D01*
X850500Y330500D02*Y328900D01*
Y330500D02*X851887Y331300D01*
X850500Y330500D02*X849113Y331300D01*
X850500Y314900D02*Y313300D01*
Y314900D02*X851887Y315700D01*
X850500Y314900D02*X849113Y315700D01*
X850500Y299300D02*Y297700D01*
Y299300D02*X851887Y300100D01*
X850500Y299300D02*X849113Y300100D01*
X850500Y283700D02*Y282100D01*
Y283700D02*X851887Y284500D01*
X850500Y283700D02*X849113Y284500D01*
X830500Y439700D02*Y438100D01*
Y439700D02*X831887Y440500D01*
X830500Y439700D02*X829113Y440500D01*
X830500Y424100D02*Y422500D01*
Y424100D02*X831887Y424900D01*
X830500Y424100D02*X829113Y424900D01*
X830500Y408500D02*Y406900D01*
Y408500D02*X831887Y409300D01*
X830500Y408500D02*X829113Y409300D01*
X830500Y392900D02*Y391300D01*
Y392900D02*X831887Y393700D01*
X830500Y392900D02*X829113Y393700D01*
X830500Y377300D02*Y375700D01*
Y377300D02*X831887Y378100D01*
X830500Y377300D02*X829113Y378100D01*
X830500Y361700D02*Y360100D01*
Y361700D02*X831887Y362500D01*
X830500Y361700D02*X829113Y362500D01*
X830500Y346100D02*Y344500D01*
Y346100D02*X831887Y346900D01*
X830500Y346100D02*X829113Y346900D01*
X830500Y330500D02*Y328900D01*
Y330500D02*X831887Y331300D01*
X830500Y330500D02*X829113Y331300D01*
X830500Y314900D02*Y313300D01*
Y314900D02*X831887Y315700D01*
X830500Y314900D02*X829113Y315700D01*
X830500Y299300D02*Y297700D01*
Y299300D02*X831887Y300100D01*
X830500Y299300D02*X829113Y300100D01*
X830500Y283700D02*Y282100D01*
Y283700D02*X831887Y284500D01*
X830500Y283700D02*X829113Y284500D01*
X850500Y268100D02*Y266500D01*
Y268100D02*X851887Y268900D01*
X850500Y268100D02*X849113Y268900D01*
X850500Y252500D02*Y250900D01*
Y252500D02*X851887Y253300D01*
X850500Y252500D02*X849113Y253300D01*
X850500Y236900D02*Y235300D01*
Y236900D02*X851887Y237700D01*
X850500Y236900D02*X849113Y237700D01*
X850500Y221300D02*Y219700D01*
Y221300D02*X851887Y222100D01*
X850500Y221300D02*X849113Y222100D01*
X850500Y205700D02*Y204100D01*
Y205700D02*X851887Y206500D01*
X850500Y205700D02*X849113Y206500D01*
X850500Y190100D02*Y188500D01*
Y190100D02*X851887Y190900D01*
X850500Y190100D02*X849113Y190900D01*
X850500Y174500D02*Y172900D01*
Y174500D02*X851887Y175300D01*
X850500Y174500D02*X849113Y175300D01*
X850500Y158900D02*Y157300D01*
Y158900D02*X851887Y159700D01*
X850500Y158900D02*X849113Y159700D01*
X850500Y143300D02*Y141700D01*
Y143300D02*X851887Y144100D01*
X850500Y143300D02*X849113Y144100D01*
X850500Y127700D02*Y126100D01*
Y127700D02*X851887Y128500D01*
X850500Y127700D02*X849113Y128500D01*
X850500Y112100D02*Y110500D01*
Y112100D02*X851887Y112900D01*
X850500Y112100D02*X849113Y112900D01*
X830500Y268100D02*Y266500D01*
Y268100D02*X831887Y268900D01*
X830500Y268100D02*X829113Y268900D01*
X830500Y252500D02*Y250900D01*
Y252500D02*X831887Y253300D01*
X830500Y252500D02*X829113Y253300D01*
X830500Y236900D02*Y235300D01*
Y236900D02*X831887Y237700D01*
X830500Y236900D02*X829113Y237700D01*
X830500Y221300D02*Y219700D01*
Y221300D02*X831887Y222100D01*
X830500Y221300D02*X829113Y222100D01*
X830500Y205700D02*Y204100D01*
Y205700D02*X831887Y206500D01*
X830500Y205700D02*X829113Y206500D01*
X830500Y190100D02*Y188500D01*
Y190100D02*X831887Y190900D01*
X830500Y190100D02*X829113Y190900D01*
X830500Y174500D02*Y172900D01*
Y174500D02*X831887Y175300D01*
X830500Y174500D02*X829113Y175300D01*
X830500Y158900D02*Y157300D01*
Y158900D02*X831887Y159700D01*
X830500Y158900D02*X829113Y159700D01*
X830500Y143300D02*Y141700D01*
Y143300D02*X831887Y144100D01*
X830500Y143300D02*X829113Y144100D01*
X830500Y127700D02*Y126100D01*
Y127700D02*X831887Y128500D01*
X830500Y127700D02*X829113Y128500D01*
X830500Y112100D02*Y110500D01*
Y112100D02*X831887Y112900D01*
X830500Y112100D02*X829113Y112900D01*
X1013000Y439700D02*Y438100D01*
Y439700D02*X1014387Y440500D01*
X1013000Y439700D02*X1011613Y440500D01*
X1013000Y424100D02*Y422500D01*
Y424100D02*X1014387Y424900D01*
X1013000Y424100D02*X1011613Y424900D01*
X1013000Y408500D02*Y406900D01*
Y408500D02*X1014387Y409300D01*
X1013000Y408500D02*X1011613Y409300D01*
X1013000Y392900D02*Y391300D01*
Y392900D02*X1014387Y393700D01*
X1013000Y392900D02*X1011613Y393700D01*
X1013000Y377300D02*Y375700D01*
Y377300D02*X1014387Y378100D01*
X1013000Y377300D02*X1011613Y378100D01*
X1013000Y361700D02*Y360100D01*
Y361700D02*X1014387Y362500D01*
X1013000Y361700D02*X1011613Y362500D01*
X1013000Y346100D02*Y344500D01*
Y346100D02*X1014387Y346900D01*
X1013000Y346100D02*X1011613Y346900D01*
X1013000Y330500D02*Y328900D01*
Y330500D02*X1014387Y331300D01*
X1013000Y330500D02*X1011613Y331300D01*
X1013000Y314900D02*Y313300D01*
Y314900D02*X1014387Y315700D01*
X1013000Y314900D02*X1011613Y315700D01*
X1013000Y299300D02*Y297700D01*
Y299300D02*X1014387Y300100D01*
X1013000Y299300D02*X1011613Y300100D01*
X1013000Y283700D02*Y282100D01*
Y283700D02*X1014387Y284500D01*
X1013000Y283700D02*X1011613Y284500D01*
X993000Y439700D02*Y438100D01*
Y439700D02*X994387Y440500D01*
X993000Y439700D02*X991613Y440500D01*
X993000Y424100D02*Y422500D01*
Y424100D02*X994387Y424900D01*
X993000Y424100D02*X991613Y424900D01*
X993000Y408500D02*Y406900D01*
Y408500D02*X994387Y409300D01*
X993000Y408500D02*X991613Y409300D01*
X993000Y392900D02*Y391300D01*
Y392900D02*X994387Y393700D01*
X993000Y392900D02*X991613Y393700D01*
X993000Y377300D02*Y375700D01*
Y377300D02*X994387Y378100D01*
X993000Y377300D02*X991613Y378100D01*
X993000Y361700D02*Y360100D01*
Y361700D02*X994387Y362500D01*
X993000Y361700D02*X991613Y362500D01*
X993000Y346100D02*Y344500D01*
Y346100D02*X994387Y346900D01*
X993000Y346100D02*X991613Y346900D01*
X993000Y330500D02*Y328900D01*
Y330500D02*X994387Y331300D01*
X993000Y330500D02*X991613Y331300D01*
X993000Y314900D02*Y313300D01*
Y314900D02*X994387Y315700D01*
X993000Y314900D02*X991613Y315700D01*
X993000Y299300D02*Y297700D01*
Y299300D02*X994387Y300100D01*
X993000Y299300D02*X991613Y300100D01*
X993000Y283700D02*Y282100D01*
Y283700D02*X994387Y284500D01*
X993000Y283700D02*X991613Y284500D01*
X1013000Y268100D02*Y266500D01*
Y268100D02*X1014387Y268900D01*
X1013000Y268100D02*X1011613Y268900D01*
X1013000Y252500D02*Y250900D01*
Y252500D02*X1014387Y253300D01*
X1013000Y252500D02*X1011613Y253300D01*
X1013000Y236900D02*Y235300D01*
Y236900D02*X1014387Y237700D01*
X1013000Y236900D02*X1011613Y237700D01*
X1013000Y221300D02*Y219700D01*
Y221300D02*X1014387Y222100D01*
X1013000Y221300D02*X1011613Y222100D01*
X1013000Y205700D02*Y204100D01*
Y205700D02*X1014387Y206500D01*
X1013000Y205700D02*X1011613Y206500D01*
X1013000Y190100D02*Y188500D01*
Y190100D02*X1014387Y190900D01*
X1013000Y190100D02*X1011613Y190900D01*
X1013000Y174500D02*Y172900D01*
Y174500D02*X1014387Y175300D01*
X1013000Y174500D02*X1011613Y175300D01*
X1013000Y158900D02*Y157300D01*
Y158900D02*X1014387Y159700D01*
X1013000Y158900D02*X1011613Y159700D01*
X1013000Y143300D02*Y141700D01*
Y143300D02*X1014387Y144100D01*
X1013000Y143300D02*X1011613Y144100D01*
X1013000Y127700D02*Y126100D01*
Y127700D02*X1014387Y128500D01*
X1013000Y127700D02*X1011613Y128500D01*
X1013000Y112100D02*Y110500D01*
Y112100D02*X1014387Y112900D01*
X1013000Y112100D02*X1011613Y112900D01*
X993000Y268100D02*Y266500D01*
Y268100D02*X994387Y268900D01*
X993000Y268100D02*X991613Y268900D01*
X993000Y252500D02*Y250900D01*
Y252500D02*X994387Y253300D01*
X993000Y252500D02*X991613Y253300D01*
X993000Y236900D02*Y235300D01*
Y236900D02*X994387Y237700D01*
X993000Y236900D02*X991613Y237700D01*
X993000Y221300D02*Y219700D01*
Y221300D02*X994387Y222100D01*
X993000Y221300D02*X991613Y222100D01*
X993000Y205700D02*Y204100D01*
Y205700D02*X994387Y206500D01*
X993000Y205700D02*X991613Y206500D01*
X993000Y190100D02*Y188500D01*
Y190100D02*X994387Y190900D01*
X993000Y190100D02*X991613Y190900D01*
X993000Y174500D02*Y172900D01*
Y174500D02*X994387Y175300D01*
X993000Y174500D02*X991613Y175300D01*
X993000Y158900D02*Y157300D01*
Y158900D02*X994387Y159700D01*
X993000Y158900D02*X991613Y159700D01*
X993000Y143300D02*Y141700D01*
Y143300D02*X994387Y144100D01*
X993000Y143300D02*X991613Y144100D01*
X993000Y127700D02*Y126100D01*
Y127700D02*X994387Y128500D01*
X993000Y127700D02*X991613Y128500D01*
X993000Y112100D02*Y110500D01*
Y112100D02*X994387Y112900D01*
X993000Y112100D02*X991613Y112900D01*
X1175500Y439700D02*Y438100D01*
Y439700D02*X1176887Y440500D01*
X1175500Y439700D02*X1174113Y440500D01*
X1175500Y424100D02*Y422500D01*
Y424100D02*X1176887Y424900D01*
X1175500Y424100D02*X1174113Y424900D01*
X1175500Y408500D02*Y406900D01*
Y408500D02*X1176887Y409300D01*
X1175500Y408500D02*X1174113Y409300D01*
X1175500Y392900D02*Y391300D01*
Y392900D02*X1176887Y393700D01*
X1175500Y392900D02*X1174113Y393700D01*
X1175500Y377300D02*Y375700D01*
Y377300D02*X1176887Y378100D01*
X1175500Y377300D02*X1174113Y378100D01*
X1175500Y361700D02*Y360100D01*
Y361700D02*X1176887Y362500D01*
X1175500Y361700D02*X1174113Y362500D01*
X1175500Y346100D02*Y344500D01*
Y346100D02*X1176887Y346900D01*
X1175500Y346100D02*X1174113Y346900D01*
X1175500Y330500D02*Y328900D01*
Y330500D02*X1176887Y331300D01*
X1175500Y330500D02*X1174113Y331300D01*
X1175500Y314900D02*Y313300D01*
Y314900D02*X1176887Y315700D01*
X1175500Y314900D02*X1174113Y315700D01*
X1175500Y299300D02*Y297700D01*
Y299300D02*X1176887Y300100D01*
X1175500Y299300D02*X1174113Y300100D01*
X1175500Y283700D02*Y282100D01*
Y283700D02*X1176887Y284500D01*
X1175500Y283700D02*X1174113Y284500D01*
X1155500Y439700D02*Y438100D01*
Y439700D02*X1156887Y440500D01*
X1155500Y439700D02*X1154113Y440500D01*
X1155500Y424100D02*Y422500D01*
Y424100D02*X1156887Y424900D01*
X1155500Y424100D02*X1154113Y424900D01*
X1155500Y408500D02*Y406900D01*
Y408500D02*X1156887Y409300D01*
X1155500Y408500D02*X1154113Y409300D01*
X1155500Y392900D02*Y391300D01*
Y392900D02*X1156887Y393700D01*
X1155500Y392900D02*X1154113Y393700D01*
X1155500Y377300D02*Y375700D01*
Y377300D02*X1156887Y378100D01*
X1155500Y377300D02*X1154113Y378100D01*
X1155500Y361700D02*Y360100D01*
Y361700D02*X1156887Y362500D01*
X1155500Y361700D02*X1154113Y362500D01*
X1155500Y346100D02*Y344500D01*
Y346100D02*X1156887Y346900D01*
X1155500Y346100D02*X1154113Y346900D01*
X1155500Y330500D02*Y328900D01*
Y330500D02*X1156887Y331300D01*
X1155500Y330500D02*X1154113Y331300D01*
X1155500Y314900D02*Y313300D01*
Y314900D02*X1156887Y315700D01*
X1155500Y314900D02*X1154113Y315700D01*
X1155500Y299300D02*Y297700D01*
Y299300D02*X1156887Y300100D01*
X1155500Y299300D02*X1154113Y300100D01*
X1155500Y283700D02*Y282100D01*
Y283700D02*X1156887Y284500D01*
X1155500Y283700D02*X1154113Y284500D01*
X1175500Y268100D02*Y266500D01*
Y268100D02*X1176887Y268900D01*
X1175500Y268100D02*X1174113Y268900D01*
X1175500Y252500D02*Y250900D01*
Y252500D02*X1176887Y253300D01*
X1175500Y252500D02*X1174113Y253300D01*
X1175500Y236900D02*Y235300D01*
Y236900D02*X1176887Y237700D01*
X1175500Y236900D02*X1174113Y237700D01*
X1175500Y221300D02*Y219700D01*
Y221300D02*X1176887Y222100D01*
X1175500Y221300D02*X1174113Y222100D01*
X1175500Y205700D02*Y204100D01*
Y205700D02*X1176887Y206500D01*
X1175500Y205700D02*X1174113Y206500D01*
X1175500Y190100D02*Y188500D01*
Y190100D02*X1176887Y190900D01*
X1175500Y190100D02*X1174113Y190900D01*
X1175500Y174500D02*Y172900D01*
Y174500D02*X1176887Y175300D01*
X1175500Y174500D02*X1174113Y175300D01*
X1175500Y158900D02*Y157300D01*
Y158900D02*X1176887Y159700D01*
X1175500Y158900D02*X1174113Y159700D01*
X1175500Y143300D02*Y141700D01*
Y143300D02*X1176887Y144100D01*
X1175500Y143300D02*X1174113Y144100D01*
X1175500Y127700D02*Y126100D01*
Y127700D02*X1176887Y128500D01*
X1175500Y127700D02*X1174113Y128500D01*
X1175500Y112100D02*Y110500D01*
Y112100D02*X1176887Y112900D01*
X1175500Y112100D02*X1174113Y112900D01*
X1155500Y268100D02*Y266500D01*
Y268100D02*X1156887Y268900D01*
X1155500Y268100D02*X1154113Y268900D01*
X1155500Y252500D02*Y250900D01*
Y252500D02*X1156887Y253300D01*
X1155500Y252500D02*X1154113Y253300D01*
X1155500Y236900D02*Y235300D01*
Y236900D02*X1156887Y237700D01*
X1155500Y236900D02*X1154113Y237700D01*
X1155500Y221300D02*Y219700D01*
Y221300D02*X1156887Y222100D01*
X1155500Y221300D02*X1154113Y222100D01*
X1155500Y205700D02*Y204100D01*
Y205700D02*X1156887Y206500D01*
X1155500Y205700D02*X1154113Y206500D01*
X1155500Y190100D02*Y188500D01*
Y190100D02*X1156887Y190900D01*
X1155500Y190100D02*X1154113Y190900D01*
X1155500Y174500D02*Y172900D01*
Y174500D02*X1156887Y175300D01*
X1155500Y174500D02*X1154113Y175300D01*
X1155500Y158900D02*Y157300D01*
Y158900D02*X1156887Y159700D01*
X1155500Y158900D02*X1154113Y159700D01*
X1155500Y143300D02*Y141700D01*
Y143300D02*X1156887Y144100D01*
X1155500Y143300D02*X1154113Y144100D01*
X1155500Y127700D02*Y126100D01*
Y127700D02*X1156887Y128500D01*
X1155500Y127700D02*X1154113Y128500D01*
X1155500Y112100D02*Y110500D01*
Y112100D02*X1156887Y112900D01*
X1155500Y112100D02*X1154113Y112900D01*
X1338000Y439700D02*Y438100D01*
Y439700D02*X1339387Y440500D01*
X1338000Y439700D02*X1336613Y440500D01*
X1338000Y424100D02*Y422500D01*
Y424100D02*X1339387Y424900D01*
X1338000Y424100D02*X1336613Y424900D01*
X1338000Y408500D02*Y406900D01*
Y408500D02*X1339387Y409300D01*
X1338000Y408500D02*X1336613Y409300D01*
X1338000Y392900D02*Y391300D01*
Y392900D02*X1339387Y393700D01*
X1338000Y392900D02*X1336613Y393700D01*
X1338000Y377300D02*Y375700D01*
Y377300D02*X1339387Y378100D01*
X1338000Y377300D02*X1336613Y378100D01*
X1338000Y361700D02*Y360100D01*
Y361700D02*X1339387Y362500D01*
X1338000Y361700D02*X1336613Y362500D01*
X1338000Y346100D02*Y344500D01*
Y346100D02*X1339387Y346900D01*
X1338000Y346100D02*X1336613Y346900D01*
X1338000Y330500D02*Y328900D01*
Y330500D02*X1339387Y331300D01*
X1338000Y330500D02*X1336613Y331300D01*
X1338000Y314900D02*Y313300D01*
Y314900D02*X1339387Y315700D01*
X1338000Y314900D02*X1336613Y315700D01*
X1338000Y299300D02*Y297700D01*
Y299300D02*X1339387Y300100D01*
X1338000Y299300D02*X1336613Y300100D01*
X1338000Y283700D02*Y282100D01*
Y283700D02*X1339387Y284500D01*
X1338000Y283700D02*X1336613Y284500D01*
X1318000Y439700D02*Y438100D01*
Y439700D02*X1319387Y440500D01*
X1318000Y439700D02*X1316613Y440500D01*
X1318000Y424100D02*Y422500D01*
Y424100D02*X1319387Y424900D01*
X1318000Y424100D02*X1316613Y424900D01*
X1318000Y408500D02*Y406900D01*
Y408500D02*X1319387Y409300D01*
X1318000Y408500D02*X1316613Y409300D01*
X1318000Y392900D02*Y391300D01*
Y392900D02*X1319387Y393700D01*
X1318000Y392900D02*X1316613Y393700D01*
X1318000Y377300D02*Y375700D01*
Y377300D02*X1319387Y378100D01*
X1318000Y377300D02*X1316613Y378100D01*
X1318000Y361700D02*Y360100D01*
Y361700D02*X1319387Y362500D01*
X1318000Y361700D02*X1316613Y362500D01*
X1318000Y346100D02*Y344500D01*
Y346100D02*X1319387Y346900D01*
X1318000Y346100D02*X1316613Y346900D01*
X1318000Y330500D02*Y328900D01*
Y330500D02*X1319387Y331300D01*
X1318000Y330500D02*X1316613Y331300D01*
X1318000Y314900D02*Y313300D01*
Y314900D02*X1319387Y315700D01*
X1318000Y314900D02*X1316613Y315700D01*
X1318000Y299300D02*Y297700D01*
Y299300D02*X1319387Y300100D01*
X1318000Y299300D02*X1316613Y300100D01*
X1318000Y283700D02*Y282100D01*
Y283700D02*X1319387Y284500D01*
X1318000Y283700D02*X1316613Y284500D01*
X1338000Y268100D02*Y266500D01*
Y268100D02*X1339387Y268900D01*
X1338000Y268100D02*X1336613Y268900D01*
X1338000Y252500D02*Y250900D01*
Y252500D02*X1339387Y253300D01*
X1338000Y252500D02*X1336613Y253300D01*
X1338000Y236900D02*Y235300D01*
Y236900D02*X1339387Y237700D01*
X1338000Y236900D02*X1336613Y237700D01*
X1338000Y221300D02*Y219700D01*
Y221300D02*X1339387Y222100D01*
X1338000Y221300D02*X1336613Y222100D01*
X1338000Y205700D02*Y204100D01*
Y205700D02*X1339387Y206500D01*
X1338000Y205700D02*X1336613Y206500D01*
X1338000Y190100D02*Y188500D01*
Y190100D02*X1339387Y190900D01*
X1338000Y190100D02*X1336613Y190900D01*
X1338000Y174500D02*Y172900D01*
Y174500D02*X1339387Y175300D01*
X1338000Y174500D02*X1336613Y175300D01*
X1338000Y158900D02*Y157300D01*
Y158900D02*X1339387Y159700D01*
X1338000Y158900D02*X1336613Y159700D01*
X1338000Y143300D02*Y141700D01*
Y143300D02*X1339387Y144100D01*
X1338000Y143300D02*X1336613Y144100D01*
X1338000Y127700D02*Y126100D01*
Y127700D02*X1339387Y128500D01*
X1338000Y127700D02*X1336613Y128500D01*
X1338000Y112100D02*Y110500D01*
Y112100D02*X1339387Y112900D01*
X1338000Y112100D02*X1336613Y112900D01*
X1318000Y268100D02*Y266500D01*
Y268100D02*X1319387Y268900D01*
X1318000Y268100D02*X1316613Y268900D01*
X1318000Y252500D02*Y250900D01*
Y252500D02*X1319387Y253300D01*
X1318000Y252500D02*X1316613Y253300D01*
X1318000Y236900D02*Y235300D01*
Y236900D02*X1319387Y237700D01*
X1318000Y236900D02*X1316613Y237700D01*
X1318000Y221300D02*Y219700D01*
Y221300D02*X1319387Y222100D01*
X1318000Y221300D02*X1316613Y222100D01*
X1318000Y205700D02*Y204100D01*
Y205700D02*X1319387Y206500D01*
X1318000Y205700D02*X1316613Y206500D01*
X1318000Y190100D02*Y188500D01*
Y190100D02*X1319387Y190900D01*
X1318000Y190100D02*X1316613Y190900D01*
X1318000Y174500D02*Y172900D01*
Y174500D02*X1319387Y175300D01*
X1318000Y174500D02*X1316613Y175300D01*
X1318000Y158900D02*Y157300D01*
Y158900D02*X1319387Y159700D01*
X1318000Y158900D02*X1316613Y159700D01*
X1318000Y143300D02*Y141700D01*
Y143300D02*X1319387Y144100D01*
X1318000Y143300D02*X1316613Y144100D01*
X1318000Y127700D02*Y126100D01*
Y127700D02*X1319387Y128500D01*
X1318000Y127700D02*X1316613Y128500D01*
X1318000Y112100D02*Y110500D01*
Y112100D02*X1319387Y112900D01*
X1318000Y112100D02*X1316613Y112900D01*
X1500500Y439700D02*Y438100D01*
Y439700D02*X1501887Y440500D01*
X1500500Y439700D02*X1499113Y440500D01*
X1500500Y424100D02*Y422500D01*
Y424100D02*X1501887Y424900D01*
X1500500Y424100D02*X1499113Y424900D01*
X1500500Y408500D02*Y406900D01*
Y408500D02*X1501887Y409300D01*
X1500500Y408500D02*X1499113Y409300D01*
X1500500Y392900D02*Y391300D01*
Y392900D02*X1501887Y393700D01*
X1500500Y392900D02*X1499113Y393700D01*
X1500500Y377300D02*Y375700D01*
Y377300D02*X1501887Y378100D01*
X1500500Y377300D02*X1499113Y378100D01*
X1500500Y361700D02*Y360100D01*
Y361700D02*X1501887Y362500D01*
X1500500Y361700D02*X1499113Y362500D01*
X1500500Y346100D02*Y344500D01*
Y346100D02*X1501887Y346900D01*
X1500500Y346100D02*X1499113Y346900D01*
X1500500Y330500D02*Y328900D01*
Y330500D02*X1501887Y331300D01*
X1500500Y330500D02*X1499113Y331300D01*
X1500500Y314900D02*Y313300D01*
Y314900D02*X1501887Y315700D01*
X1500500Y314900D02*X1499113Y315700D01*
X1500500Y299300D02*Y297700D01*
Y299300D02*X1501887Y300100D01*
X1500500Y299300D02*X1499113Y300100D01*
X1500500Y283700D02*Y282100D01*
Y283700D02*X1501887Y284500D01*
X1500500Y283700D02*X1499113Y284500D01*
X1480500Y439700D02*Y438100D01*
Y439700D02*X1481887Y440500D01*
X1480500Y439700D02*X1479113Y440500D01*
X1480500Y424100D02*Y422500D01*
Y424100D02*X1481887Y424900D01*
X1480500Y424100D02*X1479113Y424900D01*
X1480500Y408500D02*Y406900D01*
Y408500D02*X1481887Y409300D01*
X1480500Y408500D02*X1479113Y409300D01*
X1480500Y392900D02*Y391300D01*
Y392900D02*X1481887Y393700D01*
X1480500Y392900D02*X1479113Y393700D01*
X1480500Y377300D02*Y375700D01*
Y377300D02*X1481887Y378100D01*
X1480500Y377300D02*X1479113Y378100D01*
X1480500Y361700D02*Y360100D01*
Y361700D02*X1481887Y362500D01*
X1480500Y361700D02*X1479113Y362500D01*
X1480500Y346100D02*Y344500D01*
Y346100D02*X1481887Y346900D01*
X1480500Y346100D02*X1479113Y346900D01*
X1480500Y330500D02*Y328900D01*
Y330500D02*X1481887Y331300D01*
X1480500Y330500D02*X1479113Y331300D01*
X1480500Y314900D02*Y313300D01*
Y314900D02*X1481887Y315700D01*
X1480500Y314900D02*X1479113Y315700D01*
X1480500Y299300D02*Y297700D01*
Y299300D02*X1481887Y300100D01*
X1480500Y299300D02*X1479113Y300100D01*
X1480500Y283700D02*Y282100D01*
Y283700D02*X1481887Y284500D01*
X1480500Y283700D02*X1479113Y284500D01*
X1500500Y268100D02*Y266500D01*
Y268100D02*X1501887Y268900D01*
X1500500Y268100D02*X1499113Y268900D01*
X1500500Y252500D02*Y250900D01*
Y252500D02*X1501887Y253300D01*
X1500500Y252500D02*X1499113Y253300D01*
X1500500Y236900D02*Y235300D01*
Y236900D02*X1501887Y237700D01*
X1500500Y236900D02*X1499113Y237700D01*
X1500500Y221300D02*Y219700D01*
Y221300D02*X1501887Y222100D01*
X1500500Y221300D02*X1499113Y222100D01*
X1500500Y205700D02*Y204100D01*
Y205700D02*X1501887Y206500D01*
X1500500Y205700D02*X1499113Y206500D01*
X1500500Y190100D02*Y188500D01*
Y190100D02*X1501887Y190900D01*
X1500500Y190100D02*X1499113Y190900D01*
X1500500Y174500D02*Y172900D01*
Y174500D02*X1501887Y175300D01*
X1500500Y174500D02*X1499113Y175300D01*
X1500500Y158900D02*Y157300D01*
Y158900D02*X1501887Y159700D01*
X1500500Y158900D02*X1499113Y159700D01*
X1500500Y143300D02*Y141700D01*
Y143300D02*X1501887Y144100D01*
X1500500Y143300D02*X1499113Y144100D01*
X1500500Y127700D02*Y126100D01*
Y127700D02*X1501887Y128500D01*
X1500500Y127700D02*X1499113Y128500D01*
X1500500Y112100D02*Y110500D01*
Y112100D02*X1501887Y112900D01*
X1500500Y112100D02*X1499113Y112900D01*
X1480500Y268100D02*Y266500D01*
Y268100D02*X1481887Y268900D01*
X1480500Y268100D02*X1479113Y268900D01*
X1480500Y252500D02*Y250900D01*
Y252500D02*X1481887Y253300D01*
X1480500Y252500D02*X1479113Y253300D01*
X1480500Y236900D02*Y235300D01*
Y236900D02*X1481887Y237700D01*
X1480500Y236900D02*X1479113Y237700D01*
X1480500Y221300D02*Y219700D01*
Y221300D02*X1481887Y222100D01*
X1480500Y221300D02*X1479113Y222100D01*
X1480500Y205700D02*Y204100D01*
Y205700D02*X1481887Y206500D01*
X1480500Y205700D02*X1479113Y206500D01*
X1480500Y190100D02*Y188500D01*
Y190100D02*X1481887Y190900D01*
X1480500Y190100D02*X1479113Y190900D01*
X1480500Y174500D02*Y172900D01*
Y174500D02*X1481887Y175300D01*
X1480500Y174500D02*X1479113Y175300D01*
X1480500Y158900D02*Y157300D01*
Y158900D02*X1481887Y159700D01*
X1480500Y158900D02*X1479113Y159700D01*
X1480500Y143300D02*Y141700D01*
Y143300D02*X1481887Y144100D01*
X1480500Y143300D02*X1479113Y144100D01*
X1480500Y127700D02*Y126100D01*
Y127700D02*X1481887Y128500D01*
X1480500Y127700D02*X1479113Y128500D01*
X1480500Y112100D02*Y110500D01*
Y112100D02*X1481887Y112900D01*
X1480500Y112100D02*X1479113Y112900D01*
X261700Y439700D02*Y438100D01*
Y439700D02*X263087Y440500D01*
X261700Y439700D02*X260313Y440500D01*
X261700Y424100D02*Y422500D01*
Y424100D02*X263087Y424900D01*
X261700Y424100D02*X260313Y424900D01*
X261700Y408500D02*Y406900D01*
Y408500D02*X263087Y409300D01*
X261700Y408500D02*X260313Y409300D01*
X261700Y392900D02*Y391300D01*
Y392900D02*X263087Y393700D01*
X261700Y392900D02*X260313Y393700D01*
X261700Y377300D02*Y375700D01*
Y377300D02*X263087Y378100D01*
X261700Y377300D02*X260313Y378100D01*
X261700Y361700D02*Y360100D01*
Y361700D02*X263087Y362500D01*
X261700Y361700D02*X260313Y362500D01*
X261700Y346100D02*Y344500D01*
Y346100D02*X263087Y346900D01*
X261700Y346100D02*X260313Y346900D01*
X261700Y330500D02*Y328900D01*
Y330500D02*X263087Y331300D01*
X261700Y330500D02*X260313Y331300D01*
X261700Y314900D02*Y313300D01*
Y314900D02*X263087Y315700D01*
X261700Y314900D02*X260313Y315700D01*
X261700Y299300D02*Y297700D01*
Y299300D02*X263087Y300100D01*
X261700Y299300D02*X260313Y300100D01*
X261700Y283700D02*Y282100D01*
Y283700D02*X263087Y284500D01*
X261700Y283700D02*X260313Y284500D01*
X281700Y439700D02*Y438100D01*
Y439700D02*X283087Y440500D01*
X281700Y439700D02*X280313Y440500D01*
X281700Y424100D02*Y422500D01*
Y424100D02*X283087Y424900D01*
X281700Y424100D02*X280313Y424900D01*
X281700Y408500D02*Y406900D01*
Y408500D02*X283087Y409300D01*
X281700Y408500D02*X280313Y409300D01*
X281700Y392900D02*Y391300D01*
Y392900D02*X283087Y393700D01*
X281700Y392900D02*X280313Y393700D01*
X281700Y377300D02*Y375700D01*
Y377300D02*X283087Y378100D01*
X281700Y377300D02*X280313Y378100D01*
X281700Y361700D02*Y360100D01*
Y361700D02*X283087Y362500D01*
X281700Y361700D02*X280313Y362500D01*
X281700Y346100D02*Y344500D01*
Y346100D02*X283087Y346900D01*
X281700Y346100D02*X280313Y346900D01*
X281700Y330500D02*Y328900D01*
Y330500D02*X283087Y331300D01*
X281700Y330500D02*X280313Y331300D01*
X281700Y314900D02*Y313300D01*
Y314900D02*X283087Y315700D01*
X281700Y314900D02*X280313Y315700D01*
X281700Y299300D02*Y297700D01*
Y299300D02*X283087Y300100D01*
X281700Y299300D02*X280313Y300100D01*
X281700Y283700D02*Y282100D01*
Y283700D02*X283087Y284500D01*
X281700Y283700D02*X280313Y284500D01*
X261700Y268100D02*Y266500D01*
Y268100D02*X263087Y268900D01*
X261700Y268100D02*X260313Y268900D01*
X261700Y252500D02*Y250900D01*
Y252500D02*X263087Y253300D01*
X261700Y252500D02*X260313Y253300D01*
X261700Y236900D02*Y235300D01*
Y236900D02*X263087Y237700D01*
X261700Y236900D02*X260313Y237700D01*
X261700Y221300D02*Y219700D01*
Y221300D02*X263087Y222100D01*
X261700Y221300D02*X260313Y222100D01*
X261700Y205700D02*Y204100D01*
Y205700D02*X263087Y206500D01*
X261700Y205700D02*X260313Y206500D01*
X261700Y190100D02*Y188500D01*
Y190100D02*X263087Y190900D01*
X261700Y190100D02*X260313Y190900D01*
X261700Y174500D02*Y172900D01*
Y174500D02*X263087Y175300D01*
X261700Y174500D02*X260313Y175300D01*
X261700Y158900D02*Y157300D01*
Y158900D02*X263087Y159700D01*
X261700Y158900D02*X260313Y159700D01*
X261700Y143300D02*Y141700D01*
Y143300D02*X263087Y144100D01*
X261700Y143300D02*X260313Y144100D01*
X261700Y127700D02*Y126100D01*
Y127700D02*X263087Y128500D01*
X261700Y127700D02*X260313Y128500D01*
X261700Y112100D02*Y110500D01*
Y112100D02*X263087Y112900D01*
X261700Y112100D02*X260313Y112900D01*
X281700Y268100D02*Y266500D01*
Y268100D02*X283087Y268900D01*
X281700Y268100D02*X280313Y268900D01*
X281700Y252500D02*Y250900D01*
Y252500D02*X283087Y253300D01*
X281700Y252500D02*X280313Y253300D01*
X281700Y236900D02*Y235300D01*
Y236900D02*X283087Y237700D01*
X281700Y236900D02*X280313Y237700D01*
X281700Y221300D02*Y219700D01*
Y221300D02*X283087Y222100D01*
X281700Y221300D02*X280313Y222100D01*
X281700Y205700D02*Y204100D01*
Y205700D02*X283087Y206500D01*
X281700Y205700D02*X280313Y206500D01*
X281700Y190100D02*Y188500D01*
Y190100D02*X283087Y190900D01*
X281700Y190100D02*X280313Y190900D01*
X281700Y174500D02*Y172900D01*
Y174500D02*X283087Y175300D01*
X281700Y174500D02*X280313Y175300D01*
X281700Y158900D02*Y157300D01*
Y158900D02*X283087Y159700D01*
X281700Y158900D02*X280313Y159700D01*
X281700Y143300D02*Y141700D01*
Y143300D02*X283087Y144100D01*
X281700Y143300D02*X280313Y144100D01*
X281700Y127700D02*Y126100D01*
Y127700D02*X283087Y128500D01*
X281700Y127700D02*X280313Y128500D01*
X281700Y112100D02*Y110500D01*
Y112100D02*X283087Y112900D01*
X281700Y112100D02*X280313Y112900D01*
X1399200Y439700D02*Y438100D01*
Y439700D02*X1400587Y440500D01*
X1399200Y439700D02*X1397813Y440500D01*
X1399200Y424100D02*Y422500D01*
Y424100D02*X1400587Y424900D01*
X1399200Y424100D02*X1397813Y424900D01*
X1399200Y408500D02*Y406900D01*
Y408500D02*X1400587Y409300D01*
X1399200Y408500D02*X1397813Y409300D01*
X1399200Y392900D02*Y391300D01*
Y392900D02*X1400587Y393700D01*
X1399200Y392900D02*X1397813Y393700D01*
X1399200Y377300D02*Y375700D01*
Y377300D02*X1400587Y378100D01*
X1399200Y377300D02*X1397813Y378100D01*
X1399200Y361700D02*Y360100D01*
Y361700D02*X1400587Y362500D01*
X1399200Y361700D02*X1397813Y362500D01*
X1399200Y346100D02*Y344500D01*
Y346100D02*X1400587Y346900D01*
X1399200Y346100D02*X1397813Y346900D01*
X1399200Y330500D02*Y328900D01*
Y330500D02*X1400587Y331300D01*
X1399200Y330500D02*X1397813Y331300D01*
X1399200Y314900D02*Y313300D01*
Y314900D02*X1400587Y315700D01*
X1399200Y314900D02*X1397813Y315700D01*
X1399200Y299300D02*Y297700D01*
Y299300D02*X1400587Y300100D01*
X1399200Y299300D02*X1397813Y300100D01*
X1399200Y283700D02*Y282100D01*
Y283700D02*X1400587Y284500D01*
X1399200Y283700D02*X1397813Y284500D01*
X1419200Y439700D02*Y438100D01*
Y439700D02*X1420587Y440500D01*
X1419200Y439700D02*X1417813Y440500D01*
X1419200Y424100D02*Y422500D01*
Y424100D02*X1420587Y424900D01*
X1419200Y424100D02*X1417813Y424900D01*
X1419200Y408500D02*Y406900D01*
Y408500D02*X1420587Y409300D01*
X1419200Y408500D02*X1417813Y409300D01*
X1419200Y392900D02*Y391300D01*
Y392900D02*X1420587Y393700D01*
X1419200Y392900D02*X1417813Y393700D01*
X1419200Y377300D02*Y375700D01*
Y377300D02*X1420587Y378100D01*
X1419200Y377300D02*X1417813Y378100D01*
X1419200Y361700D02*Y360100D01*
Y361700D02*X1420587Y362500D01*
X1419200Y361700D02*X1417813Y362500D01*
X1419200Y346100D02*Y344500D01*
Y346100D02*X1420587Y346900D01*
X1419200Y346100D02*X1417813Y346900D01*
X1419200Y330500D02*Y328900D01*
Y330500D02*X1420587Y331300D01*
X1419200Y330500D02*X1417813Y331300D01*
X1419200Y314900D02*Y313300D01*
Y314900D02*X1420587Y315700D01*
X1419200Y314900D02*X1417813Y315700D01*
X1419200Y299300D02*Y297700D01*
Y299300D02*X1420587Y300100D01*
X1419200Y299300D02*X1417813Y300100D01*
X1419200Y283700D02*Y282100D01*
Y283700D02*X1420587Y284500D01*
X1419200Y283700D02*X1417813Y284500D01*
X1399200Y268100D02*Y266500D01*
Y268100D02*X1400587Y268900D01*
X1399200Y268100D02*X1397813Y268900D01*
X1399200Y252500D02*Y250900D01*
Y252500D02*X1400587Y253300D01*
X1399200Y252500D02*X1397813Y253300D01*
X1399200Y236900D02*Y235300D01*
Y236900D02*X1400587Y237700D01*
X1399200Y236900D02*X1397813Y237700D01*
X1399200Y221300D02*Y219700D01*
Y221300D02*X1400587Y222100D01*
X1399200Y221300D02*X1397813Y222100D01*
X1399200Y205700D02*Y204100D01*
Y205700D02*X1400587Y206500D01*
X1399200Y205700D02*X1397813Y206500D01*
X1399200Y190100D02*Y188500D01*
Y190100D02*X1400587Y190900D01*
X1399200Y190100D02*X1397813Y190900D01*
X1399200Y174500D02*Y172900D01*
Y174500D02*X1400587Y175300D01*
X1399200Y174500D02*X1397813Y175300D01*
X1399200Y158900D02*Y157300D01*
Y158900D02*X1400587Y159700D01*
X1399200Y158900D02*X1397813Y159700D01*
X1399200Y143300D02*Y141700D01*
Y143300D02*X1400587Y144100D01*
X1399200Y143300D02*X1397813Y144100D01*
X1399200Y127700D02*Y126100D01*
Y127700D02*X1400587Y128500D01*
X1399200Y127700D02*X1397813Y128500D01*
X1399200Y112100D02*Y110500D01*
Y112100D02*X1400587Y112900D01*
X1399200Y112100D02*X1397813Y112900D01*
X1419200Y268100D02*Y266500D01*
Y268100D02*X1420587Y268900D01*
X1419200Y268100D02*X1417813Y268900D01*
X1419200Y252500D02*Y250900D01*
Y252500D02*X1420587Y253300D01*
X1419200Y252500D02*X1417813Y253300D01*
X1419200Y236900D02*Y235300D01*
Y236900D02*X1420587Y237700D01*
X1419200Y236900D02*X1417813Y237700D01*
X1419200Y221300D02*Y219700D01*
Y221300D02*X1420587Y222100D01*
X1419200Y221300D02*X1417813Y222100D01*
X1419200Y205700D02*Y204100D01*
Y205700D02*X1420587Y206500D01*
X1419200Y205700D02*X1417813Y206500D01*
X1419200Y190100D02*Y188500D01*
Y190100D02*X1420587Y190900D01*
X1419200Y190100D02*X1417813Y190900D01*
X1419200Y174500D02*Y172900D01*
Y174500D02*X1420587Y175300D01*
X1419200Y174500D02*X1417813Y175300D01*
X1419200Y158900D02*Y157300D01*
Y158900D02*X1420587Y159700D01*
X1419200Y158900D02*X1417813Y159700D01*
X1419200Y143300D02*Y141700D01*
Y143300D02*X1420587Y144100D01*
X1419200Y143300D02*X1417813Y144100D01*
X1419200Y127700D02*Y126100D01*
Y127700D02*X1420587Y128500D01*
X1419200Y127700D02*X1417813Y128500D01*
X1419200Y112100D02*Y110500D01*
Y112100D02*X1420587Y112900D01*
X1419200Y112100D02*X1417813Y112900D01*
X749200Y439700D02*Y438100D01*
Y439700D02*X750587Y440500D01*
X749200Y439700D02*X747813Y440500D01*
X749200Y424100D02*Y422500D01*
Y424100D02*X750587Y424900D01*
X749200Y424100D02*X747813Y424900D01*
X749200Y408500D02*Y406900D01*
Y408500D02*X750587Y409300D01*
X749200Y408500D02*X747813Y409300D01*
X749200Y392900D02*Y391300D01*
Y392900D02*X750587Y393700D01*
X749200Y392900D02*X747813Y393700D01*
X749200Y377300D02*Y375700D01*
Y377300D02*X750587Y378100D01*
X749200Y377300D02*X747813Y378100D01*
X749200Y361700D02*Y360100D01*
Y361700D02*X750587Y362500D01*
X749200Y361700D02*X747813Y362500D01*
X749200Y346100D02*Y344500D01*
Y346100D02*X750587Y346900D01*
X749200Y346100D02*X747813Y346900D01*
X749200Y330500D02*Y328900D01*
Y330500D02*X750587Y331300D01*
X749200Y330500D02*X747813Y331300D01*
X749200Y314900D02*Y313300D01*
Y314900D02*X750587Y315700D01*
X749200Y314900D02*X747813Y315700D01*
X749200Y299300D02*Y297700D01*
Y299300D02*X750587Y300100D01*
X749200Y299300D02*X747813Y300100D01*
X749200Y283700D02*Y282100D01*
Y283700D02*X750587Y284500D01*
X749200Y283700D02*X747813Y284500D01*
X769200Y439700D02*Y438100D01*
Y439700D02*X770587Y440500D01*
X769200Y439700D02*X767813Y440500D01*
X769200Y424100D02*Y422500D01*
Y424100D02*X770587Y424900D01*
X769200Y424100D02*X767813Y424900D01*
X769200Y408500D02*Y406900D01*
Y408500D02*X770587Y409300D01*
X769200Y408500D02*X767813Y409300D01*
X769200Y392900D02*Y391300D01*
Y392900D02*X770587Y393700D01*
X769200Y392900D02*X767813Y393700D01*
X769200Y377300D02*Y375700D01*
Y377300D02*X770587Y378100D01*
X769200Y377300D02*X767813Y378100D01*
X769200Y361700D02*Y360100D01*
Y361700D02*X770587Y362500D01*
X769200Y361700D02*X767813Y362500D01*
X769200Y346100D02*Y344500D01*
Y346100D02*X770587Y346900D01*
X769200Y346100D02*X767813Y346900D01*
X769200Y330500D02*Y328900D01*
Y330500D02*X770587Y331300D01*
X769200Y330500D02*X767813Y331300D01*
X769200Y314900D02*Y313300D01*
Y314900D02*X770587Y315700D01*
X769200Y314900D02*X767813Y315700D01*
X769200Y299300D02*Y297700D01*
Y299300D02*X770587Y300100D01*
X769200Y299300D02*X767813Y300100D01*
X769200Y283700D02*Y282100D01*
Y283700D02*X770587Y284500D01*
X769200Y283700D02*X767813Y284500D01*
X749200Y268100D02*Y266500D01*
Y268100D02*X750587Y268900D01*
X749200Y268100D02*X747813Y268900D01*
X749200Y252500D02*Y250900D01*
Y252500D02*X750587Y253300D01*
X749200Y252500D02*X747813Y253300D01*
X749200Y236900D02*Y235300D01*
Y236900D02*X750587Y237700D01*
X749200Y236900D02*X747813Y237700D01*
X749200Y221300D02*Y219700D01*
Y221300D02*X750587Y222100D01*
X749200Y221300D02*X747813Y222100D01*
X749200Y205700D02*Y204100D01*
Y205700D02*X750587Y206500D01*
X749200Y205700D02*X747813Y206500D01*
X749200Y190100D02*Y188500D01*
Y190100D02*X750587Y190900D01*
X749200Y190100D02*X747813Y190900D01*
X749200Y174500D02*Y172900D01*
Y174500D02*X750587Y175300D01*
X749200Y174500D02*X747813Y175300D01*
X749200Y158900D02*Y157300D01*
Y158900D02*X750587Y159700D01*
X749200Y158900D02*X747813Y159700D01*
X749200Y143300D02*Y141700D01*
Y143300D02*X750587Y144100D01*
X749200Y143300D02*X747813Y144100D01*
X749200Y127700D02*Y126100D01*
Y127700D02*X750587Y128500D01*
X749200Y127700D02*X747813Y128500D01*
X749200Y112100D02*Y110500D01*
Y112100D02*X750587Y112900D01*
X749200Y112100D02*X747813Y112900D01*
X769200Y268100D02*Y266500D01*
Y268100D02*X770587Y268900D01*
X769200Y268100D02*X767813Y268900D01*
X769200Y252500D02*Y250900D01*
Y252500D02*X770587Y253300D01*
X769200Y252500D02*X767813Y253300D01*
X769200Y236900D02*Y235300D01*
Y236900D02*X770587Y237700D01*
X769200Y236900D02*X767813Y237700D01*
X769200Y221300D02*Y219700D01*
Y221300D02*X770587Y222100D01*
X769200Y221300D02*X767813Y222100D01*
X769200Y205700D02*Y204100D01*
Y205700D02*X770587Y206500D01*
X769200Y205700D02*X767813Y206500D01*
X769200Y190100D02*Y188500D01*
Y190100D02*X770587Y190900D01*
X769200Y190100D02*X767813Y190900D01*
X769200Y174500D02*Y172900D01*
Y174500D02*X770587Y175300D01*
X769200Y174500D02*X767813Y175300D01*
X769200Y158900D02*Y157300D01*
Y158900D02*X770587Y159700D01*
X769200Y158900D02*X767813Y159700D01*
X769200Y143300D02*Y141700D01*
Y143300D02*X770587Y144100D01*
X769200Y143300D02*X767813Y144100D01*
X769200Y127700D02*Y126100D01*
Y127700D02*X770587Y128500D01*
X769200Y127700D02*X767813Y128500D01*
X769200Y112100D02*Y110500D01*
Y112100D02*X770587Y112900D01*
X769200Y112100D02*X767813Y112900D01*
X99200Y439700D02*Y438100D01*
Y439700D02*X100587Y440500D01*
X99200Y439700D02*X97813Y440500D01*
X99200Y424100D02*Y422500D01*
Y424100D02*X100587Y424900D01*
X99200Y424100D02*X97813Y424900D01*
X99200Y408500D02*Y406900D01*
Y408500D02*X100587Y409300D01*
X99200Y408500D02*X97813Y409300D01*
X99200Y392900D02*Y391300D01*
Y392900D02*X100587Y393700D01*
X99200Y392900D02*X97813Y393700D01*
X99200Y377300D02*Y375700D01*
Y377300D02*X100587Y378100D01*
X99200Y377300D02*X97813Y378100D01*
X99200Y361700D02*Y360100D01*
Y361700D02*X100587Y362500D01*
X99200Y361700D02*X97813Y362500D01*
X99200Y346100D02*Y344500D01*
Y346100D02*X100587Y346900D01*
X99200Y346100D02*X97813Y346900D01*
X99200Y330500D02*Y328900D01*
Y330500D02*X100587Y331300D01*
X99200Y330500D02*X97813Y331300D01*
X99200Y314900D02*Y313300D01*
Y314900D02*X100587Y315700D01*
X99200Y314900D02*X97813Y315700D01*
X99200Y299300D02*Y297700D01*
Y299300D02*X100587Y300100D01*
X99200Y299300D02*X97813Y300100D01*
X99200Y283700D02*Y282100D01*
Y283700D02*X100587Y284500D01*
X99200Y283700D02*X97813Y284500D01*
X119200Y439700D02*Y438100D01*
Y439700D02*X120587Y440500D01*
X119200Y439700D02*X117813Y440500D01*
X119200Y424100D02*Y422500D01*
Y424100D02*X120587Y424900D01*
X119200Y424100D02*X117813Y424900D01*
X119200Y408500D02*Y406900D01*
Y408500D02*X120587Y409300D01*
X119200Y408500D02*X117813Y409300D01*
X119200Y392900D02*Y391300D01*
Y392900D02*X120587Y393700D01*
X119200Y392900D02*X117813Y393700D01*
X119200Y377300D02*Y375700D01*
Y377300D02*X120587Y378100D01*
X119200Y377300D02*X117813Y378100D01*
X119200Y361700D02*Y360100D01*
Y361700D02*X120587Y362500D01*
X119200Y361700D02*X117813Y362500D01*
X119200Y346100D02*Y344500D01*
Y346100D02*X120587Y346900D01*
X119200Y346100D02*X117813Y346900D01*
X119200Y330500D02*Y328900D01*
Y330500D02*X120587Y331300D01*
X119200Y330500D02*X117813Y331300D01*
X119200Y314900D02*Y313300D01*
Y314900D02*X120587Y315700D01*
X119200Y314900D02*X117813Y315700D01*
X119200Y299300D02*Y297700D01*
Y299300D02*X120587Y300100D01*
X119200Y299300D02*X117813Y300100D01*
X119200Y283700D02*Y282100D01*
Y283700D02*X120587Y284500D01*
X119200Y283700D02*X117813Y284500D01*
X99200Y268100D02*Y266500D01*
Y268100D02*X100587Y268900D01*
X99200Y268100D02*X97813Y268900D01*
X99200Y252500D02*Y250900D01*
Y252500D02*X100587Y253300D01*
X99200Y252500D02*X97813Y253300D01*
X99200Y236900D02*Y235300D01*
Y236900D02*X100587Y237700D01*
X99200Y236900D02*X97813Y237700D01*
X99200Y221300D02*Y219700D01*
Y221300D02*X100587Y222100D01*
X99200Y221300D02*X97813Y222100D01*
X99200Y205700D02*Y204100D01*
Y205700D02*X100587Y206500D01*
X99200Y205700D02*X97813Y206500D01*
X99200Y190100D02*Y188500D01*
Y190100D02*X100587Y190900D01*
X99200Y190100D02*X97813Y190900D01*
X99200Y174500D02*Y172900D01*
Y174500D02*X100587Y175300D01*
X99200Y174500D02*X97813Y175300D01*
X99200Y158900D02*Y157300D01*
Y158900D02*X100587Y159700D01*
X99200Y158900D02*X97813Y159700D01*
X99200Y143300D02*Y141700D01*
Y143300D02*X100587Y144100D01*
X99200Y143300D02*X97813Y144100D01*
X99200Y127700D02*Y126100D01*
Y127700D02*X100587Y128500D01*
X99200Y127700D02*X97813Y128500D01*
X99200Y112100D02*Y110500D01*
Y112100D02*X100587Y112900D01*
X99200Y112100D02*X97813Y112900D01*
X119200Y268100D02*Y266500D01*
Y268100D02*X120587Y268900D01*
X119200Y268100D02*X117813Y268900D01*
X119200Y252500D02*Y250900D01*
Y252500D02*X120587Y253300D01*
X119200Y252500D02*X117813Y253300D01*
X119200Y236900D02*Y235300D01*
Y236900D02*X120587Y237700D01*
X119200Y236900D02*X117813Y237700D01*
X119200Y221300D02*Y219700D01*
Y221300D02*X120587Y222100D01*
X119200Y221300D02*X117813Y222100D01*
X119200Y205700D02*Y204100D01*
Y205700D02*X120587Y206500D01*
X119200Y205700D02*X117813Y206500D01*
X119200Y190100D02*Y188500D01*
Y190100D02*X120587Y190900D01*
X119200Y190100D02*X117813Y190900D01*
X119200Y174500D02*Y172900D01*
Y174500D02*X120587Y175300D01*
X119200Y174500D02*X117813Y175300D01*
X119200Y158900D02*Y157300D01*
Y158900D02*X120587Y159700D01*
X119200Y158900D02*X117813Y159700D01*
X119200Y143300D02*Y141700D01*
Y143300D02*X120587Y144100D01*
X119200Y143300D02*X117813Y144100D01*
X119200Y127700D02*Y126100D01*
Y127700D02*X120587Y128500D01*
X119200Y127700D02*X117813Y128500D01*
X119200Y112100D02*Y110500D01*
Y112100D02*X120587Y112900D01*
X119200Y112100D02*X117813Y112900D01*
X15000Y556250D02*Y554650D01*
Y556250D02*X16387Y557050D01*
X15000Y556250D02*X13613Y557050D01*
X135000Y558500D02*X136500Y555500D01*
X138000Y558500D01*
X136500Y555500D02*Y552500D01*
X139800Y555800D02*X142050D01*
X139800Y552500D02*X142800D01*
X139800Y558500D02*Y552500D01*
Y558500D02*X142800D01*
X147600D02*X148350Y557750D01*
X145350Y558500D02*X147600D01*
X144600Y557750D02*X145350Y558500D01*
X144600Y557750D02*Y556250D01*
X145350Y555500D01*
X147600D01*
X148350Y554750D01*
Y553250D01*
X147600Y552500D02*X148350Y553250D01*
X145350Y552500D02*X147600D01*
X144600Y553250D02*X145350Y552500D01*
X100250Y558500D02*X101000Y557750D01*
X98750Y558500D02*X100250D01*
X98000Y557750D02*X98750Y558500D01*
X98000Y557750D02*Y553250D01*
X98750Y552500D01*
X100250Y555800D02*X101000Y555050D01*
X98000Y555800D02*X100250D01*
X98750Y552500D02*X100250D01*
X101000Y553250D01*
Y555050D02*Y553250D01*
X102800Y557300D02*X104000Y558500D01*
Y552500D01*
X102800D02*X105050D01*
X109100Y558500D02*X109850Y557750D01*
X107600Y558500D02*X109100D01*
X106850Y557750D02*X107600Y558500D01*
X106850Y557750D02*Y553250D01*
X107600Y552500D01*
X109100Y555800D02*X109850Y555050D01*
X106850Y555800D02*X109100D01*
X107600Y552500D02*X109100D01*
X109850Y553250D01*
Y555050D02*Y553250D01*
X45000D02*X45750Y552500D01*
X45000Y557750D02*Y553250D01*
Y557750D02*X45750Y558500D01*
X47250D01*
X48000Y557750D01*
Y553250D01*
X47250Y552500D02*X48000Y553250D01*
X45750Y552500D02*X47250D01*
X45000Y554000D02*X48000Y557000D01*
X49800Y552500D02*X50550D01*
X52350Y553250D02*X53100Y552500D01*
X52350Y557750D02*Y553250D01*
Y557750D02*X53100Y558500D01*
X54600D01*
X55350Y557750D01*
Y553250D01*
X54600Y552500D02*X55350Y553250D01*
X53100Y552500D02*X54600D01*
X52350Y554000D02*X55350Y557000D01*
X57150Y557750D02*X57900Y558500D01*
X59400D01*
X60150Y557750D01*
X59400Y552500D02*X60150Y553250D01*
X57900Y552500D02*X59400D01*
X57150Y553250D02*X57900Y552500D01*
Y555800D02*X59400D01*
X60150Y557750D02*Y556550D01*
Y555050D02*Y553250D01*
Y555050D02*X59400Y555800D01*
X60150Y556550D02*X59400Y555800D01*
X61950Y553250D02*X62700Y552500D01*
X61950Y554450D02*Y553250D01*
Y554450D02*X63000Y555500D01*
X63900D01*
X64950Y554450D01*
Y553250D01*
X64200Y552500D02*X64950Y553250D01*
X62700Y552500D02*X64200D01*
X61950Y556550D02*X63000Y555500D01*
X61950Y557750D02*Y556550D01*
Y557750D02*X62700Y558500D01*
X64200D01*
X64950Y557750D01*
Y556550D01*
X63900Y555500D02*X64950Y556550D01*
X3000Y573500D02*X3750Y572750D01*
X750Y573500D02*X3000D01*
X0Y572750D02*X750Y573500D01*
X0Y572750D02*Y571250D01*
X750Y570500D01*
X3000D01*
X3750Y569750D01*
Y568250D01*
X3000Y567500D02*X3750Y568250D01*
X750Y567500D02*X3000D01*
X0Y568250D02*X750Y567500D01*
X5550Y570500D02*Y568250D01*
X6300Y567500D01*
X8550Y570500D02*Y566000D01*
X7800Y565250D02*X8550Y566000D01*
X6300Y565250D02*X7800D01*
X5550Y566000D02*X6300Y565250D01*
Y567500D02*X7800D01*
X8550Y568250D01*
X11100Y569750D02*Y567500D01*
Y569750D02*X11850Y570500D01*
X12600D01*
X13350Y569750D01*
Y567500D01*
Y569750D02*X14100Y570500D01*
X14850D01*
X15600Y569750D01*
Y567500D01*
X10350Y570500D02*X11100Y569750D01*
X17400Y573500D02*Y567500D01*
Y568250D02*X18150Y567500D01*
X19650D01*
X20400Y568250D01*
Y569750D02*Y568250D01*
X19650Y570500D02*X20400Y569750D01*
X18150Y570500D02*X19650D01*
X17400Y569750D02*X18150Y570500D01*
X22200Y569750D02*Y568250D01*
Y569750D02*X22950Y570500D01*
X24450D01*
X25200Y569750D01*
Y568250D01*
X24450Y567500D02*X25200Y568250D01*
X22950Y567500D02*X24450D01*
X22200Y568250D02*X22950Y567500D01*
X27000Y573500D02*Y568250D01*
X27750Y567500D01*
X0Y564250D02*X29250D01*
X41750Y573500D02*Y567500D01*
X43700Y573500D02*X44750Y572450D01*
Y568550D01*
X43700Y567500D02*X44750Y568550D01*
X41000Y567500D02*X43700D01*
X41000Y573500D02*X43700D01*
G54D53*X46550Y572000D02*Y571850D01*
G54D52*Y569750D02*Y567500D01*
X50300Y570500D02*X51050Y569750D01*
X48800Y570500D02*X50300D01*
X48050Y569750D02*X48800Y570500D01*
X48050Y569750D02*Y568250D01*
X48800Y567500D01*
X51050Y570500D02*Y568250D01*
X51800Y567500D01*
X48800D02*X50300D01*
X51050Y568250D01*
X54350Y569750D02*Y567500D01*
Y569750D02*X55100Y570500D01*
X55850D01*
X56600Y569750D01*
Y567500D01*
Y569750D02*X57350Y570500D01*
X58100D01*
X58850Y569750D01*
Y567500D01*
X53600Y570500D02*X54350Y569750D01*
X60650Y567500D02*X61400D01*
X65900Y568250D02*X66650Y567500D01*
X65900Y572750D02*X66650Y573500D01*
X65900Y572750D02*Y568250D01*
X68450Y573500D02*X69950D01*
X69200D02*Y567500D01*
X68450D02*X69950D01*
X72500Y569750D02*Y567500D01*
Y569750D02*X73250Y570500D01*
X74000D01*
X74750Y569750D01*
Y567500D01*
X71750Y570500D02*X72500Y569750D01*
X77300Y570500D02*X79550D01*
X76550Y569750D02*X77300Y570500D01*
X76550Y569750D02*Y568250D01*
X77300Y567500D01*
X79550D01*
X81350Y573500D02*Y567500D01*
Y569750D02*X82100Y570500D01*
X83600D01*
X84350Y569750D01*
Y567500D01*
X86150Y573500D02*X86900Y572750D01*
Y568250D01*
X86150Y567500D02*X86900Y568250D01*
X41000Y564250D02*X88700D01*
X96050Y567500D02*X98000D01*
X95000Y568550D02*X96050Y567500D01*
X95000Y572450D02*Y568550D01*
Y572450D02*X96050Y573500D01*
X98000D01*
X99800Y569750D02*Y568250D01*
Y569750D02*X100550Y570500D01*
X102050D01*
X102800Y569750D01*
Y568250D01*
X102050Y567500D02*X102800Y568250D01*
X100550Y567500D02*X102050D01*
X99800Y568250D02*X100550Y567500D01*
X104600Y570500D02*Y568250D01*
X105350Y567500D01*
X106850D01*
X107600Y568250D01*
Y570500D02*Y568250D01*
X110150Y569750D02*Y567500D01*
Y569750D02*X110900Y570500D01*
X111650D01*
X112400Y569750D01*
Y567500D01*
X109400Y570500D02*X110150Y569750D01*
X114950Y573500D02*Y568250D01*
X115700Y567500D01*
X114200Y571250D02*X115700D01*
X95000Y564250D02*X117200D01*
X130750Y573500D02*Y567500D01*
X130000Y573500D02*X133000D01*
X133750Y572750D01*
Y571250D01*
X133000Y570500D02*X133750Y571250D01*
X130750Y570500D02*X133000D01*
X135550Y573500D02*Y568250D01*
X136300Y567500D01*
X140050Y570500D02*X140800Y569750D01*
X138550Y570500D02*X140050D01*
X137800Y569750D02*X138550Y570500D01*
X137800Y569750D02*Y568250D01*
X138550Y567500D01*
X140800Y570500D02*Y568250D01*
X141550Y567500D01*
X138550D02*X140050D01*
X140800Y568250D01*
X144100Y573500D02*Y568250D01*
X144850Y567500D01*
X143350Y571250D02*X144850D01*
X147100Y567500D02*X149350D01*
X146350Y568250D02*X147100Y567500D01*
X146350Y569750D02*Y568250D01*
Y569750D02*X147100Y570500D01*
X148600D01*
X149350Y569750D01*
X146350Y569000D02*X149350D01*
Y569750D02*Y569000D01*
X154150Y573500D02*Y567500D01*
X153400D02*X154150Y568250D01*
X151900Y567500D02*X153400D01*
X151150Y568250D02*X151900Y567500D01*
X151150Y569750D02*Y568250D01*
Y569750D02*X151900Y570500D01*
X153400D01*
X154150Y569750D01*
X157450Y570500D02*Y569750D01*
Y568250D02*Y567500D01*
X155950Y572750D02*Y572000D01*
Y572750D02*X156700Y573500D01*
X158200D01*
X158950Y572750D01*
Y572000D01*
X157450Y570500D02*X158950Y572000D01*
X130000Y564250D02*X160750D01*
X0Y588500D02*X3000D01*
X1500D02*Y582500D01*
X4800Y588500D02*Y582500D01*
Y584750D02*X5550Y585500D01*
X7050D01*
X7800Y584750D01*
Y582500D01*
X10350D02*X12600D01*
X9600Y583250D02*X10350Y582500D01*
X9600Y584750D02*Y583250D01*
Y584750D02*X10350Y585500D01*
X11850D01*
X12600Y584750D01*
X9600Y584000D02*X12600D01*
Y584750D02*Y584000D01*
X15150Y584750D02*Y582500D01*
Y584750D02*X15900Y585500D01*
X17400D01*
X14400D02*X15150Y584750D01*
X19950Y582500D02*X22200D01*
X19200Y583250D02*X19950Y582500D01*
X19200Y584750D02*Y583250D01*
Y584750D02*X19950Y585500D01*
X21450D01*
X22200Y584750D01*
X19200Y584000D02*X22200D01*
Y584750D02*Y584000D01*
X28950Y585500D02*X29700Y584750D01*
X27450Y585500D02*X28950D01*
X26700Y584750D02*X27450Y585500D01*
X26700Y584750D02*Y583250D01*
X27450Y582500D01*
X29700Y585500D02*Y583250D01*
X30450Y582500D01*
X27450D02*X28950D01*
X29700Y583250D01*
X33000Y584750D02*Y582500D01*
Y584750D02*X33750Y585500D01*
X35250D01*
X32250D02*X33000Y584750D01*
X37800Y582500D02*X40050D01*
X37050Y583250D02*X37800Y582500D01*
X37050Y584750D02*Y583250D01*
Y584750D02*X37800Y585500D01*
X39300D01*
X40050Y584750D01*
X37050Y584000D02*X40050D01*
Y584750D02*Y584000D01*
X44550Y587750D02*X45300Y588500D01*
X47550D01*
X48300Y587750D01*
Y586250D01*
X44550Y582500D02*X48300Y586250D01*
X44550Y582500D02*X48300D01*
X55800Y588500D02*Y582500D01*
X55050D02*X55800Y583250D01*
X53550Y582500D02*X55050D01*
X52800Y583250D02*X53550Y582500D01*
X52800Y584750D02*Y583250D01*
Y584750D02*X53550Y585500D01*
X55050D01*
X55800Y584750D01*
G54D53*X57600Y587000D02*Y586850D01*
G54D52*Y584750D02*Y582500D01*
X59850Y587750D02*Y582500D01*
Y587750D02*X60600Y588500D01*
X61350D01*
X59100Y585500D02*X60600D01*
X63600Y587750D02*Y582500D01*
Y587750D02*X64350Y588500D01*
X65100D01*
X62850Y585500D02*X64350D01*
X67350Y582500D02*X69600D01*
X66600Y583250D02*X67350Y582500D01*
X66600Y584750D02*Y583250D01*
Y584750D02*X67350Y585500D01*
X68850D01*
X69600Y584750D01*
X66600Y584000D02*X69600D01*
Y584750D02*Y584000D01*
X72150Y584750D02*Y582500D01*
Y584750D02*X72900Y585500D01*
X74400D01*
X71400D02*X72150Y584750D01*
X76950Y582500D02*X79200D01*
X76200Y583250D02*X76950Y582500D01*
X76200Y584750D02*Y583250D01*
Y584750D02*X76950Y585500D01*
X78450D01*
X79200Y584750D01*
X76200Y584000D02*X79200D01*
Y584750D02*Y584000D01*
X81750Y584750D02*Y582500D01*
Y584750D02*X82500Y585500D01*
X83250D01*
X84000Y584750D01*
Y582500D01*
X81000Y585500D02*X81750Y584750D01*
X86550Y588500D02*Y583250D01*
X87300Y582500D01*
X85800Y586250D02*X87300D01*
X94500Y588500D02*Y582500D01*
X93750D02*X94500Y583250D01*
X92250Y582500D02*X93750D01*
X91500Y583250D02*X92250Y582500D01*
X91500Y584750D02*Y583250D01*
Y584750D02*X92250Y585500D01*
X93750D01*
X94500Y584750D01*
X97050D02*Y582500D01*
Y584750D02*X97800Y585500D01*
X99300D01*
X96300D02*X97050Y584750D01*
G54D53*X101100Y587000D02*Y586850D01*
G54D52*Y584750D02*Y582500D01*
X102600Y588500D02*Y583250D01*
X103350Y582500D01*
X104850Y588500D02*Y583250D01*
X105600Y582500D01*
X110550D02*X112800D01*
X113550Y583250D01*
X112800Y584000D02*X113550Y583250D01*
X110550Y584000D02*X112800D01*
X109800Y584750D02*X110550Y584000D01*
X109800Y584750D02*X110550Y585500D01*
X112800D01*
X113550Y584750D01*
X109800Y583250D02*X110550Y582500D01*
G54D53*X115350Y587000D02*Y586850D01*
G54D52*Y584750D02*Y582500D01*
X116850Y585500D02*X119850D01*
X116850Y582500D02*X119850Y585500D01*
X116850Y582500D02*X119850D01*
X122400D02*X124650D01*
X121650Y583250D02*X122400Y582500D01*
X121650Y584750D02*Y583250D01*
Y584750D02*X122400Y585500D01*
X123900D01*
X124650Y584750D01*
X121650Y584000D02*X124650D01*
Y584750D02*Y584000D01*
X127200Y582500D02*X129450D01*
X130200Y583250D01*
X129450Y584000D02*X130200Y583250D01*
X127200Y584000D02*X129450D01*
X126450Y584750D02*X127200Y584000D01*
X126450Y584750D02*X127200Y585500D01*
X129450D01*
X130200Y584750D01*
X126450Y583250D02*X127200Y582500D01*
X134700Y585500D02*Y583250D01*
X135450Y582500D01*
X136950D01*
X137700Y583250D01*
Y585500D02*Y583250D01*
X140250Y582500D02*X142500D01*
X143250Y583250D01*
X142500Y584000D02*X143250Y583250D01*
X140250Y584000D02*X142500D01*
X139500Y584750D02*X140250Y584000D01*
X139500Y584750D02*X140250Y585500D01*
X142500D01*
X143250Y584750D01*
X139500Y583250D02*X140250Y582500D01*
X145800D02*X148050D01*
X145050Y583250D02*X145800Y582500D01*
X145050Y584750D02*Y583250D01*
Y584750D02*X145800Y585500D01*
X147300D01*
X148050Y584750D01*
X145050Y584000D02*X148050D01*
Y584750D02*Y584000D01*
X152850Y588500D02*Y582500D01*
X152100D02*X152850Y583250D01*
X150600Y582500D02*X152100D01*
X149850Y583250D02*X150600Y582500D01*
X149850Y584750D02*Y583250D01*
Y584750D02*X150600Y585500D01*
X152100D01*
X152850Y584750D01*
G54D53*X157350Y587000D02*Y586850D01*
G54D52*Y584750D02*Y582500D01*
X159600Y584750D02*Y582500D01*
Y584750D02*X160350Y585500D01*
X161100D01*
X161850Y584750D01*
Y582500D01*
X158850Y585500D02*X159600Y584750D01*
X167100Y588500D02*Y583250D01*
X167850Y582500D01*
X166350Y586250D02*X167850D01*
X169350Y588500D02*Y582500D01*
Y584750D02*X170100Y585500D01*
X171600D01*
X172350Y584750D01*
Y582500D01*
G54D53*X174150Y587000D02*Y586850D01*
G54D52*Y584750D02*Y582500D01*
X176400D02*X178650D01*
X179400Y583250D01*
X178650Y584000D02*X179400Y583250D01*
X176400Y584000D02*X178650D01*
X175650Y584750D02*X176400Y584000D01*
X175650Y584750D02*X176400Y585500D01*
X178650D01*
X179400Y584750D01*
X175650Y583250D02*X176400Y582500D01*
X183900Y588500D02*Y583250D01*
X184650Y582500D01*
X188400Y585500D02*X189150Y584750D01*
X186900Y585500D02*X188400D01*
X186150Y584750D02*X186900Y585500D01*
X186150Y584750D02*Y583250D01*
X186900Y582500D01*
X189150Y585500D02*Y583250D01*
X189900Y582500D01*
X186900D02*X188400D01*
X189150Y583250D01*
X191700Y585500D02*Y583250D01*
X192450Y582500D01*
X194700Y585500D02*Y581000D01*
X193950Y580250D02*X194700Y581000D01*
X192450Y580250D02*X193950D01*
X191700Y581000D02*X192450Y580250D01*
Y582500D02*X193950D01*
X194700Y583250D01*
X196500Y584750D02*Y583250D01*
Y584750D02*X197250Y585500D01*
X198750D01*
X199500Y584750D01*
Y583250D01*
X198750Y582500D02*X199500Y583250D01*
X197250Y582500D02*X198750D01*
X196500Y583250D02*X197250Y582500D01*
X201300Y585500D02*Y583250D01*
X202050Y582500D01*
X203550D01*
X204300Y583250D01*
Y585500D02*Y583250D01*
X206850Y588500D02*Y583250D01*
X207600Y582500D01*
X206100Y586250D02*X207600D01*
X209100Y581000D02*X210600Y582500D01*
X217350Y588500D02*X218100Y587750D01*
X215850Y588500D02*X217350D01*
X215100Y587750D02*X215850Y588500D01*
X215100Y587750D02*Y583250D01*
X215850Y582500D01*
X217350Y585800D02*X218100Y585050D01*
X215100Y585800D02*X217350D01*
X215850Y582500D02*X217350D01*
X218100Y583250D01*
Y585050D02*Y583250D01*
X219900Y584750D02*X222900Y588500D01*
X219900Y584750D02*X223650D01*
X222900Y588500D02*Y582500D01*
X225450Y584750D02*X228450Y588500D01*
X225450Y584750D02*X229200D01*
X228450Y588500D02*Y582500D01*
X233700Y588500D02*Y582500D01*
Y584750D02*X234450Y585500D01*
X235950D01*
X236700Y584750D01*
Y582500D01*
X238500Y584750D02*Y583250D01*
Y584750D02*X239250Y585500D01*
X240750D01*
X241500Y584750D01*
Y583250D01*
X240750Y582500D02*X241500Y583250D01*
X239250Y582500D02*X240750D01*
X238500Y583250D02*X239250Y582500D01*
X243300Y588500D02*Y583250D01*
X244050Y582500D01*
X246300D02*X248550D01*
X245550Y583250D02*X246300Y582500D01*
X245550Y584750D02*Y583250D01*
Y584750D02*X246300Y585500D01*
X247800D01*
X248550Y584750D01*
X245550Y584000D02*X248550D01*
Y584750D02*Y584000D01*
X251100Y582500D02*X253350D01*
X254100Y583250D01*
X253350Y584000D02*X254100Y583250D01*
X251100Y584000D02*X253350D01*
X250350Y584750D02*X251100Y584000D01*
X250350Y584750D02*X251100Y585500D01*
X253350D01*
X254100Y584750D01*
X250350Y583250D02*X251100Y582500D01*
X259350Y588500D02*Y583250D01*
X260100Y582500D01*
X258600Y586250D02*X260100D01*
X261600Y584750D02*Y583250D01*
Y584750D02*X262350Y585500D01*
X263850D01*
X264600Y584750D01*
Y583250D01*
X263850Y582500D02*X264600Y583250D01*
X262350Y582500D02*X263850D01*
X261600Y583250D02*X262350Y582500D01*
X267150Y588500D02*Y583250D01*
X267900Y582500D01*
X266400Y586250D02*X267900D01*
X271650Y585500D02*X272400Y584750D01*
X270150Y585500D02*X271650D01*
X269400Y584750D02*X270150Y585500D01*
X269400Y584750D02*Y583250D01*
X270150Y582500D01*
X272400Y585500D02*Y583250D01*
X273150Y582500D01*
X270150D02*X271650D01*
X272400Y583250D01*
X274950Y588500D02*Y583250D01*
X275700Y582500D01*
G54D54*X3000Y55000D02*Y497000D01*
X1522000Y55000D02*X3000D01*
X1522000Y497000D02*Y55000D01*
X3000Y497000D02*X1522000D01*
G54D52*X676175Y-9500D02*X679175D01*
X679925Y-8750D01*
Y-6950D02*Y-8750D01*
X679175Y-6200D02*X679925Y-6950D01*
X676925Y-6200D02*X679175D01*
X676925Y-3500D02*Y-9500D01*
X676175Y-3500D02*X679175D01*
X679925Y-4250D01*
Y-5450D01*
X679175Y-6200D02*X679925Y-5450D01*
X681725Y-7250D02*Y-8750D01*
Y-7250D02*X682475Y-6500D01*
X683975D01*
X684725Y-7250D01*
Y-8750D01*
X683975Y-9500D02*X684725Y-8750D01*
X682475Y-9500D02*X683975D01*
X681725Y-8750D02*X682475Y-9500D01*
X688775Y-6500D02*X689525Y-7250D01*
X687275Y-6500D02*X688775D01*
X686525Y-7250D02*X687275Y-6500D01*
X686525Y-7250D02*Y-8750D01*
X687275Y-9500D01*
X689525Y-6500D02*Y-8750D01*
X690275Y-9500D01*
X687275D02*X688775D01*
X689525Y-8750D01*
X692825Y-7250D02*Y-9500D01*
Y-7250D02*X693575Y-6500D01*
X695075D01*
X692075D02*X692825Y-7250D01*
X699875Y-3500D02*Y-9500D01*
X699125D02*X699875Y-8750D01*
X697625Y-9500D02*X699125D01*
X696875Y-8750D02*X697625Y-9500D01*
X696875Y-7250D02*Y-8750D01*
Y-7250D02*X697625Y-6500D01*
X699125D01*
X699875Y-7250D01*
X704375D02*Y-8750D01*
Y-7250D02*X705125Y-6500D01*
X706625D01*
X707375Y-7250D01*
Y-8750D01*
X706625Y-9500D02*X707375Y-8750D01*
X705125Y-9500D02*X706625D01*
X704375Y-8750D02*X705125Y-9500D01*
X709175Y-6500D02*Y-8750D01*
X709925Y-9500D01*
X711425D01*
X712175Y-8750D01*
Y-6500D02*Y-8750D01*
X714725Y-3500D02*Y-8750D01*
X715475Y-9500D01*
X713975Y-5750D02*X715475D01*
X716975Y-3500D02*Y-8750D01*
X717725Y-9500D01*
G54D53*X719225Y-5000D02*Y-5150D01*
G54D52*Y-7250D02*Y-9500D01*
X721475Y-7250D02*Y-9500D01*
Y-7250D02*X722225Y-6500D01*
X722975D01*
X723725Y-7250D01*
Y-9500D01*
X720725Y-6500D02*X721475Y-7250D01*
X726275Y-9500D02*X728525D01*
X725525Y-8750D02*X726275Y-9500D01*
X725525Y-7250D02*Y-8750D01*
Y-7250D02*X726275Y-6500D01*
X727775D01*
X728525Y-7250D01*
X725525Y-8000D02*X728525D01*
Y-7250D02*Y-8000D01*
G54D53*X733025Y-5000D02*Y-5150D01*
G54D52*Y-7250D02*Y-9500D01*
X735275D02*X737525D01*
X738275Y-8750D01*
X737525Y-8000D02*X738275Y-8750D01*
X735275Y-8000D02*X737525D01*
X734525Y-7250D02*X735275Y-8000D01*
X734525Y-7250D02*X735275Y-6500D01*
X737525D01*
X738275Y-7250D01*
X734525Y-8750D02*X735275Y-9500D01*
X743525Y-3500D02*Y-8750D01*
X744275Y-9500D01*
X742775Y-5750D02*X744275D01*
X745775Y-3500D02*Y-9500D01*
Y-7250D02*X746525Y-6500D01*
X748025D01*
X748775Y-7250D01*
Y-9500D01*
X751325D02*X753575D01*
X750575Y-8750D02*X751325Y-9500D01*
X750575Y-7250D02*Y-8750D01*
Y-7250D02*X751325Y-6500D01*
X752825D01*
X753575Y-7250D01*
X750575Y-8000D02*X753575D01*
Y-7250D02*Y-8000D01*
X758825Y-6500D02*X761075D01*
X758075Y-7250D02*X758825Y-6500D01*
X758075Y-7250D02*Y-8750D01*
X758825Y-9500D01*
X761075D01*
X763625D02*X765875D01*
X762875Y-8750D02*X763625Y-9500D01*
X762875Y-7250D02*Y-8750D01*
Y-7250D02*X763625Y-6500D01*
X765125D01*
X765875Y-7250D01*
X762875Y-8000D02*X765875D01*
Y-7250D02*Y-8000D01*
X768425Y-7250D02*Y-9500D01*
Y-7250D02*X769175Y-6500D01*
X769925D01*
X770675Y-7250D01*
Y-9500D01*
X767675Y-6500D02*X768425Y-7250D01*
X773225Y-3500D02*Y-8750D01*
X773975Y-9500D01*
X772475Y-5750D02*X773975D01*
X776225Y-9500D02*X778475D01*
X775475Y-8750D02*X776225Y-9500D01*
X775475Y-7250D02*Y-8750D01*
Y-7250D02*X776225Y-6500D01*
X777725D01*
X778475Y-7250D01*
X775475Y-8000D02*X778475D01*
Y-7250D02*Y-8000D01*
X781025Y-7250D02*Y-9500D01*
Y-7250D02*X781775Y-6500D01*
X783275D01*
X780275D02*X781025Y-7250D01*
X785075Y-3500D02*Y-8750D01*
X785825Y-9500D01*
G54D53*X787325Y-5000D02*Y-5150D01*
G54D52*Y-7250D02*Y-9500D01*
X789575Y-7250D02*Y-9500D01*
Y-7250D02*X790325Y-6500D01*
X791075D01*
X791825Y-7250D01*
Y-9500D01*
X788825Y-6500D02*X789575Y-7250D01*
X794375Y-9500D02*X796625D01*
X793625Y-8750D02*X794375Y-9500D01*
X793625Y-7250D02*Y-8750D01*
Y-7250D02*X794375Y-6500D01*
X795875D01*
X796625Y-7250D01*
X793625Y-8000D02*X796625D01*
Y-7250D02*Y-8000D01*
X801125Y-7250D02*Y-8750D01*
Y-7250D02*X801875Y-6500D01*
X803375D01*
X804125Y-7250D01*
Y-8750D01*
X803375Y-9500D02*X804125Y-8750D01*
X801875Y-9500D02*X803375D01*
X801125Y-8750D02*X801875Y-9500D01*
X806675Y-4250D02*Y-9500D01*
Y-4250D02*X807425Y-3500D01*
X808175D01*
X805925Y-6500D02*X807425D01*
X813125Y-3500D02*Y-8750D01*
X813875Y-9500D01*
X812375Y-5750D02*X813875D01*
X815375Y-3500D02*Y-9500D01*
Y-7250D02*X816125Y-6500D01*
X817625D01*
X818375Y-7250D01*
Y-9500D01*
G54D53*X820175Y-5000D02*Y-5150D01*
G54D52*Y-7250D02*Y-9500D01*
X822425D02*X824675D01*
X825425Y-8750D01*
X824675Y-8000D02*X825425Y-8750D01*
X822425Y-8000D02*X824675D01*
X821675Y-7250D02*X822425Y-8000D01*
X821675Y-7250D02*X822425Y-6500D01*
X824675D01*
X825425Y-7250D01*
X821675Y-8750D02*X822425Y-9500D01*
X830675Y-7250D02*Y-11750D01*
X829925Y-6500D02*X830675Y-7250D01*
X831425Y-6500D01*
X832925D01*
X833675Y-7250D01*
Y-8750D01*
X832925Y-9500D02*X833675Y-8750D01*
X831425Y-9500D02*X832925D01*
X830675Y-8750D02*X831425Y-9500D01*
X837725Y-6500D02*X838475Y-7250D01*
X836225Y-6500D02*X837725D01*
X835475Y-7250D02*X836225Y-6500D01*
X835475Y-7250D02*Y-8750D01*
X836225Y-9500D01*
X838475Y-6500D02*Y-8750D01*
X839225Y-9500D01*
X836225D02*X837725D01*
X838475Y-8750D01*
X841775Y-3500D02*Y-8750D01*
X842525Y-9500D01*
X841025Y-5750D02*X842525D01*
X844025Y-3500D02*Y-9500D01*
Y-7250D02*X844775Y-6500D01*
X846275D01*
X847025Y-7250D01*
Y-9500D01*
X200750Y528500D02*Y522500D01*
X202700Y528500D02*X203750Y527450D01*
Y523550D01*
X202700Y522500D02*X203750Y523550D01*
X200000Y522500D02*X202700D01*
X200000Y528500D02*X202700D01*
X207800Y525500D02*X208550Y524750D01*
X206300Y525500D02*X207800D01*
X205550Y524750D02*X206300Y525500D01*
X205550Y524750D02*Y523250D01*
X206300Y522500D01*
X208550Y525500D02*Y523250D01*
X209300Y522500D01*
X206300D02*X207800D01*
X208550Y523250D01*
X211850Y528500D02*Y523250D01*
X212600Y522500D01*
X211100Y526250D02*X212600D01*
X214850Y522500D02*X217100D01*
X214100Y523250D02*X214850Y522500D01*
X214100Y524750D02*Y523250D01*
Y524750D02*X214850Y525500D01*
X216350D01*
X217100Y524750D01*
X214100Y524000D02*X217100D01*
Y524750D02*Y524000D01*
X218900Y526250D02*X219650D01*
X218900Y524750D02*X219650D01*
X224150Y528500D02*Y522500D01*
Y528500D02*X227150D01*
X224150Y525800D02*X226400D01*
X229700Y524750D02*Y522500D01*
Y524750D02*X230450Y525500D01*
X231950D01*
X228950D02*X229700Y524750D01*
G54D53*X233750Y527000D02*Y526850D01*
G54D52*Y524750D02*Y522500D01*
X237950Y528500D02*Y522500D01*
Y528500D02*X240200Y525500D01*
X242450Y528500D01*
Y522500D01*
X246500Y525500D02*X247250Y524750D01*
X245000Y525500D02*X246500D01*
X244250Y524750D02*X245000Y525500D01*
X244250Y524750D02*Y523250D01*
X245000Y522500D01*
X247250Y525500D02*Y523250D01*
X248000Y522500D01*
X245000D02*X246500D01*
X247250Y523250D01*
X250550Y524750D02*Y522500D01*
Y524750D02*X251300Y525500D01*
X252800D01*
X249800D02*X250550Y524750D01*
X257300Y527750D02*X258050Y528500D01*
X260300D01*
X261050Y527750D01*
Y526250D01*
X257300Y522500D02*X261050Y526250D01*
X257300Y522500D02*X261050D01*
X262850Y523250D02*X263600Y522500D01*
X262850Y524450D02*Y523250D01*
Y524450D02*X263900Y525500D01*
X264800D01*
X265850Y524450D01*
Y523250D01*
X265100Y522500D02*X265850Y523250D01*
X263600Y522500D02*X265100D01*
X262850Y526550D02*X263900Y525500D01*
X262850Y527750D02*Y526550D01*
Y527750D02*X263600Y528500D01*
X265100D01*
X265850Y527750D01*
Y526550D01*
X264800Y525500D02*X265850Y526550D01*
X270350Y527750D02*X271100Y528500D01*
X273350D01*
X274100Y527750D01*
Y526250D01*
X270350Y522500D02*X274100Y526250D01*
X270350Y522500D02*X274100D01*
X275900Y527300D02*X277100Y528500D01*
Y522500D01*
X275900D02*X278150D01*
X279950Y526250D02*X280700D01*
X279950Y524750D02*X280700D01*
X282500D02*X285500Y528500D01*
X282500Y524750D02*X286250D01*
X285500Y528500D02*Y522500D01*
X288050Y527300D02*X289250Y528500D01*
Y522500D01*
X288050D02*X290300D01*
X292100Y526250D02*X292850D01*
X292100Y524750D02*X292850D01*
X294650Y523250D02*X295400Y522500D01*
X294650Y527750D02*Y523250D01*
Y527750D02*X295400Y528500D01*
X296900D01*
X297650Y527750D01*
Y523250D01*
X296900Y522500D02*X297650Y523250D01*
X295400Y522500D02*X296900D01*
X294650Y524000D02*X297650Y527000D01*
X299450Y527750D02*X300200Y528500D01*
X302450D01*
X303200Y527750D01*
Y526250D01*
X299450Y522500D02*X303200Y526250D01*
X299450Y522500D02*X303200D01*
X307700Y527750D02*X308450Y528500D01*
X310700D01*
X311450Y527750D01*
Y526250D01*
X307700Y522500D02*X311450Y526250D01*
X307700Y522500D02*X311450D01*
X313250Y523250D02*X314000Y522500D01*
X313250Y527750D02*Y523250D01*
Y527750D02*X314000Y528500D01*
X315500D01*
X316250Y527750D01*
Y523250D01*
X315500Y522500D02*X316250Y523250D01*
X314000Y522500D02*X315500D01*
X313250Y524000D02*X316250Y527000D01*
X318050Y527300D02*X319250Y528500D01*
Y522500D01*
X318050D02*X320300D01*
X322100Y524750D02*X325100Y528500D01*
X322100Y524750D02*X325850D01*
X325100Y528500D02*Y522500D01*
X330350Y528500D02*Y523250D01*
X331100Y522500D01*
X332600D01*
X333350Y523250D01*
Y528500D02*Y523250D01*
X335150Y528500D02*X338150D01*
X336650D02*Y522500D01*
X341000D02*X342950D01*
X339950Y523550D02*X341000Y522500D01*
X339950Y527450D02*Y523550D01*
Y527450D02*X341000Y528500D01*
X342950D01*
X200000Y542000D02*Y537500D01*
Y542000D02*X201050Y543500D01*
X202700D01*
X203750Y542000D01*
Y537500D01*
X200000Y540500D02*X203750D01*
X205550D02*Y538250D01*
X206300Y537500D01*
X207800D01*
X208550Y538250D01*
Y540500D02*Y538250D01*
X211100Y543500D02*Y538250D01*
X211850Y537500D01*
X210350Y541250D02*X211850D01*
X213350Y543500D02*Y537500D01*
Y539750D02*X214100Y540500D01*
X215600D01*
X216350Y539750D01*
Y537500D01*
X218150Y539750D02*Y538250D01*
Y539750D02*X218900Y540500D01*
X220400D01*
X221150Y539750D01*
Y538250D01*
X220400Y537500D02*X221150Y538250D01*
X218900Y537500D02*X220400D01*
X218150Y538250D02*X218900Y537500D01*
X223700Y539750D02*Y537500D01*
Y539750D02*X224450Y540500D01*
X225950D01*
X222950D02*X223700Y539750D01*
X227750Y541250D02*X228500D01*
X227750Y539750D02*X228500D01*
X200000Y558500D02*X203000D01*
X201500D02*Y552500D01*
G54D53*X204800Y557000D02*Y556850D01*
G54D52*Y554750D02*Y552500D01*
X207050Y558500D02*Y553250D01*
X207800Y552500D01*
X206300Y556250D02*X207800D01*
X209300Y558500D02*Y553250D01*
X210050Y552500D01*
X212300D02*X214550D01*
X211550Y553250D02*X212300Y552500D01*
X211550Y554750D02*Y553250D01*
Y554750D02*X212300Y555500D01*
X213800D01*
X214550Y554750D01*
X211550Y554000D02*X214550D01*
Y554750D02*Y554000D01*
X216350Y556250D02*X217100D01*
X216350Y554750D02*X217100D01*
X221600Y553250D02*X222350Y552500D01*
X221600Y557750D02*X222350Y558500D01*
X221600Y557750D02*Y553250D01*
X224150Y555500D02*Y553250D01*
X224900Y552500D01*
X226400D01*
X227150Y553250D01*
Y555500D02*Y553250D01*
X229700Y554750D02*Y552500D01*
Y554750D02*X230450Y555500D01*
X231200D01*
X231950Y554750D01*
Y552500D01*
X228950Y555500D02*X229700Y554750D01*
X233750Y558500D02*Y552500D01*
Y554750D02*X236000Y552500D01*
X233750Y554750D02*X235250Y556250D01*
X238550Y554750D02*Y552500D01*
Y554750D02*X239300Y555500D01*
X240050D01*
X240800Y554750D01*
Y552500D01*
X237800Y555500D02*X238550Y554750D01*
X242600D02*Y553250D01*
Y554750D02*X243350Y555500D01*
X244850D01*
X245600Y554750D01*
Y553250D01*
X244850Y552500D02*X245600Y553250D01*
X243350Y552500D02*X244850D01*
X242600Y553250D02*X243350Y552500D01*
X247400Y555500D02*Y553250D01*
X248150Y552500D01*
X248900D01*
X249650Y553250D01*
Y555500D02*Y553250D01*
X250400Y552500D01*
X251150D01*
X251900Y553250D01*
Y555500D02*Y553250D01*
X254450Y554750D02*Y552500D01*
Y554750D02*X255200Y555500D01*
X255950D01*
X256700Y554750D01*
Y552500D01*
X253700Y555500D02*X254450Y554750D01*
X258500Y558500D02*X259250Y557750D01*
Y553250D01*
X258500Y552500D02*X259250Y553250D01*
X263750Y555500D02*X266750D01*
X271250Y558500D02*Y552500D01*
Y558500D02*X274250D01*
X271250Y555800D02*X273500D01*
X278300Y555500D02*X279050Y554750D01*
X276800Y555500D02*X278300D01*
X276050Y554750D02*X276800Y555500D01*
X276050Y554750D02*Y553250D01*
X276800Y552500D01*
X279050Y555500D02*Y553250D01*
X279800Y552500D01*
X276800D02*X278300D01*
X279050Y553250D01*
X281600Y558500D02*Y552500D01*
Y553250D02*X282350Y552500D01*
X283850D01*
X284600Y553250D01*
Y554750D02*Y553250D01*
X283850Y555500D02*X284600Y554750D01*
X282350Y555500D02*X283850D01*
X281600Y554750D02*X282350Y555500D01*
X287150Y554750D02*Y552500D01*
Y554750D02*X287900Y555500D01*
X289400D01*
X286400D02*X287150Y554750D01*
G54D53*X291200Y557000D02*Y556850D01*
G54D52*Y554750D02*Y552500D01*
X293450Y555500D02*X295700D01*
X292700Y554750D02*X293450Y555500D01*
X292700Y554750D02*Y553250D01*
X293450Y552500D01*
X295700D01*
X299750Y555500D02*X300500Y554750D01*
X298250Y555500D02*X299750D01*
X297500Y554750D02*X298250Y555500D01*
X297500Y554750D02*Y553250D01*
X298250Y552500D01*
X300500Y555500D02*Y553250D01*
X301250Y552500D01*
X298250D02*X299750D01*
X300500Y553250D01*
X303800Y558500D02*Y553250D01*
X304550Y552500D01*
X303050Y556250D02*X304550D01*
G54D53*X306050Y557000D02*Y556850D01*
G54D52*Y554750D02*Y552500D01*
X307550Y554750D02*Y553250D01*
Y554750D02*X308300Y555500D01*
X309800D01*
X310550Y554750D01*
Y553250D01*
X309800Y552500D02*X310550Y553250D01*
X308300Y552500D02*X309800D01*
X307550Y553250D02*X308300Y552500D01*
X313100Y554750D02*Y552500D01*
Y554750D02*X313850Y555500D01*
X314600D01*
X315350Y554750D01*
Y552500D01*
X312350Y555500D02*X313100Y554750D01*
X320600Y558500D02*Y552500D01*
X322550Y558500D02*X323600Y557450D01*
Y553550D01*
X322550Y552500D02*X323600Y553550D01*
X319850Y552500D02*X322550D01*
X319850Y558500D02*X322550D01*
X326150Y554750D02*Y552500D01*
Y554750D02*X326900Y555500D01*
X328400D01*
X325400D02*X326150Y554750D01*
X332450Y555500D02*X333200Y554750D01*
X330950Y555500D02*X332450D01*
X330200Y554750D02*X330950Y555500D01*
X330200Y554750D02*Y553250D01*
X330950Y552500D01*
X333200Y555500D02*Y553250D01*
X333950Y552500D01*
X330950D02*X332450D01*
X333200Y553250D01*
X335750Y555500D02*Y553250D01*
X336500Y552500D01*
X337250D01*
X338000Y553250D01*
Y555500D02*Y553250D01*
X338750Y552500D01*
X339500D01*
X340250Y553250D01*
Y555500D02*Y553250D01*
G54D53*X342050Y557000D02*Y556850D01*
G54D52*Y554750D02*Y552500D01*
X344300Y554750D02*Y552500D01*
Y554750D02*X345050Y555500D01*
X345800D01*
X346550Y554750D01*
Y552500D01*
X343550Y555500D02*X344300Y554750D01*
X350600Y555500D02*X351350Y554750D01*
X349100Y555500D02*X350600D01*
X348350Y554750D02*X349100Y555500D01*
X348350Y554750D02*Y553250D01*
X349100Y552500D01*
X350600D01*
X351350Y553250D01*
X348350Y551000D02*X349100Y550250D01*
X350600D01*
X351350Y551000D01*
Y555500D02*Y551000D01*
M02*
