G04 start of page 2 for group 0 idx 0 *
G04 Title: (unknown), top *
G04 Creator: pcb 20110918 *
G04 CreationDate: Fri Mar 28 21:41:01 2014 UTC *
G04 For: fosse *
G04 Format: Gerber/RS-274X *
G04 PCB-Dimensions: 1525000 500000 *
G04 PCB-Coordinate-Origin: lower left *
%MOIN*%
%FSLAX25Y25*%
%LNTOP*%
%ADD19C,0.0380*%
%ADD18C,0.1280*%
%ADD17C,0.0780*%
%ADD16C,0.2560*%
%ADD15C,0.2550*%
%ADD14C,0.0700*%
%ADD13C,0.1250*%
%ADD12C,0.2000*%
%ADD11C,0.0350*%
G54D11*X261700Y229800D02*X261500Y229600D01*
X261700Y236900D02*Y229800D01*
Y214200D02*X261500Y214000D01*
X261700Y221300D02*Y214200D01*
Y205700D02*Y198600D01*
X363000Y205700D02*Y198400D01*
Y190100D02*Y182800D01*
Y174500D02*Y167200D01*
Y252500D02*Y245200D01*
Y268100D02*Y260800D01*
Y283700D02*Y276400D01*
Y299300D02*Y292000D01*
Y158900D02*Y151600D01*
Y143300D02*Y136000D01*
Y127700D02*Y120400D01*
Y112100D02*Y104800D01*
X261700Y183000D02*X261500Y182800D01*
X261700Y167400D02*X261500Y167200D01*
X261700Y174500D02*Y167400D01*
Y151800D02*X261500Y151600D01*
X261700Y158900D02*Y151800D01*
Y136200D02*X261500Y136000D01*
X261700Y143300D02*Y136200D01*
Y120600D02*X261500Y120400D01*
X261700Y127700D02*Y120600D01*
Y105000D02*X261500Y104800D01*
X261700Y112100D02*Y105000D01*
Y245400D02*X261500Y245200D01*
X261700Y252500D02*Y245400D01*
Y261000D02*X261500Y260800D01*
X261700Y268100D02*Y261000D01*
Y276600D02*X261500Y276400D01*
X261700Y283700D02*Y276600D01*
Y292200D02*X261500Y292000D01*
X261700Y299300D02*Y292200D01*
Y198600D02*X261500Y198400D01*
X200500Y198900D02*X201000Y198400D01*
X200500Y205700D02*Y198900D01*
X261700Y190100D02*Y183000D01*
X200500Y245700D02*X201000Y245200D01*
X99200Y198600D02*X99000Y198400D01*
X99200Y205700D02*Y198600D01*
Y183000D02*X99000Y182800D01*
X99200Y190100D02*Y183000D01*
Y167400D02*X99000Y167200D01*
X99200Y174500D02*Y167400D01*
Y151800D02*X99000Y151600D01*
X99200Y158900D02*Y151800D01*
Y136200D02*X99000Y136000D01*
X99200Y143300D02*Y136200D01*
Y120600D02*X99000Y120400D01*
X99200Y127700D02*Y120600D01*
Y105000D02*X99000Y104800D01*
X99200Y112100D02*Y105000D01*
Y245400D02*X99000Y245200D01*
X99200Y252500D02*Y245400D01*
Y261000D02*X99000Y260800D01*
X99200Y268100D02*Y261000D01*
Y276600D02*X99000Y276400D01*
X99200Y283700D02*Y276600D01*
Y292200D02*X99000Y292000D01*
X99200Y299300D02*Y292200D01*
X200500Y183300D02*X201000Y182800D01*
X200500Y190100D02*Y183300D01*
Y167700D02*X201000Y167200D01*
X200500Y174500D02*Y167700D01*
Y152100D02*X201000Y151600D01*
X200500Y158900D02*Y152100D01*
Y136500D02*X201000Y136000D01*
X200500Y143300D02*Y136500D01*
Y120900D02*X201000Y120400D01*
X200500Y127700D02*Y120900D01*
Y105300D02*X201000Y104800D01*
X200500Y112100D02*Y105300D01*
Y252500D02*Y245700D01*
Y261300D02*X201000Y260800D01*
X200500Y268100D02*Y261300D01*
Y276900D02*X201000Y276400D01*
X200500Y283700D02*Y276900D01*
Y292500D02*X201000Y292000D01*
X200500Y299300D02*Y292500D01*
X99200Y229800D02*X99000Y229600D01*
X99200Y236900D02*Y229800D01*
X363000Y236900D02*Y229600D01*
X200500Y230100D02*X201000Y229600D01*
X200500Y236900D02*Y230100D01*
X45300Y229600D02*X38000Y236900D01*
X99200Y214200D02*X99000Y214000D01*
X99200Y221300D02*Y214200D01*
X200500Y214500D02*X201000Y214000D01*
X200500Y221300D02*Y214500D01*
X45300Y245200D02*X38000Y252500D01*
X45300Y260800D02*X38000Y268100D01*
X45300Y276400D02*X38000Y283700D01*
X45300Y292000D02*X38000Y299300D01*
X688000Y221300D02*Y214000D01*
X525500Y214500D02*X526000Y214000D01*
X525500Y221300D02*Y214500D01*
X363000Y221300D02*Y214000D01*
X525500Y198900D02*X526000Y198400D01*
X525500Y205700D02*Y198900D01*
Y183300D02*X526000Y182800D01*
X525500Y190100D02*Y183300D01*
Y245700D02*X526000Y245200D01*
X525500Y252500D02*Y245700D01*
Y261300D02*X526000Y260800D01*
X525500Y268100D02*Y261300D01*
Y276900D02*X526000Y276400D01*
X525500Y283700D02*Y276900D01*
Y292500D02*X526000Y292000D01*
X525500Y299300D02*Y292500D01*
X749200Y245400D02*X749000Y245200D01*
X749200Y252500D02*Y245400D01*
Y261000D02*X749000Y260800D01*
X749200Y268100D02*Y261000D01*
Y276600D02*X749000Y276400D01*
X749200Y283700D02*Y276600D01*
X688000Y252500D02*Y245200D01*
Y268100D02*Y260800D01*
Y283700D02*Y276400D01*
X749200Y292200D02*X749000Y292000D01*
X749200Y299300D02*Y292200D01*
X688000Y299300D02*Y292000D01*
G54D12*X271700Y477500D02*Y444000D01*
G54D13*X261700Y439700D02*X281700D01*
G54D14*X271400Y477200D02*X271700Y477500D01*
G54D12*X353000D02*Y444000D01*
G54D14*X352700Y477200D02*X353000Y477500D01*
G54D13*X343000Y439700D02*X363000D01*
G54D12*X190500Y477500D02*Y444000D01*
G54D14*X190200Y477200D02*X190500Y477500D01*
G54D13*X180500Y439700D02*X200500D01*
G54D12*X109200Y477500D02*Y444000D01*
G54D13*X99200Y439700D02*X119200D01*
G54D14*X108900Y477200D02*X109200Y477500D01*
G54D12*X28000D02*Y444000D01*
G54D13*X18000Y439700D02*X38000D01*
G54D14*X27700Y477200D02*X28000Y477500D01*
G54D11*X45300Y214000D02*X38000Y221300D01*
X45300Y198400D02*X38000Y205700D01*
X45300Y182800D02*X38000Y190100D01*
X45300Y167200D02*X38000Y174500D01*
X45300Y151600D02*X38000Y158900D01*
X45300Y136000D02*X38000Y143300D01*
X45300Y120400D02*X38000Y127700D01*
X45300Y104800D02*X38000Y112100D01*
G54D12*X1490500Y477500D02*Y444000D01*
G54D13*X1480500Y439700D02*X1500500D01*
G54D14*X1490200Y477200D02*X1490500Y477500D01*
G54D12*X1409200D02*Y444000D01*
G54D14*X1408900Y477200D02*X1409200Y477500D01*
G54D13*X1399200Y439700D02*X1419200D01*
X1318000D02*X1338000D01*
G54D12*X1328000Y477500D02*Y444000D01*
G54D14*X1327700Y477200D02*X1328000Y477500D01*
G54D11*X1338000Y236900D02*Y229600D01*
Y221300D02*Y214000D01*
Y299300D02*Y292000D01*
G54D12*X1490800Y74000D02*X1490500Y74300D01*
G54D11*X1338000Y205700D02*Y198400D01*
Y190100D02*Y182800D01*
Y174500D02*Y167200D01*
Y158900D02*Y151600D01*
Y143300D02*Y136000D01*
X1399200Y168000D02*X1400000Y167200D01*
X1399200Y174500D02*Y168000D01*
Y152400D02*X1400000Y151600D01*
X1399200Y158900D02*Y152400D01*
Y136800D02*X1400000Y136000D01*
X1399200Y143300D02*Y136800D01*
Y230400D02*X1400000Y229600D01*
X1399200Y236900D02*Y230400D01*
Y214800D02*X1400000Y214000D01*
X1399200Y221300D02*Y214800D01*
Y199200D02*X1400000Y198400D01*
X1399200Y205700D02*Y199200D01*
Y183600D02*X1400000Y182800D01*
X1399200Y190100D02*Y183600D01*
X1500300Y236900D02*X1493000Y229600D01*
X1500300Y221300D02*X1493000Y214000D01*
X1500300Y205700D02*X1493000Y198400D01*
X1500300Y190100D02*X1493000Y182800D01*
X1500300Y174500D02*X1493000Y167200D01*
X1500300Y158900D02*X1493000Y151600D01*
X1500300Y283700D02*X1493000Y276400D01*
X1500300Y299300D02*X1493000Y292000D01*
X1399200Y292800D02*X1400000Y292000D01*
X1399200Y299300D02*Y292800D01*
G54D13*X1155500Y439700D02*X1175500D01*
G54D11*Y198900D02*X1176000Y198400D01*
X1175500Y205700D02*Y198900D01*
Y183300D02*X1176000Y182800D01*
X1175500Y190100D02*Y183300D01*
Y167700D02*X1176000Y167200D01*
X1175500Y174500D02*Y167700D01*
Y152100D02*X1176000Y151600D01*
X1175500Y158900D02*Y152100D01*
Y136500D02*X1176000Y136000D01*
X1175500Y143300D02*Y136500D01*
Y230100D02*X1176000Y229600D01*
X1175500Y236900D02*Y230100D01*
Y214500D02*X1176000Y214000D01*
X1175500Y221300D02*Y214500D01*
Y283700D02*Y276900D01*
Y292500D02*X1176000Y292000D01*
X1175500Y299300D02*Y292500D01*
G54D12*X1165500Y477500D02*Y444000D01*
G54D14*X1165200Y477200D02*X1165500Y477500D01*
G54D12*X1003000D02*Y444000D01*
G54D13*X993000Y439700D02*X1013000D01*
G54D14*X1002700Y477200D02*X1003000Y477500D01*
G54D11*X1094200Y229800D02*X1094000Y229600D01*
X1094200Y214200D02*X1094000Y214000D01*
X1094200Y198600D02*X1094000Y198400D01*
X1094200Y276600D02*X1094000Y276400D01*
X1013000Y283700D02*Y276400D01*
X1094200Y292200D02*X1094000Y292000D01*
X1013000Y299300D02*Y292000D01*
X1094200Y183000D02*X1094000Y182800D01*
X1013000Y190100D02*Y182800D01*
X1094200Y151800D02*X1094000Y151600D01*
X1013000Y158900D02*Y151600D01*
X1094200Y136200D02*X1094000Y136000D01*
X1013000Y143300D02*Y136000D01*
Y236900D02*Y229600D01*
Y221300D02*Y214000D01*
Y205700D02*Y198400D01*
X850500Y230100D02*X851000Y229600D01*
X850500Y236900D02*Y230100D01*
Y214500D02*X851000Y214000D01*
X850500Y221300D02*Y214500D01*
Y198900D02*X851000Y198400D01*
X850500Y205700D02*Y198900D01*
Y143300D02*Y136500D01*
Y276900D02*X851000Y276400D01*
X850500Y283700D02*Y276900D01*
Y292500D02*X851000Y292000D01*
X850500Y299300D02*Y292500D01*
G54D12*X515500Y477500D02*Y444000D01*
G54D14*X515200Y477200D02*X515500Y477500D01*
G54D13*X505500Y439700D02*X525500D01*
G54D12*X678000Y477500D02*Y444000D01*
G54D13*X668000Y439700D02*X688000D01*
G54D14*X677700Y477200D02*X678000Y477500D01*
G54D12*X840500D02*Y444000D01*
G54D13*X830500Y439700D02*X850500D01*
G54D14*X840200Y477200D02*X840500Y477500D01*
G54D12*X759200D02*Y444000D01*
G54D14*X758900Y477200D02*X759200Y477500D01*
G54D13*X749200Y439700D02*X769200D01*
G54D15*X1490500Y477500D02*X28000D01*
G54D13*X18100Y361700D02*X1500500D01*
X18000D02*X1500500D01*
X18100Y346100D02*X1500500D01*
X18000D02*X1500500D01*
X18100Y330500D02*X1500500D01*
X18000D02*X1500500D01*
X18100Y314900D02*X1500500D01*
X18000D02*X1500500D01*
X18100Y377300D02*X1500500D01*
X18000D02*X1500500D01*
X18100Y392900D02*X1500500D01*
X18000D02*X1500500D01*
X18100Y408500D02*X1500500D01*
X18000D02*X1500500D01*
X18100Y424100D02*X1500500D01*
X18000D02*X1500500D01*
G54D11*X1493000Y229600D02*X45300D01*
X688000Y236900D02*Y229600D01*
X1493000Y245200D02*X45300D01*
X1094200Y245400D02*X1094000Y245200D01*
X850500Y245700D02*X851000Y245200D01*
X1493000Y214000D02*X45300D01*
X1493000Y198400D02*X45300D01*
X1493000Y182800D02*X45300D01*
X850500Y183300D02*X851000Y182800D01*
X850500Y190100D02*Y183300D01*
X688000Y190100D02*Y182800D01*
X525500Y230100D02*X526000Y229600D01*
X525500Y236900D02*Y230100D01*
X1493000Y260800D02*X45300D01*
X1493000Y276400D02*X45300D01*
X1493000Y292000D02*X45300D01*
X749200Y229800D02*X749000Y229600D01*
X749200Y214200D02*X749000Y214000D01*
X749200Y221300D02*Y214200D01*
Y236900D02*Y229800D01*
Y198600D02*X749000Y198400D01*
X749200Y205700D02*Y198600D01*
Y183000D02*X749000Y182800D01*
X749200Y190100D02*Y183000D01*
Y167400D02*X749000Y167200D01*
X749200Y174500D02*Y167400D01*
Y151800D02*X749000Y151600D01*
X749200Y158900D02*Y151800D01*
Y136200D02*X749000Y136000D01*
X749200Y143300D02*Y136200D01*
Y120600D02*X749000Y120400D01*
X749200Y105000D02*X749000Y104800D01*
X749200Y112100D02*Y105000D01*
Y127700D02*Y120600D01*
X1493000Y167200D02*X45300D01*
X1493000Y151600D02*X45300D01*
X1493000Y136000D02*X45300D01*
X688000Y143300D02*Y136000D01*
X525500Y136500D02*X526000Y136000D01*
X525500Y143300D02*Y136500D01*
X1094200Y167400D02*X1094000Y167200D01*
X1013000Y174500D02*Y167200D01*
X850500Y174500D02*Y167700D01*
X525500Y174500D02*Y167700D01*
X850500D02*X851000Y167200D01*
X850500Y152100D02*X851000Y151600D01*
X850500Y158900D02*Y152100D01*
Y136500D02*X851000Y136000D01*
X850500Y120900D02*X851000Y120400D01*
X850500Y127700D02*Y120900D01*
X1493000Y120400D02*X45300D01*
X1493000Y104800D02*X45300D01*
X850500Y105300D02*X851000Y104800D01*
X850500Y112100D02*Y105300D01*
X688000Y112100D02*Y104800D01*
X1013000Y127700D02*Y120400D01*
X688000Y127700D02*Y120400D01*
Y205700D02*Y198400D01*
Y174500D02*Y167200D01*
X525500Y167700D02*X526000Y167200D01*
X688000Y158900D02*Y151600D01*
X525500Y152100D02*X526000Y151600D01*
X525500Y158900D02*Y152100D01*
Y120900D02*X526000Y120400D01*
X525500Y127700D02*Y120900D01*
Y105300D02*X526000Y104800D01*
X525500Y112100D02*Y105300D01*
X1500300Y143300D02*X1493000Y136000D01*
X1399200Y121200D02*X1400000Y120400D01*
X1399200Y127700D02*Y121200D01*
X1338000Y127700D02*Y120400D01*
X1175500Y120900D02*X1176000Y120400D01*
X1175500Y127700D02*Y120900D01*
X1094200Y120600D02*X1094000Y120400D01*
X1500300Y127700D02*X1493000Y120400D01*
X1500300Y112100D02*X1493000Y104800D01*
X1399200Y105600D02*X1400000Y104800D01*
X1175500Y105300D02*X1176000Y104800D01*
X1175500Y112100D02*Y105300D01*
X1399200Y112100D02*Y105600D01*
X1338000Y112100D02*Y104800D01*
X1094200Y105000D02*X1094000Y104800D01*
X1013000Y112100D02*Y104800D01*
X1399200Y246000D02*X1400000Y245200D01*
X1175500Y245700D02*X1176000Y245200D01*
X1175500Y252500D02*Y245700D01*
X1013000Y252500D02*Y245200D01*
X1399200Y252500D02*Y246000D01*
Y277200D02*X1400000Y276400D01*
X1399200Y283700D02*Y277200D01*
X1338000Y252500D02*Y245200D01*
Y268100D02*Y260800D01*
Y283700D02*Y276400D01*
X1500300Y252500D02*X1493000Y245200D01*
X1500300Y268100D02*X1493000Y260800D01*
X1399200Y261600D02*X1400000Y260800D01*
X1399200Y268100D02*Y261600D01*
X850500Y252500D02*Y245700D01*
Y261300D02*X851000Y260800D01*
X850500Y268100D02*Y261300D01*
X1175500D02*X1176000Y260800D01*
X1175500Y268100D02*Y261300D01*
X1094200Y261000D02*X1094000Y260800D01*
X1013000Y268100D02*Y260800D01*
X1175500Y276900D02*X1176000Y276400D01*
G54D16*X678000Y477500D03*
G54D17*X688000Y439700D03*
X668000D03*
G54D16*X759200Y477500D03*
G54D17*X688000Y424100D03*
X668000D03*
Y408500D03*
X688000D03*
Y392900D03*
Y377300D03*
Y361700D03*
Y346100D03*
Y330500D03*
Y314900D03*
Y299300D03*
Y283700D03*
X668000Y392900D03*
Y377300D03*
Y361700D03*
Y346100D03*
Y330500D03*
Y314900D03*
Y299300D03*
Y283700D03*
G54D16*X840500Y477500D03*
G54D17*X850500Y439700D03*
X830500D03*
X850500Y424100D03*
X830500D03*
Y408500D03*
X850500D03*
Y392900D03*
Y377300D03*
Y361700D03*
Y346100D03*
Y330500D03*
Y314900D03*
Y299300D03*
Y283700D03*
X830500Y392900D03*
Y377300D03*
Y361700D03*
Y346100D03*
Y330500D03*
Y314900D03*
Y299300D03*
Y283700D03*
X749200Y439700D03*
Y424100D03*
Y408500D03*
Y392900D03*
Y377300D03*
Y361700D03*
Y346100D03*
Y330500D03*
Y314900D03*
Y299300D03*
Y283700D03*
X769200Y439700D03*
Y424100D03*
Y408500D03*
Y392900D03*
Y377300D03*
Y361700D03*
Y346100D03*
Y330500D03*
Y314900D03*
Y299300D03*
Y283700D03*
X668000Y268100D03*
Y252500D03*
Y236900D03*
Y221300D03*
Y205700D03*
Y190100D03*
Y174500D03*
Y158900D03*
Y143300D03*
Y127700D03*
Y112100D03*
X850500Y268100D03*
Y252500D03*
Y236900D03*
X830500Y268100D03*
Y252500D03*
Y236900D03*
X850500Y221300D03*
X830500D03*
X850500Y205700D03*
X830500D03*
X850500Y190100D03*
X830500D03*
X1013000Y205700D03*
X993000D03*
Y190100D03*
X1013000D03*
Y174500D03*
Y158900D03*
Y143300D03*
Y127700D03*
Y112100D03*
X993000Y174500D03*
Y158900D03*
Y143300D03*
Y127700D03*
Y112100D03*
X850500Y174500D03*
X830500D03*
Y158900D03*
Y143300D03*
Y127700D03*
Y112100D03*
X850500Y158900D03*
Y143300D03*
Y127700D03*
Y112100D03*
X749200Y268100D03*
X769200D03*
Y252500D03*
X749200D03*
Y236900D03*
Y221300D03*
Y205700D03*
Y190100D03*
X769200Y236900D03*
Y221300D03*
Y205700D03*
Y190100D03*
X749200Y174500D03*
X769200D03*
X749200Y158900D03*
Y143300D03*
Y127700D03*
G54D16*X759200Y74300D03*
G54D17*X749200Y112100D03*
X769200Y158900D03*
Y143300D03*
Y127700D03*
Y112100D03*
G54D16*X1003000Y477500D03*
G54D17*X1013000Y439700D03*
X993000D03*
X1013000Y424100D03*
X993000D03*
Y408500D03*
X1013000D03*
Y392900D03*
Y377300D03*
Y361700D03*
Y346100D03*
Y330500D03*
Y314900D03*
Y299300D03*
Y283700D03*
X993000Y392900D03*
Y377300D03*
Y361700D03*
Y346100D03*
Y330500D03*
Y314900D03*
Y299300D03*
Y283700D03*
G54D16*X1165500Y477500D03*
G54D17*X1175500Y439700D03*
X1155500D03*
X1175500Y424100D03*
X1155500D03*
Y408500D03*
X1175500D03*
Y392900D03*
Y377300D03*
Y361700D03*
Y346100D03*
Y330500D03*
Y314900D03*
Y299300D03*
Y283700D03*
X1155500Y392900D03*
Y377300D03*
Y361700D03*
Y346100D03*
Y330500D03*
Y314900D03*
Y299300D03*
Y283700D03*
G54D16*X1328000Y477500D03*
G54D17*X1338000Y439700D03*
X1318000D03*
G54D16*X1409200Y477500D03*
G54D17*X1338000Y424100D03*
X1318000D03*
Y408500D03*
X1338000D03*
Y392900D03*
Y377300D03*
Y361700D03*
Y346100D03*
Y330500D03*
Y314900D03*
Y299300D03*
Y283700D03*
X1318000Y392900D03*
Y377300D03*
Y361700D03*
Y346100D03*
Y330500D03*
Y314900D03*
Y299300D03*
Y283700D03*
G54D16*X1490500Y477500D03*
G54D17*X1500500Y439700D03*
X1480500D03*
X1500500Y424100D03*
X1480500D03*
Y408500D03*
X1500500D03*
Y392900D03*
Y377300D03*
Y361700D03*
Y346100D03*
Y330500D03*
Y314900D03*
Y299300D03*
Y283700D03*
X1480500Y392900D03*
Y377300D03*
Y361700D03*
Y346100D03*
Y330500D03*
Y314900D03*
Y299300D03*
Y283700D03*
X1399200Y439700D03*
Y424100D03*
Y408500D03*
Y392900D03*
Y377300D03*
Y361700D03*
Y346100D03*
Y330500D03*
Y314900D03*
Y299300D03*
Y283700D03*
X1419200Y439700D03*
Y424100D03*
Y408500D03*
Y392900D03*
Y377300D03*
Y361700D03*
Y346100D03*
Y330500D03*
Y314900D03*
Y299300D03*
Y283700D03*
X1013000Y268100D03*
X993000D03*
X1013000Y221300D03*
X993000D03*
X1175500Y268100D03*
X1155500D03*
Y252500D03*
Y236900D03*
Y221300D03*
X1175500Y252500D03*
Y236900D03*
Y221300D03*
X1013000Y252500D03*
X993000D03*
X1013000Y236900D03*
X993000D03*
X1338000Y268100D03*
X1318000D03*
X1500500D03*
X1480500D03*
X1399200D03*
X1419200D03*
X1338000Y252500D03*
X1318000D03*
X1500500D03*
X1480500D03*
X1399200D03*
X1419200D03*
X1338000Y236900D03*
X1318000D03*
X1500500D03*
X1480500D03*
X1399200D03*
X1419200D03*
G54D16*X1165500Y74300D03*
X1328000D03*
X1490500D03*
X1409200D03*
G54D17*X1175500Y158900D03*
Y143300D03*
Y127700D03*
Y112100D03*
X1155500Y174500D03*
Y158900D03*
Y143300D03*
Y127700D03*
Y112100D03*
X1318000Y143300D03*
Y127700D03*
Y112100D03*
X1419200Y158900D03*
Y143300D03*
Y127700D03*
Y112100D03*
X1175500Y205700D03*
Y190100D03*
Y174500D03*
X1155500Y205700D03*
X1338000D03*
X1318000D03*
X1155500Y190100D03*
X1338000D03*
Y174500D03*
Y158900D03*
Y143300D03*
Y127700D03*
Y112100D03*
X1318000Y190100D03*
X1338000Y221300D03*
X1318000D03*
X1399200D03*
X1500500D03*
Y205700D03*
X1480500Y221300D03*
Y205700D03*
X1399200D03*
X1419200Y221300D03*
Y205700D03*
X1318000Y174500D03*
X1399200Y190100D03*
X1419200D03*
X1500500Y158900D03*
Y143300D03*
Y127700D03*
Y112100D03*
X1480500Y158900D03*
Y143300D03*
X1500500Y190100D03*
Y174500D03*
X1480500Y190100D03*
Y174500D03*
X1318000Y158900D03*
X1480500Y127700D03*
Y112100D03*
X1399200Y174500D03*
Y158900D03*
Y143300D03*
Y127700D03*
Y112100D03*
X1419200Y174500D03*
G54D16*X28000Y74300D03*
X109200D03*
G54D17*X99200Y127700D03*
Y112100D03*
X119200Y127700D03*
Y112100D03*
G54D16*X190500Y74300D03*
X271700D03*
X353000D03*
X515500D03*
X678000D03*
X840500D03*
X1003000D03*
X353000Y477500D03*
G54D17*X363000Y439700D03*
X343000D03*
X363000Y424100D03*
X343000D03*
Y408500D03*
X363000D03*
Y392900D03*
Y377300D03*
Y361700D03*
Y346100D03*
Y330500D03*
Y314900D03*
Y299300D03*
Y283700D03*
X343000Y392900D03*
Y377300D03*
Y361700D03*
Y346100D03*
Y330500D03*
Y314900D03*
Y299300D03*
Y283700D03*
G54D16*X515500Y477500D03*
G54D17*X525500Y439700D03*
X505500D03*
X525500Y424100D03*
X505500D03*
Y408500D03*
X525500D03*
Y392900D03*
Y377300D03*
Y361700D03*
Y346100D03*
Y330500D03*
Y314900D03*
Y299300D03*
Y283700D03*
X505500Y392900D03*
Y377300D03*
Y361700D03*
Y346100D03*
Y330500D03*
Y314900D03*
Y299300D03*
Y283700D03*
X119200Y268100D03*
Y252500D03*
Y236900D03*
Y221300D03*
Y205700D03*
Y190100D03*
Y174500D03*
Y158900D03*
Y143300D03*
X525500Y268100D03*
Y252500D03*
X505500Y268100D03*
Y252500D03*
X525500Y205700D03*
Y236900D03*
Y221300D03*
X505500Y236900D03*
Y221300D03*
Y205700D03*
Y190100D03*
Y174500D03*
Y158900D03*
Y143300D03*
Y127700D03*
Y112100D03*
X525500Y190100D03*
Y174500D03*
Y158900D03*
Y143300D03*
Y127700D03*
Y112100D03*
X688000Y268100D03*
Y252500D03*
Y236900D03*
Y221300D03*
Y205700D03*
Y190100D03*
Y174500D03*
Y158900D03*
Y143300D03*
Y127700D03*
Y112100D03*
G54D16*X28000Y477500D03*
G54D17*X18000Y439700D03*
Y424100D03*
Y408500D03*
Y392900D03*
Y377300D03*
X38000Y439700D03*
Y424100D03*
Y408500D03*
Y392900D03*
Y377300D03*
Y361700D03*
X18000D03*
X38000Y346100D03*
X18000D03*
X38000Y330500D03*
X18000D03*
Y314900D03*
Y299300D03*
Y283700D03*
X38000Y314900D03*
Y299300D03*
Y283700D03*
G54D16*X109200Y477500D03*
G54D17*X99200Y439700D03*
X119200D03*
Y424100D03*
X99200D03*
Y408500D03*
Y392900D03*
X119200Y408500D03*
Y392900D03*
Y377300D03*
X99200D03*
Y361700D03*
Y346100D03*
Y330500D03*
Y314900D03*
Y299300D03*
Y283700D03*
X119200Y361700D03*
Y346100D03*
Y330500D03*
Y314900D03*
Y299300D03*
Y283700D03*
X200500Y268100D03*
X180500D03*
X200500Y252500D03*
X180500D03*
Y236900D03*
X363000Y268100D03*
X343000D03*
X363000Y252500D03*
X343000D03*
X363000Y236900D03*
X343000D03*
Y221300D03*
X363000D03*
Y205700D03*
Y190100D03*
Y174500D03*
Y158900D03*
Y143300D03*
Y127700D03*
Y112100D03*
X343000Y205700D03*
Y190100D03*
Y174500D03*
Y158900D03*
G54D16*X190500Y477500D03*
G54D17*X200500Y439700D03*
X180500D03*
G54D16*X271700Y477500D03*
G54D17*X200500Y424100D03*
X180500D03*
Y408500D03*
X200500D03*
Y392900D03*
Y377300D03*
Y361700D03*
Y346100D03*
Y330500D03*
Y314900D03*
Y299300D03*
Y283700D03*
X180500Y392900D03*
Y377300D03*
Y361700D03*
Y346100D03*
Y330500D03*
Y314900D03*
Y299300D03*
Y283700D03*
X261700Y439700D03*
Y424100D03*
Y408500D03*
Y392900D03*
Y377300D03*
Y361700D03*
Y346100D03*
Y330500D03*
Y314900D03*
Y299300D03*
Y283700D03*
X281700Y439700D03*
Y424100D03*
Y408500D03*
Y392900D03*
Y377300D03*
Y361700D03*
Y346100D03*
Y330500D03*
Y314900D03*
Y299300D03*
Y283700D03*
X38000Y268100D03*
Y252500D03*
Y236900D03*
Y221300D03*
X99200Y268100D03*
Y252500D03*
X18000Y268100D03*
Y252500D03*
Y236900D03*
Y221300D03*
Y205700D03*
Y190100D03*
Y174500D03*
Y158900D03*
Y143300D03*
Y127700D03*
Y112100D03*
X200500Y236900D03*
Y221300D03*
Y205700D03*
Y190100D03*
Y174500D03*
Y158900D03*
Y143300D03*
X180500Y221300D03*
Y205700D03*
Y190100D03*
Y174500D03*
Y158900D03*
Y143300D03*
Y127700D03*
Y112100D03*
X200500Y127700D03*
Y112100D03*
X343000D03*
X261700D03*
X281700D03*
X261700Y174500D03*
Y158900D03*
X281700Y174500D03*
Y158900D03*
X343000Y143300D03*
Y127700D03*
X261700Y143300D03*
Y127700D03*
X281700Y143300D03*
Y127700D03*
X261700Y268100D03*
Y252500D03*
X281700Y268100D03*
Y252500D03*
X261700Y205700D03*
Y190100D03*
Y236900D03*
Y221300D03*
X281700Y236900D03*
Y221300D03*
Y205700D03*
Y190100D03*
X38000Y205700D03*
Y190100D03*
Y174500D03*
Y158900D03*
Y143300D03*
Y127700D03*
Y112100D03*
X99200Y236900D03*
Y221300D03*
Y205700D03*
Y190100D03*
Y174500D03*
Y158900D03*
Y143300D03*
G54D18*G54D19*G54D18*G54D19*G54D18*G54D19*G54D18*G54D19*G54D18*G54D19*G54D18*G54D19*G54D18*G54D19*G54D18*G54D19*G54D18*G54D19*G54D18*G54D19*G54D18*G54D19*G54D18*G54D19*G54D18*G54D19*G54D18*G54D19*G54D18*G54D19*G54D18*G54D19*G54D18*G54D19*M02*
