G04 start of page 6 for group -4063 idx -4063 *
G04 Title: (unknown), componentmask *
G04 Creator: pcb 20110918 *
G04 CreationDate: Mon May  5 15:54:35 2014 UTC *
G04 For: fosse *
G04 Format: Gerber/RS-274X *
G04 PCB-Dimensions: 2025000 500000 *
G04 PCB-Coordinate-Origin: lower left *
%MOIN*%
%FSLAX25Y25*%
%LNTOPMASK*%
%ADD36C,0.2620*%
%ADD35C,0.0840*%
G54D35*X104333Y436200D03*
Y420600D03*
Y405000D03*
Y389400D03*
Y373800D03*
Y358200D03*
Y342600D03*
Y327000D03*
Y311400D03*
Y295800D03*
Y280200D03*
X124333Y436200D03*
Y420600D03*
Y405000D03*
Y389400D03*
Y373800D03*
Y358200D03*
Y342600D03*
Y327000D03*
Y311400D03*
Y295800D03*
Y280200D03*
X207666Y373800D03*
Y358200D03*
Y342600D03*
Y327000D03*
Y311400D03*
Y295800D03*
Y280200D03*
X187666Y358200D03*
Y342600D03*
Y327000D03*
Y311400D03*
Y295800D03*
Y280200D03*
G54D36*X197666Y474000D03*
X280999D03*
G54D35*X270999Y436200D03*
X207666D03*
X187666D03*
Y420600D03*
X207666D03*
Y405000D03*
Y389400D03*
X187666Y405000D03*
Y389400D03*
Y373800D03*
X270999Y420600D03*
Y405000D03*
Y389400D03*
Y373800D03*
Y358200D03*
Y342600D03*
Y327000D03*
Y311400D03*
Y295800D03*
Y280200D03*
X290999Y436200D03*
Y420600D03*
Y405000D03*
Y389400D03*
Y373800D03*
Y358200D03*
Y342600D03*
Y327000D03*
Y311400D03*
Y295800D03*
Y280200D03*
G54D36*X364332Y474000D03*
G54D35*X374332Y436200D03*
X354332D03*
Y420600D03*
X374332D03*
Y405000D03*
Y389400D03*
X354332Y405000D03*
Y389400D03*
Y373800D03*
X374332D03*
Y358200D03*
Y342600D03*
Y327000D03*
Y311400D03*
Y295800D03*
Y280200D03*
X354332Y358200D03*
Y342600D03*
Y327000D03*
Y311400D03*
Y295800D03*
Y280200D03*
G54D36*X530998Y474000D03*
G54D35*X540998Y436200D03*
X520998D03*
Y420600D03*
X540998D03*
Y405000D03*
Y389400D03*
X520998Y405000D03*
Y389400D03*
Y373800D03*
X540998D03*
Y358200D03*
Y342600D03*
Y327000D03*
Y311400D03*
Y295800D03*
Y280200D03*
X520998Y358200D03*
Y342600D03*
Y327000D03*
Y311400D03*
Y295800D03*
Y280200D03*
G54D36*X697664Y474000D03*
G54D35*X707664Y436200D03*
X687664D03*
X707664Y420600D03*
X687664D03*
X707664Y405000D03*
X687664D03*
Y389400D03*
X707664D03*
Y373800D03*
Y358200D03*
Y342600D03*
Y327000D03*
Y311400D03*
Y295800D03*
Y280200D03*
X687664Y373800D03*
Y358200D03*
Y342600D03*
Y327000D03*
Y311400D03*
Y295800D03*
Y280200D03*
G54D36*X31000Y70800D03*
X114333D03*
X197666D03*
G54D35*X21000Y264600D03*
Y249000D03*
Y233400D03*
Y217800D03*
Y202200D03*
Y186600D03*
Y171000D03*
Y155400D03*
Y139800D03*
Y124200D03*
Y108600D03*
X41000Y202200D03*
Y186600D03*
Y171000D03*
Y155400D03*
Y139800D03*
Y124200D03*
Y108600D03*
X104333Y233400D03*
Y217800D03*
Y202200D03*
Y186600D03*
Y171000D03*
Y155400D03*
Y139800D03*
Y124200D03*
Y108600D03*
X270999Y202200D03*
X290999D03*
X270999Y186600D03*
X290999D03*
X270999Y171000D03*
X290999D03*
X270999Y155400D03*
X290999D03*
X270999Y139800D03*
X290999D03*
X270999Y233400D03*
Y217800D03*
X290999Y233400D03*
Y217800D03*
X187666Y124200D03*
X270999D03*
X290999D03*
X187666Y108600D03*
X270999D03*
X290999D03*
G54D36*X280999Y70800D03*
X364332D03*
X530998D03*
G54D35*X374332Y124200D03*
X354332D03*
X540998D03*
X520998D03*
X374332Y108600D03*
X354332D03*
X540998D03*
X520998D03*
G54D36*X31000Y474000D03*
G54D35*X21000Y436200D03*
Y420600D03*
Y405000D03*
Y389400D03*
Y373800D03*
X41000Y436200D03*
Y420600D03*
Y405000D03*
Y389400D03*
Y373800D03*
G54D36*X114333Y474000D03*
G54D35*X41000Y358200D03*
X21000D03*
X41000Y342600D03*
X21000D03*
X41000Y327000D03*
X21000D03*
Y311400D03*
Y295800D03*
Y280200D03*
X41000Y311400D03*
Y295800D03*
Y280200D03*
Y264600D03*
Y249000D03*
Y233400D03*
Y217800D03*
X104333Y264600D03*
Y249000D03*
X124333Y264600D03*
Y249000D03*
Y233400D03*
Y217800D03*
Y202200D03*
Y186600D03*
Y171000D03*
Y155400D03*
Y139800D03*
Y124200D03*
Y108600D03*
X207666Y264600D03*
X187666D03*
X207666Y249000D03*
X187666D03*
X207666Y233400D03*
X187666D03*
X207666Y217800D03*
X187666D03*
Y202200D03*
X207666D03*
Y186600D03*
Y171000D03*
Y155400D03*
Y139800D03*
Y124200D03*
Y108600D03*
X187666Y186600D03*
Y171000D03*
Y155400D03*
Y139800D03*
X270999Y264600D03*
Y249000D03*
X290999Y264600D03*
Y249000D03*
X374332Y264600D03*
X354332D03*
X374332Y249000D03*
X354332D03*
X374332Y233400D03*
X354332D03*
X374332Y217800D03*
X354332D03*
Y202200D03*
X374332D03*
Y186600D03*
Y171000D03*
Y155400D03*
Y139800D03*
X354332Y186600D03*
Y171000D03*
Y155400D03*
Y139800D03*
X540998Y264600D03*
X520998D03*
X707664D03*
X687664D03*
X540998Y249000D03*
X520998D03*
X707664D03*
X687664D03*
X540998Y233400D03*
X520998D03*
X707664D03*
X687664D03*
X540998Y217800D03*
X520998D03*
Y202200D03*
X707664D03*
X687664Y217800D03*
Y202200D03*
X540998D03*
Y186600D03*
Y171000D03*
Y155400D03*
Y139800D03*
X520998Y186600D03*
Y171000D03*
Y155400D03*
Y139800D03*
X707664Y217800D03*
Y186600D03*
Y171000D03*
Y155400D03*
Y139800D03*
X687664Y186600D03*
Y171000D03*
Y155400D03*
Y139800D03*
G54D36*X1447661Y474000D03*
X1530994D03*
X1364328D03*
G54D35*X1437661Y436200D03*
X1457661D03*
Y420600D03*
X1437661D03*
Y405000D03*
Y389400D03*
X1457661Y405000D03*
Y389400D03*
Y373800D03*
X1540994Y436200D03*
Y420600D03*
Y405000D03*
X1520994Y436200D03*
Y420600D03*
Y405000D03*
X1437661Y233400D03*
Y217800D03*
Y202200D03*
Y186600D03*
Y171000D03*
Y155400D03*
Y139800D03*
X1457661Y233400D03*
Y217800D03*
Y202200D03*
Y186600D03*
Y171000D03*
Y155400D03*
Y139800D03*
G54D36*X1447661Y70800D03*
G54D35*X1437661Y124200D03*
Y108600D03*
X1457661Y124200D03*
Y108600D03*
X1540994Y233400D03*
Y217800D03*
Y202200D03*
Y186600D03*
Y171000D03*
Y155400D03*
Y139800D03*
X1520994Y155400D03*
Y139800D03*
G54D36*X1530994Y70800D03*
G54D35*X1520994Y124200D03*
Y108600D03*
X1437661Y373800D03*
Y358200D03*
Y342600D03*
Y327000D03*
Y311400D03*
Y295800D03*
X1457661Y358200D03*
Y342600D03*
Y327000D03*
Y311400D03*
Y295800D03*
X1540994Y389400D03*
Y373800D03*
Y358200D03*
Y342600D03*
Y327000D03*
Y311400D03*
Y295800D03*
X1520994Y389400D03*
Y373800D03*
Y358200D03*
Y342600D03*
Y327000D03*
Y311400D03*
Y295800D03*
X1374328Y436200D03*
Y420600D03*
X1354328Y436200D03*
Y420600D03*
Y405000D03*
X1374328D03*
Y389400D03*
Y373800D03*
Y358200D03*
Y342600D03*
Y327000D03*
Y311400D03*
Y295800D03*
X1354328Y389400D03*
Y373800D03*
Y358200D03*
Y342600D03*
Y327000D03*
Y311400D03*
Y295800D03*
X1437661Y280200D03*
X1457661D03*
X1540994D03*
X1520994D03*
X1437661Y264600D03*
X1540994D03*
X1520994D03*
X1457661D03*
Y249000D03*
X1540994D03*
X1520994D03*
Y233400D03*
Y217800D03*
Y202200D03*
Y186600D03*
Y171000D03*
X1374328Y186600D03*
Y171000D03*
Y155400D03*
Y139800D03*
X1354328Y186600D03*
Y171000D03*
Y155400D03*
Y139800D03*
X1437661Y249000D03*
X1374328Y280200D03*
X1354328D03*
X1374328Y264600D03*
X1354328D03*
X1374328Y233400D03*
Y217800D03*
Y202200D03*
Y249000D03*
X1354328D03*
Y233400D03*
Y217800D03*
Y202200D03*
G54D36*X697664Y70800D03*
G54D35*X707664Y124200D03*
Y108600D03*
X687664Y124200D03*
Y108600D03*
G54D36*X780997Y70800D03*
G54D35*X770997Y124200D03*
Y108600D03*
X790997Y124200D03*
Y108600D03*
X1040996Y280200D03*
X1020996D03*
Y264600D03*
Y249000D03*
X1040996Y264600D03*
X874330Y280200D03*
X854330D03*
Y264600D03*
Y249000D03*
X874330Y264600D03*
Y249000D03*
Y233400D03*
Y217800D03*
Y202200D03*
Y186600D03*
Y171000D03*
Y155400D03*
Y139800D03*
Y108600D03*
X854330Y233400D03*
Y217800D03*
Y202200D03*
Y186600D03*
Y171000D03*
Y155400D03*
Y139800D03*
Y124200D03*
Y108600D03*
X770997Y280200D03*
X790997D03*
Y264600D03*
Y249000D03*
X770997Y264600D03*
Y249000D03*
Y233400D03*
Y217800D03*
Y202200D03*
Y186600D03*
Y171000D03*
Y155400D03*
Y139800D03*
X790997Y233400D03*
Y217800D03*
Y202200D03*
Y186600D03*
Y171000D03*
Y155400D03*
Y139800D03*
G54D36*X1197662Y474000D03*
G54D35*X1207662Y436200D03*
X1187662D03*
Y420600D03*
X1207662D03*
Y405000D03*
Y389400D03*
X1187662Y405000D03*
Y389400D03*
Y373800D03*
X1207662D03*
Y358200D03*
Y342600D03*
Y327000D03*
Y311400D03*
Y295800D03*
X1187662Y358200D03*
Y342600D03*
Y327000D03*
Y311400D03*
Y295800D03*
G54D36*X1030996Y474000D03*
G54D35*X1040996Y436200D03*
X1020996D03*
X1040996Y420600D03*
X1020996D03*
X1040996Y405000D03*
X1020996D03*
Y389400D03*
X1040996D03*
Y373800D03*
Y358200D03*
Y342600D03*
Y327000D03*
Y311400D03*
Y295800D03*
X1020996Y373800D03*
Y358200D03*
Y342600D03*
Y327000D03*
Y311400D03*
Y295800D03*
G54D36*X864330Y474000D03*
G54D35*X874330Y436200D03*
X854330D03*
X874330Y420600D03*
X854330D03*
G54D36*X780997Y474000D03*
G54D35*X874330Y405000D03*
X854330D03*
Y389400D03*
X874330D03*
Y373800D03*
Y358200D03*
Y342600D03*
Y327000D03*
Y311400D03*
Y295800D03*
X854330Y373800D03*
Y358200D03*
Y342600D03*
Y327000D03*
Y311400D03*
Y295800D03*
X770997Y436200D03*
Y420600D03*
Y405000D03*
Y389400D03*
Y373800D03*
Y358200D03*
Y342600D03*
Y327000D03*
Y311400D03*
Y295800D03*
X790997Y436200D03*
Y420600D03*
Y405000D03*
Y389400D03*
Y373800D03*
Y358200D03*
Y342600D03*
Y327000D03*
Y311400D03*
Y295800D03*
X1207662Y280200D03*
Y264600D03*
Y249000D03*
X1187662Y280200D03*
Y264600D03*
Y249000D03*
X1207662Y233400D03*
Y217800D03*
Y202200D03*
Y186600D03*
Y171000D03*
Y155400D03*
Y139800D03*
X1187662Y233400D03*
Y217800D03*
Y202200D03*
Y186600D03*
Y171000D03*
Y155400D03*
Y139800D03*
X1040996Y249000D03*
Y233400D03*
Y217800D03*
Y202200D03*
Y186600D03*
Y171000D03*
Y155400D03*
Y139800D03*
X1020996Y233400D03*
Y217800D03*
Y202200D03*
Y186600D03*
Y171000D03*
Y155400D03*
Y139800D03*
X1540994Y124200D03*
Y108600D03*
G54D36*X1364328Y70800D03*
X1197662D03*
X1030996D03*
X864330D03*
G54D35*X1374328Y124200D03*
X1354328D03*
X1207662D03*
X1187662D03*
X1374328Y108600D03*
X1354328D03*
X1207662D03*
X1187662D03*
X1040996D03*
X1020996D03*
X1040996Y124200D03*
X1020996D03*
X874330D03*
M02*
