G04 start of page 8 for group -4079 idx -4079 *
G04 Title: (unknown), topsilk *
G04 Creator: pcb 20110918 *
G04 CreationDate: Mon May  5 15:54:35 2014 UTC *
G04 For: fosse *
G04 Format: Gerber/RS-274X *
G04 PCB-Dimensions: 2025000 500000 *
G04 PCB-Coordinate-Origin: lower left *
%MOIN*%
%FSLAX25Y25*%
%LNTOPSILK*%
%ADD45C,0.0232*%
%ADD44C,0.0226*%
%ADD43C,0.0224*%
%ADD42C,0.0100*%
%ADD41C,0.0350*%
%ADD40C,0.0700*%
%ADD39C,0.0001*%
G54D39*G36*
X1242557Y72768D02*X1247851D01*
X1242316Y67233D01*
Y72528D01*
X1242556Y72768D01*
X1242557D01*
G37*
G54D40*X176666Y451500D02*X139466D01*
Y94500D01*
X176666D01*
X253466D02*Y451500D01*
X586798Y94500D02*Y451500D01*
X400498Y455500D02*X444498D01*
X253466Y451500D02*X218666D01*
X509998D02*X472798D01*
Y94500D01*
X444498Y455500D02*Y298500D01*
X400498D01*
Y455500D01*
G54D41*Y441500D02*X444498D01*
G54D40*X218666Y94500D02*X253466D01*
X472798D02*X509998D01*
X551998D02*X586798D01*
X1051996D02*X1086796D01*
X972796D02*X1009996D01*
X586798Y451500D02*X551998D01*
X1420128D02*X1385328D01*
X1086796D02*X1051996D01*
X1009996D02*X972796D01*
X1112162Y298500D02*Y455500D01*
X1156162D01*
X1420128Y94500D02*Y451500D01*
X1385328Y94500D02*X1420128D01*
X1306128D02*X1343328D01*
X1306128Y451500D02*Y94500D01*
X1156162Y298500D02*X1112162D01*
X1156162Y455500D02*Y298500D01*
X1343328Y451500D02*X1306128D01*
G54D41*X1112162Y441500D02*X1156162D01*
G54D40*X1086796Y94500D02*Y451500D01*
X972796D02*Y94500D01*
G54D42*X480698Y434500D02*X481998D01*
X479998Y435200D02*X480698Y434500D01*
X479998Y437800D02*Y435200D01*
Y437800D02*X480698Y438500D01*
X481998D01*
X483198D02*Y434500D01*
X485698Y438500D02*Y434500D01*
X483198Y436500D02*X485698D01*
X486898Y437500D02*Y434500D01*
Y437500D02*X487598Y438500D01*
X488698D01*
X489398Y437500D01*
Y434500D01*
X486898Y436500D02*X489398D01*
X492598Y438500D02*X493098Y438000D01*
X491098Y438500D02*X492598D01*
X490598Y438000D02*X491098Y438500D01*
X490598Y438000D02*Y437000D01*
X491098Y436500D01*
X492598D01*
X493098Y436000D01*
Y435000D01*
X492598Y434500D02*X493098Y435000D01*
X491098Y434500D02*X492598D01*
X490598Y435000D02*X491098Y434500D01*
X496298Y438500D02*X496798Y438000D01*
X494798Y438500D02*X496298D01*
X494298Y438000D02*X494798Y438500D01*
X494298Y438000D02*Y437000D01*
X494798Y436500D01*
X496298D01*
X496798Y436000D01*
Y435000D01*
X496298Y434500D02*X496798Y435000D01*
X494798Y434500D02*X496298D01*
X494298Y435000D02*X494798Y434500D01*
X497998Y438500D02*X498998D01*
X498498D02*Y434500D01*
X497998D02*X498998D01*
X502198Y438500D02*X502698Y438000D01*
X500698Y438500D02*X502198D01*
X500198Y438000D02*X500698Y438500D01*
X500198Y438000D02*Y437000D01*
X500698Y436500D01*
X502198D01*
X502698Y436000D01*
Y435000D01*
X502198Y434500D02*X502698Y435000D01*
X500698Y434500D02*X502198D01*
X500198Y435000D02*X500698Y434500D01*
X481698Y418500D02*X482998D01*
X480998Y419200D02*X481698Y418500D01*
X480998Y421800D02*Y419200D01*
Y421800D02*X481698Y422500D01*
X482998D01*
X484198Y422000D02*Y419000D01*
Y422000D02*X484698Y422500D01*
X485698D01*
X486198Y422000D01*
Y419000D01*
X485698Y418500D02*X486198Y419000D01*
X484698Y418500D02*X485698D01*
X484198Y419000D02*X484698Y418500D01*
X487398Y422500D02*Y418500D01*
Y422500D02*X488898Y420500D01*
X490398Y422500D01*
Y418500D01*
X491598Y422500D02*Y418500D01*
Y422500D02*X493098Y420500D01*
X494598Y422500D01*
Y418500D01*
X495798Y422000D02*Y419000D01*
Y422000D02*X496298Y422500D01*
X497298D01*
X497798Y422000D01*
Y419000D01*
X497298Y418500D02*X497798Y419000D01*
X496298Y418500D02*X497298D01*
X495798Y419000D02*X496298Y418500D01*
X498998Y422500D02*Y418500D01*
Y422500D02*X501498Y418500D01*
Y422500D02*Y418500D01*
X483998Y404500D02*X485998D01*
X487198Y405700D02*X487998Y406500D01*
Y402500D01*
X487198D02*X488698D01*
X490398D02*X492398Y406500D01*
X489898D02*X492398D01*
X493598D02*X494598Y402500D01*
X495598Y406500D01*
X483998Y389500D02*X485998D01*
X487198Y390700D02*X487998Y391500D01*
Y387500D01*
X487198D02*X488698D01*
X489898Y391500D02*X491898D01*
X489898D02*Y389500D01*
X490398Y390000D01*
X491398D01*
X491898Y389500D01*
Y388000D01*
X491398Y387500D02*X491898Y388000D01*
X490398Y387500D02*X491398D01*
X489898Y388000D02*X490398Y387500D01*
X493098Y391500D02*X494098Y387500D01*
X495098Y391500D01*
X483998Y373500D02*X485998D01*
X484998Y374500D02*Y372500D01*
X487198Y374700D02*X487998Y375500D01*
Y371500D01*
X487198D02*X488698D01*
X489898Y375500D02*X491898D01*
X489898D02*Y373500D01*
X490398Y374000D01*
X491398D01*
X491898Y373500D01*
Y372000D01*
X491398Y371500D02*X491898Y372000D01*
X490398Y371500D02*X491398D01*
X489898Y372000D02*X490398Y371500D01*
X493098Y375500D02*X494098Y371500D01*
X495098Y375500D01*
X483998Y358500D02*X485998D01*
X484998Y359500D02*Y357500D01*
X487198Y359700D02*X487998Y360500D01*
Y356500D01*
X487198D02*X488698D01*
X490398D02*X492398Y360500D01*
X489898D02*X492398D01*
X493598D02*X494598Y356500D01*
X495598Y360500D01*
X484998Y328500D02*X485498Y328000D01*
X483498Y328500D02*X484998D01*
X482998Y328000D02*X483498Y328500D01*
X482998Y328000D02*Y325000D01*
X483498Y324500D01*
X484998D01*
X485498Y325000D01*
Y326000D02*Y325000D01*
X484998Y326500D02*X485498Y326000D01*
X483998Y326500D02*X484998D01*
X486698Y328500D02*Y324500D01*
Y328500D02*X489198Y324500D01*
Y328500D02*Y324500D01*
X490898Y328500D02*Y324500D01*
X492198Y328500D02*X492898Y327800D01*
Y325200D01*
X492198Y324500D02*X492898Y325200D01*
X490398Y324500D02*X492198D01*
X490398Y328500D02*X492198D01*
X494598D02*Y324500D01*
X495898Y328500D02*X496598Y327800D01*
Y325200D01*
X495898Y324500D02*X496598Y325200D01*
X494098Y324500D02*X495898D01*
X494098Y328500D02*X495898D01*
X482998Y342500D02*X484998D01*
X483998Y343500D02*Y341500D01*
X486198Y344500D02*X488198D01*
X486198D02*Y342500D01*
X486698Y343000D01*
X487698D01*
X488198Y342500D01*
Y341000D01*
X487698Y340500D02*X488198Y341000D01*
X486698Y340500D02*X487698D01*
X486198Y341000D02*X486698Y340500D01*
X489398Y344500D02*X490398Y340500D01*
X491398Y344500D01*
X493098D02*Y340500D01*
X494398Y344500D02*X495098Y343800D01*
Y341200D01*
X494398Y340500D02*X495098Y341200D01*
X492598Y340500D02*X494398D01*
X492598Y344500D02*X494398D01*
X406498Y375500D02*X407498Y373500D01*
X408498Y375500D01*
X407498Y373500D02*Y371500D01*
X409698Y373700D02*X411198D01*
X409698Y371500D02*X411698D01*
X409698Y375500D02*Y371500D01*
Y375500D02*X411698D01*
X412898D02*Y371500D01*
X414898D01*
X416098Y375500D02*Y371500D01*
X418098D01*
X419298Y375000D02*Y372000D01*
Y375000D02*X419798Y375500D01*
X420798D01*
X421298Y375000D01*
Y372000D01*
X420798Y371500D02*X421298Y372000D01*
X419798Y371500D02*X420798D01*
X419298Y372000D02*X419798Y371500D01*
X422498Y375500D02*Y373500D01*
X422998Y371500D01*
X423998Y373500D01*
X424998Y371500D01*
X425498Y373500D01*
Y375500D02*Y373500D01*
X406498Y344500D02*X408498D01*
X408998Y344000D01*
Y343000D01*
X408498Y342500D02*X408998Y343000D01*
X406998Y342500D02*X408498D01*
X406998Y344500D02*Y340500D01*
X407798Y342500D02*X408998Y340500D01*
X410198Y342700D02*X411698D01*
X410198Y340500D02*X412198D01*
X410198Y344500D02*Y340500D01*
Y344500D02*X412198D01*
X413898D02*Y340500D01*
X415198Y344500D02*X415898Y343800D01*
Y341200D01*
X415198Y340500D02*X415898Y341200D01*
X413398Y340500D02*X415198D01*
X413398Y344500D02*X415198D01*
X406498Y324500D02*X408498D01*
X408998Y325000D01*
Y326200D02*Y325000D01*
X408498Y326700D02*X408998Y326200D01*
X406998Y326700D02*X408498D01*
X406998Y328500D02*Y324500D01*
X406498Y328500D02*X408498D01*
X408998Y328000D01*
Y327200D01*
X408498Y326700D02*X408998Y327200D01*
X410198Y328500D02*Y324500D01*
X412198D01*
X413398Y327500D02*Y324500D01*
Y327500D02*X414098Y328500D01*
X415198D01*
X415898Y327500D01*
Y324500D01*
X413398Y326500D02*X415898D01*
X417798Y324500D02*X419098D01*
X417098Y325200D02*X417798Y324500D01*
X417098Y327800D02*Y325200D01*
Y327800D02*X417798Y328500D01*
X419098D01*
X420298D02*Y324500D01*
Y326500D02*X422298Y328500D01*
X420298Y326500D02*X422298Y324500D01*
X406998Y313500D02*Y309500D01*
X406498Y313500D02*X408498D01*
X408998Y313000D01*
Y312000D01*
X408498Y311500D02*X408998Y312000D01*
X406998Y311500D02*X408498D01*
X410198Y313500D02*Y310000D01*
X410698Y309500D01*
X411698D01*
X412198Y310000D01*
Y313500D02*Y310000D01*
X413398Y313500D02*X415398D01*
X415898Y313000D01*
Y312000D01*
X415398Y311500D02*X415898Y312000D01*
X413898Y311500D02*X415398D01*
X413898Y313500D02*Y309500D01*
X414698Y311500D02*X415898Y309500D01*
X417598Y313500D02*Y309500D01*
X417098Y313500D02*X419098D01*
X419598Y313000D01*
Y312000D01*
X419098Y311500D02*X419598Y312000D01*
X417598Y311500D02*X419098D01*
X420798Y313500D02*Y309500D01*
X422798D01*
X423998Y311700D02*X425498D01*
X423998Y309500D02*X425998D01*
X423998Y313500D02*Y309500D01*
Y313500D02*X425998D01*
X408498Y391500D02*X408998Y391000D01*
X406998Y391500D02*X408498D01*
X406498Y391000D02*X406998Y391500D01*
X406498Y391000D02*Y388000D01*
X406998Y387500D01*
X408498D01*
X408998Y388000D01*
Y389000D02*Y388000D01*
X408498Y389500D02*X408998Y389000D01*
X407498Y389500D02*X408498D01*
X410198Y391500D02*X412198D01*
X412698Y391000D01*
Y390000D01*
X412198Y389500D02*X412698Y390000D01*
X410698Y389500D02*X412198D01*
X410698Y391500D02*Y387500D01*
X411498Y389500D02*X412698Y387500D01*
X413898Y389700D02*X415398D01*
X413898Y387500D02*X415898D01*
X413898Y391500D02*Y387500D01*
Y391500D02*X415898D01*
X417098Y389700D02*X418598D01*
X417098Y387500D02*X419098D01*
X417098Y391500D02*Y387500D01*
Y391500D02*X419098D01*
X420298D02*Y387500D01*
Y391500D02*X422798Y387500D01*
Y391500D02*Y387500D01*
X406498Y437500D02*Y435500D01*
X406998Y433500D01*
X407998Y435500D01*
X408998Y433500D01*
X409498Y435500D01*
Y437500D02*Y435500D01*
X410698Y437500D02*Y433500D01*
X413198Y437500D02*Y433500D01*
X410698Y435500D02*X413198D01*
X414398Y437500D02*X415398D01*
X414898D02*Y433500D01*
X414398D02*X415398D01*
X416598Y437500D02*X418598D01*
X417598D02*Y433500D01*
X419798Y435700D02*X421298D01*
X419798Y433500D02*X421798D01*
X419798Y437500D02*Y433500D01*
Y437500D02*X421798D01*
X406498Y418500D02*X408498D01*
X408998Y419000D01*
Y420200D02*Y419000D01*
X408498Y420700D02*X408998Y420200D01*
X406998Y420700D02*X408498D01*
X406998Y422500D02*Y418500D01*
X406498Y422500D02*X408498D01*
X408998Y422000D01*
Y421200D01*
X408498Y420700D02*X408998Y421200D01*
X410198Y422500D02*Y418500D01*
X412198D01*
X413398Y422500D02*Y419000D01*
X413898Y418500D01*
X414898D01*
X415398Y419000D01*
Y422500D02*Y419000D01*
X416598Y420700D02*X418098D01*
X416598Y418500D02*X418598D01*
X416598Y422500D02*Y418500D01*
Y422500D02*X418598D01*
X406498Y449500D02*Y447500D01*
X406998Y445500D01*
X407998Y447500D01*
X408998Y445500D01*
X409498Y447500D01*
Y449500D02*Y447500D01*
X410698Y449500D02*X411698D01*
X411198D02*Y445500D01*
X410698D02*X411698D01*
X412898Y449500D02*X414898D01*
X415398Y449000D01*
Y448000D01*
X414898Y447500D02*X415398Y448000D01*
X413398Y447500D02*X414898D01*
X413398Y449500D02*Y445500D01*
X414198Y447500D02*X415398Y445500D01*
X416598Y447700D02*X418098D01*
X416598Y445500D02*X418598D01*
X416598Y449500D02*Y445500D01*
Y449500D02*X418598D01*
X422298Y445500D02*X423598D01*
X421598Y446200D02*X422298Y445500D01*
X421598Y448800D02*Y446200D01*
Y448800D02*X422298Y449500D01*
X423598D01*
X424798Y449000D02*Y446000D01*
Y449000D02*X425298Y449500D01*
X426298D01*
X426798Y449000D01*
Y446000D01*
X426298Y445500D02*X426798Y446000D01*
X425298Y445500D02*X426298D01*
X424798Y446000D02*X425298Y445500D01*
X427998Y449500D02*Y445500D01*
X429998D01*
X431198Y449000D02*Y446000D01*
Y449000D02*X431698Y449500D01*
X432698D01*
X433198Y449000D01*
Y446000D01*
X432698Y445500D02*X433198Y446000D01*
X431698Y445500D02*X432698D01*
X431198Y446000D02*X431698Y445500D01*
X434398Y449500D02*X436398D01*
X436898Y449000D01*
Y448000D01*
X436398Y447500D02*X436898Y448000D01*
X434898Y447500D02*X436398D01*
X434898Y449500D02*Y445500D01*
X435698Y447500D02*X436898Y445500D01*
X481998Y311500D02*X483998D01*
X482998Y312500D02*Y310500D01*
X485198Y312700D02*X485998Y313500D01*
Y309500D01*
X485198D02*X486698D01*
X487898Y313000D02*X488398Y313500D01*
X489898D01*
X490398Y313000D01*
Y312000D01*
X487898Y309500D02*X490398Y312000D01*
X487898Y309500D02*X490398D01*
X491598Y313500D02*X492598Y309500D01*
X493598Y313500D01*
X495298D02*Y309500D01*
X496598Y313500D02*X497298Y312800D01*
Y310200D01*
X496598Y309500D02*X497298Y310200D01*
X494798Y309500D02*X496598D01*
X494798Y313500D02*X496598D01*
X487498Y282500D02*Y278500D01*
X488798Y282500D02*X489498Y281800D01*
Y279200D01*
X488798Y278500D02*X489498Y279200D01*
X486998Y278500D02*X488798D01*
X486998Y282500D02*X488798D01*
X490698Y282000D02*X491198Y282500D01*
X492698D01*
X493198Y282000D01*
Y281000D01*
X490698Y278500D02*X493198Y281000D01*
X490698Y278500D02*X493198D01*
X487498Y267500D02*Y263500D01*
X488798Y267500D02*X489498Y266800D01*
Y264200D01*
X488798Y263500D02*X489498Y264200D01*
X486998Y263500D02*X488798D01*
X486998Y267500D02*X488798D01*
X490698Y265000D02*X492698Y267500D01*
X490698Y265000D02*X493198D01*
X492698Y267500D02*Y263500D01*
X487498Y298500D02*Y294500D01*
X488798Y298500D02*X489498Y297800D01*
Y295200D01*
X488798Y294500D02*X489498Y295200D01*
X486998Y294500D02*X488798D01*
X486998Y298500D02*X488798D01*
X490698Y295000D02*X491198Y294500D01*
X490698Y298000D02*Y295000D01*
Y298000D02*X491198Y298500D01*
X492198D01*
X492698Y298000D01*
Y295000D01*
X492198Y294500D02*X492698Y295000D01*
X491198Y294500D02*X492198D01*
X490698Y295500D02*X492698Y297500D01*
X487498Y251500D02*Y247500D01*
X488798Y251500D02*X489498Y250800D01*
Y248200D01*
X488798Y247500D02*X489498Y248200D01*
X486998Y247500D02*X488798D01*
X486998Y251500D02*X488798D01*
X492198D02*X492698Y251000D01*
X491198Y251500D02*X492198D01*
X490698Y251000D02*X491198Y251500D01*
X490698Y251000D02*Y248000D01*
X491198Y247500D01*
X492198Y249700D02*X492698Y249200D01*
X490698Y249700D02*X492198D01*
X491198Y247500D02*X492198D01*
X492698Y248000D01*
Y249200D02*Y248000D01*
X481998Y236500D02*Y232500D01*
Y236500D02*X483998D01*
X481998Y234700D02*X483498D01*
X485198Y235500D02*Y232500D01*
Y235500D02*X485898Y236500D01*
X486998D01*
X487698Y235500D01*
Y232500D01*
X485198Y234500D02*X487698D01*
X488898Y236500D02*Y233000D01*
X489398Y232500D01*
X490398D01*
X490898Y233000D01*
Y236500D02*Y233000D01*
X492098Y236500D02*Y232500D01*
X494098D01*
X495298Y236500D02*X497298D01*
X496298D02*Y232500D01*
X486998Y220500D02*X488998D01*
X487998D02*Y216500D01*
X490198D02*X492698Y220500D01*
X490198D02*X492698Y216500D01*
X482698Y200500D02*X483998D01*
X481998Y201200D02*X482698Y200500D01*
X481998Y203800D02*Y201200D01*
Y203800D02*X482698Y204500D01*
X483998D01*
X485198D02*Y200500D01*
X487198D01*
X488398Y204000D02*Y201000D01*
Y204000D02*X488898Y204500D01*
X489898D01*
X490398Y204000D01*
Y201000D01*
X489898Y200500D02*X490398Y201000D01*
X488898Y200500D02*X489898D01*
X488398Y201000D02*X488898Y200500D01*
X492298D02*X493598D01*
X491598Y201200D02*X492298Y200500D01*
X491598Y203800D02*Y201200D01*
Y203800D02*X492298Y204500D01*
X493598D01*
X494798D02*Y200500D01*
Y202500D02*X496798Y204500D01*
X494798Y202500D02*X496798Y200500D01*
X486998Y188500D02*Y185500D01*
Y188500D02*X487698Y189500D01*
X488798D01*
X489498Y188500D01*
Y185500D01*
X486998Y187500D02*X489498D01*
X490698Y186000D02*X491198Y185500D01*
X490698Y189000D02*Y186000D01*
Y189000D02*X491198Y189500D01*
X492198D01*
X492698Y189000D01*
Y186000D01*
X492198Y185500D02*X492698Y186000D01*
X491198Y185500D02*X492198D01*
X490698Y186500D02*X492698Y188500D01*
X486998Y172500D02*Y169500D01*
Y172500D02*X487698Y173500D01*
X488798D01*
X489498Y172500D01*
Y169500D01*
X486998Y171500D02*X489498D01*
X490698Y173000D02*X491198Y173500D01*
X492698D01*
X493198Y173000D01*
Y172000D01*
X490698Y169500D02*X493198Y172000D01*
X490698Y169500D02*X493198D01*
X486998Y157500D02*Y154500D01*
Y157500D02*X487698Y158500D01*
X488798D01*
X489498Y157500D01*
Y154500D01*
X486998Y156500D02*X489498D01*
X490698Y156000D02*X492698Y158500D01*
X490698Y156000D02*X493198D01*
X492698Y158500D02*Y154500D01*
X484998Y142500D02*X485998D01*
X485498D02*Y138500D01*
X484998D02*X485998D01*
X487198Y142500D02*X489198D01*
X489698Y142000D01*
Y141000D01*
X489198Y140500D02*X489698Y141000D01*
X487698Y140500D02*X489198D01*
X487698Y142500D02*Y138500D01*
X488498Y140500D02*X489698Y138500D01*
X490898Y142000D02*Y139000D01*
Y142000D02*X491398Y142500D01*
X492398D01*
X492898Y142000D01*
Y139500D01*
X491898Y138500D02*X492898Y139500D01*
X491398Y138500D02*X491898D01*
X490898Y139000D02*X491398Y138500D01*
X491898Y140000D02*X492898Y138500D01*
X494098Y139000D02*X494598Y138500D01*
X494098Y142000D02*Y139000D01*
Y142000D02*X494598Y142500D01*
X495598D01*
X496098Y142000D01*
Y139000D01*
X495598Y138500D02*X496098Y139000D01*
X494598Y138500D02*X495598D01*
X494098Y139500D02*X496098Y141500D01*
X484998Y126500D02*X485998D01*
X485498D02*Y122500D01*
X484998D02*X485998D01*
X487198Y126500D02*X489198D01*
X489698Y126000D01*
Y125000D01*
X489198Y124500D02*X489698Y125000D01*
X487698Y124500D02*X489198D01*
X487698Y126500D02*Y122500D01*
X488498Y124500D02*X489698Y122500D01*
X490898Y126000D02*Y123000D01*
Y126000D02*X491398Y126500D01*
X492398D01*
X492898Y126000D01*
Y123500D01*
X491898Y122500D02*X492898Y123500D01*
X491398Y122500D02*X491898D01*
X490898Y123000D02*X491398Y122500D01*
X491898Y124000D02*X492898Y122500D01*
X494098Y126000D02*X494598Y126500D01*
X496098D01*
X496598Y126000D01*
Y125000D01*
X494098Y122500D02*X496598Y125000D01*
X494098Y122500D02*X496598D01*
X484998Y111500D02*X485498Y111000D01*
X483498Y111500D02*X484998D01*
X482998Y111000D02*X483498Y111500D01*
X482998Y111000D02*Y110000D01*
X483498Y109500D01*
X484998D01*
X485498Y109000D01*
Y108000D01*
X484998Y107500D02*X485498Y108000D01*
X483498Y107500D02*X484998D01*
X482998Y108000D02*X483498Y107500D01*
X486698Y111500D02*X487698Y109500D01*
X488698Y111500D01*
X487698Y109500D02*Y107500D01*
X489898Y111500D02*Y107500D01*
Y111500D02*X492398Y107500D01*
Y111500D02*Y107500D01*
X494298D02*X495598D01*
X493598Y108200D02*X494298Y107500D01*
X493598Y110800D02*Y108200D01*
Y110800D02*X494298Y111500D01*
X495598D01*
X497298D02*Y107500D01*
X496798Y111500D02*X498798D01*
X499298Y111000D01*
Y110000D01*
X498798Y109500D02*X499298Y110000D01*
X497298Y109500D02*X498798D01*
X564498Y266500D02*Y262500D01*
X565798Y266500D02*X566498Y265800D01*
Y263200D01*
X565798Y262500D02*X566498Y263200D01*
X563998Y262500D02*X565798D01*
X563998Y266500D02*X565798D01*
X567698Y266000D02*X568198Y266500D01*
X569198D01*
X569698Y266000D01*
X569198Y262500D02*X569698Y263000D01*
X568198Y262500D02*X569198D01*
X567698Y263000D02*X568198Y262500D01*
Y264700D02*X569198D01*
X569698Y266000D02*Y265200D01*
Y264200D02*Y263000D01*
Y264200D02*X569198Y264700D01*
X569698Y265200D02*X569198Y264700D01*
X564498Y282500D02*Y278500D01*
X565798Y282500D02*X566498Y281800D01*
Y279200D01*
X565798Y278500D02*X566498Y279200D01*
X563998Y278500D02*X565798D01*
X563998Y282500D02*X565798D01*
X567698Y282000D02*X568198Y282500D01*
X569698D01*
X570198Y282000D01*
Y281000D01*
X567698Y278500D02*X570198Y281000D01*
X567698Y278500D02*X570198D01*
X564498Y251500D02*Y247500D01*
X565798Y251500D02*X566498Y250800D01*
Y248200D01*
X565798Y247500D02*X566498Y248200D01*
X563998Y247500D02*X565798D01*
X563998Y251500D02*X565798D01*
X568198Y247500D02*X570198Y251500D01*
X567698D02*X570198D01*
X560998Y235500D02*Y233500D01*
X561498Y231500D01*
X562498Y233500D01*
X563498Y231500D01*
X563998Y233500D01*
Y235500D02*Y233500D01*
X565198Y234500D02*Y231500D01*
Y234500D02*X565898Y235500D01*
X566998D01*
X567698Y234500D01*
Y231500D01*
X565198Y233500D02*X567698D01*
X568898Y235500D02*X569898D01*
X569398D02*Y231500D01*
X568898D02*X569898D01*
X571098Y235500D02*X573098D01*
X572098D02*Y231500D01*
X563998Y219500D02*X565998D01*
X566498Y219000D01*
Y218000D01*
X565998Y217500D02*X566498Y218000D01*
X564498Y217500D02*X565998D01*
X564498Y219500D02*Y215500D01*
X565298Y217500D02*X566498Y215500D01*
X567698D02*X570198Y219500D01*
X567698D02*X570198Y215500D01*
X561998Y203500D02*X563998D01*
X564498Y203000D01*
Y202000D01*
X563998Y201500D02*X564498Y202000D01*
X562498Y201500D02*X563998D01*
X562498Y203500D02*Y199500D01*
X563298Y201500D02*X564498Y199500D01*
X565698Y200000D02*X568698Y203000D01*
X569898Y203500D02*Y201500D01*
X570398Y199500D01*
X571398Y201500D01*
X572398Y199500D01*
X572898Y201500D01*
Y203500D02*Y201500D01*
X564998Y187500D02*Y184500D01*
Y187500D02*X565698Y188500D01*
X566798D01*
X567498Y187500D01*
Y184500D01*
X564998Y186500D02*X567498D01*
X568698Y187700D02*X569498Y188500D01*
Y184500D01*
X568698D02*X570198D01*
X564998Y172500D02*Y169500D01*
Y172500D02*X565698Y173500D01*
X566798D01*
X567498Y172500D01*
Y169500D01*
X564998Y171500D02*X567498D01*
X568698Y173000D02*X569198Y173500D01*
X570198D01*
X570698Y173000D01*
X570198Y169500D02*X570698Y170000D01*
X569198Y169500D02*X570198D01*
X568698Y170000D02*X569198Y169500D01*
Y171700D02*X570198D01*
X570698Y173000D02*Y172200D01*
Y171200D02*Y170000D01*
Y171200D02*X570198Y171700D01*
X570698Y172200D02*X570198Y171700D01*
X559998Y157500D02*X561998D01*
X562498Y157000D01*
Y156000D01*
X561998Y155500D02*X562498Y156000D01*
X560498Y155500D02*X561998D01*
X560498Y157500D02*Y153500D01*
X561298Y155500D02*X562498Y153500D01*
X563698Y155700D02*X565198D01*
X563698Y153500D02*X565698D01*
X563698Y157500D02*Y153500D01*
Y157500D02*X565698D01*
X568898D02*X569398Y157000D01*
X567398Y157500D02*X568898D01*
X566898Y157000D02*X567398Y157500D01*
X566898Y157000D02*Y156000D01*
X567398Y155500D01*
X568898D01*
X569398Y155000D01*
Y154000D01*
X568898Y153500D02*X569398Y154000D01*
X567398Y153500D02*X568898D01*
X566898Y154000D02*X567398Y153500D01*
X570598Y155700D02*X572098D01*
X570598Y153500D02*X572598D01*
X570598Y157500D02*Y153500D01*
Y157500D02*X572598D01*
X573798D02*X575798D01*
X574798D02*Y153500D01*
X562998Y141500D02*X563998D01*
X563498D02*Y137500D01*
X562998D02*X563998D01*
X565198Y141500D02*X567198D01*
X567698Y141000D01*
Y140000D01*
X567198Y139500D02*X567698Y140000D01*
X565698Y139500D02*X567198D01*
X565698Y141500D02*Y137500D01*
X566498Y139500D02*X567698Y137500D01*
X568898Y141000D02*Y138000D01*
Y141000D02*X569398Y141500D01*
X570398D01*
X570898Y141000D01*
Y138500D01*
X569898Y137500D02*X570898Y138500D01*
X569398Y137500D02*X569898D01*
X568898Y138000D02*X569398Y137500D01*
X569898Y139000D02*X570898Y137500D01*
X572098Y140700D02*X572898Y141500D01*
Y137500D01*
X572098D02*X573598D01*
X562998Y126500D02*X563998D01*
X563498D02*Y122500D01*
X562998D02*X563998D01*
X565198Y126500D02*X567198D01*
X567698Y126000D01*
Y125000D01*
X567198Y124500D02*X567698Y125000D01*
X565698Y124500D02*X567198D01*
X565698Y126500D02*Y122500D01*
X566498Y124500D02*X567698Y122500D01*
X568898Y126000D02*Y123000D01*
Y126000D02*X569398Y126500D01*
X570398D01*
X570898Y126000D01*
Y123500D01*
X569898Y122500D02*X570898Y123500D01*
X569398Y122500D02*X569898D01*
X568898Y123000D02*X569398Y122500D01*
X569898Y124000D02*X570898Y122500D01*
X572098Y126000D02*X572598Y126500D01*
X573598D01*
X574098Y126000D01*
X573598Y122500D02*X574098Y123000D01*
X572598Y122500D02*X573598D01*
X572098Y123000D02*X572598Y122500D01*
Y124700D02*X573598D01*
X574098Y126000D02*Y125200D01*
Y124200D02*Y123000D01*
Y124200D02*X573598Y124700D01*
X574098Y125200D02*X573598Y124700D01*
X561998Y110500D02*X562498Y110000D01*
X560498Y110500D02*X561998D01*
X559998Y110000D02*X560498Y110500D01*
X559998Y110000D02*Y109000D01*
X560498Y108500D01*
X561998D01*
X562498Y108000D01*
Y107000D01*
X561998Y106500D02*X562498Y107000D01*
X560498Y106500D02*X561998D01*
X559998Y107000D02*X560498Y106500D01*
X563698Y110500D02*X564698Y108500D01*
X565698Y110500D01*
X564698Y108500D02*Y106500D01*
X566898Y110500D02*Y106500D01*
Y110500D02*X569398Y106500D01*
Y110500D02*Y106500D01*
X571298D02*X572598D01*
X570598Y107200D02*X571298Y106500D01*
X570598Y109800D02*Y107200D01*
Y109800D02*X571298Y110500D01*
X572598D01*
X573798D02*Y106500D01*
Y110500D02*X576298Y106500D01*
Y110500D02*Y106500D01*
X557698Y434500D02*X558998D01*
X556998Y435200D02*X557698Y434500D01*
X556998Y437800D02*Y435200D01*
Y437800D02*X557698Y438500D01*
X558998D01*
X560198D02*Y434500D01*
X562698Y438500D02*Y434500D01*
X560198Y436500D02*X562698D01*
X563898Y437500D02*Y434500D01*
Y437500D02*X564598Y438500D01*
X565698D01*
X566398Y437500D01*
Y434500D01*
X563898Y436500D02*X566398D01*
X569598Y438500D02*X570098Y438000D01*
X568098Y438500D02*X569598D01*
X567598Y438000D02*X568098Y438500D01*
X567598Y438000D02*Y437000D01*
X568098Y436500D01*
X569598D01*
X570098Y436000D01*
Y435000D01*
X569598Y434500D02*X570098Y435000D01*
X568098Y434500D02*X569598D01*
X567598Y435000D02*X568098Y434500D01*
X573298Y438500D02*X573798Y438000D01*
X571798Y438500D02*X573298D01*
X571298Y438000D02*X571798Y438500D01*
X571298Y438000D02*Y437000D01*
X571798Y436500D01*
X573298D01*
X573798Y436000D01*
Y435000D01*
X573298Y434500D02*X573798Y435000D01*
X571798Y434500D02*X573298D01*
X571298Y435000D02*X571798Y434500D01*
X574998Y438500D02*X575998D01*
X575498D02*Y434500D01*
X574998D02*X575998D01*
X579198Y438500D02*X579698Y438000D01*
X577698Y438500D02*X579198D01*
X577198Y438000D02*X577698Y438500D01*
X577198Y438000D02*Y437000D01*
X577698Y436500D01*
X579198D01*
X579698Y436000D01*
Y435000D01*
X579198Y434500D02*X579698Y435000D01*
X577698Y434500D02*X579198D01*
X577198Y435000D02*X577698Y434500D01*
X560998Y404500D02*X562998D01*
X564198Y405700D02*X564998Y406500D01*
Y402500D01*
X564198D02*X565698D01*
X567398D02*X569398Y406500D01*
X566898D02*X569398D01*
X570598D02*X571598Y402500D01*
X572598Y406500D01*
X558698Y418500D02*X559998D01*
X557998Y419200D02*X558698Y418500D01*
X557998Y421800D02*Y419200D01*
Y421800D02*X558698Y422500D01*
X559998D01*
X561198Y422000D02*Y419000D01*
Y422000D02*X561698Y422500D01*
X562698D01*
X563198Y422000D01*
Y419000D01*
X562698Y418500D02*X563198Y419000D01*
X561698Y418500D02*X562698D01*
X561198Y419000D02*X561698Y418500D01*
X564398Y422500D02*Y418500D01*
Y422500D02*X565898Y420500D01*
X567398Y422500D01*
Y418500D01*
X568598Y422500D02*Y418500D01*
Y422500D02*X570098Y420500D01*
X571598Y422500D01*
Y418500D01*
X572798Y422000D02*Y419000D01*
Y422000D02*X573298Y422500D01*
X574298D01*
X574798Y422000D01*
Y419000D01*
X574298Y418500D02*X574798Y419000D01*
X573298Y418500D02*X574298D01*
X572798Y419000D02*X573298Y418500D01*
X575998Y422500D02*Y418500D01*
Y422500D02*X578498Y418500D01*
Y422500D02*Y418500D01*
X560998Y389500D02*X562998D01*
X564198Y390700D02*X564998Y391500D01*
Y387500D01*
X564198D02*X565698D01*
X566898Y391500D02*X568898D01*
X566898D02*Y389500D01*
X567398Y390000D01*
X568398D01*
X568898Y389500D01*
Y388000D01*
X568398Y387500D02*X568898Y388000D01*
X567398Y387500D02*X568398D01*
X566898Y388000D02*X567398Y387500D01*
X570098Y391500D02*X571098Y387500D01*
X572098Y391500D01*
X560998Y373500D02*X562998D01*
X561998Y374500D02*Y372500D01*
X564198Y374700D02*X564998Y375500D01*
Y371500D01*
X564198D02*X565698D01*
X566898Y375500D02*X568898D01*
X566898D02*Y373500D01*
X567398Y374000D01*
X568398D01*
X568898Y373500D01*
Y372000D01*
X568398Y371500D02*X568898Y372000D01*
X567398Y371500D02*X568398D01*
X566898Y372000D02*X567398Y371500D01*
X570098Y375500D02*X571098Y371500D01*
X572098Y375500D01*
X560998Y358500D02*X562998D01*
X561998Y359500D02*Y357500D01*
X564198Y359700D02*X564998Y360500D01*
Y356500D01*
X564198D02*X565698D01*
X567398D02*X569398Y360500D01*
X566898D02*X569398D01*
X570598D02*X571598Y356500D01*
X572598Y360500D01*
X559998Y342500D02*X561998D01*
X560998Y343500D02*Y341500D01*
X563198Y344500D02*X565198D01*
X563198D02*Y342500D01*
X563698Y343000D01*
X564698D01*
X565198Y342500D01*
Y341000D01*
X564698Y340500D02*X565198Y341000D01*
X563698Y340500D02*X564698D01*
X563198Y341000D02*X563698Y340500D01*
X566398Y344500D02*X567398Y340500D01*
X568398Y344500D01*
X570098D02*Y340500D01*
X571398Y344500D02*X572098Y343800D01*
Y341200D01*
X571398Y340500D02*X572098Y341200D01*
X569598Y340500D02*X571398D01*
X569598Y344500D02*X571398D01*
X561998Y328500D02*X562498Y328000D01*
X560498Y328500D02*X561998D01*
X559998Y328000D02*X560498Y328500D01*
X559998Y328000D02*Y325000D01*
X560498Y324500D01*
X561998D01*
X562498Y325000D01*
Y326000D02*Y325000D01*
X561998Y326500D02*X562498Y326000D01*
X560998Y326500D02*X561998D01*
X563698Y328500D02*Y324500D01*
Y328500D02*X566198Y324500D01*
Y328500D02*Y324500D01*
X567898Y328500D02*Y324500D01*
X569198Y328500D02*X569898Y327800D01*
Y325200D01*
X569198Y324500D02*X569898Y325200D01*
X567398Y324500D02*X569198D01*
X567398Y328500D02*X569198D01*
X571598D02*Y324500D01*
X572898Y328500D02*X573598Y327800D01*
Y325200D01*
X572898Y324500D02*X573598Y325200D01*
X571098Y324500D02*X572898D01*
X571098Y328500D02*X572898D01*
X558998Y311500D02*X560998D01*
X559998Y312500D02*Y310500D01*
X562198Y312700D02*X562998Y313500D01*
Y309500D01*
X562198D02*X563698D01*
X564898Y313000D02*X565398Y313500D01*
X566898D01*
X567398Y313000D01*
Y312000D01*
X564898Y309500D02*X567398Y312000D01*
X564898Y309500D02*X567398D01*
X568598Y313500D02*X569598Y309500D01*
X570598Y313500D01*
X572298D02*Y309500D01*
X573598Y313500D02*X574298Y312800D01*
Y310200D01*
X573598Y309500D02*X574298Y310200D01*
X571798Y309500D02*X573598D01*
X571798Y313500D02*X573598D01*
X564498Y298500D02*Y294500D01*
X565798Y298500D02*X566498Y297800D01*
Y295200D01*
X565798Y294500D02*X566498Y295200D01*
X563998Y294500D02*X565798D01*
X563998Y298500D02*X565798D01*
X567698Y297700D02*X568498Y298500D01*
Y294500D01*
X567698D02*X569198D01*
G54D43*X643098Y354500D02*X645898Y351700D01*
Y343300D01*
X643098Y340500D01*
X637498D02*X643098D01*
X623498Y354500D02*X637498Y340500D01*
X623498Y354500D02*Y340500D01*
X626298Y333780D02*X623498Y330980D01*
X626298Y333780D02*X643098D01*
X645898Y330980D01*
Y325380D01*
X643098Y322580D01*
X626298D02*X643098D01*
X623498Y325380D02*X626298Y322580D01*
X623498Y330980D02*Y325380D01*
X629098Y333780D02*X640298Y322580D01*
X641418Y315860D02*X645898Y311380D01*
X623498D02*X645898D01*
X623498Y315860D02*Y307460D01*
X631898Y300740D02*X645898Y289540D01*
X631898Y300740D02*Y286740D01*
X623498Y289540D02*X645898D01*
X623498Y280020D02*Y277220D01*
X626298Y270500D02*X623498Y267700D01*
X626298Y270500D02*X643098D01*
X645898Y267700D01*
Y262100D01*
X643098Y259300D01*
X626298D02*X643098D01*
X623498Y262100D02*X626298Y259300D01*
X623498Y267700D02*Y262100D01*
X629098Y270500D02*X640298Y259300D01*
X645898Y252580D02*Y241380D01*
X634698Y252580D02*X645898D01*
X634698D02*X637498Y249780D01*
Y244180D01*
X634698Y241380D01*
X626298D02*X634698D01*
X623498Y244180D02*X626298Y241380D01*
X623498Y249780D02*Y244180D01*
X626298Y252580D02*X623498Y249780D01*
Y234660D02*Y231860D01*
X626298Y225140D02*X623498Y222340D01*
X626298Y225140D02*X643098D01*
X645898Y222340D01*
Y216740D01*
X643098Y213940D01*
X626298D02*X643098D01*
X623498Y216740D02*X626298Y213940D01*
X623498Y222340D02*Y216740D01*
X629098Y225140D02*X640298Y213940D01*
X645898Y207220D02*Y196020D01*
X634698Y207220D02*X645898D01*
X634698D02*X637498Y204420D01*
Y198820D01*
X634698Y196020D01*
X626298D02*X634698D01*
X623498Y198820D02*X626298Y196020D01*
X623498Y204420D02*Y198820D01*
X626298Y207220D02*X623498Y204420D01*
G54D44*X744977Y423500D02*Y415025D01*
X732547Y423500D02*Y412200D01*
Y423500D02*X755147D01*
Y412200D01*
X732547Y405420D02*X749497D01*
X755147Y401465D01*
Y395250D01*
X749497Y391295D01*
X732547D02*X749497D01*
X743847Y405420D02*Y391295D01*
X755147Y384515D02*Y373215D01*
X732547Y378865D02*X755147D01*
X735372Y366435D02*X752322D01*
X755147Y363610D01*
Y357960D01*
X752322Y355135D01*
X735372D02*X752322D01*
X732547Y357960D02*X735372Y355135D01*
X732547Y363610D02*Y357960D01*
X735372Y366435D02*X732547Y363610D01*
Y348355D02*X755147D01*
X732547Y334230D01*
X755147D01*
X732547Y314455D02*X755147D01*
Y317280D02*Y305980D01*
X752322Y303155D01*
X746672D02*X752322D01*
X743847Y305980D02*X746672Y303155D01*
X743847Y314455D02*Y305980D01*
X744977Y296375D02*Y287900D01*
X732547Y296375D02*Y285075D01*
Y296375D02*X755147D01*
Y285075D01*
X732547Y278295D02*X749497D01*
X755147Y274340D01*
Y268125D01*
X749497Y264170D01*
X732547D02*X749497D01*
X743847Y278295D02*Y264170D01*
X732547Y257390D02*Y246090D01*
X735372Y243265D01*
X742152D01*
X744977Y246090D02*X742152Y243265D01*
X744977Y254565D02*Y246090D01*
X732547Y254565D02*X755147D01*
Y257390D02*Y246090D01*
X752322Y243265D01*
X747802D02*X752322D01*
X744977Y246090D02*X747802Y243265D01*
X735372Y236485D02*X752322D01*
X755147Y233660D01*
Y228010D01*
X752322Y225185D01*
X735372D02*X752322D01*
X732547Y228010D02*X735372Y225185D01*
X732547Y233660D02*Y228010D01*
X735372Y236485D02*X732547Y233660D01*
Y215580D02*X755147D01*
Y208235D02*X751192Y204280D01*
X736502D02*X751192D01*
X732547Y208235D02*X736502Y204280D01*
X732547Y218405D02*Y208235D01*
X755147Y218405D02*Y208235D01*
Y197500D02*X743847Y191850D01*
X755147Y186200D01*
X732547Y191850D02*X743847D01*
X732547Y169250D02*X755147D01*
X732547D02*Y157950D01*
Y151170D02*X749497D01*
X755147Y147215D01*
Y141000D01*
X749497Y137045D01*
X732547D02*X749497D01*
X743847Y151170D02*Y137045D01*
X732547Y130265D02*Y118965D01*
X735372Y116140D01*
X742152D01*
X744977Y118965D02*X742152Y116140D01*
X744977Y127440D02*Y118965D01*
X732547Y127440D02*X755147D01*
Y130265D02*Y118965D01*
X752322Y116140D01*
X747802D02*X752322D01*
X744977Y118965D02*X747802Y116140D01*
G54D45*X808797Y438600D02*X831997D01*
Y431060D02*X827937Y427000D01*
X812857D02*X827937D01*
X808797Y431060D02*X812857Y427000D01*
X808797Y441500D02*Y431060D01*
X831997Y441500D02*Y431060D01*
X821557Y420040D02*Y411340D01*
X808797Y420040D02*Y408440D01*
Y420040D02*X831997D01*
Y408440D01*
Y389880D02*X829097Y386980D01*
X831997Y398580D02*Y389880D01*
X829097Y401480D02*X831997Y398580D01*
X823297Y401480D02*X829097D01*
X823297D02*X820397Y398580D01*
Y389880D01*
X817497Y386980D01*
X811697D02*X817497D01*
X808797Y389880D02*X811697Y386980D01*
X808797Y398580D02*Y389880D01*
X811697Y401480D02*X808797Y398580D01*
X831997Y380020D02*Y374220D01*
X808797Y377120D02*X831997D01*
X808797Y380020D02*Y374220D01*
X831997Y355660D02*X829097Y352760D01*
X831997Y364360D02*Y355660D01*
X829097Y367260D02*X831997Y364360D01*
X811697Y367260D02*X829097D01*
X811697D02*X808797Y364360D01*
Y355660D01*
X811697Y352760D01*
X817497D01*
X820397Y355660D02*X817497Y352760D01*
X820397Y361460D02*Y355660D01*
X808797Y345800D02*X831997D01*
X808797Y331300D01*
X831997D01*
X808797Y313900D02*Y302300D01*
X811697Y299400D01*
X818657D01*
X821557Y302300D02*X818657Y299400D01*
X821557Y311000D02*Y302300D01*
X808797Y311000D02*X831997D01*
Y313900D02*Y302300D01*
X829097Y299400D01*
X824457D02*X829097D01*
X821557Y302300D02*X824457Y299400D01*
X831997Y292440D02*X820397Y286640D01*
X831997Y280840D01*
X808797Y286640D02*X820397D01*
X821557Y263440D02*Y254740D01*
X808797Y263440D02*Y251840D01*
Y263440D02*X831997D01*
Y251840D01*
Y244880D02*X808797Y239080D01*
X831997Y233280D01*
X808797Y226320D02*X826197D01*
X831997Y222260D01*
Y215880D01*
X826197Y211820D01*
X808797D02*X826197D01*
X820397Y226320D02*Y211820D01*
X808797Y204860D02*X831997D01*
X808797Y190360D01*
X831997D01*
X808797Y172960D02*X831997D01*
Y161360D01*
X821557Y172960D02*Y164260D01*
X811697Y154400D02*X829097D01*
X831997Y151500D01*
Y145700D01*
X829097Y142800D01*
X811697D02*X829097D01*
X808797Y145700D02*X811697Y142800D01*
X808797Y151500D02*Y145700D01*
X811697Y154400D02*X808797Y151500D01*
X831997Y124240D02*X829097Y121340D01*
X831997Y132940D02*Y124240D01*
X829097Y135840D02*X831997Y132940D01*
X823297Y135840D02*X829097D01*
X823297D02*X820397Y132940D01*
Y124240D01*
X817497Y121340D01*
X811697D02*X817497D01*
X808797Y124240D02*X811697Y121340D01*
X808797Y132940D02*Y124240D01*
X811697Y135840D02*X808797Y132940D01*
X831997Y102780D02*X829097Y99880D01*
X831997Y111480D02*Y102780D01*
X829097Y114380D02*X831997Y111480D01*
X823297Y114380D02*X829097D01*
X823297D02*X820397Y111480D01*
Y102780D01*
X817497Y99880D01*
X811697D02*X817497D01*
X808797Y102780D02*X811697Y99880D01*
X808797Y111480D02*Y102780D01*
X811697Y114380D02*X808797Y111480D01*
G54D42*X154166Y282500D02*Y278500D01*
X155466Y282500D02*X156166Y281800D01*
Y279200D01*
X155466Y278500D02*X156166Y279200D01*
X153666Y278500D02*X155466D01*
X153666Y282500D02*X155466D01*
X157366Y282000D02*X157866Y282500D01*
X159366D01*
X159866Y282000D01*
Y281000D01*
X157366Y278500D02*X159866Y281000D01*
X157366Y278500D02*X159866D01*
X154166Y298500D02*Y294500D01*
X155466Y298500D02*X156166Y297800D01*
Y295200D01*
X155466Y294500D02*X156166Y295200D01*
X153666Y294500D02*X155466D01*
X153666Y298500D02*X155466D01*
X157366Y295000D02*X157866Y294500D01*
X157366Y298000D02*Y295000D01*
Y298000D02*X157866Y298500D01*
X158866D01*
X159366Y298000D01*
Y295000D01*
X158866Y294500D02*X159366Y295000D01*
X157866Y294500D02*X158866D01*
X157366Y295500D02*X159366Y297500D01*
X154166Y267500D02*Y263500D01*
X155466Y267500D02*X156166Y266800D01*
Y264200D01*
X155466Y263500D02*X156166Y264200D01*
X153666Y263500D02*X155466D01*
X153666Y267500D02*X155466D01*
X157366Y265000D02*X159366Y267500D01*
X157366Y265000D02*X159866D01*
X159366Y267500D02*Y263500D01*
X154166Y251500D02*Y247500D01*
X155466Y251500D02*X156166Y250800D01*
Y248200D01*
X155466Y247500D02*X156166Y248200D01*
X153666Y247500D02*X155466D01*
X153666Y251500D02*X155466D01*
X158866D02*X159366Y251000D01*
X157866Y251500D02*X158866D01*
X157366Y251000D02*X157866Y251500D01*
X157366Y251000D02*Y248000D01*
X157866Y247500D01*
X158866Y249700D02*X159366Y249200D01*
X157366Y249700D02*X158866D01*
X157866Y247500D02*X158866D01*
X159366Y248000D01*
Y249200D02*Y248000D01*
X153666Y220500D02*X155666D01*
X154666D02*Y216500D01*
X156866D02*X159366Y220500D01*
X156866D02*X159366Y216500D01*
X148666Y236500D02*Y232500D01*
Y236500D02*X150666D01*
X148666Y234700D02*X150166D01*
X151866Y235500D02*Y232500D01*
Y235500D02*X152566Y236500D01*
X153666D01*
X154366Y235500D01*
Y232500D01*
X151866Y234500D02*X154366D01*
X155566Y236500D02*Y233000D01*
X156066Y232500D01*
X157066D01*
X157566Y233000D01*
Y236500D02*Y233000D01*
X158766Y236500D02*Y232500D01*
X160766D01*
X161966Y236500D02*X163966D01*
X162966D02*Y232500D01*
X149366Y200500D02*X150666D01*
X148666Y201200D02*X149366Y200500D01*
X148666Y203800D02*Y201200D01*
Y203800D02*X149366Y204500D01*
X150666D01*
X151866D02*Y200500D01*
X153866D01*
X155066Y204000D02*Y201000D01*
Y204000D02*X155566Y204500D01*
X156566D01*
X157066Y204000D01*
Y201000D01*
X156566Y200500D02*X157066Y201000D01*
X155566Y200500D02*X156566D01*
X155066Y201000D02*X155566Y200500D01*
X158966D02*X160266D01*
X158266Y201200D02*X158966Y200500D01*
X158266Y203800D02*Y201200D01*
Y203800D02*X158966Y204500D01*
X160266D01*
X161466D02*Y200500D01*
Y202500D02*X163466Y204500D01*
X161466Y202500D02*X163466Y200500D01*
X153666Y188500D02*Y185500D01*
Y188500D02*X154366Y189500D01*
X155466D01*
X156166Y188500D01*
Y185500D01*
X153666Y187500D02*X156166D01*
X157366Y186000D02*X157866Y185500D01*
X157366Y189000D02*Y186000D01*
Y189000D02*X157866Y189500D01*
X158866D01*
X159366Y189000D01*
Y186000D01*
X158866Y185500D02*X159366Y186000D01*
X157866Y185500D02*X158866D01*
X157366Y186500D02*X159366Y188500D01*
X153666Y172500D02*Y169500D01*
Y172500D02*X154366Y173500D01*
X155466D01*
X156166Y172500D01*
Y169500D01*
X153666Y171500D02*X156166D01*
X157366Y173000D02*X157866Y173500D01*
X159366D01*
X159866Y173000D01*
Y172000D01*
X157366Y169500D02*X159866Y172000D01*
X157366Y169500D02*X159866D01*
X153666Y157500D02*Y154500D01*
Y157500D02*X154366Y158500D01*
X155466D01*
X156166Y157500D01*
Y154500D01*
X153666Y156500D02*X156166D01*
X157366Y156000D02*X159366Y158500D01*
X157366Y156000D02*X159866D01*
X159366Y158500D02*Y154500D01*
X151666Y142500D02*X152666D01*
X152166D02*Y138500D01*
X151666D02*X152666D01*
X153866Y142500D02*X155866D01*
X156366Y142000D01*
Y141000D01*
X155866Y140500D02*X156366Y141000D01*
X154366Y140500D02*X155866D01*
X154366Y142500D02*Y138500D01*
X155166Y140500D02*X156366Y138500D01*
X157566Y142000D02*Y139000D01*
Y142000D02*X158066Y142500D01*
X159066D01*
X159566Y142000D01*
Y139500D01*
X158566Y138500D02*X159566Y139500D01*
X158066Y138500D02*X158566D01*
X157566Y139000D02*X158066Y138500D01*
X158566Y140000D02*X159566Y138500D01*
X160766Y139000D02*X161266Y138500D01*
X160766Y142000D02*Y139000D01*
Y142000D02*X161266Y142500D01*
X162266D01*
X162766Y142000D01*
Y139000D01*
X162266Y138500D02*X162766Y139000D01*
X161266Y138500D02*X162266D01*
X160766Y139500D02*X162766Y141500D01*
X151666Y126500D02*X152666D01*
X152166D02*Y122500D01*
X151666D02*X152666D01*
X153866Y126500D02*X155866D01*
X156366Y126000D01*
Y125000D01*
X155866Y124500D02*X156366Y125000D01*
X154366Y124500D02*X155866D01*
X154366Y126500D02*Y122500D01*
X155166Y124500D02*X156366Y122500D01*
X157566Y126000D02*Y123000D01*
Y126000D02*X158066Y126500D01*
X159066D01*
X159566Y126000D01*
Y123500D01*
X158566Y122500D02*X159566Y123500D01*
X158066Y122500D02*X158566D01*
X157566Y123000D02*X158066Y122500D01*
X158566Y124000D02*X159566Y122500D01*
X160766Y126000D02*X161266Y126500D01*
X162766D01*
X163266Y126000D01*
Y125000D01*
X160766Y122500D02*X163266Y125000D01*
X160766Y122500D02*X163266D01*
X151666Y111500D02*X152166Y111000D01*
X150166Y111500D02*X151666D01*
X149666Y111000D02*X150166Y111500D01*
X149666Y111000D02*Y110000D01*
X150166Y109500D01*
X151666D01*
X152166Y109000D01*
Y108000D01*
X151666Y107500D02*X152166Y108000D01*
X150166Y107500D02*X151666D01*
X149666Y108000D02*X150166Y107500D01*
X153366Y111500D02*X154366Y109500D01*
X155366Y111500D01*
X154366Y109500D02*Y107500D01*
X156566Y111500D02*Y107500D01*
Y111500D02*X159066Y107500D01*
Y111500D02*Y107500D01*
X160966D02*X162266D01*
X160266Y108200D02*X160966Y107500D01*
X160266Y110800D02*Y108200D01*
Y110800D02*X160966Y111500D01*
X162266D01*
X163966D02*Y107500D01*
X163466Y111500D02*X165466D01*
X165966Y111000D01*
Y110000D01*
X165466Y109500D02*X165966Y110000D01*
X163966Y109500D02*X165466D01*
X150666Y373500D02*X152666D01*
X151666Y374500D02*Y372500D01*
X153866Y374700D02*X154666Y375500D01*
Y371500D01*
X153866D02*X155366D01*
X156566Y375500D02*X158566D01*
X156566D02*Y373500D01*
X157066Y374000D01*
X158066D01*
X158566Y373500D01*
Y372000D01*
X158066Y371500D02*X158566Y372000D01*
X157066Y371500D02*X158066D01*
X156566Y372000D02*X157066Y371500D01*
X159766Y375500D02*X160766Y371500D01*
X161766Y375500D01*
X150666Y358500D02*X152666D01*
X151666Y359500D02*Y357500D01*
X153866Y359700D02*X154666Y360500D01*
Y356500D01*
X153866D02*X155366D01*
X157066D02*X159066Y360500D01*
X156566D02*X159066D01*
X160266D02*X161266Y356500D01*
X162266Y360500D01*
X151666Y328500D02*X152166Y328000D01*
X150166Y328500D02*X151666D01*
X149666Y328000D02*X150166Y328500D01*
X149666Y328000D02*Y325000D01*
X150166Y324500D01*
X151666D01*
X152166Y325000D01*
Y326000D02*Y325000D01*
X151666Y326500D02*X152166Y326000D01*
X150666Y326500D02*X151666D01*
X153366Y328500D02*Y324500D01*
Y328500D02*X155866Y324500D01*
Y328500D02*Y324500D01*
X157566Y328500D02*Y324500D01*
X158866Y328500D02*X159566Y327800D01*
Y325200D01*
X158866Y324500D02*X159566Y325200D01*
X157066Y324500D02*X158866D01*
X157066Y328500D02*X158866D01*
X161266D02*Y324500D01*
X162566Y328500D02*X163266Y327800D01*
Y325200D01*
X162566Y324500D02*X163266Y325200D01*
X160766Y324500D02*X162566D01*
X160766Y328500D02*X162566D01*
X148666Y311500D02*X150666D01*
X149666Y312500D02*Y310500D01*
X151866Y312700D02*X152666Y313500D01*
Y309500D01*
X151866D02*X153366D01*
X154566Y313000D02*X155066Y313500D01*
X156566D01*
X157066Y313000D01*
Y312000D01*
X154566Y309500D02*X157066Y312000D01*
X154566Y309500D02*X157066D01*
X158266Y313500D02*X159266Y309500D01*
X160266Y313500D01*
X161966D02*Y309500D01*
X163266Y313500D02*X163966Y312800D01*
Y310200D01*
X163266Y309500D02*X163966Y310200D01*
X161466Y309500D02*X163266D01*
X161466Y313500D02*X163266D01*
X149666Y342500D02*X151666D01*
X150666Y343500D02*Y341500D01*
X152866Y344500D02*X154866D01*
X152866D02*Y342500D01*
X153366Y343000D01*
X154366D01*
X154866Y342500D01*
Y341000D01*
X154366Y340500D02*X154866Y341000D01*
X153366Y340500D02*X154366D01*
X152866Y341000D02*X153366Y340500D01*
X156066Y344500D02*X157066Y340500D01*
X158066Y344500D01*
X159766D02*Y340500D01*
X161066Y344500D02*X161766Y343800D01*
Y341200D01*
X161066Y340500D02*X161766Y341200D01*
X159266Y340500D02*X161066D01*
X159266Y344500D02*X161066D01*
X147366Y434500D02*X148666D01*
X146666Y435200D02*X147366Y434500D01*
X146666Y437800D02*Y435200D01*
Y437800D02*X147366Y438500D01*
X148666D01*
X149866D02*Y434500D01*
X152366Y438500D02*Y434500D01*
X149866Y436500D02*X152366D01*
X153566Y437500D02*Y434500D01*
Y437500D02*X154266Y438500D01*
X155366D01*
X156066Y437500D01*
Y434500D01*
X153566Y436500D02*X156066D01*
X159266Y438500D02*X159766Y438000D01*
X157766Y438500D02*X159266D01*
X157266Y438000D02*X157766Y438500D01*
X157266Y438000D02*Y437000D01*
X157766Y436500D01*
X159266D01*
X159766Y436000D01*
Y435000D01*
X159266Y434500D02*X159766Y435000D01*
X157766Y434500D02*X159266D01*
X157266Y435000D02*X157766Y434500D01*
X162966Y438500D02*X163466Y438000D01*
X161466Y438500D02*X162966D01*
X160966Y438000D02*X161466Y438500D01*
X160966Y438000D02*Y437000D01*
X161466Y436500D01*
X162966D01*
X163466Y436000D01*
Y435000D01*
X162966Y434500D02*X163466Y435000D01*
X161466Y434500D02*X162966D01*
X160966Y435000D02*X161466Y434500D01*
X164666Y438500D02*X165666D01*
X165166D02*Y434500D01*
X164666D02*X165666D01*
X168866Y438500D02*X169366Y438000D01*
X167366Y438500D02*X168866D01*
X166866Y438000D02*X167366Y438500D01*
X166866Y438000D02*Y437000D01*
X167366Y436500D01*
X168866D01*
X169366Y436000D01*
Y435000D01*
X168866Y434500D02*X169366Y435000D01*
X167366Y434500D02*X168866D01*
X166866Y435000D02*X167366Y434500D01*
X150666Y404500D02*X152666D01*
X153866Y405700D02*X154666Y406500D01*
Y402500D01*
X153866D02*X155366D01*
X157066D02*X159066Y406500D01*
X156566D02*X159066D01*
X160266D02*X161266Y402500D01*
X162266Y406500D01*
X150666Y389500D02*X152666D01*
X153866Y390700D02*X154666Y391500D01*
Y387500D01*
X153866D02*X155366D01*
X156566Y391500D02*X158566D01*
X156566D02*Y389500D01*
X157066Y390000D01*
X158066D01*
X158566Y389500D01*
Y388000D01*
X158066Y387500D02*X158566Y388000D01*
X157066Y387500D02*X158066D01*
X156566Y388000D02*X157066Y387500D01*
X159766Y391500D02*X160766Y387500D01*
X161766Y391500D01*
X148366Y418500D02*X149666D01*
X147666Y419200D02*X148366Y418500D01*
X147666Y421800D02*Y419200D01*
Y421800D02*X148366Y422500D01*
X149666D01*
X150866Y422000D02*Y419000D01*
Y422000D02*X151366Y422500D01*
X152366D01*
X152866Y422000D01*
Y419000D01*
X152366Y418500D02*X152866Y419000D01*
X151366Y418500D02*X152366D01*
X150866Y419000D02*X151366Y418500D01*
X154066Y422500D02*Y418500D01*
Y422500D02*X155566Y420500D01*
X157066Y422500D01*
Y418500D01*
X158266Y422500D02*Y418500D01*
Y422500D02*X159766Y420500D01*
X161266Y422500D01*
Y418500D01*
X162466Y422000D02*Y419000D01*
Y422000D02*X162966Y422500D01*
X163966D01*
X164466Y422000D01*
Y419000D01*
X163966Y418500D02*X164466Y419000D01*
X162966Y418500D02*X163966D01*
X162466Y419000D02*X162966Y418500D01*
X165666Y422500D02*Y418500D01*
Y422500D02*X168166Y418500D01*
Y422500D02*Y418500D01*
X231166Y251500D02*Y247500D01*
X232466Y251500D02*X233166Y250800D01*
Y248200D01*
X232466Y247500D02*X233166Y248200D01*
X230666Y247500D02*X232466D01*
X230666Y251500D02*X232466D01*
X234866Y247500D02*X236866Y251500D01*
X234366D02*X236866D01*
X227666Y235500D02*Y233500D01*
X228166Y231500D01*
X229166Y233500D01*
X230166Y231500D01*
X230666Y233500D01*
Y235500D02*Y233500D01*
X231866Y234500D02*Y231500D01*
Y234500D02*X232566Y235500D01*
X233666D01*
X234366Y234500D01*
Y231500D01*
X231866Y233500D02*X234366D01*
X235566Y235500D02*X236566D01*
X236066D02*Y231500D01*
X235566D02*X236566D01*
X237766Y235500D02*X239766D01*
X238766D02*Y231500D01*
X230666Y219500D02*X232666D01*
X233166Y219000D01*
Y218000D01*
X232666Y217500D02*X233166Y218000D01*
X231166Y217500D02*X232666D01*
X231166Y219500D02*Y215500D01*
X231966Y217500D02*X233166Y215500D01*
X234366D02*X236866Y219500D01*
X234366D02*X236866Y215500D01*
X228666Y203500D02*X230666D01*
X231166Y203000D01*
Y202000D01*
X230666Y201500D02*X231166Y202000D01*
X229166Y201500D02*X230666D01*
X229166Y203500D02*Y199500D01*
X229966Y201500D02*X231166Y199500D01*
X232366Y200000D02*X235366Y203000D01*
X236566Y203500D02*Y201500D01*
X237066Y199500D01*
X238066Y201500D01*
X239066Y199500D01*
X239566Y201500D01*
Y203500D02*Y201500D01*
X231666Y187500D02*Y184500D01*
Y187500D02*X232366Y188500D01*
X233466D01*
X234166Y187500D01*
Y184500D01*
X231666Y186500D02*X234166D01*
X235366Y187700D02*X236166Y188500D01*
Y184500D01*
X235366D02*X236866D01*
X231666Y172500D02*Y169500D01*
Y172500D02*X232366Y173500D01*
X233466D01*
X234166Y172500D01*
Y169500D01*
X231666Y171500D02*X234166D01*
X235366Y173000D02*X235866Y173500D01*
X236866D01*
X237366Y173000D01*
X236866Y169500D02*X237366Y170000D01*
X235866Y169500D02*X236866D01*
X235366Y170000D02*X235866Y169500D01*
Y171700D02*X236866D01*
X237366Y173000D02*Y172200D01*
Y171200D02*Y170000D01*
Y171200D02*X236866Y171700D01*
X237366Y172200D02*X236866Y171700D01*
X226666Y157500D02*X228666D01*
X229166Y157000D01*
Y156000D01*
X228666Y155500D02*X229166Y156000D01*
X227166Y155500D02*X228666D01*
X227166Y157500D02*Y153500D01*
X227966Y155500D02*X229166Y153500D01*
X230366Y155700D02*X231866D01*
X230366Y153500D02*X232366D01*
X230366Y157500D02*Y153500D01*
Y157500D02*X232366D01*
X235566D02*X236066Y157000D01*
X234066Y157500D02*X235566D01*
X233566Y157000D02*X234066Y157500D01*
X233566Y157000D02*Y156000D01*
X234066Y155500D01*
X235566D01*
X236066Y155000D01*
Y154000D01*
X235566Y153500D02*X236066Y154000D01*
X234066Y153500D02*X235566D01*
X233566Y154000D02*X234066Y153500D01*
X237266Y155700D02*X238766D01*
X237266Y153500D02*X239266D01*
X237266Y157500D02*Y153500D01*
Y157500D02*X239266D01*
X240466D02*X242466D01*
X241466D02*Y153500D01*
X229666Y141500D02*X230666D01*
X230166D02*Y137500D01*
X229666D02*X230666D01*
X231866Y141500D02*X233866D01*
X234366Y141000D01*
Y140000D01*
X233866Y139500D02*X234366Y140000D01*
X232366Y139500D02*X233866D01*
X232366Y141500D02*Y137500D01*
X233166Y139500D02*X234366Y137500D01*
X235566Y141000D02*Y138000D01*
Y141000D02*X236066Y141500D01*
X237066D01*
X237566Y141000D01*
Y138500D01*
X236566Y137500D02*X237566Y138500D01*
X236066Y137500D02*X236566D01*
X235566Y138000D02*X236066Y137500D01*
X236566Y139000D02*X237566Y137500D01*
X238766Y140700D02*X239566Y141500D01*
Y137500D01*
X238766D02*X240266D01*
X229666Y126500D02*X230666D01*
X230166D02*Y122500D01*
X229666D02*X230666D01*
X231866Y126500D02*X233866D01*
X234366Y126000D01*
Y125000D01*
X233866Y124500D02*X234366Y125000D01*
X232366Y124500D02*X233866D01*
X232366Y126500D02*Y122500D01*
X233166Y124500D02*X234366Y122500D01*
X235566Y126000D02*Y123000D01*
Y126000D02*X236066Y126500D01*
X237066D01*
X237566Y126000D01*
Y123500D01*
X236566Y122500D02*X237566Y123500D01*
X236066Y122500D02*X236566D01*
X235566Y123000D02*X236066Y122500D01*
X236566Y124000D02*X237566Y122500D01*
X238766Y126000D02*X239266Y126500D01*
X240266D01*
X240766Y126000D01*
X240266Y122500D02*X240766Y123000D01*
X239266Y122500D02*X240266D01*
X238766Y123000D02*X239266Y122500D01*
Y124700D02*X240266D01*
X240766Y126000D02*Y125200D01*
Y124200D02*Y123000D01*
Y124200D02*X240266Y124700D01*
X240766Y125200D02*X240266Y124700D01*
X228666Y110500D02*X229166Y110000D01*
X227166Y110500D02*X228666D01*
X226666Y110000D02*X227166Y110500D01*
X226666Y110000D02*Y109000D01*
X227166Y108500D01*
X228666D01*
X229166Y108000D01*
Y107000D01*
X228666Y106500D02*X229166Y107000D01*
X227166Y106500D02*X228666D01*
X226666Y107000D02*X227166Y106500D01*
X230366Y110500D02*X231366Y108500D01*
X232366Y110500D01*
X231366Y108500D02*Y106500D01*
X233566Y110500D02*Y106500D01*
Y110500D02*X236066Y106500D01*
Y110500D02*Y106500D01*
X237966D02*X239266D01*
X237266Y107200D02*X237966Y106500D01*
X237266Y109800D02*Y107200D01*
Y109800D02*X237966Y110500D01*
X239266D01*
X240466D02*Y106500D01*
Y110500D02*X242966Y106500D01*
Y110500D02*Y106500D01*
X231166Y266500D02*Y262500D01*
X232466Y266500D02*X233166Y265800D01*
Y263200D01*
X232466Y262500D02*X233166Y263200D01*
X230666Y262500D02*X232466D01*
X230666Y266500D02*X232466D01*
X234366Y266000D02*X234866Y266500D01*
X235866D01*
X236366Y266000D01*
X235866Y262500D02*X236366Y263000D01*
X234866Y262500D02*X235866D01*
X234366Y263000D02*X234866Y262500D01*
Y264700D02*X235866D01*
X236366Y266000D02*Y265200D01*
Y264200D02*Y263000D01*
Y264200D02*X235866Y264700D01*
X236366Y265200D02*X235866Y264700D01*
X226666Y342500D02*X228666D01*
X227666Y343500D02*Y341500D01*
X229866Y344500D02*X231866D01*
X229866D02*Y342500D01*
X230366Y343000D01*
X231366D01*
X231866Y342500D01*
Y341000D01*
X231366Y340500D02*X231866Y341000D01*
X230366Y340500D02*X231366D01*
X229866Y341000D02*X230366Y340500D01*
X233066Y344500D02*X234066Y340500D01*
X235066Y344500D01*
X236766D02*Y340500D01*
X238066Y344500D02*X238766Y343800D01*
Y341200D01*
X238066Y340500D02*X238766Y341200D01*
X236266Y340500D02*X238066D01*
X236266Y344500D02*X238066D01*
X233299Y298500D02*Y294500D01*
X234599Y298500D02*X235299Y297800D01*
Y295200D01*
X234599Y294500D02*X235299Y295200D01*
X232799Y294500D02*X234599D01*
X232799Y298500D02*X234599D01*
X236499Y297700D02*X237299Y298500D01*
Y294500D01*
X236499D02*X237999D01*
X227666Y404500D02*X229666D01*
X230866Y405700D02*X231666Y406500D01*
Y402500D01*
X230866D02*X232366D01*
X234066D02*X236066Y406500D01*
X233566D02*X236066D01*
X237266D02*X238266Y402500D01*
X239266Y406500D01*
X227666Y389500D02*X229666D01*
X230866Y390700D02*X231666Y391500D01*
Y387500D01*
X230866D02*X232366D01*
X233566Y391500D02*X235566D01*
X233566D02*Y389500D01*
X234066Y390000D01*
X235066D01*
X235566Y389500D01*
Y388000D01*
X235066Y387500D02*X235566Y388000D01*
X234066Y387500D02*X235066D01*
X233566Y388000D02*X234066Y387500D01*
X236766Y391500D02*X237766Y387500D01*
X238766Y391500D01*
X227666Y373500D02*X229666D01*
X228666Y374500D02*Y372500D01*
X230866Y374700D02*X231666Y375500D01*
Y371500D01*
X230866D02*X232366D01*
X233566Y375500D02*X235566D01*
X233566D02*Y373500D01*
X234066Y374000D01*
X235066D01*
X235566Y373500D01*
Y372000D01*
X235066Y371500D02*X235566Y372000D01*
X234066Y371500D02*X235066D01*
X233566Y372000D02*X234066Y371500D01*
X236766Y375500D02*X237766Y371500D01*
X238766Y375500D01*
X227666Y358500D02*X229666D01*
X228666Y359500D02*Y357500D01*
X230866Y359700D02*X231666Y360500D01*
Y356500D01*
X230866D02*X232366D01*
X234066D02*X236066Y360500D01*
X233566D02*X236066D01*
X237266D02*X238266Y356500D01*
X239266Y360500D01*
X225366Y418500D02*X226666D01*
X224666Y419200D02*X225366Y418500D01*
X224666Y421800D02*Y419200D01*
Y421800D02*X225366Y422500D01*
X226666D01*
X227866Y422000D02*Y419000D01*
Y422000D02*X228366Y422500D01*
X229366D01*
X229866Y422000D01*
Y419000D01*
X229366Y418500D02*X229866Y419000D01*
X228366Y418500D02*X229366D01*
X227866Y419000D02*X228366Y418500D01*
X231066Y422500D02*Y418500D01*
Y422500D02*X232566Y420500D01*
X234066Y422500D01*
Y418500D01*
X235266Y422500D02*Y418500D01*
Y422500D02*X236766Y420500D01*
X238266Y422500D01*
Y418500D01*
X239466Y422000D02*Y419000D01*
Y422000D02*X239966Y422500D01*
X240966D01*
X241466Y422000D01*
Y419000D01*
X240966Y418500D02*X241466Y419000D01*
X239966Y418500D02*X240966D01*
X239466Y419000D02*X239966Y418500D01*
X242666Y422500D02*Y418500D01*
Y422500D02*X245166Y418500D01*
Y422500D02*Y418500D01*
X228666Y328500D02*X229166Y328000D01*
X227166Y328500D02*X228666D01*
X226666Y328000D02*X227166Y328500D01*
X226666Y328000D02*Y325000D01*
X227166Y324500D01*
X228666D01*
X229166Y325000D01*
Y326000D02*Y325000D01*
X228666Y326500D02*X229166Y326000D01*
X227666Y326500D02*X228666D01*
X230366Y328500D02*Y324500D01*
Y328500D02*X232866Y324500D01*
Y328500D02*Y324500D01*
X234566Y328500D02*Y324500D01*
X235866Y328500D02*X236566Y327800D01*
Y325200D01*
X235866Y324500D02*X236566Y325200D01*
X234066Y324500D02*X235866D01*
X234066Y328500D02*X235866D01*
X238266D02*Y324500D01*
X239566Y328500D02*X240266Y327800D01*
Y325200D01*
X239566Y324500D02*X240266Y325200D01*
X237766Y324500D02*X239566D01*
X237766Y328500D02*X239566D01*
X225666Y311500D02*X227666D01*
X226666Y312500D02*Y310500D01*
X228866Y312700D02*X229666Y313500D01*
Y309500D01*
X228866D02*X230366D01*
X231566Y313000D02*X232066Y313500D01*
X233566D01*
X234066Y313000D01*
Y312000D01*
X231566Y309500D02*X234066Y312000D01*
X231566Y309500D02*X234066D01*
X235266Y313500D02*X236266Y309500D01*
X237266Y313500D01*
X238966D02*Y309500D01*
X240266Y313500D02*X240966Y312800D01*
Y310200D01*
X240266Y309500D02*X240966Y310200D01*
X238466Y309500D02*X240266D01*
X238466Y313500D02*X240266D01*
X226499Y434500D02*X227799D01*
X225799Y435200D02*X226499Y434500D01*
X225799Y437800D02*Y435200D01*
Y437800D02*X226499Y438500D01*
X227799D01*
X228999D02*Y434500D01*
X231499Y438500D02*Y434500D01*
X228999Y436500D02*X231499D01*
X232699Y437500D02*Y434500D01*
Y437500D02*X233399Y438500D01*
X234499D01*
X235199Y437500D01*
Y434500D01*
X232699Y436500D02*X235199D01*
X238399Y438500D02*X238899Y438000D01*
X236899Y438500D02*X238399D01*
X236399Y438000D02*X236899Y438500D01*
X236399Y438000D02*Y437000D01*
X236899Y436500D01*
X238399D01*
X238899Y436000D01*
Y435000D01*
X238399Y434500D02*X238899Y435000D01*
X236899Y434500D02*X238399D01*
X236399Y435000D02*X236899Y434500D01*
X242099Y438500D02*X242599Y438000D01*
X240599Y438500D02*X242099D01*
X240099Y438000D02*X240599Y438500D01*
X240099Y438000D02*Y437000D01*
X240599Y436500D01*
X242099D01*
X242599Y436000D01*
Y435000D01*
X242099Y434500D02*X242599Y435000D01*
X240599Y434500D02*X242099D01*
X240099Y435000D02*X240599Y434500D01*
X243799Y438500D02*X244799D01*
X244299D02*Y434500D01*
X243799D02*X244799D01*
X247999Y438500D02*X248499Y438000D01*
X246499Y438500D02*X247999D01*
X245999Y438000D02*X246499Y438500D01*
X245999Y438000D02*Y437000D01*
X246499Y436500D01*
X247999D01*
X248499Y436000D01*
Y435000D01*
X247999Y434500D02*X248499Y435000D01*
X246499Y434500D02*X247999D01*
X245999Y435000D02*X246499Y434500D01*
X233299Y282500D02*Y278500D01*
X234599Y282500D02*X235299Y281800D01*
Y279200D01*
X234599Y278500D02*X235299Y279200D01*
X232799Y278500D02*X234599D01*
X232799Y282500D02*X234599D01*
X236499Y282000D02*X236999Y282500D01*
X238499D01*
X238999Y282000D01*
Y281000D01*
X236499Y278500D02*X238999Y281000D01*
X236499Y278500D02*X238999D01*
X1397828Y282500D02*Y278500D01*
X1399128Y282500D02*X1399828Y281800D01*
Y279200D01*
X1399128Y278500D02*X1399828Y279200D01*
X1397328Y278500D02*X1399128D01*
X1397328Y282500D02*X1399128D01*
X1401028Y282000D02*X1401528Y282500D01*
X1403028D01*
X1403528Y282000D01*
Y281000D01*
X1401028Y278500D02*X1403528Y281000D01*
X1401028Y278500D02*X1403528D01*
X1397828Y298500D02*Y294500D01*
X1399128Y298500D02*X1399828Y297800D01*
Y295200D01*
X1399128Y294500D02*X1399828Y295200D01*
X1397328Y294500D02*X1399128D01*
X1397328Y298500D02*X1399128D01*
X1401028Y297700D02*X1401828Y298500D01*
Y294500D01*
X1401028D02*X1402528D01*
X1392328Y311500D02*X1394328D01*
X1393328Y312500D02*Y310500D01*
X1395528Y312700D02*X1396328Y313500D01*
Y309500D01*
X1395528D02*X1397028D01*
X1398228Y313000D02*X1398728Y313500D01*
X1400228D01*
X1400728Y313000D01*
Y312000D01*
X1398228Y309500D02*X1400728Y312000D01*
X1398228Y309500D02*X1400728D01*
X1401928Y313500D02*X1402928Y309500D01*
X1403928Y313500D01*
X1405628D02*Y309500D01*
X1406928Y313500D02*X1407628Y312800D01*
Y310200D01*
X1406928Y309500D02*X1407628Y310200D01*
X1405128Y309500D02*X1406928D01*
X1405128Y313500D02*X1406928D01*
X1395328Y328500D02*X1395828Y328000D01*
X1393828Y328500D02*X1395328D01*
X1393328Y328000D02*X1393828Y328500D01*
X1393328Y328000D02*Y325000D01*
X1393828Y324500D01*
X1395328D01*
X1395828Y325000D01*
Y326000D02*Y325000D01*
X1395328Y326500D02*X1395828Y326000D01*
X1394328Y326500D02*X1395328D01*
X1397028Y328500D02*Y324500D01*
Y328500D02*X1399528Y324500D01*
Y328500D02*Y324500D01*
X1401228Y328500D02*Y324500D01*
X1402528Y328500D02*X1403228Y327800D01*
Y325200D01*
X1402528Y324500D02*X1403228Y325200D01*
X1400728Y324500D02*X1402528D01*
X1400728Y328500D02*X1402528D01*
X1404928D02*Y324500D01*
X1406228Y328500D02*X1406928Y327800D01*
Y325200D01*
X1406228Y324500D02*X1406928Y325200D01*
X1404428Y324500D02*X1406228D01*
X1404428Y328500D02*X1406228D01*
X1320828Y298500D02*Y294500D01*
X1322128Y298500D02*X1322828Y297800D01*
Y295200D01*
X1322128Y294500D02*X1322828Y295200D01*
X1320328Y294500D02*X1322128D01*
X1320328Y298500D02*X1322128D01*
X1324028Y295000D02*X1324528Y294500D01*
X1324028Y298000D02*Y295000D01*
Y298000D02*X1324528Y298500D01*
X1325528D01*
X1326028Y298000D01*
Y295000D01*
X1325528Y294500D02*X1326028Y295000D01*
X1324528Y294500D02*X1325528D01*
X1324028Y295500D02*X1326028Y297500D01*
X1315328Y311500D02*X1317328D01*
X1316328Y312500D02*Y310500D01*
X1318528Y312700D02*X1319328Y313500D01*
Y309500D01*
X1318528D02*X1320028D01*
X1321228Y313000D02*X1321728Y313500D01*
X1323228D01*
X1323728Y313000D01*
Y312000D01*
X1321228Y309500D02*X1323728Y312000D01*
X1321228Y309500D02*X1323728D01*
X1324928Y313500D02*X1325928Y309500D01*
X1326928Y313500D01*
X1328628D02*Y309500D01*
X1329928Y313500D02*X1330628Y312800D01*
Y310200D01*
X1329928Y309500D02*X1330628Y310200D01*
X1328128Y309500D02*X1329928D01*
X1328128Y313500D02*X1329928D01*
X1318328Y328500D02*X1318828Y328000D01*
X1316828Y328500D02*X1318328D01*
X1316328Y328000D02*X1316828Y328500D01*
X1316328Y328000D02*Y325000D01*
X1316828Y324500D01*
X1318328D01*
X1318828Y325000D01*
Y326000D02*Y325000D01*
X1318328Y326500D02*X1318828Y326000D01*
X1317328Y326500D02*X1318328D01*
X1320028Y328500D02*Y324500D01*
Y328500D02*X1322528Y324500D01*
Y328500D02*Y324500D01*
X1324228Y328500D02*Y324500D01*
X1325528Y328500D02*X1326228Y327800D01*
Y325200D01*
X1325528Y324500D02*X1326228Y325200D01*
X1323728Y324500D02*X1325528D01*
X1323728Y328500D02*X1325528D01*
X1327928D02*Y324500D01*
X1329228Y328500D02*X1329928Y327800D01*
Y325200D01*
X1329228Y324500D02*X1329928Y325200D01*
X1327428Y324500D02*X1329228D01*
X1327428Y328500D02*X1329228D01*
X1320828Y282500D02*Y278500D01*
X1322128Y282500D02*X1322828Y281800D01*
Y279200D01*
X1322128Y278500D02*X1322828Y279200D01*
X1320328Y278500D02*X1322128D01*
X1320328Y282500D02*X1322128D01*
X1324028Y282000D02*X1324528Y282500D01*
X1326028D01*
X1326528Y282000D01*
Y281000D01*
X1324028Y278500D02*X1326528Y281000D01*
X1324028Y278500D02*X1326528D01*
X1395328Y110500D02*X1395828Y110000D01*
X1393828Y110500D02*X1395328D01*
X1393328Y110000D02*X1393828Y110500D01*
X1393328Y110000D02*Y109000D01*
X1393828Y108500D01*
X1395328D01*
X1395828Y108000D01*
Y107000D01*
X1395328Y106500D02*X1395828Y107000D01*
X1393828Y106500D02*X1395328D01*
X1393328Y107000D02*X1393828Y106500D01*
X1397028Y110500D02*X1398028Y108500D01*
X1399028Y110500D01*
X1398028Y108500D02*Y106500D01*
X1400228Y110500D02*Y106500D01*
Y110500D02*X1402728Y106500D01*
Y110500D02*Y106500D01*
X1404628D02*X1405928D01*
X1403928Y107200D02*X1404628Y106500D01*
X1403928Y109800D02*Y107200D01*
Y109800D02*X1404628Y110500D01*
X1405928D01*
X1407128D02*Y106500D01*
Y110500D02*X1409628Y106500D01*
Y110500D02*Y106500D01*
X1318328Y111500D02*X1318828Y111000D01*
X1316828Y111500D02*X1318328D01*
X1316328Y111000D02*X1316828Y111500D01*
X1316328Y111000D02*Y110000D01*
X1316828Y109500D01*
X1318328D01*
X1318828Y109000D01*
Y108000D01*
X1318328Y107500D02*X1318828Y108000D01*
X1316828Y107500D02*X1318328D01*
X1316328Y108000D02*X1316828Y107500D01*
X1320028Y111500D02*X1321028Y109500D01*
X1322028Y111500D01*
X1321028Y109500D02*Y107500D01*
X1323228Y111500D02*Y107500D01*
Y111500D02*X1325728Y107500D01*
Y111500D02*Y107500D01*
X1327628D02*X1328928D01*
X1326928Y108200D02*X1327628Y107500D01*
X1326928Y110800D02*Y108200D01*
Y110800D02*X1327628Y111500D01*
X1328928D01*
X1330628D02*Y107500D01*
X1330128Y111500D02*X1332128D01*
X1332628Y111000D01*
Y110000D01*
X1332128Y109500D02*X1332628Y110000D01*
X1330628Y109500D02*X1332128D01*
X1396328Y126500D02*X1397328D01*
X1396828D02*Y122500D01*
X1396328D02*X1397328D01*
X1398528Y126500D02*X1400528D01*
X1401028Y126000D01*
Y125000D01*
X1400528Y124500D02*X1401028Y125000D01*
X1399028Y124500D02*X1400528D01*
X1399028Y126500D02*Y122500D01*
X1399828Y124500D02*X1401028Y122500D01*
X1402228Y126000D02*Y123000D01*
Y126000D02*X1402728Y126500D01*
X1403728D01*
X1404228Y126000D01*
Y123500D01*
X1403228Y122500D02*X1404228Y123500D01*
X1402728Y122500D02*X1403228D01*
X1402228Y123000D02*X1402728Y122500D01*
X1403228Y124000D02*X1404228Y122500D01*
X1405428Y126000D02*X1405928Y126500D01*
X1406928D01*
X1407428Y126000D01*
X1406928Y122500D02*X1407428Y123000D01*
X1405928Y122500D02*X1406928D01*
X1405428Y123000D02*X1405928Y122500D01*
Y124700D02*X1406928D01*
X1407428Y126000D02*Y125200D01*
Y124200D02*Y123000D01*
Y124200D02*X1406928Y124700D01*
X1407428Y125200D02*X1406928Y124700D01*
X1396328Y141500D02*X1397328D01*
X1396828D02*Y137500D01*
X1396328D02*X1397328D01*
X1398528Y141500D02*X1400528D01*
X1401028Y141000D01*
Y140000D01*
X1400528Y139500D02*X1401028Y140000D01*
X1399028Y139500D02*X1400528D01*
X1399028Y141500D02*Y137500D01*
X1399828Y139500D02*X1401028Y137500D01*
X1402228Y141000D02*Y138000D01*
Y141000D02*X1402728Y141500D01*
X1403728D01*
X1404228Y141000D01*
Y138500D01*
X1403228Y137500D02*X1404228Y138500D01*
X1402728Y137500D02*X1403228D01*
X1402228Y138000D02*X1402728Y137500D01*
X1403228Y139000D02*X1404228Y137500D01*
X1405428Y140700D02*X1406228Y141500D01*
Y137500D01*
X1405428D02*X1406928D01*
X1393328Y157500D02*X1395328D01*
X1395828Y157000D01*
Y156000D01*
X1395328Y155500D02*X1395828Y156000D01*
X1393828Y155500D02*X1395328D01*
X1393828Y157500D02*Y153500D01*
X1394628Y155500D02*X1395828Y153500D01*
X1397028Y155700D02*X1398528D01*
X1397028Y153500D02*X1399028D01*
X1397028Y157500D02*Y153500D01*
Y157500D02*X1399028D01*
X1402228D02*X1402728Y157000D01*
X1400728Y157500D02*X1402228D01*
X1400228Y157000D02*X1400728Y157500D01*
X1400228Y157000D02*Y156000D01*
X1400728Y155500D01*
X1402228D01*
X1402728Y155000D01*
Y154000D01*
X1402228Y153500D02*X1402728Y154000D01*
X1400728Y153500D02*X1402228D01*
X1400228Y154000D02*X1400728Y153500D01*
X1403928Y155700D02*X1405428D01*
X1403928Y153500D02*X1405928D01*
X1403928Y157500D02*Y153500D01*
Y157500D02*X1405928D01*
X1407128D02*X1409128D01*
X1408128D02*Y153500D01*
X1398328Y172500D02*Y169500D01*
Y172500D02*X1399028Y173500D01*
X1400128D01*
X1400828Y172500D01*
Y169500D01*
X1398328Y171500D02*X1400828D01*
X1402028Y173000D02*X1402528Y173500D01*
X1403528D01*
X1404028Y173000D01*
X1403528Y169500D02*X1404028Y170000D01*
X1402528Y169500D02*X1403528D01*
X1402028Y170000D02*X1402528Y169500D01*
Y171700D02*X1403528D01*
X1404028Y173000D02*Y172200D01*
Y171200D02*Y170000D01*
Y171200D02*X1403528Y171700D01*
X1404028Y172200D02*X1403528Y171700D01*
X984996Y111500D02*X985496Y111000D01*
X983496Y111500D02*X984996D01*
X982996Y111000D02*X983496Y111500D01*
X982996Y111000D02*Y110000D01*
X983496Y109500D01*
X984996D01*
X985496Y109000D01*
Y108000D01*
X984996Y107500D02*X985496Y108000D01*
X983496Y107500D02*X984996D01*
X982996Y108000D02*X983496Y107500D01*
X986696Y111500D02*X987696Y109500D01*
X988696Y111500D01*
X987696Y109500D02*Y107500D01*
X989896Y111500D02*Y107500D01*
Y111500D02*X992396Y107500D01*
Y111500D02*Y107500D01*
X994296D02*X995596D01*
X993596Y108200D02*X994296Y107500D01*
X993596Y110800D02*Y108200D01*
Y110800D02*X994296Y111500D01*
X995596D01*
X997296D02*Y107500D01*
X996796Y111500D02*X998796D01*
X999296Y111000D01*
Y110000D01*
X998796Y109500D02*X999296Y110000D01*
X997296Y109500D02*X998796D01*
X984996Y126500D02*X985996D01*
X985496D02*Y122500D01*
X984996D02*X985996D01*
X987196Y126500D02*X989196D01*
X989696Y126000D01*
Y125000D01*
X989196Y124500D02*X989696Y125000D01*
X987696Y124500D02*X989196D01*
X987696Y126500D02*Y122500D01*
X988496Y124500D02*X989696Y122500D01*
X990896Y126000D02*Y123000D01*
Y126000D02*X991396Y126500D01*
X992396D01*
X992896Y126000D01*
Y123500D01*
X991896Y122500D02*X992896Y123500D01*
X991396Y122500D02*X991896D01*
X990896Y123000D02*X991396Y122500D01*
X991896Y124000D02*X992896Y122500D01*
X994096Y126000D02*X994596Y126500D01*
X996096D01*
X996596Y126000D01*
Y125000D01*
X994096Y122500D02*X996596Y125000D01*
X994096Y122500D02*X996596D01*
X984996Y142500D02*X985996D01*
X985496D02*Y138500D01*
X984996D02*X985996D01*
X987196Y142500D02*X989196D01*
X989696Y142000D01*
Y141000D01*
X989196Y140500D02*X989696Y141000D01*
X987696Y140500D02*X989196D01*
X987696Y142500D02*Y138500D01*
X988496Y140500D02*X989696Y138500D01*
X990896Y142000D02*Y139000D01*
Y142000D02*X991396Y142500D01*
X992396D01*
X992896Y142000D01*
Y139500D01*
X991896Y138500D02*X992896Y139500D01*
X991396Y138500D02*X991896D01*
X990896Y139000D02*X991396Y138500D01*
X991896Y140000D02*X992896Y138500D01*
X994096Y139000D02*X994596Y138500D01*
X994096Y142000D02*Y139000D01*
Y142000D02*X994596Y142500D01*
X995596D01*
X996096Y142000D01*
Y139000D01*
X995596Y138500D02*X996096Y139000D01*
X994596Y138500D02*X995596D01*
X994096Y139500D02*X996096Y141500D01*
X986996Y157500D02*Y154500D01*
Y157500D02*X987696Y158500D01*
X988796D01*
X989496Y157500D01*
Y154500D01*
X986996Y156500D02*X989496D01*
X990696Y156000D02*X992696Y158500D01*
X990696Y156000D02*X993196D01*
X992696Y158500D02*Y154500D01*
X986996Y172500D02*Y169500D01*
Y172500D02*X987696Y173500D01*
X988796D01*
X989496Y172500D01*
Y169500D01*
X986996Y171500D02*X989496D01*
X990696Y173000D02*X991196Y173500D01*
X992696D01*
X993196Y173000D01*
Y172000D01*
X990696Y169500D02*X993196Y172000D01*
X990696Y169500D02*X993196D01*
X986996Y188500D02*Y185500D01*
Y188500D02*X987696Y189500D01*
X988796D01*
X989496Y188500D01*
Y185500D01*
X986996Y187500D02*X989496D01*
X990696Y186000D02*X991196Y185500D01*
X990696Y189000D02*Y186000D01*
Y189000D02*X991196Y189500D01*
X992196D01*
X992696Y189000D01*
Y186000D01*
X992196Y185500D02*X992696Y186000D01*
X991196Y185500D02*X992196D01*
X990696Y186500D02*X992696Y188500D01*
X982696Y200500D02*X983996D01*
X981996Y201200D02*X982696Y200500D01*
X981996Y203800D02*Y201200D01*
Y203800D02*X982696Y204500D01*
X983996D01*
X985196D02*Y200500D01*
X987196D01*
X988396Y204000D02*Y201000D01*
Y204000D02*X988896Y204500D01*
X989896D01*
X990396Y204000D01*
Y201000D01*
X989896Y200500D02*X990396Y201000D01*
X988896Y200500D02*X989896D01*
X988396Y201000D02*X988896Y200500D01*
X992296D02*X993596D01*
X991596Y201200D02*X992296Y200500D01*
X991596Y203800D02*Y201200D01*
Y203800D02*X992296Y204500D01*
X993596D01*
X994796D02*Y200500D01*
Y202500D02*X996796Y204500D01*
X994796Y202500D02*X996796Y200500D01*
X1398328Y187500D02*Y184500D01*
Y187500D02*X1399028Y188500D01*
X1400128D01*
X1400828Y187500D01*
Y184500D01*
X1398328Y186500D02*X1400828D01*
X1402028Y187700D02*X1402828Y188500D01*
Y184500D01*
X1402028D02*X1403528D01*
X1395328Y203500D02*X1397328D01*
X1397828Y203000D01*
Y202000D01*
X1397328Y201500D02*X1397828Y202000D01*
X1395828Y201500D02*X1397328D01*
X1395828Y203500D02*Y199500D01*
X1396628Y201500D02*X1397828Y199500D01*
X1399028Y200000D02*X1402028Y203000D01*
X1403228Y203500D02*Y201500D01*
X1403728Y199500D01*
X1404728Y201500D01*
X1405728Y199500D01*
X1406228Y201500D01*
Y203500D02*Y201500D01*
X1397328Y219500D02*X1399328D01*
X1399828Y219000D01*
Y218000D01*
X1399328Y217500D02*X1399828Y218000D01*
X1397828Y217500D02*X1399328D01*
X1397828Y219500D02*Y215500D01*
X1398628Y217500D02*X1399828Y215500D01*
X1401028D02*X1403528Y219500D01*
X1401028D02*X1403528Y215500D01*
X1394328Y235500D02*Y233500D01*
X1394828Y231500D01*
X1395828Y233500D01*
X1396828Y231500D01*
X1397328Y233500D01*
Y235500D02*Y233500D01*
X1398528Y234500D02*Y231500D01*
Y234500D02*X1399228Y235500D01*
X1400328D01*
X1401028Y234500D01*
Y231500D01*
X1398528Y233500D02*X1401028D01*
X1402228Y235500D02*X1403228D01*
X1402728D02*Y231500D01*
X1402228D02*X1403228D01*
X1404428Y235500D02*X1406428D01*
X1405428D02*Y231500D01*
X1397828Y251500D02*Y247500D01*
X1399128Y251500D02*X1399828Y250800D01*
Y248200D01*
X1399128Y247500D02*X1399828Y248200D01*
X1397328Y247500D02*X1399128D01*
X1397328Y251500D02*X1399128D01*
X1401528Y247500D02*X1403528Y251500D01*
X1401028D02*X1403528D01*
X1397828Y266500D02*Y262500D01*
X1399128Y266500D02*X1399828Y265800D01*
Y263200D01*
X1399128Y262500D02*X1399828Y263200D01*
X1397328Y262500D02*X1399128D01*
X1397328Y266500D02*X1399128D01*
X1401028Y266000D02*X1401528Y266500D01*
X1402528D01*
X1403028Y266000D01*
X1402528Y262500D02*X1403028Y263000D01*
X1401528Y262500D02*X1402528D01*
X1401028Y263000D02*X1401528Y262500D01*
Y264700D02*X1402528D01*
X1403028Y266000D02*Y265200D01*
Y264200D02*Y263000D01*
Y264200D02*X1402528Y264700D01*
X1403028Y265200D02*X1402528Y264700D01*
X1318328Y126500D02*X1319328D01*
X1318828D02*Y122500D01*
X1318328D02*X1319328D01*
X1320528Y126500D02*X1322528D01*
X1323028Y126000D01*
Y125000D01*
X1322528Y124500D02*X1323028Y125000D01*
X1321028Y124500D02*X1322528D01*
X1321028Y126500D02*Y122500D01*
X1321828Y124500D02*X1323028Y122500D01*
X1324228Y126000D02*Y123000D01*
Y126000D02*X1324728Y126500D01*
X1325728D01*
X1326228Y126000D01*
Y123500D01*
X1325228Y122500D02*X1326228Y123500D01*
X1324728Y122500D02*X1325228D01*
X1324228Y123000D02*X1324728Y122500D01*
X1325228Y124000D02*X1326228Y122500D01*
X1327428Y126000D02*X1327928Y126500D01*
X1329428D01*
X1329928Y126000D01*
Y125000D01*
X1327428Y122500D02*X1329928Y125000D01*
X1327428Y122500D02*X1329928D01*
X1318328Y142500D02*X1319328D01*
X1318828D02*Y138500D01*
X1318328D02*X1319328D01*
X1320528Y142500D02*X1322528D01*
X1323028Y142000D01*
Y141000D01*
X1322528Y140500D02*X1323028Y141000D01*
X1321028Y140500D02*X1322528D01*
X1321028Y142500D02*Y138500D01*
X1321828Y140500D02*X1323028Y138500D01*
X1324228Y142000D02*Y139000D01*
Y142000D02*X1324728Y142500D01*
X1325728D01*
X1326228Y142000D01*
Y139500D01*
X1325228Y138500D02*X1326228Y139500D01*
X1324728Y138500D02*X1325228D01*
X1324228Y139000D02*X1324728Y138500D01*
X1325228Y140000D02*X1326228Y138500D01*
X1327428Y139000D02*X1327928Y138500D01*
X1327428Y142000D02*Y139000D01*
Y142000D02*X1327928Y142500D01*
X1328928D01*
X1329428Y142000D01*
Y139000D01*
X1328928Y138500D02*X1329428Y139000D01*
X1327928Y138500D02*X1328928D01*
X1327428Y139500D02*X1329428Y141500D01*
X1320328Y157500D02*Y154500D01*
Y157500D02*X1321028Y158500D01*
X1322128D01*
X1322828Y157500D01*
Y154500D01*
X1320328Y156500D02*X1322828D01*
X1324028Y156000D02*X1326028Y158500D01*
X1324028Y156000D02*X1326528D01*
X1326028Y158500D02*Y154500D01*
X1320328Y172500D02*Y169500D01*
Y172500D02*X1321028Y173500D01*
X1322128D01*
X1322828Y172500D01*
Y169500D01*
X1320328Y171500D02*X1322828D01*
X1324028Y173000D02*X1324528Y173500D01*
X1326028D01*
X1326528Y173000D01*
Y172000D01*
X1324028Y169500D02*X1326528Y172000D01*
X1324028Y169500D02*X1326528D01*
X1320328Y188500D02*Y185500D01*
Y188500D02*X1321028Y189500D01*
X1322128D01*
X1322828Y188500D01*
Y185500D01*
X1320328Y187500D02*X1322828D01*
X1324028Y186000D02*X1324528Y185500D01*
X1324028Y189000D02*Y186000D01*
Y189000D02*X1324528Y189500D01*
X1325528D01*
X1326028Y189000D01*
Y186000D01*
X1325528Y185500D02*X1326028Y186000D01*
X1324528Y185500D02*X1325528D01*
X1324028Y186500D02*X1326028Y188500D01*
X1316028Y200500D02*X1317328D01*
X1315328Y201200D02*X1316028Y200500D01*
X1315328Y203800D02*Y201200D01*
Y203800D02*X1316028Y204500D01*
X1317328D01*
X1318528D02*Y200500D01*
X1320528D01*
X1321728Y204000D02*Y201000D01*
Y204000D02*X1322228Y204500D01*
X1323228D01*
X1323728Y204000D01*
Y201000D01*
X1323228Y200500D02*X1323728Y201000D01*
X1322228Y200500D02*X1323228D01*
X1321728Y201000D02*X1322228Y200500D01*
X1325628D02*X1326928D01*
X1324928Y201200D02*X1325628Y200500D01*
X1324928Y203800D02*Y201200D01*
Y203800D02*X1325628Y204500D01*
X1326928D01*
X1328128D02*Y200500D01*
Y202500D02*X1330128Y204500D01*
X1328128Y202500D02*X1330128Y200500D01*
X1320328Y220500D02*X1322328D01*
X1321328D02*Y216500D01*
X1323528D02*X1326028Y220500D01*
X1323528D02*X1326028Y216500D01*
X1320828Y251500D02*Y247500D01*
X1322128Y251500D02*X1322828Y250800D01*
Y248200D01*
X1322128Y247500D02*X1322828Y248200D01*
X1320328Y247500D02*X1322128D01*
X1320328Y251500D02*X1322128D01*
X1325528D02*X1326028Y251000D01*
X1324528Y251500D02*X1325528D01*
X1324028Y251000D02*X1324528Y251500D01*
X1324028Y251000D02*Y248000D01*
X1324528Y247500D01*
X1325528Y249700D02*X1326028Y249200D01*
X1324028Y249700D02*X1325528D01*
X1324528Y247500D02*X1325528D01*
X1326028Y248000D01*
Y249200D02*Y248000D01*
X1320828Y267500D02*Y263500D01*
X1322128Y267500D02*X1322828Y266800D01*
Y264200D01*
X1322128Y263500D02*X1322828Y264200D01*
X1320328Y263500D02*X1322128D01*
X1320328Y267500D02*X1322128D01*
X1324028Y265000D02*X1326028Y267500D01*
X1324028Y265000D02*X1326528D01*
X1326028Y267500D02*Y263500D01*
X1315328Y236500D02*Y232500D01*
Y236500D02*X1317328D01*
X1315328Y234700D02*X1316828D01*
X1318528Y235500D02*Y232500D01*
Y235500D02*X1319228Y236500D01*
X1320328D01*
X1321028Y235500D01*
Y232500D01*
X1318528Y234500D02*X1321028D01*
X1322228Y236500D02*Y233000D01*
X1322728Y232500D01*
X1323728D01*
X1324228Y233000D01*
Y236500D02*Y233000D01*
X1325428Y236500D02*Y232500D01*
X1327428D01*
X1328628Y236500D02*X1330628D01*
X1329628D02*Y232500D01*
X1392028Y418500D02*X1393328D01*
X1391328Y419200D02*X1392028Y418500D01*
X1391328Y421800D02*Y419200D01*
Y421800D02*X1392028Y422500D01*
X1393328D01*
X1394528Y422000D02*Y419000D01*
Y422000D02*X1395028Y422500D01*
X1396028D01*
X1396528Y422000D01*
Y419000D01*
X1396028Y418500D02*X1396528Y419000D01*
X1395028Y418500D02*X1396028D01*
X1394528Y419000D02*X1395028Y418500D01*
X1397728Y422500D02*Y418500D01*
Y422500D02*X1399228Y420500D01*
X1400728Y422500D01*
Y418500D01*
X1401928Y422500D02*Y418500D01*
Y422500D02*X1403428Y420500D01*
X1404928Y422500D01*
Y418500D01*
X1406128Y422000D02*Y419000D01*
Y422000D02*X1406628Y422500D01*
X1407628D01*
X1408128Y422000D01*
Y419000D01*
X1407628Y418500D02*X1408128Y419000D01*
X1406628Y418500D02*X1407628D01*
X1406128Y419000D02*X1406628Y418500D01*
X1409328Y422500D02*Y418500D01*
Y422500D02*X1411828Y418500D01*
Y422500D02*Y418500D01*
X1393328Y342500D02*X1395328D01*
X1394328Y343500D02*Y341500D01*
X1396528Y344500D02*X1398528D01*
X1396528D02*Y342500D01*
X1397028Y343000D01*
X1398028D01*
X1398528Y342500D01*
Y341000D01*
X1398028Y340500D02*X1398528Y341000D01*
X1397028Y340500D02*X1398028D01*
X1396528Y341000D02*X1397028Y340500D01*
X1399728Y344500D02*X1400728Y340500D01*
X1401728Y344500D01*
X1403428D02*Y340500D01*
X1404728Y344500D02*X1405428Y343800D01*
Y341200D01*
X1404728Y340500D02*X1405428Y341200D01*
X1402928Y340500D02*X1404728D01*
X1402928Y344500D02*X1404728D01*
X1394328Y358500D02*X1396328D01*
X1395328Y359500D02*Y357500D01*
X1397528Y359700D02*X1398328Y360500D01*
Y356500D01*
X1397528D02*X1399028D01*
X1400728D02*X1402728Y360500D01*
X1400228D02*X1402728D01*
X1403928D02*X1404928Y356500D01*
X1405928Y360500D01*
X1394328Y373500D02*X1396328D01*
X1395328Y374500D02*Y372500D01*
X1397528Y374700D02*X1398328Y375500D01*
Y371500D01*
X1397528D02*X1399028D01*
X1400228Y375500D02*X1402228D01*
X1400228D02*Y373500D01*
X1400728Y374000D01*
X1401728D01*
X1402228Y373500D01*
Y372000D01*
X1401728Y371500D02*X1402228Y372000D01*
X1400728Y371500D02*X1401728D01*
X1400228Y372000D02*X1400728Y371500D01*
X1403428Y375500D02*X1404428Y371500D01*
X1405428Y375500D01*
X1394328Y389500D02*X1396328D01*
X1397528Y390700D02*X1398328Y391500D01*
Y387500D01*
X1397528D02*X1399028D01*
X1400228Y391500D02*X1402228D01*
X1400228D02*Y389500D01*
X1400728Y390000D01*
X1401728D01*
X1402228Y389500D01*
Y388000D01*
X1401728Y387500D02*X1402228Y388000D01*
X1400728Y387500D02*X1401728D01*
X1400228Y388000D02*X1400728Y387500D01*
X1403428Y391500D02*X1404428Y387500D01*
X1405428Y391500D01*
X1394328Y404500D02*X1396328D01*
X1397528Y405700D02*X1398328Y406500D01*
Y402500D01*
X1397528D02*X1399028D01*
X1400728D02*X1402728Y406500D01*
X1400228D02*X1402728D01*
X1403928D02*X1404928Y402500D01*
X1405928Y406500D01*
X1391028Y434500D02*X1392328D01*
X1390328Y435200D02*X1391028Y434500D01*
X1390328Y437800D02*Y435200D01*
Y437800D02*X1391028Y438500D01*
X1392328D01*
X1393528D02*Y434500D01*
X1396028Y438500D02*Y434500D01*
X1393528Y436500D02*X1396028D01*
X1397228Y437500D02*Y434500D01*
Y437500D02*X1397928Y438500D01*
X1399028D01*
X1399728Y437500D01*
Y434500D01*
X1397228Y436500D02*X1399728D01*
X1402928Y438500D02*X1403428Y438000D01*
X1401428Y438500D02*X1402928D01*
X1400928Y438000D02*X1401428Y438500D01*
X1400928Y438000D02*Y437000D01*
X1401428Y436500D01*
X1402928D01*
X1403428Y436000D01*
Y435000D01*
X1402928Y434500D02*X1403428Y435000D01*
X1401428Y434500D02*X1402928D01*
X1400928Y435000D02*X1401428Y434500D01*
X1406628Y438500D02*X1407128Y438000D01*
X1405128Y438500D02*X1406628D01*
X1404628Y438000D02*X1405128Y438500D01*
X1404628Y438000D02*Y437000D01*
X1405128Y436500D01*
X1406628D01*
X1407128Y436000D01*
Y435000D01*
X1406628Y434500D02*X1407128Y435000D01*
X1405128Y434500D02*X1406628D01*
X1404628Y435000D02*X1405128Y434500D01*
X1408328Y438500D02*X1409328D01*
X1408828D02*Y434500D01*
X1408328D02*X1409328D01*
X1412528Y438500D02*X1413028Y438000D01*
X1411028Y438500D02*X1412528D01*
X1410528Y438000D02*X1411028Y438500D01*
X1410528Y438000D02*Y437000D01*
X1411028Y436500D01*
X1412528D01*
X1413028Y436000D01*
Y435000D01*
X1412528Y434500D02*X1413028Y435000D01*
X1411028Y434500D02*X1412528D01*
X1410528Y435000D02*X1411028Y434500D01*
X1316328Y342500D02*X1318328D01*
X1317328Y343500D02*Y341500D01*
X1319528Y344500D02*X1321528D01*
X1319528D02*Y342500D01*
X1320028Y343000D01*
X1321028D01*
X1321528Y342500D01*
Y341000D01*
X1321028Y340500D02*X1321528Y341000D01*
X1320028Y340500D02*X1321028D01*
X1319528Y341000D02*X1320028Y340500D01*
X1322728Y344500D02*X1323728Y340500D01*
X1324728Y344500D01*
X1326428D02*Y340500D01*
X1327728Y344500D02*X1328428Y343800D01*
Y341200D01*
X1327728Y340500D02*X1328428Y341200D01*
X1325928Y340500D02*X1327728D01*
X1325928Y344500D02*X1327728D01*
X1317328Y358500D02*X1319328D01*
X1318328Y359500D02*Y357500D01*
X1320528Y359700D02*X1321328Y360500D01*
Y356500D01*
X1320528D02*X1322028D01*
X1323728D02*X1325728Y360500D01*
X1323228D02*X1325728D01*
X1326928D02*X1327928Y356500D01*
X1328928Y360500D01*
X1317328Y373500D02*X1319328D01*
X1318328Y374500D02*Y372500D01*
X1320528Y374700D02*X1321328Y375500D01*
Y371500D01*
X1320528D02*X1322028D01*
X1323228Y375500D02*X1325228D01*
X1323228D02*Y373500D01*
X1323728Y374000D01*
X1324728D01*
X1325228Y373500D01*
Y372000D01*
X1324728Y371500D02*X1325228Y372000D01*
X1323728Y371500D02*X1324728D01*
X1323228Y372000D02*X1323728Y371500D01*
X1326428Y375500D02*X1327428Y371500D01*
X1328428Y375500D01*
X1317328Y389500D02*X1319328D01*
X1320528Y390700D02*X1321328Y391500D01*
Y387500D01*
X1320528D02*X1322028D01*
X1323228Y391500D02*X1325228D01*
X1323228D02*Y389500D01*
X1323728Y390000D01*
X1324728D01*
X1325228Y389500D01*
Y388000D01*
X1324728Y387500D02*X1325228Y388000D01*
X1323728Y387500D02*X1324728D01*
X1323228Y388000D02*X1323728Y387500D01*
X1326428Y391500D02*X1327428Y387500D01*
X1328428Y391500D01*
X1317328Y404500D02*X1319328D01*
X1320528Y405700D02*X1321328Y406500D01*
Y402500D01*
X1320528D02*X1322028D01*
X1323728D02*X1325728Y406500D01*
X1323228D02*X1325728D01*
X1326928D02*X1327928Y402500D01*
X1328928Y406500D01*
X1064496Y282500D02*Y278500D01*
X1065796Y282500D02*X1066496Y281800D01*
Y279200D01*
X1065796Y278500D02*X1066496Y279200D01*
X1063996Y278500D02*X1065796D01*
X1063996Y282500D02*X1065796D01*
X1067696Y282000D02*X1068196Y282500D01*
X1069696D01*
X1070196Y282000D01*
Y281000D01*
X1067696Y278500D02*X1070196Y281000D01*
X1067696Y278500D02*X1070196D01*
X1063996Y219500D02*X1065996D01*
X1066496Y219000D01*
Y218000D01*
X1065996Y217500D02*X1066496Y218000D01*
X1064496Y217500D02*X1065996D01*
X1064496Y219500D02*Y215500D01*
X1065296Y217500D02*X1066496Y215500D01*
X1067696D02*X1070196Y219500D01*
X1067696D02*X1070196Y215500D01*
X1060996Y235500D02*Y233500D01*
X1061496Y231500D01*
X1062496Y233500D01*
X1063496Y231500D01*
X1063996Y233500D01*
Y235500D02*Y233500D01*
X1065196Y234500D02*Y231500D01*
Y234500D02*X1065896Y235500D01*
X1066996D01*
X1067696Y234500D01*
Y231500D01*
X1065196Y233500D02*X1067696D01*
X1068896Y235500D02*X1069896D01*
X1069396D02*Y231500D01*
X1068896D02*X1069896D01*
X1071096Y235500D02*X1073096D01*
X1072096D02*Y231500D01*
X1064496Y251500D02*Y247500D01*
X1065796Y251500D02*X1066496Y250800D01*
Y248200D01*
X1065796Y247500D02*X1066496Y248200D01*
X1063996Y247500D02*X1065796D01*
X1063996Y251500D02*X1065796D01*
X1068196Y247500D02*X1070196Y251500D01*
X1067696D02*X1070196D01*
X1064496Y266500D02*Y262500D01*
X1065796Y266500D02*X1066496Y265800D01*
Y263200D01*
X1065796Y262500D02*X1066496Y263200D01*
X1063996Y262500D02*X1065796D01*
X1063996Y266500D02*X1065796D01*
X1067696Y266000D02*X1068196Y266500D01*
X1069196D01*
X1069696Y266000D01*
X1069196Y262500D02*X1069696Y263000D01*
X1068196Y262500D02*X1069196D01*
X1067696Y263000D02*X1068196Y262500D01*
Y264700D02*X1069196D01*
X1069696Y266000D02*Y265200D01*
Y264200D02*Y263000D01*
Y264200D02*X1069196Y264700D01*
X1069696Y265200D02*X1069196Y264700D01*
X1064496Y298500D02*Y294500D01*
X1065796Y298500D02*X1066496Y297800D01*
Y295200D01*
X1065796Y294500D02*X1066496Y295200D01*
X1063996Y294500D02*X1065796D01*
X1063996Y298500D02*X1065796D01*
X1067696Y297700D02*X1068496Y298500D01*
Y294500D01*
X1067696D02*X1069196D01*
X987496Y298500D02*Y294500D01*
X988796Y298500D02*X989496Y297800D01*
Y295200D01*
X988796Y294500D02*X989496Y295200D01*
X986996Y294500D02*X988796D01*
X986996Y298500D02*X988796D01*
X990696Y295000D02*X991196Y294500D01*
X990696Y298000D02*Y295000D01*
Y298000D02*X991196Y298500D01*
X992196D01*
X992696Y298000D01*
Y295000D01*
X992196Y294500D02*X992696Y295000D01*
X991196Y294500D02*X992196D01*
X990696Y295500D02*X992696Y297500D01*
X1058996Y311500D02*X1060996D01*
X1059996Y312500D02*Y310500D01*
X1062196Y312700D02*X1062996Y313500D01*
Y309500D01*
X1062196D02*X1063696D01*
X1064896Y313000D02*X1065396Y313500D01*
X1066896D01*
X1067396Y313000D01*
Y312000D01*
X1064896Y309500D02*X1067396Y312000D01*
X1064896Y309500D02*X1067396D01*
X1068596Y313500D02*X1069596Y309500D01*
X1070596Y313500D01*
X1072296D02*Y309500D01*
X1073596Y313500D02*X1074296Y312800D01*
Y310200D01*
X1073596Y309500D02*X1074296Y310200D01*
X1071796Y309500D02*X1073596D01*
X1071796Y313500D02*X1073596D01*
X1061996Y328500D02*X1062496Y328000D01*
X1060496Y328500D02*X1061996D01*
X1059996Y328000D02*X1060496Y328500D01*
X1059996Y328000D02*Y325000D01*
X1060496Y324500D01*
X1061996D01*
X1062496Y325000D01*
Y326000D02*Y325000D01*
X1061996Y326500D02*X1062496Y326000D01*
X1060996Y326500D02*X1061996D01*
X1063696Y328500D02*Y324500D01*
Y328500D02*X1066196Y324500D01*
Y328500D02*Y324500D01*
X1067896Y328500D02*Y324500D01*
X1069196Y328500D02*X1069896Y327800D01*
Y325200D01*
X1069196Y324500D02*X1069896Y325200D01*
X1067396Y324500D02*X1069196D01*
X1067396Y328500D02*X1069196D01*
X1071596D02*Y324500D01*
X1072896Y328500D02*X1073596Y327800D01*
Y325200D01*
X1072896Y324500D02*X1073596Y325200D01*
X1071096Y324500D02*X1072896D01*
X1071096Y328500D02*X1072896D01*
X986996Y220500D02*X988996D01*
X987996D02*Y216500D01*
X990196D02*X992696Y220500D01*
X990196D02*X992696Y216500D01*
X981996Y236500D02*Y232500D01*
Y236500D02*X983996D01*
X981996Y234700D02*X983496D01*
X985196Y235500D02*Y232500D01*
Y235500D02*X985896Y236500D01*
X986996D01*
X987696Y235500D01*
Y232500D01*
X985196Y234500D02*X987696D01*
X988896Y236500D02*Y233000D01*
X989396Y232500D01*
X990396D01*
X990896Y233000D01*
Y236500D02*Y233000D01*
X992096Y236500D02*Y232500D01*
X994096D01*
X995296Y236500D02*X997296D01*
X996296D02*Y232500D01*
X987496Y251500D02*Y247500D01*
X988796Y251500D02*X989496Y250800D01*
Y248200D01*
X988796Y247500D02*X989496Y248200D01*
X986996Y247500D02*X988796D01*
X986996Y251500D02*X988796D01*
X992196D02*X992696Y251000D01*
X991196Y251500D02*X992196D01*
X990696Y251000D02*X991196Y251500D01*
X990696Y251000D02*Y248000D01*
X991196Y247500D01*
X992196Y249700D02*X992696Y249200D01*
X990696Y249700D02*X992196D01*
X991196Y247500D02*X992196D01*
X992696Y248000D01*
Y249200D02*Y248000D01*
X987496Y267500D02*Y263500D01*
X988796Y267500D02*X989496Y266800D01*
Y264200D01*
X988796Y263500D02*X989496Y264200D01*
X986996Y263500D02*X988796D01*
X986996Y267500D02*X988796D01*
X990696Y265000D02*X992696Y267500D01*
X990696Y265000D02*X993196D01*
X992696Y267500D02*Y263500D01*
X987496Y282500D02*Y278500D01*
X988796Y282500D02*X989496Y281800D01*
Y279200D01*
X988796Y278500D02*X989496Y279200D01*
X986996Y278500D02*X988796D01*
X986996Y282500D02*X988796D01*
X990696Y282000D02*X991196Y282500D01*
X992696D01*
X993196Y282000D01*
Y281000D01*
X990696Y278500D02*X993196Y281000D01*
X990696Y278500D02*X993196D01*
X981996Y311500D02*X983996D01*
X982996Y312500D02*Y310500D01*
X985196Y312700D02*X985996Y313500D01*
Y309500D01*
X985196D02*X986696D01*
X987896Y313000D02*X988396Y313500D01*
X989896D01*
X990396Y313000D01*
Y312000D01*
X987896Y309500D02*X990396Y312000D01*
X987896Y309500D02*X990396D01*
X991596Y313500D02*X992596Y309500D01*
X993596Y313500D01*
X995296D02*Y309500D01*
X996596Y313500D02*X997296Y312800D01*
Y310200D01*
X996596Y309500D02*X997296Y310200D01*
X994796Y309500D02*X996596D01*
X994796Y313500D02*X996596D01*
X984996Y328500D02*X985496Y328000D01*
X983496Y328500D02*X984996D01*
X982996Y328000D02*X983496Y328500D01*
X982996Y328000D02*Y325000D01*
X983496Y324500D01*
X984996D01*
X985496Y325000D01*
Y326000D02*Y325000D01*
X984996Y326500D02*X985496Y326000D01*
X983996Y326500D02*X984996D01*
X986696Y328500D02*Y324500D01*
Y328500D02*X989196Y324500D01*
Y328500D02*Y324500D01*
X990896Y328500D02*Y324500D01*
X992196Y328500D02*X992896Y327800D01*
Y325200D01*
X992196Y324500D02*X992896Y325200D01*
X990396Y324500D02*X992196D01*
X990396Y328500D02*X992196D01*
X994596D02*Y324500D01*
X995896Y328500D02*X996596Y327800D01*
Y325200D01*
X995896Y324500D02*X996596Y325200D01*
X994096Y324500D02*X995896D01*
X994096Y328500D02*X995896D01*
X981696Y418500D02*X982996D01*
X980996Y419200D02*X981696Y418500D01*
X980996Y421800D02*Y419200D01*
Y421800D02*X981696Y422500D01*
X982996D01*
X984196Y422000D02*Y419000D01*
Y422000D02*X984696Y422500D01*
X985696D01*
X986196Y422000D01*
Y419000D01*
X985696Y418500D02*X986196Y419000D01*
X984696Y418500D02*X985696D01*
X984196Y419000D02*X984696Y418500D01*
X987396Y422500D02*Y418500D01*
Y422500D02*X988896Y420500D01*
X990396Y422500D01*
Y418500D01*
X991596Y422500D02*Y418500D01*
Y422500D02*X993096Y420500D01*
X994596Y422500D01*
Y418500D01*
X995796Y422000D02*Y419000D01*
Y422000D02*X996296Y422500D01*
X997296D01*
X997796Y422000D01*
Y419000D01*
X997296Y418500D02*X997796Y419000D01*
X996296Y418500D02*X997296D01*
X995796Y419000D02*X996296Y418500D01*
X998996Y422500D02*Y418500D01*
Y422500D02*X1001496Y418500D01*
Y422500D02*Y418500D01*
X982996Y342500D02*X984996D01*
X983996Y343500D02*Y341500D01*
X986196Y344500D02*X988196D01*
X986196D02*Y342500D01*
X986696Y343000D01*
X987696D01*
X988196Y342500D01*
Y341000D01*
X987696Y340500D02*X988196Y341000D01*
X986696Y340500D02*X987696D01*
X986196Y341000D02*X986696Y340500D01*
X989396Y344500D02*X990396Y340500D01*
X991396Y344500D01*
X993096D02*Y340500D01*
X994396Y344500D02*X995096Y343800D01*
Y341200D01*
X994396Y340500D02*X995096Y341200D01*
X992596Y340500D02*X994396D01*
X992596Y344500D02*X994396D01*
X983996Y358500D02*X985996D01*
X984996Y359500D02*Y357500D01*
X987196Y359700D02*X987996Y360500D01*
Y356500D01*
X987196D02*X988696D01*
X990396D02*X992396Y360500D01*
X989896D02*X992396D01*
X993596D02*X994596Y356500D01*
X995596Y360500D01*
X983996Y373500D02*X985996D01*
X984996Y374500D02*Y372500D01*
X987196Y374700D02*X987996Y375500D01*
Y371500D01*
X987196D02*X988696D01*
X989896Y375500D02*X991896D01*
X989896D02*Y373500D01*
X990396Y374000D01*
X991396D01*
X991896Y373500D01*
Y372000D01*
X991396Y371500D02*X991896Y372000D01*
X990396Y371500D02*X991396D01*
X989896Y372000D02*X990396Y371500D01*
X993096Y375500D02*X994096Y371500D01*
X995096Y375500D01*
X983996Y389500D02*X985996D01*
X987196Y390700D02*X987996Y391500D01*
Y387500D01*
X987196D02*X988696D01*
X989896Y391500D02*X991896D01*
X989896D02*Y389500D01*
X990396Y390000D01*
X991396D01*
X991896Y389500D01*
Y388000D01*
X991396Y387500D02*X991896Y388000D01*
X990396Y387500D02*X991396D01*
X989896Y388000D02*X990396Y387500D01*
X993096Y391500D02*X994096Y387500D01*
X995096Y391500D01*
X983996Y404500D02*X985996D01*
X987196Y405700D02*X987996Y406500D01*
Y402500D01*
X987196D02*X988696D01*
X990396D02*X992396Y406500D01*
X989896D02*X992396D01*
X993596D02*X994596Y402500D01*
X995596Y406500D01*
X980696Y434500D02*X981996D01*
X979996Y435200D02*X980696Y434500D01*
X979996Y437800D02*Y435200D01*
Y437800D02*X980696Y438500D01*
X981996D01*
X983196D02*Y434500D01*
X985696Y438500D02*Y434500D01*
X983196Y436500D02*X985696D01*
X986896Y437500D02*Y434500D01*
Y437500D02*X987596Y438500D01*
X988696D01*
X989396Y437500D01*
Y434500D01*
X986896Y436500D02*X989396D01*
X992596Y438500D02*X993096Y438000D01*
X991096Y438500D02*X992596D01*
X990596Y438000D02*X991096Y438500D01*
X990596Y438000D02*Y437000D01*
X991096Y436500D01*
X992596D01*
X993096Y436000D01*
Y435000D01*
X992596Y434500D02*X993096Y435000D01*
X991096Y434500D02*X992596D01*
X990596Y435000D02*X991096Y434500D01*
X996296Y438500D02*X996796Y438000D01*
X994796Y438500D02*X996296D01*
X994296Y438000D02*X994796Y438500D01*
X994296Y438000D02*Y437000D01*
X994796Y436500D01*
X996296D01*
X996796Y436000D01*
Y435000D01*
X996296Y434500D02*X996796Y435000D01*
X994796Y434500D02*X996296D01*
X994296Y435000D02*X994796Y434500D01*
X997996Y438500D02*X998996D01*
X998496D02*Y434500D01*
X997996D02*X998996D01*
X1002196Y438500D02*X1002696Y438000D01*
X1000696Y438500D02*X1002196D01*
X1000196Y438000D02*X1000696Y438500D01*
X1000196Y438000D02*Y437000D01*
X1000696Y436500D01*
X1002196D01*
X1002696Y436000D01*
Y435000D01*
X1002196Y434500D02*X1002696Y435000D01*
X1000696Y434500D02*X1002196D01*
X1000196Y435000D02*X1000696Y434500D01*
G54D45*X937030Y424900D02*X934130Y422000D01*
X937030Y433600D02*Y424900D01*
X934130Y436500D02*X937030Y433600D01*
X928330Y436500D02*X934130D01*
X928330D02*X925430Y433600D01*
Y424900D01*
X922530Y422000D01*
X916730D02*X922530D01*
X913830Y424900D02*X916730Y422000D01*
X913830Y433600D02*Y424900D01*
X916730Y436500D02*X913830Y433600D01*
X916730Y415040D02*X937030D01*
X916730D02*X913830Y412140D01*
Y406340D01*
X916730Y403440D01*
X937030D01*
X913830Y396480D02*Y384880D01*
X916730Y381980D01*
X923690D01*
X926590Y384880D02*X923690Y381980D01*
X926590Y393580D02*Y384880D01*
X913830Y393580D02*X937030D01*
Y396480D02*Y384880D01*
X934130Y381980D01*
X929490D02*X934130D01*
X926590Y384880D02*X929490Y381980D01*
X937030Y375020D02*Y363420D01*
X934130Y360520D01*
X928330D02*X934130D01*
X925430Y363420D02*X928330Y360520D01*
X925430Y372120D02*Y363420D01*
X913830Y372120D02*X937030D01*
X925430Y367480D02*X913830Y360520D01*
Y353560D02*X931230D01*
X937030Y349500D01*
Y343120D01*
X931230Y339060D01*
X913830D02*X931230D01*
X925430Y353560D02*Y339060D01*
X913830Y328040D02*Y320500D01*
X917890Y332100D02*X913830Y328040D01*
X917890Y332100D02*X932970D01*
X937030Y328040D01*
Y320500D01*
X913830Y313540D02*X937030D01*
X925430D02*X937030Y301940D01*
X925430Y313540D02*X913830Y301940D01*
Y284540D02*Y272940D01*
X916730Y270040D01*
X923690D01*
X926590Y272940D02*X923690Y270040D01*
X926590Y281640D02*Y272940D01*
X913830Y281640D02*X937030D01*
Y284540D02*Y272940D01*
X934130Y270040D01*
X929490D02*X934130D01*
X926590Y272940D02*X929490Y270040D01*
X913830Y263080D02*X931230D01*
X937030Y259020D01*
Y252640D01*
X931230Y248580D01*
X913830D02*X931230D01*
X925430Y263080D02*Y248580D01*
X913830Y237560D02*Y230020D01*
X917890Y241620D02*X913830Y237560D01*
X917890Y241620D02*X932970D01*
X937030Y237560D01*
Y230020D01*
X913830Y223060D02*X937030D01*
X925430D02*X937030Y211460D01*
X925430Y223060D02*X913830Y211460D01*
Y201600D02*X937030D01*
Y204500D02*Y192900D01*
X934130Y190000D01*
X928330D02*X934130D01*
X925430Y192900D02*X928330Y190000D01*
X925430Y201600D02*Y192900D01*
X913830Y183040D02*X937030D01*
X913830D02*Y171440D01*
Y164480D02*X931230D01*
X937030Y160420D01*
Y154040D01*
X931230Y149980D01*
X913830D02*X931230D01*
X925430Y164480D02*Y149980D01*
X913830Y143020D02*X937030D01*
X913830Y128520D01*
X937030D01*
X926590Y121560D02*Y112860D01*
X913830Y121560D02*Y109960D01*
Y121560D02*X937030D01*
Y109960D01*
G54D42*X1315028Y418500D02*X1316328D01*
X1314328Y419200D02*X1315028Y418500D01*
X1314328Y421800D02*Y419200D01*
Y421800D02*X1315028Y422500D01*
X1316328D01*
X1317528Y422000D02*Y419000D01*
Y422000D02*X1318028Y422500D01*
X1319028D01*
X1319528Y422000D01*
Y419000D01*
X1319028Y418500D02*X1319528Y419000D01*
X1318028Y418500D02*X1319028D01*
X1317528Y419000D02*X1318028Y418500D01*
X1320728Y422500D02*Y418500D01*
Y422500D02*X1322228Y420500D01*
X1323728Y422500D01*
Y418500D01*
X1324928Y422500D02*Y418500D01*
Y422500D02*X1326428Y420500D01*
X1327928Y422500D01*
Y418500D01*
X1329128Y422000D02*Y419000D01*
Y422000D02*X1329628Y422500D01*
X1330628D01*
X1331128Y422000D01*
Y419000D01*
X1330628Y418500D02*X1331128Y419000D01*
X1329628Y418500D02*X1330628D01*
X1329128Y419000D02*X1329628Y418500D01*
X1332328Y422500D02*Y418500D01*
Y422500D02*X1334828Y418500D01*
Y422500D02*Y418500D01*
X1118162D02*X1120162D01*
X1120662Y419000D01*
Y420200D02*Y419000D01*
X1120162Y420700D02*X1120662Y420200D01*
X1118662Y420700D02*X1120162D01*
X1118662Y422500D02*Y418500D01*
X1118162Y422500D02*X1120162D01*
X1120662Y422000D01*
Y421200D01*
X1120162Y420700D02*X1120662Y421200D01*
X1121862Y422500D02*Y418500D01*
X1123862D01*
X1125062Y422500D02*Y419000D01*
X1125562Y418500D01*
X1126562D01*
X1127062Y419000D01*
Y422500D02*Y419000D01*
X1128262Y420700D02*X1129762D01*
X1128262Y418500D02*X1130262D01*
X1128262Y422500D02*Y418500D01*
Y422500D02*X1130262D01*
X1314028Y434500D02*X1315328D01*
X1313328Y435200D02*X1314028Y434500D01*
X1313328Y437800D02*Y435200D01*
Y437800D02*X1314028Y438500D01*
X1315328D01*
X1316528D02*Y434500D01*
X1319028Y438500D02*Y434500D01*
X1316528Y436500D02*X1319028D01*
X1320228Y437500D02*Y434500D01*
Y437500D02*X1320928Y438500D01*
X1322028D01*
X1322728Y437500D01*
Y434500D01*
X1320228Y436500D02*X1322728D01*
X1325928Y438500D02*X1326428Y438000D01*
X1324428Y438500D02*X1325928D01*
X1323928Y438000D02*X1324428Y438500D01*
X1323928Y438000D02*Y437000D01*
X1324428Y436500D01*
X1325928D01*
X1326428Y436000D01*
Y435000D01*
X1325928Y434500D02*X1326428Y435000D01*
X1324428Y434500D02*X1325928D01*
X1323928Y435000D02*X1324428Y434500D01*
X1329628Y438500D02*X1330128Y438000D01*
X1328128Y438500D02*X1329628D01*
X1327628Y438000D02*X1328128Y438500D01*
X1327628Y438000D02*Y437000D01*
X1328128Y436500D01*
X1329628D01*
X1330128Y436000D01*
Y435000D01*
X1329628Y434500D02*X1330128Y435000D01*
X1328128Y434500D02*X1329628D01*
X1327628Y435000D02*X1328128Y434500D01*
X1331328Y438500D02*X1332328D01*
X1331828D02*Y434500D01*
X1331328D02*X1332328D01*
X1335528Y438500D02*X1336028Y438000D01*
X1334028Y438500D02*X1335528D01*
X1333528Y438000D02*X1334028Y438500D01*
X1333528Y438000D02*Y437000D01*
X1334028Y436500D01*
X1335528D01*
X1336028Y436000D01*
Y435000D01*
X1335528Y434500D02*X1336028Y435000D01*
X1334028Y434500D02*X1335528D01*
X1333528Y435000D02*X1334028Y434500D01*
X1118162Y449500D02*Y447500D01*
X1118662Y445500D01*
X1119662Y447500D01*
X1120662Y445500D01*
X1121162Y447500D01*
Y449500D02*Y447500D01*
X1122362Y449500D02*X1123362D01*
X1122862D02*Y445500D01*
X1122362D02*X1123362D01*
X1124562Y449500D02*X1126562D01*
X1127062Y449000D01*
Y448000D01*
X1126562Y447500D02*X1127062Y448000D01*
X1125062Y447500D02*X1126562D01*
X1125062Y449500D02*Y445500D01*
X1125862Y447500D02*X1127062Y445500D01*
X1128262Y447700D02*X1129762D01*
X1128262Y445500D02*X1130262D01*
X1128262Y449500D02*Y445500D01*
Y449500D02*X1130262D01*
X1133962Y445500D02*X1135262D01*
X1133262Y446200D02*X1133962Y445500D01*
X1133262Y448800D02*Y446200D01*
Y448800D02*X1133962Y449500D01*
X1135262D01*
X1136462Y449000D02*Y446000D01*
Y449000D02*X1136962Y449500D01*
X1137962D01*
X1138462Y449000D01*
Y446000D01*
X1137962Y445500D02*X1138462Y446000D01*
X1136962Y445500D02*X1137962D01*
X1136462Y446000D02*X1136962Y445500D01*
X1139662Y449500D02*Y445500D01*
X1141662D01*
X1142862Y449000D02*Y446000D01*
Y449000D02*X1143362Y449500D01*
X1144362D01*
X1144862Y449000D01*
Y446000D01*
X1144362Y445500D02*X1144862Y446000D01*
X1143362Y445500D02*X1144362D01*
X1142862Y446000D02*X1143362Y445500D01*
X1146062Y449500D02*X1148062D01*
X1148562Y449000D01*
Y448000D01*
X1148062Y447500D02*X1148562Y448000D01*
X1146562Y447500D02*X1148062D01*
X1146562Y449500D02*Y445500D01*
X1147362Y447500D02*X1148562Y445500D01*
X1118162Y437500D02*Y435500D01*
X1118662Y433500D01*
X1119662Y435500D01*
X1120662Y433500D01*
X1121162Y435500D01*
Y437500D02*Y435500D01*
X1122362Y437500D02*Y433500D01*
X1124862Y437500D02*Y433500D01*
X1122362Y435500D02*X1124862D01*
X1126062Y437500D02*X1127062D01*
X1126562D02*Y433500D01*
X1126062D02*X1127062D01*
X1128262Y437500D02*X1130262D01*
X1129262D02*Y433500D01*
X1131462Y435700D02*X1132962D01*
X1131462Y433500D02*X1133462D01*
X1131462Y437500D02*Y433500D01*
Y437500D02*X1133462D01*
X1118662Y313500D02*Y309500D01*
X1118162Y313500D02*X1120162D01*
X1120662Y313000D01*
Y312000D01*
X1120162Y311500D02*X1120662Y312000D01*
X1118662Y311500D02*X1120162D01*
X1121862Y313500D02*Y310000D01*
X1122362Y309500D01*
X1123362D01*
X1123862Y310000D01*
Y313500D02*Y310000D01*
X1125062Y313500D02*X1127062D01*
X1127562Y313000D01*
Y312000D01*
X1127062Y311500D02*X1127562Y312000D01*
X1125562Y311500D02*X1127062D01*
X1125562Y313500D02*Y309500D01*
X1126362Y311500D02*X1127562Y309500D01*
X1129262Y313500D02*Y309500D01*
X1128762Y313500D02*X1130762D01*
X1131262Y313000D01*
Y312000D01*
X1130762Y311500D02*X1131262Y312000D01*
X1129262Y311500D02*X1130762D01*
X1132462Y313500D02*Y309500D01*
X1134462D01*
X1135662Y311700D02*X1137162D01*
X1135662Y309500D02*X1137662D01*
X1135662Y313500D02*Y309500D01*
Y313500D02*X1137662D01*
X1118162Y324500D02*X1120162D01*
X1120662Y325000D01*
Y326200D02*Y325000D01*
X1120162Y326700D02*X1120662Y326200D01*
X1118662Y326700D02*X1120162D01*
X1118662Y328500D02*Y324500D01*
X1118162Y328500D02*X1120162D01*
X1120662Y328000D01*
Y327200D01*
X1120162Y326700D02*X1120662Y327200D01*
X1121862Y328500D02*Y324500D01*
X1123862D01*
X1125062Y327500D02*Y324500D01*
Y327500D02*X1125762Y328500D01*
X1126862D01*
X1127562Y327500D01*
Y324500D01*
X1125062Y326500D02*X1127562D01*
X1129462Y324500D02*X1130762D01*
X1128762Y325200D02*X1129462Y324500D01*
X1128762Y327800D02*Y325200D01*
Y327800D02*X1129462Y328500D01*
X1130762D01*
X1131962D02*Y324500D01*
Y326500D02*X1133962Y328500D01*
X1131962Y326500D02*X1133962Y324500D01*
X1118162Y344500D02*X1120162D01*
X1120662Y344000D01*
Y343000D01*
X1120162Y342500D02*X1120662Y343000D01*
X1118662Y342500D02*X1120162D01*
X1118662Y344500D02*Y340500D01*
X1119462Y342500D02*X1120662Y340500D01*
X1121862Y342700D02*X1123362D01*
X1121862Y340500D02*X1123862D01*
X1121862Y344500D02*Y340500D01*
Y344500D02*X1123862D01*
X1125562D02*Y340500D01*
X1126862Y344500D02*X1127562Y343800D01*
Y341200D01*
X1126862Y340500D02*X1127562Y341200D01*
X1125062Y340500D02*X1126862D01*
X1125062Y344500D02*X1126862D01*
X1120162Y391500D02*X1120662Y391000D01*
X1118662Y391500D02*X1120162D01*
X1118162Y391000D02*X1118662Y391500D01*
X1118162Y391000D02*Y388000D01*
X1118662Y387500D01*
X1120162D01*
X1120662Y388000D01*
Y389000D02*Y388000D01*
X1120162Y389500D02*X1120662Y389000D01*
X1119162Y389500D02*X1120162D01*
X1121862Y391500D02*X1123862D01*
X1124362Y391000D01*
Y390000D01*
X1123862Y389500D02*X1124362Y390000D01*
X1122362Y389500D02*X1123862D01*
X1122362Y391500D02*Y387500D01*
X1123162Y389500D02*X1124362Y387500D01*
X1125562Y389700D02*X1127062D01*
X1125562Y387500D02*X1127562D01*
X1125562Y391500D02*Y387500D01*
Y391500D02*X1127562D01*
X1128762Y389700D02*X1130262D01*
X1128762Y387500D02*X1130762D01*
X1128762Y391500D02*Y387500D01*
Y391500D02*X1130762D01*
X1131962D02*Y387500D01*
Y391500D02*X1134462Y387500D01*
Y391500D02*Y387500D01*
X1118162Y375500D02*X1119162Y373500D01*
X1120162Y375500D01*
X1119162Y373500D02*Y371500D01*
X1121362Y373700D02*X1122862D01*
X1121362Y371500D02*X1123362D01*
X1121362Y375500D02*Y371500D01*
Y375500D02*X1123362D01*
X1124562D02*Y371500D01*
X1126562D01*
X1127762Y375500D02*Y371500D01*
X1129762D01*
X1130962Y375000D02*Y372000D01*
Y375000D02*X1131462Y375500D01*
X1132462D01*
X1132962Y375000D01*
Y372000D01*
X1132462Y371500D02*X1132962Y372000D01*
X1131462Y371500D02*X1132462D01*
X1130962Y372000D02*X1131462Y371500D01*
X1134162Y375500D02*Y373500D01*
X1134662Y371500D01*
X1135662Y373500D01*
X1136662Y371500D01*
X1137162Y373500D01*
Y375500D02*Y373500D01*
X1059996Y342500D02*X1061996D01*
X1060996Y343500D02*Y341500D01*
X1063196Y344500D02*X1065196D01*
X1063196D02*Y342500D01*
X1063696Y343000D01*
X1064696D01*
X1065196Y342500D01*
Y341000D01*
X1064696Y340500D02*X1065196Y341000D01*
X1063696Y340500D02*X1064696D01*
X1063196Y341000D02*X1063696Y340500D01*
X1066396Y344500D02*X1067396Y340500D01*
X1068396Y344500D01*
X1070096D02*Y340500D01*
X1071396Y344500D02*X1072096Y343800D01*
Y341200D01*
X1071396Y340500D02*X1072096Y341200D01*
X1069596Y340500D02*X1071396D01*
X1069596Y344500D02*X1071396D01*
X1060996Y358500D02*X1062996D01*
X1061996Y359500D02*Y357500D01*
X1064196Y359700D02*X1064996Y360500D01*
Y356500D01*
X1064196D02*X1065696D01*
X1067396D02*X1069396Y360500D01*
X1066896D02*X1069396D01*
X1070596D02*X1071596Y356500D01*
X1072596Y360500D01*
X1060996Y373500D02*X1062996D01*
X1061996Y374500D02*Y372500D01*
X1064196Y374700D02*X1064996Y375500D01*
Y371500D01*
X1064196D02*X1065696D01*
X1066896Y375500D02*X1068896D01*
X1066896D02*Y373500D01*
X1067396Y374000D01*
X1068396D01*
X1068896Y373500D01*
Y372000D01*
X1068396Y371500D02*X1068896Y372000D01*
X1067396Y371500D02*X1068396D01*
X1066896Y372000D02*X1067396Y371500D01*
X1070096Y375500D02*X1071096Y371500D01*
X1072096Y375500D01*
X1060996Y389500D02*X1062996D01*
X1064196Y390700D02*X1064996Y391500D01*
Y387500D01*
X1064196D02*X1065696D01*
X1066896Y391500D02*X1068896D01*
X1066896D02*Y389500D01*
X1067396Y390000D01*
X1068396D01*
X1068896Y389500D01*
Y388000D01*
X1068396Y387500D02*X1068896Y388000D01*
X1067396Y387500D02*X1068396D01*
X1066896Y388000D02*X1067396Y387500D01*
X1070096Y391500D02*X1071096Y387500D01*
X1072096Y391500D01*
X1058696Y418500D02*X1059996D01*
X1057996Y419200D02*X1058696Y418500D01*
X1057996Y421800D02*Y419200D01*
Y421800D02*X1058696Y422500D01*
X1059996D01*
X1061196Y422000D02*Y419000D01*
Y422000D02*X1061696Y422500D01*
X1062696D01*
X1063196Y422000D01*
Y419000D01*
X1062696Y418500D02*X1063196Y419000D01*
X1061696Y418500D02*X1062696D01*
X1061196Y419000D02*X1061696Y418500D01*
X1064396Y422500D02*Y418500D01*
Y422500D02*X1065896Y420500D01*
X1067396Y422500D01*
Y418500D01*
X1068596Y422500D02*Y418500D01*
Y422500D02*X1070096Y420500D01*
X1071596Y422500D01*
Y418500D01*
X1072796Y422000D02*Y419000D01*
Y422000D02*X1073296Y422500D01*
X1074296D01*
X1074796Y422000D01*
Y419000D01*
X1074296Y418500D02*X1074796Y419000D01*
X1073296Y418500D02*X1074296D01*
X1072796Y419000D02*X1073296Y418500D01*
X1075996Y422500D02*Y418500D01*
Y422500D02*X1078496Y418500D01*
Y422500D02*Y418500D01*
X1060996Y404500D02*X1062996D01*
X1064196Y405700D02*X1064996Y406500D01*
Y402500D01*
X1064196D02*X1065696D01*
X1067396D02*X1069396Y406500D01*
X1066896D02*X1069396D01*
X1070596D02*X1071596Y402500D01*
X1072596Y406500D01*
X1057696Y434500D02*X1058996D01*
X1056996Y435200D02*X1057696Y434500D01*
X1056996Y437800D02*Y435200D01*
Y437800D02*X1057696Y438500D01*
X1058996D01*
X1060196D02*Y434500D01*
X1062696Y438500D02*Y434500D01*
X1060196Y436500D02*X1062696D01*
X1063896Y437500D02*Y434500D01*
Y437500D02*X1064596Y438500D01*
X1065696D01*
X1066396Y437500D01*
Y434500D01*
X1063896Y436500D02*X1066396D01*
X1069596Y438500D02*X1070096Y438000D01*
X1068096Y438500D02*X1069596D01*
X1067596Y438000D02*X1068096Y438500D01*
X1067596Y438000D02*Y437000D01*
X1068096Y436500D01*
X1069596D01*
X1070096Y436000D01*
Y435000D01*
X1069596Y434500D02*X1070096Y435000D01*
X1068096Y434500D02*X1069596D01*
X1067596Y435000D02*X1068096Y434500D01*
X1073296Y438500D02*X1073796Y438000D01*
X1071796Y438500D02*X1073296D01*
X1071296Y438000D02*X1071796Y438500D01*
X1071296Y438000D02*Y437000D01*
X1071796Y436500D01*
X1073296D01*
X1073796Y436000D01*
Y435000D01*
X1073296Y434500D02*X1073796Y435000D01*
X1071796Y434500D02*X1073296D01*
X1071296Y435000D02*X1071796Y434500D01*
X1074996Y438500D02*X1075996D01*
X1075496D02*Y434500D01*
X1074996D02*X1075996D01*
X1079196Y438500D02*X1079696Y438000D01*
X1077696Y438500D02*X1079196D01*
X1077196Y438000D02*X1077696Y438500D01*
X1077196Y438000D02*Y437000D01*
X1077696Y436500D01*
X1079196D01*
X1079696Y436000D01*
Y435000D01*
X1079196Y434500D02*X1079696Y435000D01*
X1077696Y434500D02*X1079196D01*
X1077196Y435000D02*X1077696Y434500D01*
X1061996Y110500D02*X1062496Y110000D01*
X1060496Y110500D02*X1061996D01*
X1059996Y110000D02*X1060496Y110500D01*
X1059996Y110000D02*Y109000D01*
X1060496Y108500D01*
X1061996D01*
X1062496Y108000D01*
Y107000D01*
X1061996Y106500D02*X1062496Y107000D01*
X1060496Y106500D02*X1061996D01*
X1059996Y107000D02*X1060496Y106500D01*
X1063696Y110500D02*X1064696Y108500D01*
X1065696Y110500D01*
X1064696Y108500D02*Y106500D01*
X1066896Y110500D02*Y106500D01*
Y110500D02*X1069396Y106500D01*
Y110500D02*Y106500D01*
X1071296D02*X1072596D01*
X1070596Y107200D02*X1071296Y106500D01*
X1070596Y109800D02*Y107200D01*
Y109800D02*X1071296Y110500D01*
X1072596D01*
X1073796D02*Y106500D01*
Y110500D02*X1076296Y106500D01*
Y110500D02*Y106500D01*
X1062996Y126500D02*X1063996D01*
X1063496D02*Y122500D01*
X1062996D02*X1063996D01*
X1065196Y126500D02*X1067196D01*
X1067696Y126000D01*
Y125000D01*
X1067196Y124500D02*X1067696Y125000D01*
X1065696Y124500D02*X1067196D01*
X1065696Y126500D02*Y122500D01*
X1066496Y124500D02*X1067696Y122500D01*
X1068896Y126000D02*Y123000D01*
Y126000D02*X1069396Y126500D01*
X1070396D01*
X1070896Y126000D01*
Y123500D01*
X1069896Y122500D02*X1070896Y123500D01*
X1069396Y122500D02*X1069896D01*
X1068896Y123000D02*X1069396Y122500D01*
X1069896Y124000D02*X1070896Y122500D01*
X1072096Y126000D02*X1072596Y126500D01*
X1073596D01*
X1074096Y126000D01*
X1073596Y122500D02*X1074096Y123000D01*
X1072596Y122500D02*X1073596D01*
X1072096Y123000D02*X1072596Y122500D01*
Y124700D02*X1073596D01*
X1074096Y126000D02*Y125200D01*
Y124200D02*Y123000D01*
Y124200D02*X1073596Y124700D01*
X1074096Y125200D02*X1073596Y124700D01*
X1062996Y141500D02*X1063996D01*
X1063496D02*Y137500D01*
X1062996D02*X1063996D01*
X1065196Y141500D02*X1067196D01*
X1067696Y141000D01*
Y140000D01*
X1067196Y139500D02*X1067696Y140000D01*
X1065696Y139500D02*X1067196D01*
X1065696Y141500D02*Y137500D01*
X1066496Y139500D02*X1067696Y137500D01*
X1068896Y141000D02*Y138000D01*
Y141000D02*X1069396Y141500D01*
X1070396D01*
X1070896Y141000D01*
Y138500D01*
X1069896Y137500D02*X1070896Y138500D01*
X1069396Y137500D02*X1069896D01*
X1068896Y138000D02*X1069396Y137500D01*
X1069896Y139000D02*X1070896Y137500D01*
X1072096Y140700D02*X1072896Y141500D01*
Y137500D01*
X1072096D02*X1073596D01*
X1059996Y157500D02*X1061996D01*
X1062496Y157000D01*
Y156000D01*
X1061996Y155500D02*X1062496Y156000D01*
X1060496Y155500D02*X1061996D01*
X1060496Y157500D02*Y153500D01*
X1061296Y155500D02*X1062496Y153500D01*
X1063696Y155700D02*X1065196D01*
X1063696Y153500D02*X1065696D01*
X1063696Y157500D02*Y153500D01*
Y157500D02*X1065696D01*
X1068896D02*X1069396Y157000D01*
X1067396Y157500D02*X1068896D01*
X1066896Y157000D02*X1067396Y157500D01*
X1066896Y157000D02*Y156000D01*
X1067396Y155500D01*
X1068896D01*
X1069396Y155000D01*
Y154000D01*
X1068896Y153500D02*X1069396Y154000D01*
X1067396Y153500D02*X1068896D01*
X1066896Y154000D02*X1067396Y153500D01*
X1070596Y155700D02*X1072096D01*
X1070596Y153500D02*X1072596D01*
X1070596Y157500D02*Y153500D01*
Y157500D02*X1072596D01*
X1073796D02*X1075796D01*
X1074796D02*Y153500D01*
X1064996Y172500D02*Y169500D01*
Y172500D02*X1065696Y173500D01*
X1066796D01*
X1067496Y172500D01*
Y169500D01*
X1064996Y171500D02*X1067496D01*
X1068696Y173000D02*X1069196Y173500D01*
X1070196D01*
X1070696Y173000D01*
X1070196Y169500D02*X1070696Y170000D01*
X1069196Y169500D02*X1070196D01*
X1068696Y170000D02*X1069196Y169500D01*
Y171700D02*X1070196D01*
X1070696Y173000D02*Y172200D01*
Y171200D02*Y170000D01*
Y171200D02*X1070196Y171700D01*
X1070696Y172200D02*X1070196Y171700D01*
X1064996Y187500D02*Y184500D01*
Y187500D02*X1065696Y188500D01*
X1066796D01*
X1067496Y187500D01*
Y184500D01*
X1064996Y186500D02*X1067496D01*
X1068696Y187700D02*X1069496Y188500D01*
Y184500D01*
X1068696D02*X1070196D01*
X1061996Y203500D02*X1063996D01*
X1064496Y203000D01*
Y202000D01*
X1063996Y201500D02*X1064496Y202000D01*
X1062496Y201500D02*X1063996D01*
X1062496Y203500D02*Y199500D01*
X1063296Y201500D02*X1064496Y199500D01*
X1065696Y200000D02*X1068696Y203000D01*
X1069896Y203500D02*Y201500D01*
X1070396Y199500D01*
X1071396Y201500D01*
X1072396Y199500D01*
X1072896Y201500D01*
Y203500D02*Y201500D01*
X384832Y490400D02*Y54400D01*
X343832Y490400D02*Y54400D01*
Y459900D02*X384832D01*
X343832Y84900D02*X384832D01*
X367482Y452200D02*Y92600D01*
X361182Y452200D02*Y92600D01*
X367482D01*
X361212Y452200D02*X367482D01*
X343832Y490400D02*X384832D01*
X343832Y54400D02*X384832D01*
X551498Y490400D02*Y54400D01*
X510498Y490400D02*Y54400D01*
Y459900D02*X551498D01*
X510498Y84900D02*X551498D01*
X534148Y452200D02*Y92600D01*
X527848Y452200D02*Y92600D01*
X534148D01*
X527878Y452200D02*X534148D01*
X510498Y490400D02*X551498D01*
X510498Y54400D02*X551498D01*
X718164Y490400D02*Y54400D01*
X677164Y490400D02*Y54400D01*
Y459900D02*X718164D01*
X677164Y84900D02*X718164D01*
X700814Y452200D02*Y92600D01*
X694514Y452200D02*Y92600D01*
X700814D01*
X694544Y452200D02*X700814D01*
X677164Y490400D02*X718164D01*
X677164Y54400D02*X718164D01*
X51500Y490400D02*Y54400D01*
X10500Y490400D02*Y54400D01*
Y459900D02*X51500D01*
X10500Y84900D02*X51500D01*
X34150Y452200D02*Y92600D01*
X27850Y452200D02*Y92600D01*
X34150D01*
X27880Y452200D02*X34150D01*
X10500Y490400D02*X51500D01*
X10500Y54400D02*X51500D01*
X218166Y490400D02*Y54400D01*
X177166Y490400D02*Y54400D01*
Y459900D02*X218166D01*
X177166Y84900D02*X218166D01*
X200816Y452200D02*Y92600D01*
X194516Y452200D02*Y92600D01*
X200816D01*
X194546Y452200D02*X200816D01*
X177166Y490400D02*X218166D01*
X177166Y54400D02*X218166D01*
X1551494Y490400D02*Y54400D01*
X1510494Y490400D02*Y54400D01*
Y459900D02*X1551494D01*
X1510494Y84900D02*X1551494D01*
X1534144Y452200D02*Y92600D01*
X1527844Y452200D02*Y92600D01*
X1534144D01*
X1527874Y452200D02*X1534144D01*
X1510494Y490400D02*X1551494D01*
X1510494Y54400D02*X1551494D01*
X1384828Y490400D02*Y54400D01*
X1343828Y490400D02*Y54400D01*
Y459900D02*X1384828D01*
X1343828Y84900D02*X1384828D01*
X1367478Y452200D02*Y92600D01*
X1361178Y452200D02*Y92600D01*
X1367478D01*
X1361208Y452200D02*X1367478D01*
X1343828Y490400D02*X1384828D01*
X1343828Y54400D02*X1384828D01*
X1218162Y490400D02*Y54400D01*
X1177162Y490400D02*Y54400D01*
Y459900D02*X1218162D01*
X1177162Y84900D02*X1218162D01*
X1200812Y452200D02*Y92600D01*
X1194512Y452200D02*Y92600D01*
X1200812D01*
X1194542Y452200D02*X1200812D01*
X1177162Y490400D02*X1218162D01*
X1177162Y54400D02*X1218162D01*
X1051496Y490400D02*Y54400D01*
X1010496Y490400D02*Y54400D01*
Y459900D02*X1051496D01*
X1010496Y84900D02*X1051496D01*
X1034146Y452200D02*Y92600D01*
X1027846Y452200D02*Y92600D01*
X1034146D01*
X1027876Y452200D02*X1034146D01*
X1010496Y490400D02*X1051496D01*
X1010496Y54400D02*X1051496D01*
X884830Y490400D02*Y54400D01*
X843830Y490400D02*Y54400D01*
Y459900D02*X884830D01*
X843830Y84900D02*X884830D01*
X867480Y452200D02*Y92600D01*
X861180Y452200D02*Y92600D01*
X867480D01*
X861210Y452200D02*X867480D01*
X843830Y490400D02*X884830D01*
X843830Y54400D02*X884830D01*
X387332Y280700D02*Y279400D01*
X388032Y281400D02*X387332Y280700D01*
X388032Y281400D02*X390632D01*
X391332Y280700D01*
Y279400D01*
X387832Y278200D02*X390832D01*
X391332Y277700D01*
Y276700D01*
X390832Y276200D01*
X387832D02*X390832D01*
X387332Y276700D02*X387832Y276200D01*
X387332Y277700D02*Y276700D01*
X387832Y278200D02*X387332Y277700D01*
Y275000D02*X391332D01*
X387332Y272500D01*
X391332D01*
X387332Y271300D02*X391332D01*
X387332Y268800D01*
X391332D01*
X390532Y267600D02*X391332Y266800D01*
X387332D02*X391332D01*
X387332Y267600D02*Y266100D01*
Y264400D02*X391332Y262400D01*
Y264900D02*Y262400D01*
X553998Y280700D02*Y279400D01*
X554698Y281400D02*X553998Y280700D01*
X554698Y281400D02*X557298D01*
X557998Y280700D01*
Y279400D01*
X554498Y278200D02*X557498D01*
X557998Y277700D01*
Y276700D01*
X557498Y276200D01*
X554498D02*X557498D01*
X553998Y276700D02*X554498Y276200D01*
X553998Y277700D02*Y276700D01*
X554498Y278200D02*X553998Y277700D01*
Y275000D02*X557998D01*
X553998Y272500D01*
X557998D01*
X553998Y271300D02*X557998D01*
X553998Y268800D01*
X557998D01*
X557198Y267600D02*X557998Y266800D01*
X553998D02*X557998D01*
X553998Y267600D02*Y266100D01*
X557998Y263400D02*X557498Y262900D01*
X557998Y264400D02*Y263400D01*
X557498Y264900D02*X557998Y264400D01*
X554498Y264900D02*X557498D01*
X554498D02*X553998Y264400D01*
X556198Y263400D02*X555698Y262900D01*
X556198Y264900D02*Y263400D01*
X553998Y264400D02*Y263400D01*
X554498Y262900D01*
X555698D01*
X720664Y280700D02*Y279400D01*
X721364Y281400D02*X720664Y280700D01*
X721364Y281400D02*X723964D01*
X724664Y280700D01*
Y279400D01*
X721164Y278200D02*X724164D01*
X724664Y277700D01*
Y276700D01*
X724164Y276200D01*
X721164D02*X724164D01*
X720664Y276700D02*X721164Y276200D01*
X720664Y277700D02*Y276700D01*
X721164Y278200D02*X720664Y277700D01*
Y275000D02*X724664D01*
X720664Y272500D01*
X724664D01*
X720664Y271300D02*X724664D01*
X720664Y268800D01*
X724664D01*
X723864Y267600D02*X724664Y266800D01*
X720664D02*X724664D01*
X720664Y267600D02*Y266100D01*
X724664Y264900D02*Y262900D01*
X722664Y264900D02*X724664D01*
X722664D02*X723164Y264400D01*
Y263400D01*
X722664Y262900D01*
X721164D02*X722664D01*
X720664Y263400D02*X721164Y262900D01*
X720664Y264400D02*Y263400D01*
X721164Y264900D02*X720664Y264400D01*
X887330Y280700D02*Y279400D01*
X888030Y281400D02*X887330Y280700D01*
X888030Y281400D02*X890630D01*
X891330Y280700D01*
Y279400D01*
X887830Y278200D02*X890830D01*
X891330Y277700D01*
Y276700D01*
X890830Y276200D01*
X887830D02*X890830D01*
X887330Y276700D02*X887830Y276200D01*
X887330Y277700D02*Y276700D01*
X887830Y278200D02*X887330Y277700D01*
Y275000D02*X891330D01*
X887330Y272500D01*
X891330D01*
X887330Y271300D02*X891330D01*
X887330Y268800D01*
X891330D01*
X890530Y267600D02*X891330Y266800D01*
X887330D02*X891330D01*
X887330Y267600D02*Y266100D01*
X888830Y264900D02*X891330Y262900D01*
X888830Y264900D02*Y262400D01*
X887330Y262900D02*X891330D01*
X54000Y280700D02*Y279400D01*
X54700Y281400D02*X54000Y280700D01*
X54700Y281400D02*X57300D01*
X58000Y280700D01*
Y279400D01*
X54500Y278200D02*X57500D01*
X58000Y277700D01*
Y276700D01*
X57500Y276200D01*
X54500D02*X57500D01*
X54000Y276700D02*X54500Y276200D01*
X54000Y277700D02*Y276700D01*
X54500Y278200D02*X54000Y277700D01*
Y275000D02*X58000D01*
X54000Y272500D01*
X58000D01*
X54000Y271300D02*X58000D01*
X54000Y268800D01*
X58000D01*
X57200Y267600D02*X58000Y266800D01*
X54000D02*X58000D01*
X54000Y267600D02*Y266100D01*
Y264400D02*X56000Y262900D01*
X57500D01*
X58000Y263400D02*X57500Y262900D01*
X58000Y264400D02*Y263400D01*
X57500Y264900D02*X58000Y264400D01*
X56500Y264900D02*X57500D01*
X56500D02*X56000Y264400D01*
Y262900D01*
X220666Y280700D02*Y279400D01*
X221366Y281400D02*X220666Y280700D01*
X221366Y281400D02*X223966D01*
X224666Y280700D01*
Y279400D01*
X221166Y278200D02*X224166D01*
X224666Y277700D01*
Y276700D01*
X224166Y276200D01*
X221166D02*X224166D01*
X220666Y276700D02*X221166Y276200D01*
X220666Y277700D02*Y276700D01*
X221166Y278200D02*X220666Y277700D01*
Y275000D02*X224666D01*
X220666Y272500D01*
X224666D01*
X220666Y271300D02*X224666D01*
X220666Y268800D01*
X224666D01*
X223866Y267600D02*X224666Y266800D01*
X220666D02*X224666D01*
X220666Y267600D02*Y266100D01*
X221166Y264900D02*X220666Y264400D01*
X221166Y264900D02*X221966D01*
X222666Y264200D01*
Y263600D01*
X221966Y262900D01*
X221166D02*X221966D01*
X220666Y263400D02*X221166Y262900D01*
X220666Y264400D02*Y263400D01*
X223366Y264900D02*X222666Y264200D01*
X223366Y264900D02*X224166D01*
X224666Y264400D01*
Y263400D01*
X224166Y262900D01*
X223366D02*X224166D01*
X222666Y263600D02*X223366Y262900D01*
X1553994Y280700D02*Y279400D01*
X1554694Y281400D02*X1553994Y280700D01*
X1554694Y281400D02*X1557294D01*
X1557994Y280700D01*
Y279400D01*
X1554494Y278200D02*X1557494D01*
X1557994Y277700D01*
Y276700D01*
X1557494Y276200D01*
X1554494D02*X1557494D01*
X1553994Y276700D02*X1554494Y276200D01*
X1553994Y277700D02*Y276700D01*
X1554494Y278200D02*X1553994Y277700D01*
Y275000D02*X1557994D01*
X1553994Y272500D01*
X1557994D01*
X1553994Y271300D02*X1557994D01*
X1553994Y268800D01*
X1557994D01*
X1557194Y267600D02*X1557994Y266800D01*
X1553994D02*X1557994D01*
X1553994Y267600D02*Y266100D01*
X1554494Y264900D02*X1553994Y264400D01*
X1554494Y264900D02*X1557494D01*
X1557994Y264400D01*
Y263400D01*
X1557494Y262900D01*
X1554494D02*X1557494D01*
X1553994Y263400D02*X1554494Y262900D01*
X1553994Y264400D02*Y263400D01*
X1554994Y264900D02*X1556994Y262900D01*
X1387328Y280700D02*Y279400D01*
X1388028Y281400D02*X1387328Y280700D01*
X1388028Y281400D02*X1390628D01*
X1391328Y280700D01*
Y279400D01*
X1387828Y278200D02*X1390828D01*
X1391328Y277700D01*
Y276700D01*
X1390828Y276200D01*
X1387828D02*X1390828D01*
X1387328Y276700D02*X1387828Y276200D01*
X1387328Y277700D02*Y276700D01*
X1387828Y278200D02*X1387328Y277700D01*
Y275000D02*X1391328D01*
X1387328Y272500D01*
X1391328D01*
X1387328Y271300D02*X1391328D01*
X1387328Y268800D01*
X1391328D01*
X1390528Y267600D02*X1391328Y266800D01*
X1387328D02*X1391328D01*
X1387328Y267600D02*Y266100D01*
X1390528Y264900D02*X1391328Y264100D01*
X1387328D02*X1391328D01*
X1387328Y264900D02*Y263400D01*
X1220662Y280700D02*Y279400D01*
X1221362Y281400D02*X1220662Y280700D01*
X1221362Y281400D02*X1223962D01*
X1224662Y280700D01*
Y279400D01*
X1221162Y278200D02*X1224162D01*
X1224662Y277700D01*
Y276700D01*
X1224162Y276200D01*
X1221162D02*X1224162D01*
X1220662Y276700D02*X1221162Y276200D01*
X1220662Y277700D02*Y276700D01*
X1221162Y278200D02*X1220662Y277700D01*
Y275000D02*X1224662D01*
X1220662Y272500D01*
X1224662D01*
X1220662Y271300D02*X1224662D01*
X1220662Y268800D01*
X1224662D01*
X1223862Y267600D02*X1224662Y266800D01*
X1220662D02*X1224662D01*
X1220662Y267600D02*Y266100D01*
X1224162Y264900D02*X1224662Y264400D01*
Y262900D01*
X1224162Y262400D01*
X1223162D02*X1224162D01*
X1220662Y264900D02*X1223162Y262400D01*
X1220662Y264900D02*Y262400D01*
X1053996Y280700D02*Y279400D01*
X1054696Y281400D02*X1053996Y280700D01*
X1054696Y281400D02*X1057296D01*
X1057996Y280700D01*
Y279400D01*
X1054496Y278200D02*X1057496D01*
X1057996Y277700D01*
Y276700D01*
X1057496Y276200D01*
X1054496D02*X1057496D01*
X1053996Y276700D02*X1054496Y276200D01*
X1053996Y277700D02*Y276700D01*
X1054496Y278200D02*X1053996Y277700D01*
Y275000D02*X1057996D01*
X1053996Y272500D01*
X1057996D01*
X1053996Y271300D02*X1057996D01*
X1053996Y268800D01*
X1057996D01*
X1057196Y267600D02*X1057996Y266800D01*
X1053996D02*X1057996D01*
X1053996Y267600D02*Y266100D01*
X1057496Y264900D02*X1057996Y264400D01*
Y263400D01*
X1057496Y262900D01*
X1053996Y263400D02*X1054496Y262900D01*
X1053996Y264400D02*Y263400D01*
X1054496Y264900D02*X1053996Y264400D01*
X1056196D02*Y263400D01*
X1056696Y262900D02*X1057496D01*
X1054496D02*X1055696D01*
X1056196Y263400D01*
X1056696Y262900D02*X1056196Y263400D01*
M02*
